<?xml version="1.0" encoding="UTF-8"?>
<svg xmlns="http://www.w3.org/2000/svg" viewBox="0 0 1024 1024">
  <defs>
    <style>
      .cls-1 {
        stroke: #fff;
      }

      .cls-1, .cls-2, .cls-3, .cls-4, .cls-5, .cls-6, .cls-7, .cls-8, .cls-9, .cls-10, .cls-11, .cls-12, .cls-13, .cls-14, .cls-15, .cls-16, .cls-17, .cls-18, .cls-19, .cls-20, .cls-21 {
        stroke-linecap: round;
        stroke-linejoin: round;
      }

      .cls-1, .cls-2, .cls-16, .cls-17, .cls-18, .cls-19, .cls-21 {
        stroke-width: 1.37px;
      }

      .cls-1, .cls-4, .cls-9, .cls-20 {
        fill: none;
      }

      .cls-2, .cls-3, .cls-4, .cls-5, .cls-6, .cls-7, .cls-8, .cls-10, .cls-11, .cls-12, .cls-13, .cls-14, .cls-15, .cls-16, .cls-17, .cls-18, .cls-19, .cls-20, .cls-21 {
        stroke: #000;
      }

      .cls-3 {
        stroke-width: 1.84px;
      }

      .cls-22 {
        fill: #f7f7f7;
      }

      .cls-23, .cls-6, .cls-17 {
        fill: #e1d7f6;
      }

      .cls-4 {
        stroke-width: .9px;
      }

      .cls-5, .cls-11, .cls-12 {
        stroke-width: 1.64px;
      }

      .cls-6, .cls-7, .cls-8 {
        stroke-width: 1.67px;
      }

      .cls-7, .cls-15, .cls-21 {
        fill: #fff;
      }

      .cls-8, .cls-16 {
        fill: #c5b0f1;
      }

      .cls-9 {
        stroke: #868686;
        stroke-width: 1.15px;
      }

      .cls-10, .cls-13, .cls-14, .cls-15, .cls-20 {
        stroke-width: 1.5px;
      }

      .cls-24 {
        mix-blend-mode: multiply;
      }

      .cls-24, .cls-11 {
        fill: #7b2be6;
      }

      .cls-24, .cls-25 {
        opacity: .3;
      }

      .cls-12, .cls-19 {
        fill: #00e159;
      }

      .cls-26 {
        opacity: .5;
      }

      .cls-13 {
        fill: #d3c4f4;
      }

      .cls-14 {
        fill: #d38a66;
      }

      .cls-27 {
        isolation: isolate;
      }

      .cls-18 {
        fill: #a889ea;
      }
    </style>
  </defs>
  <g class="cls-27">
    <g id="Layer_1" data-name="Layer 1">
      <g>
        <g class="cls-25">
          <path class="cls-23" d="m945.01,513.07c-16.59,73.64-59.05,135.4-112.38,184.41-53.69,48.96-118.26,85.15-187.33,106.4-44.19,13.49-90.46,20.78-138.82,20.78-34.83,0-68.55-3.78-101.23-10.94-3.24-.7-6.49-1.46-9.71-2.23-75.12-18.25-145.49-54.05-204.41-104.42-58.46-50.45-105.47-115.47-123.2-194.01-22.04-96.27,8.49-197.42,88.18-275.72,78.48-78.08,206.11-133.31,350.37-132.71,144.25-.6,271.88,54.63,350.36,132.71,79.68,78.3,110.22,179.45,88.18,275.72Z"/>
        </g>
        <ellipse class="cls-22" cx="439.53" cy="918.49" rx="274.57" ry="59.94"/>
        <g>
          <g>
            <path class="cls-21" d="m361.71,380.56c-18.21,28.14-28.06,60.59-28.58,94.22H95.19c.55-82.64,25.17-162.15,71.28-230.32l71.75,50.01,123.49,86.09Z"/>
            <path class="cls-17" d="m446.23,311.23c-22.55,8.92-43.49,22.68-60.73,39.91-5.97,5.97-11.53,12.38-16.57,19.09l-123.47-86.08-71.77-50.03c48.66-67.51,115.25-118.33,192.9-147.22l29.37,82.73,50.26,141.61Z"/>
            <path class="cls-16" d="m645.52,82.68l-29.36,82.72-50.26,141.61c-17.39-5.48-35.52-8.27-53.9-8.27s-36.52,2.79-53.88,8.27l-50.27-141.61-29.36-82.72c42.88-14.5,87.78-21.85,133.51-21.85s90.64,7.35,133.52,21.85Z"/>
            <path class="cls-18" d="m850.31,234.11l-71.76,50.02-123.48,86.08c-5.04-6.72-10.62-13.12-16.57-19.08-17.47-17.47-37.89-30.89-60.73-39.91l50.27-141.61,29.36-82.73c77.65,28.89,144.24,79.72,192.9,147.22Z"/>
            <path class="cls-19" d="m928.81,474.78h-237.94c-.53-33.65-10.38-66.11-28.58-94.22l123.5-86.09,71.74-50.01c46.11,68.17,70.73,147.68,71.28,230.32Z"/>
            <g class="cls-26">
              <path class="cls-24" d="m238.22,294.47l123.49,86.09c-18.21,28.14-28.06,60.59-28.58,94.22h-150.93c.72-66.73,21.27-128.7,56.02-180.31Z"/>
              <path class="cls-24" d="m395.97,169.62l50.26,141.61c-22.55,8.92-43.49,22.68-60.73,39.91-5.97,5.97-11.53,12.38-16.57,19.09l-123.47-86.08c37.61-51.52,89.81-91.72,150.5-114.53Z"/>
              <path class="cls-24" d="m616.16,165.4l-50.26,141.61c-17.39-5.48-35.52-8.27-53.9-8.27s-36.52,2.79-53.88,8.27l-50.27-141.61c32.74-10.89,67.76-16.79,104.16-16.79s71.41,5.89,104.15,16.79Z"/>
              <path class="cls-24" d="m778.55,284.14l-123.48,86.08c-5.04-6.72-10.62-13.12-16.57-19.08-17.47-17.47-37.89-30.89-60.73-39.91l50.27-141.61c60.7,22.8,112.89,63,150.5,114.51Z"/>
              <path class="cls-24" d="m841.81,474.78h-150.94c-.53-33.65-10.38-66.11-28.58-94.22l123.5-86.09c34.75,51.62,55.3,113.59,56.02,180.31Z"/>
            </g>
            <g>
              <path class="cls-1" d="m724.85,264.12c4.77,4.29,9.44,8.7,13.98,13.25"/>
              <path class="cls-1" d="m663.3,219.68c19.34,11.05,37.58,23.86,54.52,38.3"/>
              <path class="cls-1" d="m649.2,190.83c28.88,13.32,55.84,30.42,80.26,50.91"/>
            </g>
            <g>
              <g>
                <path d="m138.65,424.26l1.75-15.35c.17-1.46.57-2.61,1.2-3.44.63-.83,1.36-1.45,2.17-1.87s1.66-.67,2.53-.74c.87-.08,1.62-.08,2.26,0,.64.07,1.38.25,2.22.54s1.61.73,2.31,1.33c.7.6,1.26,1.39,1.69,2.35.43.96.56,2.16.4,3.6l-1.19,10.49,9.13,1.04-.54,4.78-23.92-2.72Zm9.36-16.62c-.98-.11-1.89.03-2.72.44-.83.4-1.3,1.15-1.43,2.24l-1.09,9.57,7.58.86,1.08-9.53c.06-.5,0-.97-.18-1.39-.18-.42-.44-.79-.76-1.1-.33-.31-.71-.55-1.15-.74-.44-.18-.88-.3-1.33-.35Z"/>
                <path d="m155.68,400.61c-.53-.1-1.13-.25-1.82-.44-.68-.2-1.38-.49-2.08-.88-.7-.39-1.37-.88-2.01-1.48-.64-.6-1.16-1.35-1.58-2.26-.41-.91-.69-1.98-.83-3.22-.14-1.24-.05-2.68.26-4.34.31-1.63.74-3,1.3-4.12.56-1.12,1.2-2.03,1.9-2.75.7-.71,1.46-1.24,2.28-1.59.82-.35,1.62-.6,2.4-.73s1.55-.18,2.29-.12c.74.06,1.38.14,1.94.24.53.1,1.13.25,1.82.44.68.2,1.37.49,2.06.88.69.39,1.34.89,1.97,1.49.62.61,1.14,1.36,1.55,2.27.42.91.69,1.99.82,3.26.13,1.26.04,2.72-.27,4.38-.31,1.66-.76,3.05-1.33,4.18-.58,1.13-1.23,2.04-1.94,2.74-.72.7-1.47,1.21-2.27,1.55-.8.34-1.59.57-2.37.68-.78.11-1.53.14-2.24.07-.71-.06-1.33-.15-1.85-.25Zm-4.69-11.98c-.22,1.16-.23,2.16-.03,3.01.19.85.55,1.59,1.06,2.2.51.61,1.15,1.1,1.93,1.46.78.36,1.64.63,2.58.81.92.17,1.8.22,2.65.15.84-.07,1.61-.3,2.29-.67.68-.38,1.28-.94,1.79-1.69.51-.75.87-1.71,1.09-2.9.22-1.18.24-2.21.05-3.07-.19-.87-.54-1.6-1.06-2.2-.51-.6-1.15-1.09-1.91-1.46-.76-.37-1.6-.65-2.52-.82-.95-.18-1.85-.24-2.7-.18-.85.06-1.63.28-2.33.67-.7.39-1.3.96-1.79,1.73s-.86,1.75-1.09,2.96Z"/>
                <path d="m160.54,375.36c-.52-.13-1.11-.32-1.78-.57-.67-.24-1.34-.58-2.01-1.02-.67-.44-1.31-.98-1.9-1.62-.59-.64-1.07-1.43-1.42-2.36-.35-.93-.55-2.02-.6-3.27-.05-1.24.14-2.68.56-4.31.42-1.6.95-2.95,1.59-4.02.64-1.08,1.34-1.95,2.09-2.61.75-.66,1.55-1.14,2.38-1.43.84-.29,1.65-.48,2.45-.56.8-.08,1.56-.07,2.29.04s1.37.23,1.91.37c.52.14,1.11.33,1.78.57.67.24,1.33.58,1.99,1.02.66.44,1.28.98,1.86,1.63.58.65,1.04,1.44,1.39,2.37.35.94.55,2.04.59,3.31.04,1.27-.15,2.72-.57,4.35-.43,1.63-.97,2.99-1.62,4.08-.66,1.09-1.37,1.95-2.13,2.6-.76.64-1.55,1.11-2.37,1.39-.82.28-1.63.45-2.41.51-.79.06-1.54.03-2.24-.09-.7-.11-1.31-.24-1.83-.37Zm-3.84-12.28c-.3,1.14-.38,2.14-.25,3.01.13.86.43,1.62.9,2.27.47.65,1.08,1.18,1.82,1.6.75.42,1.59.75,2.52.99.91.24,1.78.35,2.63.33.85-.01,1.62-.18,2.33-.51.71-.33,1.34-.85,1.9-1.56.56-.71.99-1.65,1.29-2.81.3-1.16.39-2.19.26-3.06-.13-.88-.43-1.63-.9-2.27-.47-.63-1.07-1.16-1.8-1.59s-1.55-.76-2.46-.99c-.93-.24-1.83-.37-2.68-.37-.86,0-1.65.17-2.37.5-.72.34-1.36.87-1.91,1.6-.55.73-.98,1.69-1.29,2.88Z"/>
                <path d="m158.07,345.99l4.14-12.32c.4-1.19.93-2.09,1.58-2.69.65-.6,1.34-1.01,2.06-1.23.72-.22,1.44-.3,2.15-.23s1.32.19,1.83.36c.58.2,1.19.52,1.81.97.63.45,1.15,1.01,1.57,1.69.31.5.52,1.04.62,1.63.1.58.12,1.19.05,1.81.19-.08.38-.14.55-.2.17-.05.34-.12.51-.21l8.92-3.35-1.79,5.33-9.74,3.8-1.38,4.11,7.61,2.56-1.47,4.37-19.02-6.39Zm10.31-11.78c-.61-.2-1.23-.22-1.87-.04-.64.18-1.08.64-1.33,1.37l-2.4,7.15,4.91,1.65,2.39-7.11c.11-.33.14-.66.08-.99-.06-.33-.17-.63-.33-.9-.16-.27-.38-.5-.63-.7-.26-.2-.53-.35-.81-.44Z"/>
              </g>
              <g>
                <path d="m241.19,195.54l14.09-14.34,2.6,2.56-10.72,10.9,5.24,5.15,9.31-9.47,2.58,2.53-9.31,9.47,6.75,6.64-3.38,3.43-17.17-16.88Z"/>
                <path d="m282.24,183.65l-7.06,6.31,1.37,4.42-3.77,3.37-6.31-21.27,3.35-2.99,20.4,8.68-3.77,3.37-4.21-1.89Zm-8.23,2.78l4.85-4.33-5.57-2.5-1.96-.99.79,2.03,1.89,5.79Z"/>
                <path d="m280.61,164.32l3.59-2.9,12.62,15.6-3.59,2.9-12.62-15.6Z"/>
                <path d="m290.03,156.71l10.5-7.66c1.02-.74,1.96-1.17,2.84-1.28.88-.11,1.68-.05,2.4.19.72.24,1.35.59,1.89,1.06.54.47.97.92,1.28,1.35.36.5.67,1.11.92,1.84.25.73.35,1.49.3,2.29-.03.59-.18,1.15-.44,1.68-.26.53-.59,1.04-1.01,1.51.2.05.39.1.56.16.17.06.35.1.54.13l9.21,2.42-4.54,3.31-10.14-2.53-3.5,2.55,4.73,6.48-3.73,2.72-11.82-16.21Zm15.22-3.65c-.38-.52-.88-.89-1.51-1.11-.63-.22-1.25-.1-1.88.35l-6.09,4.45,3.05,4.18,6.06-4.42c.28-.2.49-.46.64-.76.14-.3.22-.61.24-.92s-.02-.62-.11-.94c-.09-.31-.23-.59-.4-.82Z"/>
              </g>
              <g>
                <path d="m476.81,85.13c-.41-1.57-1.22-2.7-2.42-3.41-1.2-.71-2.88-.93-5.06-.65-1.41.18-2.57.55-3.48,1.13-.91.57-1.63,1.29-2.16,2.13-.53.85-.86,1.81-.99,2.9-.13,1.08-.12,2.22.03,3.41.15,1.17.43,2.25.86,3.25.42,1,1,1.85,1.74,2.55.74.7,1.63,1.21,2.68,1.52s2.29.38,3.73.19c.93-.12,1.81-.31,2.64-.58.83-.27,1.55-.64,2.16-1.12.61-.48,1.07-1.08,1.37-1.79.3-.71.39-1.57.26-2.58l-7.88,1-.45-3.58,12.5-1.59.48,3.82c.15,1.22.07,2.38-.27,3.47-.33,1.09-.94,2.08-1.81,2.96-.87.88-2.02,1.63-3.44,2.26-1.42.62-3.12,1.06-5.11,1.32-1.91.27-3.58.28-5.01.03-1.43-.25-2.66-.65-3.69-1.21-1.03-.56-1.88-1.24-2.55-2.04-.67-.8-1.21-1.64-1.63-2.5-.42-.86-.73-1.71-.93-2.53-.2-.82-.34-1.55-.42-2.19-.08-.64-.13-1.38-.14-2.23-.01-.85.06-1.74.23-2.68.16-.94.47-1.88.92-2.83.45-.95,1.08-1.83,1.91-2.65.83-.82,1.89-1.53,3.19-2.12,1.3-.6,2.9-1.03,4.81-1.3,2.07-.26,3.85-.23,5.33.09,1.48.32,2.73.83,3.75,1.51,1.02.68,1.81,1.48,2.39,2.39.57.91.99,1.82,1.24,2.74l-4.78.93Z"/>
                <path d="m486.28,89.86c-.03-.53-.03-1.16,0-1.87.03-.71.15-1.45.36-2.23.21-.78.53-1.54.96-2.3.43-.76,1.03-1.45,1.82-2.07.78-.62,1.76-1.14,2.93-1.56,1.17-.42,2.6-.68,4.28-.77,1.66-.09,3.09,0,4.32.29,1.22.28,2.26.68,3.12,1.2.86.52,1.55,1.13,2.09,1.84.53.71.96,1.43,1.28,2.16.32.73.54,1.47.66,2.2.12.73.19,1.38.22,1.94.03.53.03,1.16,0,1.87-.03.71-.15,1.45-.36,2.21-.21.76-.54,1.52-.98,2.26-.44.75-1.06,1.43-1.84,2.05-.78.62-1.77,1.14-2.97,1.56-1.2.43-2.64.68-4.32.77s-3.14-.01-4.38-.31c-1.24-.3-2.28-.71-3.12-1.24-.85-.53-1.53-1.14-2.05-1.84s-.93-1.41-1.22-2.15c-.29-.73-.49-1.45-.6-2.16-.1-.7-.17-1.32-.2-1.86Zm10.54-7.39c-1.18.06-2.15.29-2.94.68s-1.41.91-1.89,1.55c-.47.64-.8,1.38-.97,2.22-.17.84-.23,1.74-.18,2.7.05.94.21,1.8.48,2.61.27.8.67,1.49,1.2,2.07.53.57,1.21,1.02,2.06,1.34.85.32,1.87.44,3.07.38,1.2-.06,2.2-.29,3-.68.8-.39,1.42-.91,1.89-1.55.46-.64.78-1.37.97-2.2.18-.83.25-1.71.2-2.64-.05-.96-.21-1.85-.46-2.67-.26-.82-.66-1.52-1.2-2.11-.54-.59-1.24-1.03-2.1-1.33-.86-.3-1.9-.42-3.13-.36Z"/>
                <path d="m511.9,88.7c0-.53.04-1.16.11-1.86.07-.71.24-1.44.5-2.2s.63-1.51,1.1-2.24c.47-.73,1.12-1.38,1.94-1.95.82-.57,1.83-1.03,3.02-1.38,1.19-.35,2.63-.52,4.32-.51,1.66.01,3.09.2,4.29.55s2.21.82,3.04,1.38c.82.57,1.48,1.22,1.97,1.96.49.74.87,1.48,1.15,2.23.28.75.45,1.49.53,2.23.07.74.11,1.39.11,1.95,0,.54-.04,1.16-.11,1.87-.07.71-.24,1.44-.5,2.18-.26.75-.63,1.48-1.12,2.2s-1.14,1.36-1.96,1.93c-.82.57-1.84,1.03-3.06,1.38-1.22.35-2.67.52-4.36.51-1.69-.01-3.14-.2-4.35-.57-1.22-.37-2.23-.84-3.04-1.43-.81-.58-1.46-1.23-1.93-1.96s-.84-1.46-1.09-2.21c-.25-.75-.4-1.48-.47-2.19-.06-.71-.09-1.33-.09-1.87Zm10.96-6.75c-1.18,0-2.17.16-2.97.5-.8.34-1.46.82-1.98,1.43-.51.61-.88,1.33-1.1,2.16-.22.83-.33,1.72-.34,2.69,0,.94.1,1.81.32,2.63.22.82.58,1.53,1.07,2.13.49.6,1.15,1.09,1.98,1.46.83.37,1.84.55,3.05.56,1.2,0,2.21-.16,3.03-.5.82-.34,1.48-.82,1.98-1.43.5-.61.86-1.32,1.1-2.14.23-.81.35-1.69.36-2.63,0-.96-.09-1.86-.3-2.69-.21-.83-.57-1.56-1.07-2.17-.5-.62-1.18-1.1-2.02-1.46-.84-.35-1.88-.53-3.11-.54Z"/>
                <path d="m539.87,79.21l9.96.83c1.63.14,3.01.42,4.14.85,1.13.43,2.07.96,2.83,1.58.75.63,1.34,1.31,1.76,2.04.42.73.73,1.48.92,2.25.19.77.3,1.51.32,2.22.02.71.02,1.35,0,1.91-.05.53-.13,1.14-.25,1.83-.13.69-.35,1.39-.66,2.12-.32.73-.74,1.43-1.28,2.11s-1.24,1.27-2.1,1.78c-.86.51-1.91.88-3.13,1.13-1.23.25-2.68.3-4.36.16l-9.8-.82,1.67-20Zm15.33,11.3c.05-.96,0-1.85-.16-2.67-.16-.82-.46-1.53-.91-2.15s-1.07-1.12-1.87-1.52c-.8-.4-1.81-.65-3.04-.76l-5.04-.42-1.1,13.2,5.2.43c1.17.1,2.18,0,3.02-.27.84-.28,1.54-.7,2.1-1.25.56-.56.98-1.23,1.26-2.01s.46-1.64.54-2.57Z"/>
              </g>
              <g>
                <path d="m717.51,147.2l-.53,2.56,2.09-1.57,14.19-9.91,4.57,2.91-21.82,14.66-4.13-2.63,4-25.98,4.57,2.9-2.94,17.05Z"/>
                <path d="m739.63,147.49l14.3,10.5-2.04,2.78-10.58-7.77-2.87,3.91,9.19,6.75-2.02,2.75-9.18-6.75-2.92,3.98,10.71,7.86-2.02,2.75-14.43-10.59,11.88-16.17Z"/>
                <path d="m758.2,161.37l9.96,8.36c.96.81,1.6,1.63,1.92,2.45.32.83.45,1.62.39,2.37-.06.76-.25,1.45-.57,2.09-.32.64-.66,1.16-1,1.57-.4.47-.92.92-1.56,1.33-.65.42-1.36.7-2.15.84-.58.11-1.16.1-1.74-.02-.58-.12-1.15-.33-1.71-.62,0,.21,0,.4-.02.59-.01.18-.01.37,0,.55l-.14,9.53-4.3-3.61.03-10.46-3.32-2.79-5.16,6.15-3.54-2.97,12.9-15.37Zm7.2,13.9c.41-.49.65-1.07.72-1.73.06-.66-.2-1.24-.79-1.74l-5.78-4.85-3.33,3.97,5.75,4.82c.27.22.56.37.89.44.33.07.65.07.96.02s.6-.17.88-.33c.28-.17.51-.36.7-.59Z"/>
                <path d="m777.61,191.16l10.78-2.84,3.88,3.72-15.65,3.39-4.69,4.89-3.3-3.17,4.58-4.78,2.82-15.92,3.88,3.72-2.3,10.97Z"/>
                <g>
                  <path d="m699.51,178.98c.46-1.16.48-2.26.06-3.31-.43-1.05-1.4-2.04-2.93-2.98-1-.62-1.94-.99-2.8-1.11-.87-.12-1.68-.07-2.44.17-.76.24-1.45.65-2.08,1.24-.63.59-1.19,1.29-1.7,2.11-.49.8-.85,1.61-1.07,2.43-.22.82-.27,1.64-.14,2.46.13.82.46,1.59.99,2.33.54.74,1.32,1.42,2.34,2.05.64.39,1.29.72,1.96.99.67.27,1.31.42,1.93.46.62.04,1.2-.06,1.74-.3.54-.24,1-.67,1.39-1.31l-5.81-3.57,1.79-2.91,9.61,5.9-1.72,2.8c-.54.89-1.23,1.61-2.05,2.15-.82.55-1.77.88-2.84.99s-2.26-.01-3.56-.37c-1.3-.36-2.71-1-4.21-1.93-1.46-.9-2.62-1.81-3.47-2.74-.86-.93-1.49-1.86-1.89-2.79-.41-.92-.63-1.83-.66-2.72-.04-.89.03-1.72.19-2.5.16-.78.4-1.49.7-2.14.3-.65.59-1.2.87-1.65.42-.68,1.02-1.46,1.79-2.34.77-.88,1.76-1.58,2.97-2.11,1.2-.53,2.63-.74,4.27-.63,1.64.11,3.54.82,5.7,2.11,1.55.95,2.75,1.94,3.6,2.96.85,1.02,1.44,2.04,1.78,3.05.34,1.01.47,1.97.39,2.9-.08.92-.27,1.76-.58,2.52l-4.09-2.23Z"/>
                  <path d="m705.16,186.09c.31-.43.71-.92,1.18-1.45s1.03-1.04,1.69-1.5c.65-.47,1.39-.86,2.2-1.18.81-.32,1.72-.47,2.71-.46,1,.02,2.08.23,3.26.63,1.18.41,2.45,1.11,3.81,2.1,1.34.97,2.4,1.96,3.17,2.95.77.99,1.33,1.95,1.67,2.9.34.94.49,1.86.46,2.74s-.15,1.71-.37,2.49-.5,1.48-.87,2.12-.72,1.19-1.05,1.65c-.31.43-.71.92-1.18,1.45-.47.53-1.03,1.03-1.68,1.49-.65.46-1.37.84-2.19,1.14-.82.3-1.72.44-2.72.43s-2.1-.23-3.29-.66c-1.2-.42-2.48-1.13-3.84-2.12-1.36-.99-2.43-1.99-3.2-3-.77-1.01-1.32-1.98-1.64-2.93-.32-.95-.47-1.85-.43-2.72s.17-1.68.4-2.43c.23-.75.53-1.44.9-2.05s.7-1.14,1.02-1.57Zm12.84.9c-.95-.69-1.86-1.13-2.71-1.32-.85-.19-1.67-.19-2.44.01-.77.2-1.49.57-2.15,1.12-.66.54-1.27,1.21-1.84,1.99-.55.76-.97,1.53-1.27,2.33-.3.79-.42,1.58-.37,2.36s.3,1.56.76,2.34c.46.78,1.18,1.52,2.15,2.23.97.71,1.89,1.16,2.76,1.36.86.2,1.68.19,2.44-.01.76-.21,1.47-.57,2.14-1.1s1.27-1.17,1.82-1.93c.57-.78,1.01-1.57,1.32-2.36.31-.8.45-1.59.4-2.39-.05-.8-.31-1.58-.79-2.36-.48-.78-1.21-1.53-2.21-2.25Z"/>
                  <path d="m725.88,201.33c.35-.41.78-.86,1.29-1.35.51-.5,1.11-.95,1.8-1.37.69-.42,1.45-.75,2.28-1.01.83-.26,1.75-.34,2.74-.25.99.09,2.06.39,3.2.89,1.14.5,2.35,1.29,3.63,2.39,1.26,1.08,2.24,2.14,2.93,3.18.69,1.05,1.17,2.05,1.43,3.02.27.97.35,1.89.25,2.77-.1.88-.29,1.7-.56,2.45-.27.75-.62,1.43-1.03,2.05-.42.61-.81,1.13-1.17,1.56-.35.41-.78.86-1.29,1.35-.51.5-1.11.95-1.79,1.35-.68.4-1.44.73-2.27.96-.84.24-1.75.31-2.74.22s-2.07-.4-3.23-.91c-1.16-.52-2.38-1.32-3.66-2.41-1.28-1.09-2.27-2.17-2.96-3.24-.69-1.07-1.16-2.08-1.41-3.05-.25-.97-.32-1.88-.22-2.74.1-.86.3-1.66.59-2.4.29-.74.64-1.39,1.05-1.98.41-.58.79-1.08,1.14-1.48Zm12.73,1.89c-.89-.76-1.76-1.27-2.6-1.53s-1.65-.32-2.43-.18c-.79.14-1.53.45-2.23.94-.7.49-1.36,1.1-1.99,1.84-.61.71-1.09,1.45-1.45,2.22-.36.77-.54,1.54-.56,2.32-.02.78.18,1.58.57,2.39.4.81,1.05,1.61,1.97,2.39.92.78,1.8,1.3,2.64,1.57.84.26,1.66.32,2.43.18.78-.15,1.51-.46,2.22-.93.7-.47,1.36-1.07,1.96-1.78.63-.73,1.13-1.48,1.5-2.25.38-.77.57-1.55.58-2.35.01-.8-.19-1.6-.6-2.41-.42-.81-1.09-1.62-2.03-2.42Z"/>
                  <path d="m753.45,211.99l7.08,7.05c1.16,1.15,2.03,2.26,2.62,3.31.59,1.06.97,2.07,1.14,3.03s.18,1.86.03,2.7c-.15.83-.4,1.6-.75,2.31-.35.71-.74,1.34-1.19,1.9-.44.56-.85,1.05-1.23,1.46-.38.38-.84.79-1.37,1.24-.54.45-1.16.84-1.87,1.19-.71.35-1.49.61-2.34.79-.85.17-1.77.17-2.75,0-.98-.17-2.03-.55-3.12-1.16-1.1-.6-2.24-1.5-3.44-2.69l-6.96-6.94,14.16-14.21Zm4.43,18.52c.66-.7,1.19-1.42,1.6-2.15.4-.73.63-1.47.69-2.23.06-.76-.09-1.55-.44-2.37s-.96-1.67-1.83-2.54l-3.58-3.57-9.35,9.38,3.7,3.68c.83.83,1.66,1.41,2.49,1.74.82.33,1.63.46,2.41.39.78-.07,1.54-.31,2.26-.73.72-.42,1.41-.96,2.07-1.62Z"/>
                </g>
              </g>
              <g>
                <path d="m852.38,262.52l9.73,17.59-3.2,1.77-7.4-13.38-5.72,3.17,6.43,11.62-3.16,1.75-6.43-11.62-5.83,3.22,7.5,13.55-3.16,1.75-9.83-17.77,21.07-11.65Z"/>
                <path d="m859.11,297.93l7.97,1.99,2.38,5.09-12.07-3.18-5.77,12.39-2.38-5.09,3.98-8.46-9.02-2.34-2.36-5.05,13.17,3.46,5.29-11.33,2.38,5.09-3.57,7.43Z"/>
                <path d="m866.35,333.26c-.77.16-1.61.19-2.52.1-.91-.09-1.83-.39-2.76-.89-.93-.5-1.82-1.26-2.69-2.27-.87-1.01-1.62-2.34-2.26-3.99-.64-1.59-1.02-3.01-1.14-4.27-.12-1.26-.06-2.38.18-3.36.24-.98.6-1.83,1.1-2.56.49-.72,1.04-1.34,1.64-1.86s1.22-.95,1.85-1.28c.63-.33,1.2-.59,1.7-.79.75-.29,1.69-.55,2.84-.78,1.14-.23,2.36-.19,3.64.12,1.28.31,2.54,1,3.78,2.08,1.24,1.08,2.32,2.79,3.26,5.13.67,1.72,1.02,3.25,1.07,4.58.04,1.33-.11,2.5-.47,3.5s-.85,1.85-1.49,2.54c-.64.69-1.3,1.24-2,1.66l-1.93-4.2c1.13-.64,1.85-1.51,2.17-2.63.32-1.11.14-2.52-.52-4.21-.43-1.1-.95-1.96-1.56-2.58-.62-.62-1.3-1.07-2.05-1.34-.75-.27-1.55-.36-2.41-.27-.86.09-1.73.31-2.63.65-.87.34-1.64.77-2.31,1.31s-1.19,1.15-1.56,1.85-.57,1.51-.59,2.42c-.02.91.19,1.93.62,3.05.58,1.5,1.37,2.54,2.36,3.13.99.59,2.06.82,3.22.69l1.47,4.46Z"/>
                <path d="m880.5,333.89l5.34,16.91-3.29,1.04-3.95-12.51-4.63,1.46,3.43,10.87-3.25,1.03-3.43-10.87-4.71,1.49,4,12.67-3.25,1.03-5.39-17.07,19.13-6.05Z"/>
                <path d="m887.23,355.99l1.12,4.48-16.15,4.05,3.18,12.69-3.31.83-4.3-17.17,19.46-4.88Z"/>
                <path d="m892.48,377.87l.85,4.54-16.37,3.08,2.42,12.86-3.35.63-3.27-17.39,19.72-3.71Z"/>
                <path d="m896.42,400.03l2.22,17.6-3.42.43-1.65-13.02-4.82.61,1.43,11.31-3.38.43-1.43-11.31-4.9.62,1.67,13.18-3.38.43-2.24-17.76,19.91-2.51Z"/>
                <path d="m891.5,428.96l1.11-.87-13.22.78-.27-4.61,20.03-1.18.3,5.17-11.43,9.96-1.38,1.17,13.42-.79.27,4.61-20.03,1.18-.31-5.21,11.5-10.2Z"/>
                <path d="m900.38,448.31l.02,20.1h-3.41s0-7.74,0-7.74h-16.65s0-4.56,0-4.56h16.65s0-7.8,0-7.8h3.41Z"/>
              </g>
            </g>
          </g>
          <g>
            <circle class="cls-18" cx="512.01" cy="477.64" r="81.35"/>
            <circle class="cls-17" cx="512.01" cy="477.64" r="49.94"/>
            <path class="cls-2" d="m558.53,434.15l-32.01,51.03c-4.01,5.6-11.8,6.88-17.39,2.87-5.8-4.14-6.94-12.38-2.48-17.93l30.08-37.59c6.94,3.11,16.99-4.13,21.79,1.63Z"/>
            <path class="cls-21" d="m717.14,213.02l-167.15,233.03-28.06,39.12c-4.01,5.6-11.8,6.88-17.39,2.87-5.8-4.14-6.94-12.38-2.48-17.93l30.08-37.59,179.18-223.89c1.26-1.57,3.55-1.82,5.14-.57,1.51,1.23,1.8,3.42.68,4.98Z"/>
          </g>
        </g>
        <g>
          <path class="cls-7" d="m894.64,585.26c-.32.37-.63.73-.96,1.09-.35.38-.71.76-1.08,1.13-.12.13-.24.26-.37.39-.15.15-.3.28-.45.43-.37.36-.73.72-1.11,1.06-.62.57-1.25,1.13-1.91,1.68,0,0,0-.01-.01,0-.9.75-1.83,1.47-2.79,2.14-3.92,2.79-8.26,5.01-12.91,6.55-4.84,1.61-10.02,2.47-15.4,2.47h-69.15s-11.29,11.3-11.29,11.3c-3.17,3.17-8.3,3.17-11.47,0l-11.29-11.29h0s-74.53-.01-74.53-.01c-2.11,0-4.19-.14-6.23-.39-.41-.05-.81-.1-1.22-.17-2.84-.43-5.58-1.12-8.24-2-.38-.13-.76-.26-1.13-.4-.75-.27-1.49-.57-2.22-.88-6.58-2.78-12.43-6.96-17.17-12.18-.52-.58-1.04-1.17-1.54-1.78-.74-.9-1.46-1.83-2.14-2.8-.46-.64-.9-1.29-1.32-1.95-.63-.99-1.23-2-1.8-3.05-.38-.68-.73-1.39-1.08-2.11-.35-.71-.67-1.44-.98-2.16-2.47-5.85-3.84-12.28-3.84-19.03,0-.42,0-.84.01-1.26.05-1.64.17-3.27.38-4.88,3.02-24.1,23.58-42.76,48.51-42.76h177.73c13.5,0,25.73,5.47,34.58,14.32,7.48,7.48,12.52,17.36,13.91,28.39,0-.01,0-.02,0-.04.06.51.11,1.03.17,1.54.05.51.08,1.04.11,1.55.08,1.04.11,2.08.11,3.14,0,6.32-1.2,12.38-3.39,17.93-.35.89-.73,1.76-1.13,2.62-.13.29-.28.57-.42.86-.28.57-.57,1.14-.87,1.7-.17.32-.35.63-.52.95-.3.53-.61,1.06-.93,1.57-.18.3-.36.6-.55.89-.38.58-.77,1.16-1.18,1.72-.15.21-.28.42-.43.62-.53.72-1.08,1.43-1.65,2.12-.27.33-.56.65-.83.97Z"/>
          <path class="cls-24" d="m906.55,553.3c0,6.33-1.2,12.38-3.38,17.93-2.48,6.3-6.23,11.95-10.93,16.64-1.1,1.1-2.26,2.15-3.46,3.17,0,0,0-.01-.01,0-.9.74-1.83,1.46-2.79,2.14-3.92,2.79-8.26,5.01-12.91,6.55-4.84,1.61-10.02,2.47-15.4,2.47h-69.15s-11.29,11.3-11.29,11.3c-3.17,3.17-8.3,3.17-11.47,0l-11.29-11.29h0s-74.53-.01-74.53-.01c-2.11,0-4.19-.14-6.23-.39-.41-.05-.81-.1-1.22-.17-2.84-.43-5.58-1.1-8.24-2-.38-.13-.76-.26-1.13-.4-.75-.27-1.49-.57-2.22-.88-6.58-2.78-12.43-6.96-17.17-12.18-.52-.58-1.04-1.17-1.54-1.78-.75-.9-1.47-1.83-2.14-2.8-.46-.64-.9-1.29-1.32-1.95-.64-.99-1.24-2-1.8-3.05-.38-.68-.73-1.39-1.08-2.11-.35-.71-.67-1.44-.98-2.16-2.48-5.85-3.85-12.28-3.85-19.03,0-.42,0-.84.02-1.26.03-1.67.16-3.34.36-4.97,0,.03.01.06.01.09,3.13,24,23.66,42.54,48.51,42.54h177.72c13.5,0,25.74-5.47,34.58-14.33,7.46-7.46,12.52-17.3,13.93-28.31.06.51.11,1.03.17,1.54.05.51.08,1.04.11,1.55.07,1.04.1,2.08.1,3.14Z"/>
          <g>
            <path d="m776.98,573.18c-.96.96-2.11,1.77-3.43,2.42-1.33.65-2.76,1.16-4.3,1.52-1.54.36-3.12.61-4.73.76-1.61.14-3.14.22-4.59.22s-3.05-.07-4.66-.22c-1.61-.15-3.18-.4-4.7-.76-1.52-.36-2.95-.87-4.3-1.52-1.35-.65-2.48-1.46-3.4-2.42-1.25-1.25-2.12-2.61-2.6-4.08-.48-1.47-.72-2.97-.72-4.52,0-1.2.18-2.32.54-3.36.36-1.04.86-1.96,1.48-2.78.63-.82,1.33-1.53,2.1-2.13s1.59-1.12,2.46-1.55c-1.16-.92-2.22-2.13-3.18-3.65-.96-1.52-1.45-3.39-1.45-5.6,0-1.54.35-2.98,1.05-4.3.7-1.32,1.67-2.49,2.93-3.5,1.54-1.2,3.43-2.12,5.67-2.75,2.24-.63,5.17-.94,8.78-.94s6.54.31,8.78.94c2.24.63,4.13,1.54,5.67,2.75,1.25,1.01,2.23,2.18,2.93,3.5.7,1.33,1.05,2.76,1.05,4.3,0,2.22-.47,4.08-1.41,5.6-.94,1.52-2.01,2.74-3.22,3.65,1.73.82,3.26,2.05,4.59,3.69,1.33,1.64,1.99,3.69,1.99,6.14,0,1.54-.24,3.05-.72,4.52-.48,1.47-1.35,2.83-2.6,4.08Zm-17.06-1.59c1.64,0,3.16-.1,4.55-.29,1.4-.19,2.61-.53,3.65-1.01,1.04-.48,1.86-1.13,2.46-1.95.6-.82.9-1.85.9-3.11,0-1.35-.34-2.45-1.01-3.29s-1.55-1.51-2.64-1.99c-1.08-.48-2.31-.81-3.69-.98-1.37-.17-2.78-.25-4.23-.25s-2.87.08-4.26.25c-1.4.17-2.64.5-3.72.98-1.09.48-1.95,1.14-2.6,1.99s-.98,1.94-.98,3.29c0,1.25.3,2.29.9,3.11.6.82,1.42,1.47,2.46,1.95,1.04.48,2.25.82,3.65,1.01,1.4.19,2.92.29,4.55.29Zm-9.69-25.95c0,1.25.33,2.28.98,3.07.65.8,1.46,1.41,2.42,1.84.96.43,2.01.72,3.15.87,1.13.15,2.18.22,3.14.22s2.01-.07,3.14-.22,2.18-.43,3.15-.87c.96-.43,1.77-1.05,2.42-1.84.65-.79.98-1.82.98-3.07,0-1.11-.33-2-.98-2.67-.65-.67-1.46-1.19-2.42-1.55-.96-.36-2.01-.6-3.15-.72-1.13-.12-2.18-.18-3.14-.18s-2.01.07-3.14.22c-1.13.15-2.18.4-3.15.76-.96.36-1.77.87-2.42,1.52-.65.65-.98,1.53-.98,2.64Z"/>
            <path d="m794.19,563.85c.05,2.17.75,3.93,2.1,5.28,1.64,1.64,4,2.46,7.08,2.46,1.16,0,2.25-.16,3.29-.47,1.04-.31,1.96-.82,2.78-1.52.82-.7,1.47-1.57,1.95-2.6.48-1.03.72-2.28.72-3.72,0-2.75-.79-4.81-2.39-6.18-1.59-1.37-3.86-2.06-6.8-2.06-1.69,0-3.24.18-4.66.54-1.42.36-2.52.88-3.29,1.55l-7.81-2.89,3.11-19.88h27.4v6.51h-19.95l-1.16,7.08-.36,1.95c.67-.39,1.67-.71,3-.98,1.33-.26,2.61-.4,3.87-.4,2.46,0,4.77.25,6.94.76,2.17.51,4.06,1.34,5.67,2.49,1.61,1.16,2.88,2.67,3.79,4.55.92,1.88,1.37,4.19,1.37,6.94,0,2.6-.5,4.83-1.48,6.69-.99,1.86-2.28,3.39-3.87,4.59-1.59,1.21-3.39,2.1-5.38,2.67-2,.58-3.99.87-5.96.87-1.3,0-2.65-.07-4.05-.22-1.4-.15-2.77-.42-4.12-.83-1.35-.41-2.65-.95-3.9-1.63-1.25-.68-2.39-1.57-3.4-2.67-.87-.92-1.6-2.12-2.21-3.61s-.95-3.11-1.05-4.84l8.75-.43Z"/>
            <path d="m838.21,558.43c-2.22,0-4.1-.53-5.64-1.59-1.54-1.06-2.71-2.52-3.51-4.37s-1.19-3.99-1.19-6.4.4-4.54,1.19-6.4c.79-1.85,1.96-3.31,3.51-4.37,1.54-1.06,3.42-1.59,5.64-1.59s4.01.53,5.53,1.59c1.52,1.06,2.69,2.52,3.51,4.37.82,1.86,1.23,3.99,1.23,6.4s-.4,4.62-1.19,6.47c-.8,1.86-1.95,3.3-3.47,4.34-1.52,1.04-3.39,1.55-5.6,1.55Zm32.38-24.72l-30.14,44.17-6.72-.15,30.07-44.02h6.8Zm-36.72,12.36c0,2.36.37,4.2,1.12,5.53.75,1.33,1.82,1.99,3.22,1.99s2.46-.66,3.18-1.99c.72-1.33,1.08-3.17,1.08-5.53s-.36-4.31-1.08-5.57c-.72-1.25-1.78-1.88-3.18-1.88s-2.47.61-3.22,1.84c-.75,1.23-1.12,3.1-1.12,5.6Zm31.44,32.82c-2.22,0-4.08-.52-5.6-1.55-1.52-1.04-2.66-2.48-3.43-4.34-.77-1.85-1.16-4.01-1.16-6.47s.39-4.6,1.16-6.43c.77-1.83,1.92-3.26,3.43-4.3,1.52-1.03,3.38-1.55,5.6-1.55s4.08.52,5.6,1.55c1.52,1.04,2.69,2.47,3.5,4.3s1.23,3.98,1.23,6.43-.4,4.55-1.19,6.43c-.79,1.88-1.96,3.34-3.51,4.37s-3.42,1.55-5.64,1.55Zm-4.34-12.29c0,2.31.37,4.15,1.12,5.49.75,1.35,1.82,2.02,3.22,2.02s2.47-.67,3.22-2.02c.75-1.35,1.12-3.18,1.12-5.49,0-2.51-.37-4.38-1.12-5.64-.75-1.25-1.82-1.88-3.22-1.88s-2.47.6-3.22,1.81c-.75,1.2-1.12,3.11-1.12,5.71Z"/>
          </g>
          <g>
            <circle class="cls-6" cx="684.92" cy="553.3" r="38.43"/>
            <path class="cls-7" d="m707.37,553.3c.78,0,1.43.65,1.39,1.43-.37,6.18-3.08,11.73-7.28,15.76-4.29,4.14-10.12,6.68-16.57,6.68s-12.26-2.54-16.56-6.68c-4.19-4.04-6.91-9.59-7.28-15.76-.05-.78.61-1.43,1.39-1.43h44.9Z"/>
            <g>
              <circle cx="674.36" cy="540.18" r="5.02"/>
              <circle cx="695.47" cy="540.18" r="5.02"/>
            </g>
            <path class="cls-8" d="m701.48,570.49c-4.29,4.14-10.12,6.68-16.57,6.68s-12.26-2.54-16.56-6.68c2.64-6.56,9.06-11.17,16.56-11.17s13.92,4.61,16.57,11.17Z"/>
          </g>
        </g>
        <g>
          <g>
            <path class="cls-15" d="m452.28,541.15v257.18c-44.62,18.57-70.36,1.9-70.36,1.9l-8.52-258.41c.34-18.33,4.14-32.64,6.74-40.37h63.07c3.66,7.98,9.09,22.71,9.09,39.7Z"/>
            <g>
              <path class="cls-11" d="m507.66,784.46c-31.39,18.28-65.45,38.92-91.87,55.12-1.09-.67-2.21-1.36-3.34-2.05-9.26-5.67-19.37-11.83-29.91-18.19-18.56-11.23-38.44-23.11-57.41-34.18,14.29,4.27,37.03,10.78,56.77,15.08,11.93,2.59,22.76,4.38,29.97,4.38,8.85,0,24.08-2.7,40.4-6.28,20.16-4.43,41.95-10.19,55.38-13.88Z"/>
              <path class="cls-11" d="m628.75,839.12c-7.55,6.82-56.29,27.23-106.85,47.31-.96.38-1.92.77-2.88,1.15-5.71,2.26-11.44,4.51-17.13,6.76-18.21,7.14-35.98,14.01-51.44,19.93-2.26.88-4.45,1.72-6.6,2.53-5.05,1.93-9.81,3.75-14.18,5.41-5.34,2.03-10.12,3.84-14.19,5.38-8.96,3.39-14.51,5.46-15.24,5.73,3.1-2,2.58-10.64-.77-21.71-1.38-4.57-3.25-9.57-5.57-14.68-.17-.41-.36-.83-.55-1.24-8.28-17.91-18.86-30.17-23.5-27.71,1.68-1.06,20.18-12.63,45.95-28.42,26.41-16.2,60.47-36.83,91.87-55.12,25.36-14.75,48.97-27.99,65.42-36.1,10.65-5.26,18.28-8.36,21.44-8.34,4.26.02,8.91,1.1,13.61,3.06,11.21,4.67,22.82,14.31,30.63,26.52,12.71,19.88,15.38,46.55-10.01,69.52Z"/>
              <line class="cls-15" x1="415.62" y1="829.96" x2="415.32" y2="806.59"/>
              <path class="cls-5" d="m400.24,933.33s-.04.01-.05.02c-.01,0-.01.01-.02.01-3.36,2.03-9.93-4.15-16.5-14.75,6.49-2.88,12.15-5.38,15.8-6.99,3.35,11.07,3.87,19.7.77,21.71Z"/>
              <g>
                <path class="cls-14" d="m399.47,911.62c-3.65,1.61-9.3,4.11-15.8,6.99-17.52,7.74-41.12,18.19-47.89,21.19-5.98-2.82-10.05-7.91-12.21-13.82-2.41-6.57-2.49-14.15-.24-20.71,3.01-10.87,13.41-17.53,22.71-22.76.25-.13.5-.28.74-.41l22.94-14.03s.04-.02.06-.04.04-.02.06-.04c4.63-2.46,15.21,9.8,23.5,27.71.19.41.38.83.55,1.24,2.32,5.11,4.19,10.11,5.57,14.68Z"/>
                <path class="cls-15" d="m316.51,885.51c-1.61.84-3.43,1.79-5.44,2.87h-.01c-19.52,10.42-56.13,31.32-76.63,51.83-.37.36-.73.72-1.08,1.09-.23.24-.47.48-.7.72-.12.12-.24.24-.36.37-.56.61-1.1,1.25-1.6,1.91-.5.67-.96,1.37-1.37,2.09-.84,1.44-1.52,2.97-2.06,4.55-.28.79-.5,1.6-.71,2.41,0,0-.01.01-.01.02-.11.46-.22.91-.3,1.38-.1.47-.18.94-.24,1.4-.11.71-.19,1.43-.24,2.15,0,.06-.01.12-.01.19-.01.23-.02.47-.04.7-.1,1.44-.06,2.88.05,4.3.01.13.02.26.05.38.04.5.1,1,.18,1.49.1.74.23,1.48.4,2.19.16.72.34,1.42.55,2.09.06.23.13.46.22.67.08.28.18.54.29.82.28.76.6,1.5.95,2.2.36.72.76,1.42,1.19,2.06.19.28.38.55.58.82.25.32.52.65.78.95.23.25.46.49.68.71.25.25.52.48.78.7.23.19.48.38.72.55.05.04.11.07.16.1.26.19.54.35.82.5-10.44-1.5-16.76-8.74-18.82-17.55-2.38-10.11.82-22.26,9.74-30.16,15.75-13.95,64.06-42.99,71.63-45.18,1.44-.42,19.88-1.32,19.88-1.32Z"/>
                <path class="cls-15" d="m226.54,953.38c-.84,3.46-1.06,7.07-.73,10.5-.02-.12-.04-.25-.05-.38-.28-3.33-.04-6.8.78-10.12Z"/>
                <path class="cls-12" d="m335.78,939.8s-42.84,20.53-47,22.4c-19.85,8.92-40.25,17.22-48.56,17.73-2.17.13-4.23.05-6.12-.22-.28-.16-.55-.32-.82-.5-.05-.02-.11-.06-.16-.1-.25-.18-.48-.36-.72-.55-.26-.22-.53-.44-.78-.7-.23-.22-.46-.46-.68-.71-.26-.3-.53-.62-.78-.95-.19-.26-.38-.54-.58-.82-.43-.65-.83-1.34-1.19-2.06-.35-.7-.67-1.44-.95-2.2-.11-.28-.2-.54-.29-.82-.08-.22-.16-.44-.22-.67-.22-.67-.4-1.37-.55-2.09-.16-.72-.29-1.44-.4-2.19-.07-.49-.13-.98-.18-1.49-.1-1.01-.14-2.03-.14-3.06,0-.38.01-.77.02-1.15,0-.16.01-.31.02-.47.01-.23.02-.47.04-.7,0-.07.01-.13.01-.19.02-.34.06-.66.1-.98.04-.38.08-.78.14-1.16.06-.37.12-.73.19-1.1.01-.1.04-.19.05-.3.02-.11.05-.2.07-.31.07-.36.14-.72.23-1.07,0-.01.01-.02.01-.02.2-.82.43-1.62.71-2.41.54-1.58,1.22-3.11,2.06-4.55.42-.72.88-1.42,1.37-2.09.5-.66,1.03-1.3,1.61-1.91.11-.12.23-.25.35-.37.23-.24.47-.48.7-.72.35-.37.71-.73,1.08-1.09,20.51-20.51,57.11-41.41,76.63-51.83h.01c2-1.08,3.83-2.03,5.44-2.87h.01c9.57-1.22,22.53-2.4,29.52-3-9.3,5.23-19.7,11.9-22.71,22.76-2.25,6.56-2.17,14.14.24,20.71,2.16,5.91,6.23,11,12.21,13.82Z"/>
                <path class="cls-20" d="m300.88,919.7s9.45,9.51,12.04,27.13"/>
                <path class="cls-20" d="m288.68,926.38s9.55,9.61,12.08,27.41"/>
                <path class="cls-20" d="m276.49,933.05s9.54,9.61,12.07,27.39"/>
              </g>
              <path class="cls-11" d="m415.8,839.58c-16.04,9.83-29.27,18.02-37.37,23.06-4.91,3.06-7.94,4.96-8.57,5.35-.02.01-.04.02-.06.04s-.04.02-.06.04l-22.94,14.03c-.24.13-.49.28-.74.41-6.99.6-19.95,1.78-29.52,3h-.01l-10.88.59c-49.1-19.26-94.44-38.37-102.79-46.98-26.57-27.42-20.34-57.28-4.41-76.97,8.32-10.29,19.28-17.8,29.59-20.76,3.1-.89,6.15-1.37,9.04-1.38,2.23-.01,6.7,1.54,12.89,4.3,16.3,7.28,44.52,22.98,75.14,40.83h.01s.01.01.02.01c18.97,11.07,38.85,22.95,57.41,34.18,10.54,6.36,20.65,12.52,29.91,18.19,1.13.7,2.24,1.38,3.34,2.05Z"/>
              <g>
                <path class="cls-14" d="m495.81,939.8c-6.77-3-30.39-13.45-47.9-21.19-1.4-.62-2.76-1.22-4.07-1.8,2.15-.82,4.35-1.66,6.6-2.53,15.46-5.92,33.23-12.79,51.44-19.93,2.92,3.11,5.2,6.7,6.38,10.93,4.24,12.45.19,28.56-12.45,34.53Z"/>
                <path class="cls-15" d="m597.5,979.72c1.32-.73,2.51-1.76,3.54-3.03.14-.16.26-.32.38-.48.13-.17.25-.34.37-.52.12-.17.24-.34.35-.52.36-.54.68-1.1.97-1.7.08-.16.17-.3.23-.46.42-.85.78-1.76,1.09-2.7.08-.22.16-.44.22-.67.14-.46.28-.92.38-1.39.24-.94.43-1.9.56-2.88.11-.61.18-1.24.23-1.87.07-.9.11-1.81.08-2.73,0-.24,0-.48-.01-.71.01-.24,0-.47-.01-.71-.01-.1-.01-.2-.01-.3-.01-.25-.04-.5-.06-.76-.02-.41-.06-.82-.11-1.22-.54-4.57-2.09-9.08-4.81-12.76-.49-.67-1.03-1.31-1.61-1.92-20.51-21.72-60.5-44.34-80.27-54.81.96-.38,1.92-.77,2.88-1.15,0,0,11.79-2.56,13.59-2.03,7.58,2.19,55.33,33.65,71.09,47.6,16.71,14.78,13.34,44.49-9.08,47.71Z"/>
                <path class="cls-12" d="m605.92,960.77c0,1.56-.1,3.1-.31,4.6-.14.98-.34,1.94-.56,2.88-.11.47-.24.94-.38,1.39-.06.23-.13.46-.22.67-.31.94-.67,1.85-1.09,2.7-.06.16-.14.3-.23.46-.29.6-.61,1.16-.97,1.7-.11.18-.23.35-.35.52-.12.18-.24.35-.37.52-.12.16-.25.32-.38.48-1.03,1.26-2.22,2.29-3.54,3.03-1.9.26-3.95.35-6.12.22-2.06-.13-4.89-.74-8.26-1.73-10.18-2.95-25.4-9.3-40.3-16-4.17-1.87-47-22.4-47-22.4,12.64-5.97,16.69-22.08,12.45-34.53-1.18-4.23-3.46-7.82-6.38-10.93l.47-.18c5.53-2.19,11.11-4.38,16.66-6.58,19.77,10.47,59.76,33.09,80.27,54.81.58.61,1.1,1.25,1.61,1.92,2.73,3.69,4.27,8.19,4.81,12.76.05.41.08.82.11,1.22.04.35.06.71.07,1.06.01.24.02.47.01.71.01.23.01.47.01.71Z"/>
                <path class="cls-20" d="m530.7,919.7s-9.45,9.51-12.04,27.13"/>
                <path class="cls-20" d="m542.9,926.38s-9.55,9.61-12.08,27.41"/>
                <path class="cls-20" d="m555.1,933.05s-9.54,9.61-12.07,27.39"/>
              </g>
            </g>
            <path class="cls-11" d="m375.78,614.01l2.21,52.5c-.76-.04-7.67.07-8.14.01-4.26-.49-11.36,11.03-14.56,16.09-3.19,5.07-19.03,18.73-19.03,18.73l-42.67-7.44,2.83-46.7-27.38,42.42s.5-22.11-23.87-27.64c-7.91-1.8-15.26-1.93-21.95-.97-10.47,1.5-19.32,5.69-26.2,10.46,18.93-35.54,56.37-97.63,71.47-127.16,5.85-11.44,15.57-19.62,26.88-22.61l44.46-11.77,32.04-8.48h8.25c-2.59,7.73-6.4,22.04-6.74,40.37l2.39,72.19Z"/>
            <path class="cls-11" d="m616.35,674.71c-6.31-3.59-13.7-6.54-21.48-7.91-9.24-1.66-19.08-1.06-28.37,3.37-22.56,10.75-20.47,22.03-20.47,22.03l-24.29-41.84,2.87,47.22-35.2,8.85c-12.37,1.56-18.94-2.52-21.51-4.73-1.56-1.33-9.14-12.13-15.62-20.69v-139.87c0-16.99-5.43-31.72-9.09-39.7h2.91l29.21,7.73,8.13,2.15,39.16,10.36c11.31,2.99,21.03,11.17,26.88,22.61,15.57,30.46,48.84,95.54,66.87,130.42Z"/>
            <g>
              <path class="cls-13" d="m444.49,622.91l-1.09,47-1.09,46.58c-.11,4.83-3.57,8.67-7.8,8.67h-43.41c-4.23,0-7.68-3.83-7.81-8.66l-1.25-49.85-1.09-43.45c-.09-3.93,1.8-7.38,4.66-9.2,1.36-.88,2.93-1.37,4.61-1.37h45.02c5.12,0,9.26,4.61,9.26,10.26Z"/>
              <g>
                <path class="cls-10" d="m416.4,627.57v21.68c0,2.56-2.06,4.62-4.61,4.62h-18.73c-2.56,0-4.62-2.06-4.62-4.62v-21.68c0-2.55,2.06-4.61,4.62-4.61h18.73c2.55,0,4.61,2.06,4.61,4.61Z"/>
                <ellipse class="cls-15" cx="396.5" cy="632.03" rx="3.9" ry="4"/>
                <ellipse class="cls-15" cx="396.5" cy="645.04" rx="3.9" ry="4"/>
                <ellipse class="cls-15" cx="407.72" cy="638.41" rx="3.9" ry="4"/>
              </g>
            </g>
            <path class="cls-11" d="m628.93,726.88c-7.2-14.25-17.86-23-29.15-28.29-25.28-11.87-53.75-6.39-53.75-6.39,0,0-2.09-11.29,20.47-22.03,9.29-4.43,19.12-5.03,28.37-3.37,7.78,1.37,15.16,4.32,21.48,7.91h0c11.49,6.53,19.45,15.13,19.92,20.04,1.42,14.75.32,32.13-7.34,32.13Z"/>
            <g>
              <path class="cls-14" d="m628.93,726.88s-3.16,10.11-20.79,16.2c0,0-15.08,3.35-35.06,5.28-37.22,2.55-95.11,3.31-95.11,3.31,0,0-16.23,8.52-25.69-1.33-.83-.85-1.6-1.85-2.29-2.99,0,0-15.14.72-16.02,1.44-.89.72-4.92,3.73-6.69,3.46-1.4-.23-4.09-1.74-4.86-5.62-.08-.38-.14-.8-.18-1.24-4.74,1.75-7.58-3.93-8.5-5.26-.55-.8-.68-4.63-.11-8.57.11-.72.24-1.45.4-2.17.54-2.44,1.38-4.72,2.62-6.06.18-.2.42-.41.71-.62,3.81-2.8,16.38-6.52,23.17-8.39,2.69-.74,4.48-1.2,4.48-1.2,0,0-1.84.18-4.47.44-5.98.59-16.08,1.63-18.34,2.11-1.15.24-5.15,1.73-9.93,3.55-8.7,3.33-20.01,7.78-21.42,7.95-4.79.56-8.32-7.74-2.03-12.87.3-.24.62-.49,1-.74,3.43-2.41,9.86-5.44,16.21-8.12h.01c7.4-3.13,14.69-5.76,17.1-6.35.92-.23,1.93-.43,3.01-.64,3.01-.59,6.52-1.12,9.81-1.73-.13-2.91-.46-8.2-1.08-11.29-.89-4.39-22.19-8.06-24.79-10.25-2.73-2.32-3.34-10.12,3.6-10.71,6.31-.53,22.58,3.69,28.03,5.44.53.17.96.31,1.26.43,1.36.52,5.1,5.13,9.3,10.67,6.48,8.56,14.06,19.35,15.62,20.69,2.57,2.21,9.15,6.29,21.51,4.73l35.2-8.85,21.42-5.38s28.47-5.49,53.75,6.39c11.29,5.28,21.95,14.03,29.15,28.29Z"/>
              <path class="cls-20" d="m422.24,745.39c-.06-.67-.06-1.42,0-2.21.5-6.47,9.71-9.64,9.71-9.64l19.8-4.45"/>
              <path class="cls-15" d="m441.02,695.64c-1.55.4-3.28.74-5.07,1.08"/>
              <path class="cls-20" d="m418.55,673.76l.52-6.81s-6.12-1.12-7.51,1.55.13,4.47.13,4.47"/>
            </g>
            <polyline class="cls-15" points="518.03 589.12 521.74 650.36 521.74 650.37"/>
            <g>
              <path class="cls-15" d="m197.03,671.46c-1.03,1.93-2,3.79-2.92,5.56"/>
              <path class="cls-11" d="m269.04,689.61s-51.48,4.35-66.16,25.28c-3.39,4.81-4.81,10.5-3.24,17.22-13.27,2.95-26.2-27.83-18.49-44.18,1.67-3.54,7.2-10.46,15.88-16.47,6.88-4.77,15.73-8.96,26.2-10.46,6.69-.96,14.03-.83,21.95.97,24.37,5.52,23.87,27.64,23.87,27.64Z"/>
              <line class="cls-15" x1="299.83" y1="591.18" x2="296.42" y2="647.2"/>
            </g>
            <g>
              <path class="cls-14" d="m372.86,708.79c-.26.07-.5.16-.74.23.26.06.54.13.83.2,1.74.44,3.83.97,6.03,1.52,3.71.95,7.71,1.98,10.84,2.81-.37.25-.7.5-1,.74-6.29,5.13-2.76,13.43,2.03,12.87,1.4-.17,12.71-4.62,21.42-7.95,2.24.92,4.09,2.08,5.09,3.48-.29.22-.53.42-.71.62-1.24,1.34-2.08,3.63-2.62,6.06-1.36.35-2.97.52-4.69.56-.44.35-1.09.84-1.88,1.44h-.01c-3.22,2.4-8.79,6.4-12.93,8.52-1.45.74-2.74,1.26-3.67,1.39-2.71.38-6.96.49-10.83.7-3.22.17-6.18.42-7.77.95-3.52,1.18-15.6,9.08-21.59,8.96-5.99-.12-17.25-4.48-17.25-4.48,0,0-44.89.77-83.44-3.12-32.56-3.48-44.9-8.13-50.33-12.2-1.57-6.71-.14-12.4,3.24-17.22,14.68-20.94,66.16-25.28,66.16-25.28l24.55,4.29,42.67,7.44s15.84-13.66,19.03-18.73c3.21-5.05,10.3-16.58,14.56-16.09.47.06,1.1.1,1.86.13,6.15.28,20.55-.06,22.29-.14,1.96-.11,12.94,1.86,12.74,8.1-.22,6.24-8.58,5.89-14.36,6.12-5.79.24-15.5.95-16.42,2.13-.6.76-2.14,5.45-3.16,8.7l5.53-.11c8.91-.14,25.42-.17,30.47.12,6.19.36,16.21,2.21,16.83,4.23.2.66.41,1.61.5,2.64-1.08.2-2.09.41-3.01.64-2.4.59-9.7,3.22-17.1,6.35h-.01c-8.85.67-29.51,2.32-33.09,3.33h0s-.05.01-.07.02Z"/>
              <path class="cls-15" d="m361.7,687.93s5.94,3.31,11.11,3.64"/>
              <path class="cls-15" d="m409.34,729.95c-3.57.11-7.67-.24-11.27-.43-5.16-.26-12.11-.86-18.51-1.2-1.72-.08-3.39-.16-4.97-.19h0c-2.68-.07-5.11-.06-7.1.1"/>
              <path class="cls-15" d="m368.21,708.02s1.55.4,3.91,1"/>
            </g>
            <path class="cls-11" d="m528.91,772.24c-6.86,3.89-13.99,8-21.25,12.22-13.43,3.69-35.22,9.45-55.38,13.88v-48c9.46,9.86,25.69,1.33,25.69,1.33,0,0,23.22-.31,49.69-1.19l1.25,21.75Z"/>
            <path class="cls-11" d="m381.92,800.23c-19.75-4.3-42.49-10.81-56.77-15.08-.01,0-.01-.01-.02-.01h-.01c-12.64-7.36-24.86-14.36-36-20.55l1.12-17.68c24.04.85,43.18.53,43.18.53,0,0,11.26,4.36,17.25,4.48,5.99.12,18.07-7.78,21.59-8.96,1.58-.53,4.55-.78,7.77-.95l1.91,58.23Z"/>
          </g>
          <g>
            <path class="cls-14" d="m477.85,410.44c0,8.39-8.33,19.49-15.06,19.49-.55,0-1.08-.06-1.58-.16-2.59,14.18-10.8,28.73-21.27,38.85-8.38,8.13-18.22,13.41-27.74,13.41-10.18,0-20.81-6.16-29.63-15.41-.35-.38-.71-.75-1.06-1.14-9.03-9.87-15.99-22.92-18.32-35.71-.49.1-1.01.16-1.56.16-6.74,0-15.06-11.11-15.06-19.49,0-6.55,3.33-12.13,8-14.26,1.3-.6,2.72-.93,4.19-.93h.04c1.93,0,3.54,1.51,3.88,3.42l2.37,13.55h3.36l-2.36-60.15c.25-3.78,92.66-2.67,92.91,1.12l-2.93,59.04h3.34l2.38-13.55c.34-1.9,1.94-3.42,3.88-3.42h.04c1.31,0,2.59.26,3.78.75,4.88,1.98,8.41,7.69,8.41,14.44Z"/>
            <path class="cls-14" d="m448.94,514.77c-12.91,7.56-42.05,19.44-75.03-1.05,2.34-6.8,5.21-13.06,8.65-18.64v-28.46c8.83,9.25,19.46,15.41,29.63,15.41,9.53,0,19.37-5.28,27.74-13.41v26.45c3.62,5.87,6.6,12.49,9,19.69Z"/>
            <path class="cls-10" d="m439.94,468.62h0s-8.79,20.64-27.74,20.64c-23.17,0-29.63-22.64-29.63-22.64h0c8.83,9.25,19.46,15.41,29.63,15.41,9.53,0,19.37-5.28,27.74-13.41Z"/>
            <path class="cls-3" d="m470.54,336.58c.6-1.51.93-3.16.93-4.89,0-7.39-5.99-13.37-13.37-13.37-.02,0-.03,0-.05,0-.47-6.07-5.53-10.85-11.72-10.85-2.14,0-4.14.58-5.87,1.58-2.21-3.98-6.46-6.68-11.34-6.68-3.75,0-7.12,1.6-9.49,4.15-2.44-2.97-6.15-4.87-10.3-4.87s-7.95,1.95-10.39,5c-1.89-1.03-4.06-1.61-6.36-1.61-4.67,0-8.77,2.41-11.15,6.04-1.74-.83-3.68-1.31-5.73-1.31-7.21,0-13.07,5.73-13.31,12.89-5.61,1.57-9.74,6.71-9.74,12.82,0,.86.09,1.7.24,2.51-3.82,15.74-.46,43.98,1.66,58.19,1.3-.6,2.72-.93,4.19-.93h.04c1.93,0,3.54,1.51,3.88,3.42l2.37,13.55h3.36l1.1-16.38c.25-3.78,2.14-7.27,5.17-9.57l1.94-1.46c3.15-2.39,4.94-14.83,5.06-18.8,0,0,8.59,2.18,28.38,2.69,19.07.49,33.11-6.44,33.11-6.44.13,3.97,1.47,20.16,4.64,22.55l1.94,1.46c3.03,2.29,4.92,5.78,5.17,9.57l1.1,16.38h3.34l2.38-13.55c.34-1.9,1.94-3.42,3.88-3.42h.04c1.31,0,2.59.26,3.78.75,7.76-37.78,5.06-53.19,1.1-59.43Z"/>
            <path d="m412.2,410.07c.47,5.42-.72,10.99-3.36,15.78-.49.86-1.59,2.17-1.46,3.24,0,2.8,3.22,3.21,5.39,3.71,1.3.29,2.62.49,3.95.69-1.34.13-2.7.13-4.06.04-2.97-.2-6.43-.69-6.7-4.38-.2-1.41.9-2.9,1.58-4.04,2.59-4.6,3.93-9.79,4.67-15.04h0Z"/>
            <path class="cls-15" d="m394.13,444.13h37.03s-4.76,16.36-18.95,16.36-18.08-16.36-18.08-16.36Z"/>
            <g>
              <path class="cls-20" d="m417.76,399.44h32.01c.69,0,1.25.56,1.25,1.25v5.59c0,9.63-7.82,17.45-17.45,17.45h-8.1c-5.33,0-9.66-4.33-9.66-9.66v-12.7c0-1.07.87-1.94,1.94-1.94Z"/>
              <line class="cls-20" x1="449.77" y1="399.44" x2="464.37" y2="394.67"/>
              <line class="cls-20" x1="420.22" y1="399.44" x2="403.26" y2="399.44"/>
              <path class="cls-20" d="m381.68,399.44h8.1c9.63,0,17.45,7.82,17.45,17.45v5.59c0,.69-.56,1.25-1.25,1.25h-32.01c-1.07,0-1.94-.87-1.94-1.94v-12.7c0-5.33,4.33-9.66,9.66-9.66Z" transform="translate(779.26 823.17) rotate(-180)"/>
              <line class="cls-20" x1="373.28" y1="399.44" x2="358.68" y2="394.67"/>
            </g>
            <ellipse cx="432.67" cy="412.22" rx="3.55" ry="4.77"/>
            <g>
              <path d="m425.73,391.39c4.06-3.89,10.73-3.81,15.48-1.26.68.38,1.33.81,1.95,1.26-.77-.16-1.49-.39-2.22-.58-5.01-1.33-10.34-1.47-15.21.58h0Z"/>
              <path d="m399.52,391.39c-4.87-2.05-10.2-1.91-15.21-.58-.73.18-1.45.42-2.22.58.62-.45,1.27-.88,1.95-1.26,4.75-2.54,11.42-2.62,15.48,1.26h0Z"/>
            </g>
            <ellipse cx="392.58" cy="412.22" rx="3.55" ry="4.77"/>
            <path class="cls-13" d="m382.56,475.55v19.52s-1.04,2.26-2.44,6.37c-2.59,7.73-6.4,22.04-6.74,40.37-20.95-11.45-43.81,19.5-43.81,19.5-1.3-22.25,3.29-38.95,10.25-51.4.89-1.58,1.81-3.1,2.76-4.54h0c15.76-23.92,39.97-29.83,39.97-29.83Z"/>
            <path class="cls-13" d="m492.93,561.32s-19.7-31.63-40.65-20.17c0-16.99-5.43-31.72-9.09-39.7-1.85-4.06-3.25-6.37-3.25-6.37v-19.52s24.2,5.92,39.97,29.82h0c.35.55.7,1.09,1.03,1.64.88,1.38,1.7,2.82,2.5,4.31,2.97,5.58,5.45,11.98,7.16,19.3,2.08,8.81,3.03,18.98,2.34,30.69Z"/>
            <g>
              <g>
                <path class="cls-4" d="m470.89,404.75s-4.66,3.41-6.43,17.03"/>
                <path class="cls-4" d="m470.89,414.47s-.3-3.7-3.43-4.5"/>
              </g>
              <g>
                <path class="cls-4" d="m352.75,404.75s4.66,3.41,6.43,17.03"/>
                <path class="cls-4" d="m352.75,414.47s.3-3.7,3.43-4.5"/>
              </g>
            </g>
            <g>
              <path class="cls-9" d="m406.9,327.72c-.23-3.44-3.09-6.17-6.59-6.17s-6.61,2.96-6.61,6.61c0,.91.19,1.78.52,2.57"/>
              <path class="cls-9" d="m427.78,337.35c0-3.65-2.96-6.61-6.61-6.61s-6.61,2.96-6.61,6.61c0,.05,0,.1,0,.15"/>
              <path class="cls-9" d="m399.19,337.35c0-3.65-2.96-6.61-6.61-6.61s-6.61,2.96-6.61,6.61c0,.05,0,.1,0,.15"/>
            </g>
          </g>
          <path class="cls-24" d="m628.93,726.88s-3.16,10.11-20.79,16.2c0,0-15.08,3.35-35.06,5.28-37.22,2.55-95.11,3.31-95.11,3.31,0,0-16.23,8.52-25.69-1.33-.83-.85-1.6-1.85-2.29-2.99,0,0-15.14.72-16.02,1.44-.89.72-4.92,3.73-6.69,3.46-1.4-.23-4.09-1.74-4.86-5.62,13.11-9.8,36.18-16.69,55.43-14.31,21.72,2.68,114.41-2.75,136.85-18.67,2.96-2.1,4.26-10,4.08-16.32-.12-4.01-2.25-7.68-5.71-9.73-5.08-3-13.52-9.42-18.2-20.81-13.29-32.38-44.04-84.48-57.89-110.38-5.14-9.63-13.99-16.71-24.49-19.65l-21.9-6.13c-1.7-7.32-4.19-13.72-7.16-19.3l39.16,10.36c11.31,2.99,21.03,11.17,26.88,22.61,15.57,30.46,48.84,95.54,66.87,130.42h0c11.49,6.53,19.45,15.13,19.92,20.04,1.42,14.75.32,32.13-7.34,32.13Z"/>
          <path class="cls-24" d="m394.51,739.92c-1.45.74-2.74,1.26-3.67,1.39-2.71.38-6.96.49-10.83.7-3.22.17-6.18.42-7.77.95-3.52,1.18-15.6,9.08-21.59,8.96-5.99-.12-17.25-4.48-17.25-4.48,0,0-44.89.77-83.44-3.12-32.56-3.48-44.9-8.13-50.33-12.2-13.27,2.95-26.2-27.83-18.49-44.18,1.67-3.54,7.2-10.46,15.88-16.47,18.93-35.54,56.37-97.63,71.47-127.16,5.85-11.44,15.57-19.62,26.88-22.61l44.46-11.77c-2.97,5.58-6.16,13.1-7.86,20.42l-28.84,6.42c-10.5,2.94-19.35,10.02-24.49,19.65-13.05,24.4-41.1,72.07-55.42,104.58-.88,1.99-1.7,3.93-2.47,5.8-4.67,11.38-13.11,17.8-18.19,20.81-3.46,2.04-5.59,5.71-5.71,9.72-.18,6.31,1.12,14.21,4.08,16.32.6.42,1.25.84,1.94,1.25,25.38,14.96,113.75,20.03,134.89,17.42,18.16-2.25,25.03,6.6,56.74,7.6Z"/>
          <path class="cls-24" d="m628.75,839.12c-7.55,6.82-56.29,27.23-106.85,47.31-.96.38-1.92.77-2.88,1.15-5.71,2.26-11.44,4.51-17.13,6.76-18.21,7.14-35.98,14.01-51.44,19.93-2.26.88-4.45,1.72-6.6,2.53-5.05,1.93-9.81,3.75-14.18,5.41-5.34,2.03-10.12,3.84-14.19,5.38-8.96,3.39-14.51,5.46-15.24,5.73,3.1-2,2.58-10.64-.77-21.71-3.65,1.61-9.3,4.11-15.8,6.99-17.52,7.74-41.12,18.19-47.89,21.19,0,0-42.84,20.53-47,22.4-19.85,8.92-40.25,17.22-48.56,17.73-2.17.13-4.23.05-6.12-.22-10.44-1.5-16.76-8.74-18.82-17.55,3.47-.96,6.96-1.96,10.44-2.97,32.69-9.46,65.59-20.79,97.86-33.22,23.89-9.2,47.45-18.98,70.33-29.04,109.09-47.94,202.85-102.04,244.87-127.34,12.71,19.88,15.38,46.55-10.01,69.52Z"/>
          <path class="cls-24" d="m378.42,862.64c-4.91,3.06-7.94,4.96-8.57,5.35-.02.01-.04.02-.06.04s-.04.02-.06.04l-22.94,14.03c-.24.13-.49.28-.74.41-6.99.6-19.95,1.78-29.52,3h-.01l-10.88.59c-49.1-19.26-94.44-38.37-102.79-46.98-26.57-27.42-20.34-57.28-4.41-76.97,6.33,14.14,20.66,37.46,49.63,49.86,15.84,6.78,68.76,26.76,130.36,50.63Z"/>
          <path class="cls-24" d="m597.5,979.72c-1.9.26-3.95.35-6.12.22-2.06-.13-4.89-.74-8.26-1.73,3.6-5.65,6.24-13.64,4.84-24.41-2.46-18.82-55.86-45.92-85.6-59.63,5.53-2.19,11.11-4.38,16.66-6.58.96-.38,1.92-.77,2.88-1.15,0,0,11.79-2.56,13.59-2.03,7.58,2.19,55.33,33.65,71.09,47.6,16.71,14.78,13.34,44.49-9.08,47.71Z"/>
        </g>
      </g>
    </g>
  </g>
</svg>