<?xml version="1.0" encoding="UTF-8"?>
<svg xmlns="http://www.w3.org/2000/svg" viewBox="0 0 1024 831.02">
  <defs>
    <style>
      .cls-1 {
        letter-spacing: -.08em;
      }

      .cls-2 {
        letter-spacing: -.02em;
      }

      .cls-3 {
        stroke: #7b2be6;
        stroke-miterlimit: 10;
      }

      .cls-3, .cls-4, .cls-5, .cls-6, .cls-7 {
        stroke-width: 1.3px;
      }

      .cls-3, .cls-7 {
        fill: none;
      }

      .cls-8 {
        letter-spacing: -.03em;
      }

      .cls-9 {
        letter-spacing: 0em;
      }

      .cls-10 {
        letter-spacing: 0em;
      }

      .cls-11, .cls-12 {
        fill: #6745d5;
      }

      .cls-13, .cls-14 {
        fill: #f28c34;
      }

      .cls-15, .cls-16 {
        fill: #ed4726;
      }

      .cls-17, .cls-18 {
        fill: #fff;
      }

      .cls-19 {
        fill: #63d777;
      }

      .cls-20, .cls-21 {
        fill: #63dc6c;
      }

      .cls-22, .cls-23 {
        fill: #d33edd;
      }

      .cls-24 {
        fill: #dfd8f4;
      }

      .cls-25, .cls-26 {
        fill: #3e98d3;
      }

      .cls-27 {
        fill: #a28ce4;
      }

      .cls-28, .cls-29, .cls-4, .cls-30 {
        fill: #7b2be6;
      }

      .cls-14, .cls-12, .cls-16, .cls-18, .cls-23, .cls-26, .cls-21 {
        font-family: GeistVariable-Medium, 'Geist Variable';
        font-variation-settings: 'wght' 500;
        font-weight: 500;
      }

      .cls-14, .cls-12, .cls-16, .cls-23, .cls-26, .cls-21 {
        font-size: 28px;
      }

      .cls-31 {
        letter-spacing: -.09em;
      }

      .cls-29 {
        opacity: .2;
      }

      .cls-29, .cls-30 {
        mix-blend-mode: multiply;
      }

      .cls-32 {
        letter-spacing: .02em;
      }

      .cls-18 {
        font-size: 34.31px;
      }

      .cls-4, .cls-5, .cls-6, .cls-7 {
        stroke: #000;
        stroke-linecap: round;
        stroke-linejoin: round;
      }

      .cls-30 {
        opacity: .3;
      }

      .cls-33 {
        letter-spacing: -.07em;
      }

      .cls-34 {
        letter-spacing: -.03em;
      }

      .cls-35 {
        letter-spacing: -.01em;
      }

      .cls-36 {
        letter-spacing: 0em;
      }

      .cls-37 {
        letter-spacing: -.02em;
      }

      .cls-38 {
        letter-spacing: -.01em;
      }

      .cls-5 {
        fill: #d38a66;
      }

      .cls-39 {
        letter-spacing: 0em;
      }

      .cls-40 {
        letter-spacing: -.01em;
      }

      .cls-41 {
        letter-spacing: -.01em;
      }

      .cls-42 {
        isolation: isolate;
      }

      .cls-43 {
        letter-spacing: 0em;
      }

      .cls-44 {
        letter-spacing: -.01em;
      }

      .cls-45 {
        letter-spacing: -.03em;
      }
    </style>
  </defs>
  <g class="cls-42">
    <g id="Layer_1" data-name="Layer 1">
      <g>
        <g>
          <path class="cls-5" d="m339.2,252.8l48.69-34.66c10.63-7.57,25.41-4.91,32.74,5.9h0c6.3,9.3,5.05,21.78-2.98,29.65l-72.68,71.23-5.77-72.12Z"/>
          <path class="cls-5" d="m58.91,742.85l1.05-100.54c.06-5.43-.54-10.84-1.79-16.13l-6.05-25.69c-5.31-22.56-7.37-45.77-6.11-68.91l4.72-87.14,19.84-95.25,16.87-69.44c1.94-8,9.7-13.17,17.83-11.87h0c10.53,1.67,18.28,10.75,18.28,21.41v45.06s227.15,251.54,227.15,251.54l-93.23,99.28,1.74,68.06-200.31-10.37Z"/>
          <path class="cls-29" d="m346.34,590.52l-15.03,16.01c-94.22-4.02-156.33,16.91-156.33,16.91,2.6-15.76,2.24-31.52.11-46.5-7.42-52.29,171.25,13.58,171.25,13.58Z"/>
          <g>
            <rect class="cls-4" x="37.36" y="725.36" width="243.82" height="105.66"/>
            <circle class="cls-7" cx="240.18" cy="773.63" r="14.08"/>
          </g>
          <path class="cls-7" d="m89.07,279.51h0c8.96,1.19,15.08,9.66,13.39,18.54l-5.93,27.71-18.18-5.07"/>
          <polygon class="cls-30" points="59.58 678.4 258.09 709.31 258.09 725.36 59.09 725.36 59.58 678.4"/>
          <polygon class="cls-30" points="377.35 225.12 380.66 289.93 368.41 301.94 368.17 231.66 377.35 225.12"/>
        </g>
        <g>
          <rect class="cls-6" x="13.25" y="237.97" width="469.17" height="248.55" rx="21.5" ry="21.5" transform="translate(610.07 114.41) rotate(90)"/>
          <rect class="cls-17" x="27.49" y="252.21" width="440.68" height="220.06" rx="11.16" ry="11.16" transform="translate(610.07 114.41) rotate(90)"/>
          <rect class="cls-6" x="203.87" y="151.09" width="87.92" height="17.48" rx="8.74" ry="8.74"/>
          <g>
            <rect class="cls-6" x="121.94" y="192.36" width="5.82" height="32.68"/>
            <rect class="cls-6" x="121.94" y="232.93" width="5.82" height="32.68"/>
          </g>
          <g>
            <path class="cls-11" d="m171.73,305.95l16.66-16.66,29.72,29.72-29.72,29.72-16.66-16.66c-7.22-7.22-7.22-18.91,0-26.13"/>
            <rect class="cls-11" x="197.09" y="268.28" width="42.03" height="42.03" transform="translate(-140.68 238.96) rotate(-45)"/>
            <path class="cls-11" d="m218.11,259.57l16.66-16.66c7.22-7.22,18.92-7.22,26.13,0l16.66,16.66-29.72,29.72-29.72-29.72Z"/>
            <rect class="cls-27" x="197.09" y="327.72" width="42.03" height="42.03" transform="translate(-182.71 256.37) rotate(-45)"/>
            <rect class="cls-27" x="226.81" y="298" width="42.03" height="42.03" transform="translate(-152.99 268.68) rotate(-45)"/>
            <rect class="cls-19" x="256.54" y="268.28" width="42.03" height="42.03" transform="translate(-123.27 280.99) rotate(-45)"/>
            <path class="cls-24" d="m218.11,378.46l29.72-29.72,29.72,29.72-16.66,16.66c-7.21,7.22-18.91,7.22-26.13,0l-16.66-16.66Z"/>
            <rect class="cls-19" x="256.54" y="327.72" width="42.03" height="42.03" transform="translate(-165.3 298.4) rotate(-45)"/>
            <path class="cls-19" d="m277.55,319.02l29.72-29.72,16.66,16.66c7.22,7.22,7.22,18.91,0,26.13l-16.66,16.66-29.72-29.72Z"/>
          </g>
          <g>
            <rect class="cls-28" x="169.12" y="468.34" width="157.42" height="43.66" rx="21.83" ry="21.83"/>
            <text class="cls-18" transform="translate(215.02 502.35)"><tspan class="cls-33" x="0" y="0">P</tspan><tspan class="cls-1" x="20.04" y="0">A</tspan><tspan x="41.1" y="0">Y</tspan></text>
          </g>
        </g>
        <g>
          <path class="cls-5" d="m338.99,366.83l31.92-24.2c14.7-11.21,36.07-4.85,42.24,12.58h0c4.27,12.05-.41,25.46-11.26,32.23l-35.07,19.64c-12.68,7.92-29.44,2.74-35.43-10.96h0c-4.52-10.35-1.39-22.45,7.59-29.3Z"/>
          <path class="cls-5" d="m372.35,392.02l-10.74,6.71c-2.34,1.46-5.01,2.24-7.72,2.24-5.84,0-11.12-3.45-13.44-8.79-2.72-6.2-.85-13.4,4.54-17.5l10.47-7.99,16.9,25.33Z"/>
          <path class="cls-5" d="m346.57,484.95l30.38-23.11c13.42-10.24,32.92-4.43,38.56,11.48h0c3.9,11-.37,23.24-10.27,29.42l-33.26,18.95c-11.58,7.23-26.87,2.5-32.34-10.01h0c-4.13-9.45-1.27-20.49,6.93-26.74Z"/>
          <path class="cls-5" d="m339.06,425.66l44.68-28.06c15.51-10.07,36.33-2.12,41.17,15.73h0c3.35,12.34-2.33,25.35-13.65,31.29l-47.48,23.28c-13.24,6.94-29.56.51-34.5-13.6h0c-3.73-10.66.31-22.49,9.78-28.64Z"/>
          <path class="cls-5" d="m370.91,452.82l-10.74,6.71c-2.34,1.46-5.01,2.24-7.72,2.24-5.84,0-11.12-3.45-13.44-8.79-2.72-6.2-.85-13.4,4.54-17.5l10.47-7.99,16.9,25.33Z"/>
          <path class="cls-5" d="m376.95,507.74l-9.92,6.19c-2.17,1.35-4.63,2.06-7.14,2.06-5.39,0-10.27-3.19-12.42-8.12-2.51-5.73-.79-12.38,4.19-16.16l9.68-7.38,15.61,23.4Z"/>
        </g>
        <g>
          <text class="cls-16" transform="translate(567.14 624.98)"><tspan class="cls-40" x="0" y="0">S</tspan><tspan x="18.12" y="0">P</tspan><tspan class="cls-40" x="36.54" y="0">O</tspan><tspan class="cls-10" x="57.37" y="0">R</tspan><tspan class="cls-2" x="76.19" y="0">T</tspan><tspan x="92.32" y="0">S </tspan><tspan class="cls-37" x="117.54" y="0">A</tspan><tspan class="cls-35" x="136.53" y="0">N</tspan><tspan class="cls-43" x="156.91" y="0">D G</tspan><tspan class="cls-37" x="203.62" y="0">A</tspan><tspan x="222.6" y="0">MING</tspan></text>
          <text class="cls-23" transform="translate(566.3 123.17)"><tspan x="0" y="0">E</tspan><tspan class="cls-9" x="17.05" y="0">L</tspan><tspan x="33.4" y="0">E</tspan><tspan class="cls-41" x="50.46" y="0">C</tspan><tspan x="69.92" y="0">TR</tspan><tspan class="cls-44" x="105.67" y="0">I</tspan><tspan x="113.15" y="0">CI</tspan><tspan class="cls-32" x="140.87" y="0">T</tspan><tspan x="158.14" y="0">Y</tspan></text>
          <text class="cls-12" transform="translate(618.46 223.53)"><tspan x="0" y="0">AI</tspan><tspan class="cls-10" x="27.27" y="0">R</tspan><tspan x="46.09" y="0">TI</tspan><tspan class="cls-38" x="70.62" y="0">M</tspan><tspan x="95.14" y="0">E </tspan><tspan class="cls-37" x="119" y="0">A</tspan><tspan class="cls-38" x="137.98" y="0">N</tspan><tspan x="158.37" y="0">D </tspan><tspan class="cls-8" x="185" y="0">D</tspan><tspan class="cls-31" x="203.87" y="0">AT</tspan><tspan x="234.78" y="0">A</tspan></text>
          <text class="cls-26" transform="translate(656.3 323.89)"><tspan x="0" y="0">I</tspan><tspan class="cls-39" x="7.84" y="0">N</tspan><tspan x="28.56" y="0">TE</tspan><tspan class="cls-38" x="62.3" y="0">RN</tspan><tspan x="101.36" y="0">ET</tspan></text>
          <text class="cls-21" transform="translate(657.67 424.26)"><tspan class="cls-34" x="0" y="0">C</tspan><tspan class="cls-37" x="19.15" y="0">A</tspan><tspan x="38.14" y="0">B</tspan><tspan class="cls-9" x="57.4" y="0">L</tspan><tspan x="73.75" y="0">E </tspan><tspan class="cls-32" x="97.61" y="0">T</tspan><tspan x="114.88" y="0">V &amp; </tspan><tspan class="cls-2" x="166.09" y="0">S</tspan><tspan x="183.96" y="0">T</tspan><tspan class="cls-38" x="200.65" y="0">R</tspan><tspan x="219.32" y="0">E</tspan><tspan class="cls-37" x="236.37" y="0">A</tspan><tspan x="255.36" y="0">MING</tspan></text>
          <text class="cls-14" transform="translate(616.3 524.62)"><tspan x="0" y="0">EDU</tspan><tspan class="cls-45" x="56.31" y="0">C</tspan><tspan class="cls-31" x="75.46" y="0">A</tspan><tspan x="92.29" y="0">T</tspan><tspan class="cls-44" x="108.97" y="0">I</tspan><tspan class="cls-40" x="116.45" y="0">O</tspan><tspan class="cls-36" x="137.28" y="0">N </tspan></text>
          <g>
            <g>
              <line class="cls-3" x1="462.97" y1="151.76" x2="419.37" y2="194.02"/>
              <circle class="cls-28" cx="419.37" cy="194.02" r="2"/>
              <circle class="cls-28" cx="462.97" cy="151.76" r="2"/>
            </g>
            <g>
              <line class="cls-3" x1="494.58" y1="240.02" x2="439.17" y2="264.85"/>
              <circle class="cls-28" cx="439.17" cy="264.85" r="2"/>
              <circle class="cls-28" cx="494.58" cy="240.02" r="2"/>
            </g>
            <g>
              <line class="cls-3" x1="499.96" y1="322.48" x2="439.5" y2="328.04"/>
              <circle class="cls-28" cx="439.5" cy="328.04" r="2"/>
              <circle class="cls-28" cx="499.96" cy="322.48" r="2"/>
            </g>
            <g>
              <line class="cls-3" x1="459.75" y1="566.15" x2="419.37" y2="520.8"/>
              <circle class="cls-28" cx="419.37" cy="520.8" r="2"/>
              <circle class="cls-28" cx="459.75" cy="566.15" r="2"/>
            </g>
            <g>
              <line class="cls-3" x1="496.67" y1="481.37" x2="444.32" y2="450.62"/>
              <circle class="cls-28" cx="444.32" cy="450.62" r="2"/>
              <circle class="cls-28" cx="496.67" cy="481.37" r="2"/>
            </g>
            <g>
              <line class="cls-3" x1="509.17" y1="396.6" x2="449.85" y2="383.67"/>
              <circle class="cls-28" cx="449.85" cy="383.67" r="2"/>
              <circle class="cls-28" cx="509.17" cy="396.6" r="2"/>
            </g>
          </g>
          <g>
            <circle class="cls-22" cx="502.73" cy="113.23" r="39.76"/>
            <path class="cls-17" d="m493.96,134.35l2.06-14.45h-10.57l19.24-27.78h4.66l-2.06,16.52h12.72l-21.4,25.72h-4.65Z"/>
          </g>
          <g>
            <circle class="cls-13" cx="552.73" cy="514.68" r="39.76"/>
            <path class="cls-17" d="m571.29,525.19v-14.22l-18.56,10.11-23.07-12.59,23.07-12.57,23.07,12.57v16.7h-4.51Zm-18.56,8.25l-14.63-7.92v-10.14l14.63,7.95,14.63-7.95v10.14l-14.63,7.92Z"/>
          </g>
          <g>
            <circle class="cls-15" cx="502.73" cy="615.04" r="39.76"/>
            <path class="cls-17" d="m487.35,629.91c-1.9,0-3.37-.67-4.4-2.02-1.03-1.34-1.42-2.94-1.17-4.8l2.14-15.45c.33-2.17,1.3-3.96,2.92-5.37,1.62-1.41,3.51-2.11,5.68-2.11h20.42c2.17,0,4.07.7,5.68,2.11,1.62,1.41,2.59,3.2,2.92,5.37l2.14,15.45c.25,1.86-.15,3.46-1.19,4.8-1.04,1.34-2.5,2.01-4.37,2.01-.77,0-1.49-.14-2.17-.42-.67-.28-1.28-.69-1.83-1.24l-4.53-4.53h-13.71l-4.54,4.53c-.55.55-1.16.96-1.83,1.24-.67.28-1.4.42-2.17.42Zm25.65-12.88c.58,0,1.08-.2,1.47-.59.4-.4.59-.89.59-1.47s-.2-1.08-.59-1.47c-.39-.4-.89-.59-1.47-.59s-1.08.2-1.47.59c-.39.4-.59.89-.59,1.47s.2,1.08.59,1.47c.4.4.89.59,1.47.59Zm-4.01-6.06c.58,0,1.08-.2,1.47-.59.4-.4.59-.89.59-1.47s-.2-1.08-.59-1.47c-.39-.4-.89-.59-1.47-.59s-1.08.2-1.47.59c-.39.4-.59.89-.59,1.47s.2,1.08.59,1.47c.4.4.89.59,1.47.59Zm-15.02,6.03h3.1v-3.52h3.51v-3.1h-3.51v-3.51h-3.1v3.51h-3.53v3.1h3.53v3.52Z"/>
          </g>
          <g>
            <circle class="cls-25" cx="592.73" cy="313.95" r="39.76"/>
            <path class="cls-17" d="m592.73,335.02c-2.88,0-5.6-.55-8.16-1.66-2.56-1.11-4.8-2.62-6.71-4.53s-3.42-4.15-4.53-6.71c-1.11-2.56-1.66-5.28-1.66-8.16s.55-5.63,1.66-8.18c1.11-2.55,2.62-4.78,4.53-6.69,1.91-1.91,4.15-3.42,6.71-4.53,2.56-1.11,5.28-1.66,8.16-1.66s5.63.55,8.18,1.66c2.55,1.11,4.78,2.62,6.69,4.53,1.91,1.91,3.42,4.14,4.53,6.69,1.11,2.55,1.66,5.28,1.66,8.18s-.55,5.6-1.66,8.16c-1.11,2.56-2.62,4.8-4.53,6.71-1.91,1.91-4.14,3.42-6.69,4.53-2.55,1.11-5.28,1.66-8.18,1.66Zm-.02-4.79c.86-1.22,1.62-2.5,2.27-3.84.65-1.34,1.19-2.76,1.6-4.25h-7.71c.41,1.5.94,2.92,1.58,4.25.64,1.34,1.39,2.62,2.25,3.84Zm-5.31-.83c-.64-1.12-1.18-2.29-1.63-3.51-.45-1.22-.83-2.47-1.14-3.76h-6.02c.97,1.7,2.2,3.19,3.69,4.45,1.48,1.26,3.18,2.2,5.09,2.81Zm10.63,0c1.91-.61,3.61-1.55,5.11-2.81,1.49-1.27,2.73-2.75,3.7-4.45h-6.02c-.31,1.28-.69,2.54-1.15,3.76-.46,1.22-1,2.39-1.64,3.51Zm-21.15-11.36h6.93c-.1-.69-.18-1.36-.23-2.03-.05-.66-.08-1.35-.08-2.07s.03-1.41.08-2.07c.05-.66.13-1.33.23-2.02h-6.93c-.17.68-.3,1.35-.39,2.01-.09.66-.13,1.36-.13,2.08s.04,1.41.13,2.07c.09.67.21,1.34.39,2.02Zm11.06,0h9.57c.1-.69.18-1.36.22-2.03.04-.66.07-1.35.07-2.07s-.02-1.41-.07-2.07c-.04-.66-.12-1.33-.22-2.02h-9.57c-.1.69-.18,1.36-.23,2.02-.05.66-.08,1.35-.08,2.07s.03,1.4.08,2.07c.05.66.13,1.34.23,2.03Zm13.7,0h6.92c.17-.68.3-1.35.39-2.02.09-.67.13-1.36.13-2.07s-.04-1.42-.13-2.08c-.09-.66-.22-1.33-.39-2.01h-6.92c.09.69.17,1.36.21,2.02s.07,1.35.07,2.07-.02,1.4-.07,2.07-.12,1.34-.21,2.03Zm-.83-12.29h6.02c-.97-1.7-2.21-3.19-3.7-4.45-1.49-1.26-3.19-2.2-5.11-2.81.64,1.12,1.18,2.29,1.64,3.51.46,1.22.84,2.47,1.15,3.75Zm-11.94,0h7.71c-.41-1.5-.93-2.91-1.59-4.25-.65-1.33-1.42-2.61-2.29-3.83-.86,1.22-1.61,2.5-2.25,3.83-.64,1.33-1.17,2.75-1.58,4.25Zm-10.25,0h6.02c.31-1.28.69-2.53,1.14-3.75.45-1.22.99-2.39,1.63-3.51-1.91.61-3.61,1.55-5.09,2.81-1.48,1.26-2.71,2.74-3.69,4.45Z"/>
          </g>
          <g>
            <circle class="cls-11" cx="552.73" cy="213.59" r="39.76"/>
            <path class="cls-17" d="m536.89,230.53v-11.99h6.76v11.99h-6.76Zm12.46,0v-22.32h6.76v22.32h-6.76Zm12.46,0v-33.88h6.76v33.88h-6.76Z"/>
          </g>
          <g>
            <circle class="cls-20" cx="592.73" cy="414.31" r="39.76"/>
            <path class="cls-17" d="m612.43,397.73c-.92-.92-2.03-1.37-3.32-1.37h-32.75c-1.29,0-2.41.45-3.32,1.37-.92.93-1.37,2.03-1.37,3.32v22.41c0,1.3.46,2.41,1.39,3.32.8.8,1.77,1.26,2.87,1.36v4.11h2.57l1.37-4.09h25.8l1.33,4.09h2.56v-4.11c1.1-.11,2.06-.56,2.87-1.36.93-.92,1.39-2.02,1.39-3.32v-22.41c0-1.29-.45-2.4-1.37-3.32Zm-23.56,20.9v-12.8c0-.16.18-.26.32-.18l11.09,6.4c.14.08.14.28,0,.36l-11.09,6.4c-.14.08-.32-.02-.32-.18Z"/>
          </g>
        </g>
      </g>
    </g>
  </g>
</svg>