<svg width="1447" height="1435" viewBox="0 0 1447 1435" fill="none" xmlns="http://www.w3.org/2000/svg">
<path d="M1377.91 1086.88C1352.26 1189.01 1279.08 1277.37 1173.28 1316.97C1133.92 1331.69 1092.21 1338.83 1050.58 1336.27C790.361 1305.18 743.674 1188.8 466.711 1268.36C427.427 1279.64 385.835 1281.12 346.18 1271.25C254.696 1248.53 178.591 1175.15 152.784 1086.88C138.589 1038.37 139.63 985.343 161.622 933.814C207.985 821.777 335.943 757.537 375.431 642.892C408.975 545.539 369.978 436.013 395.832 336.316C467.381 88.4678 801.231 85.7294 968.234 242.312C1057.48 314.935 1124.12 411.439 1182.52 510.621C1250.89 630.659 1316.46 755.958 1365.99 885.85C1390.55 950.04 1394.71 1020.24 1377.91 1086.88Z" fill="url(#paint0_linear_452_4)"/>
<path d="M1359.58 1140.3C1324.9 1219.14 1260.1 1284.47 1173.28 1316.97C1133.92 1331.69 1092.21 1338.83 1050.58 1336.27C790.361 1305.18 743.674 1188.8 466.711 1268.36C427.427 1279.64 385.835 1281.12 346.18 1271.25C273.949 1253.32 211.31 1203.77 175.446 1140.3H1359.58Z" fill="#DCD6ED"/>
<path d="M152.784 1086.88H1377.91" stroke="#231F20" stroke-width="1.27" stroke-linecap="round" stroke-linejoin="round"/>
<mask id="mask0_452_4" style="mask-type:luminance" maskUnits="userSpaceOnUse" x="143" y="135" width="1246" height="1202">
<path d="M1377.91 1086.88C1352.26 1189.01 1279.08 1277.37 1173.28 1316.97C1133.92 1331.69 1092.21 1338.83 1050.58 1336.27C790.361 1305.18 743.674 1188.8 466.711 1268.36C427.427 1279.64 385.835 1281.12 346.18 1271.25C254.696 1248.53 178.591 1175.15 152.784 1086.88C138.589 1038.37 139.63 985.343 161.622 933.814C207.985 821.777 335.943 757.537 375.431 642.892C408.975 545.539 369.978 436.013 395.832 336.316C467.381 88.4678 801.231 85.7294 968.234 242.312C1057.48 314.935 1124.12 411.439 1182.52 510.621C1250.89 630.659 1316.46 755.958 1365.99 885.85C1390.55 950.04 1394.71 1020.24 1377.91 1086.88Z" fill="white"/>
</mask>
<g mask="url(#mask0_452_4)">
<path d="M655.599 1016.46C592.409 943.644 655.599 857.795 655.599 857.795C655.599 857.795 718.788 943.644 655.599 1016.46Z" fill="#10B356"/>
<path d="M655.599 892.223V999.442" stroke="#231F20" stroke-width="1.27" stroke-linecap="round" stroke-linejoin="round"/>
<path d="M654.14 1047.32C678.057 953.928 583.129 905.437 583.129 905.437C583.129 905.437 565.012 1010.48 654.14 1047.32Z" fill="#14DD6A"/>
<path d="M657.093 1047.32C633.176 953.928 728.104 905.437 728.104 905.437C728.104 905.437 746.221 1010.48 657.093 1047.32Z" fill="#14DD6A"/>
<path d="M638.019 1011.46L600.385 941.288" stroke="#231F20" stroke-width="1.27" stroke-linecap="round" stroke-linejoin="round"/>
<path d="M673.178 1011.46L710.812 941.288" stroke="#231F20" stroke-width="1.27" stroke-linecap="round" stroke-linejoin="round"/>
<path d="M702.285 1140.3H608.912L594.071 1006.17H717.126L702.285 1140.3Z" fill="#231F20"/>
<path d="M597.049 1029.31H714.065" stroke="white" stroke-width="1.27" stroke-linecap="round" stroke-linejoin="round"/>
<path d="M599.237 1053.65H711.876" stroke="white" stroke-width="1.27" stroke-linecap="round" stroke-linejoin="round"/>
<path d="M616.601 390.715H78.8794V1140.3H616.601V390.715Z" fill="#BEB6D8"/>
<path d="M253.907 1037.51H245.607V1094.8H253.907V1037.51Z" fill="#231F20"/>
<path d="M449.885 1037.51H441.586V1094.8H449.885V1037.51Z" fill="#231F20"/>
<path d="M468.218 915.961H227.263V1073.38H468.218V915.961Z" fill="white"/>
<path d="M453.055 1058.22V931.124H242.426V1058.22H453.055Z" fill="#DCD6ED"/>
<path d="M253.907 805.298H245.607V862.591H253.907V805.298Z" fill="#231F20"/>
<path d="M449.885 805.298H441.586V862.591H449.885V805.298Z" fill="#231F20"/>
<path d="M468.218 683.754H227.263V841.173H468.218V683.754Z" fill="white"/>
<path d="M453.055 826.01V698.917H242.426V826.01H453.055Z" fill="#DCD6ED"/>
<path d="M253.907 580.266H245.607V637.559H253.907V580.266Z" fill="#231F20"/>
<path d="M449.885 580.266H441.586V637.559H449.885V580.266Z" fill="#231F20"/>
<path d="M468.218 458.722H227.263V616.141H468.218V458.722Z" fill="white"/>
<path d="M453.066 600.978V473.885H242.438V600.978H453.066Z" fill="#DCD6ED"/>
<path d="M571.099 1094.8V436.216H124.382L124.382 1094.8H571.099Z" stroke="white" stroke-width="1.27" stroke-miterlimit="10"/>
<path d="M124.382 862.591H571.099" stroke="white" stroke-width="1.27" stroke-miterlimit="10"/>
<path d="M124.382 893.455H571.099" stroke="white" stroke-width="1.27" stroke-miterlimit="10"/>
<path d="M124.382 637.559H571.099" stroke="white" stroke-width="1.27" stroke-miterlimit="10"/>
<path d="M124.382 668.423H571.099" stroke="white" stroke-width="1.27" stroke-miterlimit="10"/>
<path d="M514.486 413.818C514.486 413.818 518.815 407.277 525.165 410.853" stroke="#231F20" stroke-width="1.27" stroke-linecap="round" stroke-linejoin="round"/>
<path d="M1080.73 1140.3H1618.45V390.715L1080.73 390.715V1140.3Z" fill="#BEB6D8"/>
<path d="M1224.96 1094.8H1233.26V1037.5H1224.96V1094.8Z" fill="#231F20"/>
<path d="M1206.63 1073.38H1447.59V915.961H1206.63V1073.38Z" fill="white"/>
<path d="M1432.42 1058.22V931.124H1221.79V1058.22H1432.42Z" fill="#DCD6ED"/>
<path d="M1224.96 862.591H1233.26V805.298H1224.96V862.591Z" fill="#231F20"/>
<path d="M1206.63 841.173H1447.59V683.754H1206.63V841.173Z" fill="white"/>
<path d="M1432.42 826.01V698.917H1221.79V826.01H1432.42Z" fill="#DCD6ED"/>
<path d="M1224.96 637.559H1233.26V580.266H1224.96V637.559Z" fill="#231F20"/>
<path d="M1206.63 616.141H1447.59V458.722H1206.63V616.141Z" fill="white"/>
<path d="M1432.42 600.978V473.885H1221.79V600.978H1432.42Z" fill="#DCD6ED"/>
<path d="M1572.96 1094.8V436.216H1126.24V1094.8H1572.96Z" stroke="white" stroke-width="1.27" stroke-miterlimit="10"/>
<path d="M1572.96 862.591H1126.24" stroke="white" stroke-width="1.27" stroke-miterlimit="10"/>
<path d="M1572.96 893.455H1126.24" stroke="white" stroke-width="1.27" stroke-miterlimit="10"/>
<path d="M1572.96 637.559H1126.24" stroke="white" stroke-width="1.27" stroke-miterlimit="10"/>
<path d="M1572.96 668.423H1126.24" stroke="white" stroke-width="1.27" stroke-miterlimit="10"/>
</g>
<path d="M1260.76 1174.57H316.582C303.069 1174.57 292.115 1185.53 292.115 1199.04C292.115 1212.55 303.069 1223.5 316.582 1223.5H1260.76C1274.27 1223.5 1285.22 1212.55 1285.22 1199.04C1285.22 1185.53 1274.27 1174.57 1260.76 1174.57Z" fill="#BEB6D8"/>
<path d="M518.564 548.804L544.538 614.658C584.002 646.766 534.218 696.31 507.718 656.668L462.275 568.367L475.8 543.363L518.564 548.804Z" fill="#C65B36"/>
<path d="M544.538 614.694L685.34 604.004L685.077 636.566L540.819 669.535L529.435 636.327L544.538 614.694Z" fill="#C65B36"/>
<path d="M547.48 1168.65L494.671 1172.22L490.952 1136.32L487.543 1103.37L543.63 1111.08L545.1 1133.16L547.48 1168.65Z" fill="#EC8155"/>
<path d="M549.477 1131.94L522.857 1134.33C522.857 1134.33 522.463 1151.93 511.975 1152.53C505.53 1152.89 499.071 1152.89 492.626 1152.53L490.019 1210.1H608.697V1191.98C608.697 1185.76 606.226 1179.8 601.828 1175.4C597.43 1171 591.465 1168.53 585.246 1168.53H554.512L549.477 1131.94Z" fill="#221242"/>
<path d="M490.497 1199.38H608.721" stroke="white" stroke-width="1.65" stroke-linecap="round" stroke-linejoin="round"/>
<path d="M484.865 721.087L531.755 890.429C547.6 943.656 470.191 967.202 454.346 913.975L410.482 768.562V721.087H484.865Z" fill="#EC8155"/>
<path d="M434.232 855.571L519.688 832.503L484.865 721.04H410.482V774.948L434.232 855.571Z" fill="#221242"/>
<path d="M534.087 903.105L544.371 1122.3L489.672 1123.94L456.044 918.866L499.119 894.83L534.087 903.105Z" fill="#EC8155"/>
<path d="M170.913 864.456L120.125 837.059L145.25 790.458L206.156 822.482L170.913 864.456Z" fill="#EC8155"/>
<path d="M150.141 858.297L162.315 834.5C162.315 834.5 147.63 824.79 152.748 815.594C155.881 809.952 159.323 804.487 163.057 799.223L115.724 766.35L52.4867 866.8L67.8057 876.438C73.0652 879.735 79.4174 880.813 85.4699 879.434C91.5224 878.055 96.7815 874.333 100.094 869.084L116.49 843.063L150.141 858.297Z" fill="#221242"/>
<path d="M124.478 772.46L61.5035 872.504" stroke="white" stroke-width="1.65" stroke-linecap="round" stroke-linejoin="round"/>
<path d="M346.574 714.116L286.04 877.945C262.302 937.88 331.148 975.274 360.183 910.412L468.218 722.439L427.26 683.275L346.574 714.116Z" fill="#EC8155"/>
<path d="M304.289 820.617L398.798 855.129L468.254 722.415L435.87 717.5L345.199 715.491L304.289 820.617Z" fill="#221242"/>
<path d="M358.437 914.119L349.624 930.084C346.354 936.005 341.898 941.187 336.534 945.308C331.17 949.428 325.013 952.397 318.449 954.029C311.885 955.661 305.054 955.921 298.385 954.792C291.716 953.664 285.351 951.171 279.69 947.471L164.504 861L181.772 809.663C181.772 809.663 316.905 879.093 358.437 914.119Z" fill="#EC8155"/>
<path d="M422.787 809.292L441 774.482L453.413 772.269" stroke="#2F195D" stroke-width="1.65" stroke-linecap="round" stroke-linejoin="round"/>
<path d="M512.633 515.165C525.907 546.974 536.43 569.695 545.411 597.187L500.16 619.442L467.513 568.691L490.461 541.784L512.633 515.165Z" fill="#ADCEFF"/>
<path d="M541.537 583.017L497.529 606.443" stroke="white" stroke-width="1.65" stroke-linecap="round" stroke-linejoin="round"/>
<path d="M435.81 485.221C435.81 485.221 404.718 491.2 386.935 557.426C368.997 624.093 345.199 715.491 345.199 715.491C345.199 715.491 425.908 742.397 486.455 725.392C486.455 725.392 496.022 676.459 506.785 622.646C515.945 576.475 520.621 554.484 514.642 521.324C513.71 516.197 511.237 511.476 507.554 507.791C503.871 504.105 499.151 501.63 494.025 500.695L435.81 485.221Z" fill="#ADCEFF"/>
<path d="M498.569 663.843C494.204 685.93 490.557 704.501 488.428 715.264C478.287 703.915 431.959 651.49 422.763 629.833C412.419 605.474 417.155 588.278 417.155 588.278L498.569 663.843Z" fill="#85B6FF"/>
<path d="M491.406 494.908C491.406 494.908 487.603 499.583 496.895 485.221L505.565 503.326L497.481 512.319L490.366 502.035L491.406 494.908Z" fill="white"/>
<path d="M505.565 439.72V456.868L500.889 476.169L493.714 505.802L450.986 477.114L474.879 428.192L490.521 430.117L505.565 439.72Z" fill="#EC8155"/>
<path d="M505.565 448.438V456.916L500.889 476.205C487.878 467.487 493.63 450.638 493.63 450.638L505.565 448.438Z" fill="#B24620"/>
<path d="M528.37 382.798C531.228 390.045 532.472 398.966 532.938 408.7C537.016 413.184 546.248 421.113 547.05 424.066C547.935 427.307 537.088 432.342 537.088 432.342L536.096 450.973C535.922 454.345 534.421 457.512 531.921 459.782C529.42 462.051 526.123 463.239 522.75 463.086C514.211 462.68 504.967 461.795 501.116 460.695C496.11 459.314 491.508 456.751 487.699 453.221L477.57 443.762L466.388 409.142C466.388 409.142 476.314 377.979 478.562 377.728C480.811 377.477 520.047 372.789 520.047 372.789L528.37 382.798Z" fill="#EC8155"/>
<path d="M475.047 423.325C475.047 423.325 503.329 424.066 494.635 391.671C514.678 393.322 528.37 388.706 528.37 382.798C528.37 382.798 529.327 374.511 520.143 366.152C510.169 357.076 482.868 346.828 456.164 363.832C413.95 390.727 445.102 445.149 463.506 452.324L473.934 432.473L475.047 423.325Z" fill="#231F20"/>
<path d="M489.648 414.392C488.607 411.673 486.693 409.376 484.207 407.861C481.72 406.346 478.801 405.699 475.908 406.021C474.421 406.201 472.997 406.728 471.75 407.559C470.504 408.389 469.47 409.501 468.732 410.805C463.231 419.953 470.191 433.86 481.169 435.917C492.147 437.974 495.376 428.515 495.376 428.515L489.648 414.392Z" fill="#EC8155"/>
<path d="M454.992 468.001L435.858 485.221C435.858 485.221 475.023 496.689 497.577 512.319C497.481 512.319 491.203 481.263 454.992 468.001Z" fill="white"/>
<path d="M475.644 415.492L484.649 428.192" stroke="#231F20" stroke-width="1.27" stroke-linecap="round" stroke-linejoin="round"/>
<path d="M507.945 405.591C508.913 398.978 517.368 395.043 522.941 398.906C523.665 399.394 524.328 399.969 524.914 400.616C525.056 400.759 525.135 400.953 525.135 401.154C525.135 401.356 525.056 401.549 524.914 401.692C524.817 401.781 524.701 401.846 524.574 401.881C524.447 401.917 524.314 401.921 524.185 401.896C521.327 401.489 518.875 401.118 516.304 402.135C513.813 403.274 511.452 404.677 509.26 406.32C509.135 406.419 508.984 406.478 508.825 406.49C508.667 406.503 508.508 406.467 508.37 406.389C508.231 406.311 508.119 406.193 508.048 406.051C507.976 405.909 507.949 405.749 507.969 405.591H507.945Z" fill="#231F20"/>
<path d="M529.769 449.071C528.486 449.139 527.199 449.115 525.919 449C517.548 448.306 514.438 444.085 513.29 440.497C512.759 438.789 512.564 436.994 512.716 435.212L530.714 435.271C530.11 436.292 529.659 437.396 529.375 438.548C528.507 442.022 528.644 445.672 529.769 449.071Z" fill="#231F20"/>
<path d="M526.098 447.481C526.099 447.991 526.051 448.499 525.955 449C517.584 448.306 514.474 444.085 513.326 440.497C514.58 439.695 516.026 439.245 517.514 439.194C519.001 439.143 520.475 439.492 521.781 440.207C523.086 440.921 524.176 441.973 524.936 443.252C525.695 444.532 526.097 445.993 526.098 447.481Z" fill="#AA1325"/>
<path d="M530.75 435.283C530.146 436.304 529.695 437.408 529.411 438.56H512.872C512.676 437.459 512.636 436.336 512.752 435.224L530.75 435.283Z" fill="white"/>
<path d="M514.295 415.122C514.295 415.122 518.301 406.751 525.117 409.441" stroke="#231F20" stroke-width="1.27" stroke-linecap="round" stroke-linejoin="round"/>
<path d="M1177.93 1181.99H769.529V639.926C769.529 635.045 767.59 630.364 764.138 626.913C760.687 623.461 756.006 621.522 751.125 621.522H680.796" stroke="#221242" stroke-width="8.88" stroke-linecap="round" stroke-linejoin="round"/>
<path d="M769.529 1210.08C785.043 1210.08 797.62 1197.5 797.62 1181.99C797.62 1166.47 785.043 1153.9 769.529 1153.9C754.015 1153.9 741.438 1166.47 741.438 1181.99C741.438 1197.5 754.015 1210.08 769.529 1210.08Z" fill="#221242"/>
<path d="M769.529 1196.83C777.725 1196.83 784.37 1190.18 784.37 1181.99C784.37 1173.79 777.725 1167.15 769.529 1167.15C761.333 1167.15 754.688 1173.79 754.688 1181.99C754.688 1190.18 761.333 1196.83 769.529 1196.83Z" stroke="white" stroke-width="1.65" stroke-linecap="round" stroke-linejoin="round"/>
<path d="M1184.2 1210.08C1199.71 1210.08 1212.29 1197.5 1212.29 1181.99C1212.29 1166.47 1199.71 1153.9 1184.2 1153.9C1168.68 1153.9 1156.11 1166.47 1156.11 1181.99C1156.11 1197.5 1168.68 1210.08 1184.2 1210.08Z" fill="#221242"/>
<path d="M1184.2 1196.83C1192.39 1196.83 1199.04 1190.18 1199.04 1181.99C1199.04 1173.79 1192.39 1167.15 1184.2 1167.15C1176 1167.15 1169.36 1173.79 1169.36 1181.99C1169.36 1190.18 1176 1196.83 1184.2 1196.83Z" stroke="white" stroke-width="1.65" stroke-linecap="round" stroke-linejoin="round"/>
<path d="M661.506 601.193L667.808 599.352C671.358 598.308 675.175 598.685 678.452 600.404L695.863 609.504L682.96 619.442L666.636 617.947L661.506 601.193Z" fill="#EC8155"/>
<path d="M709.389 608.464H652.202C647.507 608.464 643.7 612.271 643.7 616.966V626.079C643.7 630.774 647.507 634.581 652.202 634.581H709.389C714.085 634.581 717.891 630.774 717.891 626.079V616.966C717.891 612.271 714.085 608.464 709.389 608.464Z" fill="#9601F9"/>
<path d="M485.307 576.224L519.341 638.336C562.464 665.242 519.341 720.645 488.081 684.638L431.876 602.736L442.172 576.224H485.307Z" fill="#EC8155"/>
<path d="M655.85 644.47L672.006 655.974C674.772 657.934 678.127 658.885 681.51 658.668C684.892 658.45 688.098 657.077 690.59 654.779L714.364 632.931L661.506 601.157L631.275 636.291L655.85 644.47Z" fill="#EC8155"/>
<path d="M519.341 638.336L661.506 601.193V642.402L517.93 695.246L507.072 661.69L519.341 638.336Z" fill="#EC8155"/>
<path d="M458.328 528.152L500.746 600.559L442.89 639.328L407.755 569.695L458.328 528.152Z" fill="#ADCEFF"/>
<path d="M500.746 600.559L469.007 546.388" stroke="white" stroke-width="1.65" stroke-linecap="round" stroke-linejoin="round"/>
<path d="M493.57 588.314L435.87 625.409" stroke="white" stroke-width="1.65" stroke-linecap="round" stroke-linejoin="round"/>
<path d="M610.422 81.3795L444.046 157.339L514.893 312.505L681.268 236.546L610.422 81.3795Z" fill="#14DD6A"/>
<path d="M522.838 181.658L483.534 199.602L501.479 238.905L540.783 220.961L522.838 181.658Z" stroke="white" stroke-width="1.65" stroke-linecap="round" stroke-linejoin="round"/>
<path d="M569.664 160.277L530.36 178.222L548.305 217.525L587.609 199.58L569.664 160.277Z" stroke="white" stroke-width="1.65" stroke-linecap="round" stroke-linejoin="round"/>
<path d="M616.502 138.897L577.198 156.841L595.143 196.144L634.447 178.2L616.502 138.897Z" stroke="white" stroke-width="1.65" stroke-linecap="round" stroke-linejoin="round"/>
<path d="M545.083 230.422L505.779 248.366L523.724 287.669L563.028 269.724L545.083 230.422Z" stroke="white" stroke-width="1.65" stroke-linecap="round" stroke-linejoin="round"/>
<path d="M591.932 209.036L552.628 226.981L570.573 266.283L609.877 248.339L591.932 209.036Z" stroke="white" stroke-width="1.65" stroke-linecap="round" stroke-linejoin="round"/>
<path d="M638.77 187.656L599.466 205.6L617.411 244.903L656.715 226.958L638.77 187.656Z" stroke="white" stroke-width="1.65" stroke-linecap="round" stroke-linejoin="round"/>
<path d="M480.655 180.404C482.03 183.429 482.975 186.299 478.933 188.141C478.348 188.402 477.744 188.622 477.127 188.798L476.003 186.335C476.446 186.2 476.877 186.032 477.295 185.833C478.742 185.175 479.065 184.457 478 182.114L468.075 160.397L470.921 159.106L480.655 180.404Z" fill="white"/>
<path d="M485.702 174.352L488.321 183.465L485.439 184.78L477.618 156.08L481.672 154.227L498.414 178.873L495.436 180.236L490.162 172.331L485.702 174.352ZM488.644 169.844C485.056 164.391 482.27 160.146 480.858 157.73H480.751C481.588 159.835 483.382 166.293 484.888 171.506L488.644 169.844Z" fill="white"/>
<path d="M500.722 177.796L488.512 151.07L491.908 149.515C495.615 153.808 505.732 166.125 507.168 168.11C505.362 164.582 503.58 160.84 501.619 156.487L497.314 147.052L499.992 145.856L512.202 172.583L508.913 174.077C505.206 169.713 494.659 156.75 493.176 154.848C494.814 157.993 496.835 162.227 499.048 167.046L503.401 176.613L500.722 177.796Z" fill="white"/>
<path d="M506.713 142.759L516.196 163.542C517.201 165.754 518.672 166.902 520.669 165.934C522.666 164.965 522.762 163.267 521.733 160.995L512.226 140.187L515.096 138.884L524.543 159.584C526.433 163.71 525.62 166.759 521.805 168.565C517.99 170.37 515.287 169.031 513.35 164.774L503.867 144.014L506.713 142.759Z" fill="white"/>
<path d="M529.626 154.263L532.257 163.387L529.375 164.702L521.554 136.002L525.608 134.149L542.35 158.795L539.372 160.146L534.098 152.242L529.626 154.263ZM532.58 149.766C528.992 144.301 526.206 140.056 524.795 137.652H524.675C525.524 139.769 527.318 146.215 528.825 151.428L532.58 149.766Z" fill="white"/>
<path d="M541.8 143.954L547.504 156.439L544.658 157.742L532.448 131.004L537.124 128.875C541.142 127.045 543.905 127.87 545.926 132.295L546.476 133.491C548.138 137.078 547.54 139.195 546.332 140.355C548.317 140.211 549.681 141.132 551.319 144.708C552.501 147.495 553.847 150.211 555.349 152.839L552.575 154.107C551.091 151.56 549.773 148.919 548.628 146.203C547.05 142.735 546.105 141.969 543.462 143.177L541.8 143.954ZM540.7 141.563L542.446 140.774C544.981 139.578 544.981 137.844 543.641 134.986L543.091 133.79C541.979 131.398 540.7 130.202 537.973 131.398L536.359 132.14L540.7 141.563Z" fill="white"/>
<path d="M561.675 149.969L557.119 139.996C557.004 139.75 556.851 139.524 556.664 139.326L544.431 125.562L547.564 124.127C551.152 128.361 555.325 133.395 556.892 135.643C556.234 132.821 555.194 126.232 554.309 121.042L557.322 119.667L559.714 138.155C559.769 138.444 559.862 138.726 559.989 138.992L564.426 148.714L561.675 149.969Z" fill="white"/>
<path d="M175.321 251.31L162.235 421.381L344.592 435.412L357.678 265.341L175.321 251.31Z" fill="#9601F9"/>
<path d="M232.434 310.725L189.355 307.411L186.04 350.489L229.119 353.804L232.434 310.725Z" stroke="white" stroke-width="1.65" stroke-linecap="round" stroke-linejoin="round"/>
<path d="M283.761 314.675L240.682 311.361L237.367 354.439L280.446 357.753L283.761 314.675Z" stroke="white" stroke-width="1.65" stroke-linecap="round" stroke-linejoin="round"/>
<path d="M335.1 318.626L292.021 315.311L288.706 358.39L331.785 361.704L335.1 318.626Z" stroke="white" stroke-width="1.65" stroke-linecap="round" stroke-linejoin="round"/>
<path d="M228.322 364.161L185.243 360.846L181.928 403.924L225.007 407.239L228.322 364.161Z" stroke="white" stroke-width="1.65" stroke-linecap="round" stroke-linejoin="round"/>
<path d="M279.661 368.111L236.582 364.797L233.267 407.875L276.346 411.189L279.661 368.111Z" stroke="white" stroke-width="1.65" stroke-linecap="round" stroke-linejoin="round"/>
<path d="M330.988 372.061L287.909 368.747L284.594 411.825L327.673 415.139L330.988 372.061Z" stroke="white" stroke-width="1.65" stroke-linecap="round" stroke-linejoin="round"/>
<path d="M206.514 283.807C206.921 278.438 207.459 272.662 207.782 269.529C206.67 274.384 203.441 287.108 201.205 295.706L198.155 295.467C197.545 287.837 196.302 273.882 195.991 268.596H195.907C195.728 272.004 195.381 278.653 194.986 283.676L194.113 295.156L191.207 294.928L193.468 265.63L198.084 265.989C199.028 274.767 200.117 285.661 200.236 289.416C200.978 285.828 204.087 274.635 206.323 266.611L210.843 266.958L208.595 296.256L205.57 296.029L206.514 283.807Z" fill="white"/>
<path d="M216.273 287.454L214.156 296.698L210.999 296.459L218.055 267.52L222.503 267.867L225.266 297.547L222.001 297.296L221.236 287.837L216.273 287.454ZM221.056 284.931C220.53 278.402 220.183 273.367 220.111 270.581H219.992C219.705 272.841 218.15 279.347 216.954 284.644L221.056 284.931Z" fill="white"/>
<path d="M231.915 284.297L230.874 297.978L227.753 297.739L230.001 268.441L235.12 268.835C239.52 269.17 241.541 271.227 241.171 276.082L241.075 277.421C240.764 281.404 239.233 282.922 237.607 283.401C239.425 284.226 240.178 285.697 239.879 289.619C239.566 292.63 239.43 295.656 239.473 298.683L236.423 298.444C236.36 295.498 236.484 292.55 236.794 289.619C237.093 285.816 236.638 284.704 233.732 284.477L231.915 284.297ZM232.13 281.655L234.043 281.798C236.83 282.013 237.631 280.459 237.918 277.326L238.014 276.022C238.229 273.344 237.619 271.693 234.677 271.466L232.919 271.335L232.13 281.655Z" fill="white"/>
<path d="M255.079 291.389L255.007 292.381C254.72 296.1 253.739 300.13 248.442 299.724C243.371 299.341 242.773 295.67 243.108 291.353L244.304 276.453C244.663 271.765 246.875 269.278 250.833 269.637C255.76 270.007 256.37 273.571 256.071 277.41L255.987 278.605L252.818 278.354L252.926 276.979C253.105 274.659 252.926 272.698 250.534 272.531C248.143 272.363 247.652 274.049 247.449 276.632L246.253 291.855C246.038 294.785 246.528 296.77 248.729 296.937C250.929 297.105 251.575 295.168 251.79 292.405L251.886 291.209L255.079 291.389Z" fill="white"/>
<path d="M259.695 270.725L262.816 270.964L261.895 283.114L267.994 283.58L268.927 271.43L272.036 271.669L269.788 300.967L266.667 300.728L267.767 286.45L261.668 285.972L260.568 300.322L257.458 300.082L259.695 270.725Z" fill="white"/>
<path d="M239.086 478.293L69.8926 547.751L134.675 705.545L303.868 636.087L239.086 478.293Z" fill="#14DD6A"/>
<path d="M147.695 575.103L107.726 591.511L124.135 631.48L164.104 615.071L147.695 575.103Z" stroke="white" stroke-width="1.65" stroke-linecap="round" stroke-linejoin="round"/>
<path d="M195.311 555.554L155.342 571.962L171.751 611.931L211.72 595.522L195.311 555.554Z" stroke="white" stroke-width="1.65" stroke-linecap="round" stroke-linejoin="round"/>
<path d="M242.938 536L202.969 552.408L219.378 592.377L259.347 575.968L242.938 536Z" stroke="white" stroke-width="1.65" stroke-linecap="round" stroke-linejoin="round"/>
<path d="M168.049 624.682L128.08 641.09L144.489 681.059L184.458 664.65L168.049 624.682Z" stroke="white" stroke-width="1.65" stroke-linecap="round" stroke-linejoin="round"/>
<path d="M215.67 605.144L175.701 621.552L192.109 661.521L232.079 645.112L215.67 605.144Z" stroke="white" stroke-width="1.65" stroke-linecap="round" stroke-linejoin="round"/>
<path d="M263.297 585.578L223.328 601.986L239.737 641.955L279.706 625.546L263.297 585.578Z" stroke="white" stroke-width="1.65" stroke-linecap="round" stroke-linejoin="round"/>
<path d="M102.737 569.863L104.997 579.07L102.067 580.266L95.3705 551.279L99.4962 549.593L115.306 574.861L112.268 576.057L107.317 568.021L102.737 569.863ZM105.846 565.474C102.438 559.877 99.8669 555.536 98.5395 553.073H98.4319C99.1853 555.214 100.728 561.731 102.019 566.993L105.846 565.474Z" fill="white"/>
<path d="M106.432 546.711L111.407 544.666C115.437 543.004 118.212 544.26 120.005 548.66L120.687 550.311C122.361 554.4 122.385 557.916 117.434 559.949L115.557 560.714L120.484 572.673L117.59 573.868L106.432 546.711ZM114.564 558.275L116.179 557.617C119.264 556.349 118.929 554.269 117.769 551.447L117.171 549.988C116.262 547.787 114.995 546.065 112.196 547.213L110.331 547.979L114.564 558.275Z" fill="white"/>
<path d="M129.154 554.329L134.368 567.028L131.474 568.224L120.316 541.043L125.1 539.094C129.19 537.42 131.916 538.352 133.758 542.849L134.272 544.044C135.791 547.74 135.109 549.784 133.853 550.897C135.839 550.897 137.178 551.805 138.637 555.441C139.71 558.269 140.948 561.032 142.344 563.716L139.522 564.912C138.153 562.309 136.955 559.621 135.934 556.864C134.487 553.336 133.543 552.535 130.888 553.647L129.154 554.329ZM128.149 551.877L129.919 551.148C132.502 550.083 132.574 548.314 131.378 545.408L130.876 544.212C129.859 541.737 128.568 540.517 125.853 541.641L124.215 542.311L128.149 551.877Z" fill="white"/>
<path d="M137.381 534.011L148.539 561.205L145.645 562.401L134.487 535.207L137.381 534.011Z" fill="white"/>
<path d="M141.411 532.361L144.305 531.165L154.387 555.74L161.227 552.941L161.98 555.68L152.569 559.542L141.411 532.361Z" fill="white"/>
<path d="M613.34 326.122L591.577 495.302L772.978 518.635L794.741 349.456L613.34 326.122Z" fill="#9601F9"/>
<path d="M667.493 388.357L624.639 382.845L619.127 425.697L661.98 431.21L667.493 388.357Z" stroke="white" stroke-width="1.65" stroke-linecap="round" stroke-linejoin="round"/>
<path d="M718.557 394.926L675.704 389.414L670.191 432.266L713.045 437.778L718.557 394.926Z" stroke="white" stroke-width="1.65" stroke-linecap="round" stroke-linejoin="round"/>
<path d="M769.62 401.495L726.766 395.982L721.254 438.835L764.107 444.347L769.62 401.495Z" stroke="white" stroke-width="1.65" stroke-linecap="round" stroke-linejoin="round"/>
<path d="M660.659 441.508L617.806 435.996L612.293 478.848L655.147 484.361L660.659 441.508Z" stroke="white" stroke-width="1.65" stroke-linecap="round" stroke-linejoin="round"/>
<path d="M711.722 448.089L668.868 442.577L663.356 485.429L706.21 490.941L711.722 448.089Z" stroke="white" stroke-width="1.65" stroke-linecap="round" stroke-linejoin="round"/>
<path d="M762.786 454.646L719.933 449.133L714.42 491.986L757.274 497.498L762.786 454.646Z" stroke="white" stroke-width="1.65" stroke-linecap="round" stroke-linejoin="round"/>
<path d="M630.701 341.315L640.854 342.618L640.483 345.488L633.439 344.579L632.243 354.074L638.88 354.923L638.51 357.793L631.873 356.944L630.079 370.852L626.982 370.457L630.701 341.315Z" fill="white"/>
<path d="M651.21 359.228L644.68 358.391L643.233 369.656L650.648 370.613L649.858 373.411L639.789 372.108L643.544 342.953L653.554 344.245L653.183 347.115L646.283 346.23L645.087 355.545L651.628 356.382L651.21 359.228Z" fill="white"/>
<path d="M656.531 344.627L661.614 345.285C666.134 345.859 667.521 348.466 667.019 352.46L666.852 353.775C666.326 357.865 664.914 358.953 663.384 359.312C664.902 360.018 666.445 361.632 665.931 365.59L665.656 367.743C664.998 372.825 662.917 375.121 657.954 374.475L652.788 373.817L656.531 344.627ZM656.137 371.557L658.014 371.797C661.147 372.191 662.116 370.792 662.571 367.252L662.834 365.231C663.24 362.062 662.307 360.544 659.497 360.185L657.632 359.946L656.137 371.557ZM659.844 357.554C662.451 357.889 663.432 356.932 663.802 353.536L663.97 352.233C664.316 349.59 663.515 348.167 661.004 347.844L659.174 347.605L657.919 357.303L659.844 357.554Z" fill="white"/>
<path d="M672.771 362.517L671.025 376.125L667.916 375.731L671.671 346.588L676.765 347.234C681.142 347.808 683.056 349.973 682.434 354.792L682.266 356.119C681.752 360.077 680.15 361.524 678.499 361.871C680.269 362.804 680.891 364.263 680.449 368.197C679.98 371.187 679.688 374.202 679.576 377.226L676.55 376.843C676.638 373.895 676.913 370.955 677.375 368.042C677.854 364.263 677.471 363.127 674.577 362.756L672.771 362.517ZM673.106 359.886L675.02 360.137C677.782 360.484 678.715 358.941 679.121 355.868L679.289 354.565C679.624 351.91 679.109 350.224 676.191 349.841L674.433 349.614L673.106 359.886Z" fill="white"/>
<path d="M689.717 348.908L686.799 371.557C686.488 373.949 687.122 375.719 689.31 375.994C691.499 376.269 692.503 374.798 692.814 372.406L695.732 349.685L698.865 350.08L695.995 372.645C695.409 377.154 693.077 379.354 688.916 378.828C684.754 378.302 683.14 375.779 683.737 371.139L686.655 348.502L689.717 348.908Z" fill="white"/>
<path d="M703.098 370.804L700.503 379.928L697.358 379.522L705.897 350.989L710.322 351.563L711.517 381.351L708.265 380.933L707.966 371.438L703.098 370.804ZM707.966 368.532C707.774 361.979 707.691 356.932 707.762 354.182H707.631C707.236 356.418 705.347 362.84 703.876 368.066L707.966 368.532Z" fill="white"/>
<path d="M718.884 368.46L717.138 382.069L714.029 381.662L717.784 352.52L722.878 353.177C727.255 353.74 729.168 355.904 728.547 360.723L728.379 362.051C727.865 366.009 726.262 367.456 724.612 367.814C726.382 368.735 727.064 370.206 726.561 374.14C726.091 377.13 725.8 380.145 725.688 383.169L722.663 382.774C722.75 379.826 723.026 376.886 723.488 373.973C723.966 370.206 723.584 369.058 720.69 368.687L718.884 368.46ZM719.219 365.817L721.132 366.069C723.895 366.427 724.827 364.873 725.234 361.799L725.401 360.508C725.736 357.841 725.222 356.155 722.304 355.725L720.546 355.509L719.219 365.817Z" fill="white"/>
<path d="M732.577 384.054L733.976 373.172C734.024 372.907 734.024 372.635 733.976 372.371L730.867 354.194L734.275 354.636C735.052 360.101 735.985 366.595 736.128 369.345C737.061 366.607 739.656 360.46 741.641 355.593L744.93 356.012L737.229 372.992C737.131 373.271 737.067 373.56 737.037 373.853L735.674 384.448L732.577 384.054Z" fill="white"/>
<path d="M888.996 560.403L919.383 512.57C921.584 471.912 977.072 480.773 963.905 516.588L928.209 587.609L905.655 590.634L888.996 560.403Z" fill="#EC8155"/>
<path d="M880.159 407.265L880.733 391.408C880.846 388.688 880.017 386.013 878.384 383.834C876.752 381.655 874.418 380.106 871.776 379.45L861.324 376.831C859.625 376.406 857.851 376.382 856.142 376.762C854.433 377.143 852.836 377.916 851.478 379.021C850.12 380.126 849.038 381.532 848.319 383.128C847.599 384.724 847.261 386.466 847.332 388.215L848.743 422.476L885.528 427.259L880.159 407.265Z" fill="#EC8155"/>
<path d="M842.234 399.948C840.731 397.84 837.804 397.349 835.696 398.851C833.587 400.354 833.097 403.281 834.599 405.39L846.718 422.392C848.221 424.5 851.148 424.991 853.257 423.488C855.365 421.986 855.856 419.058 854.353 416.95L842.234 399.948Z" fill="#EC8155"/>
<path d="M919.383 512.558L845.634 420.969L875.71 407.444L961.394 494.92L940.454 513.85L919.383 512.558Z" fill="#EC8155"/>
<path d="M770.88 562.209C772.712 560.463 774.19 558.38 775.233 556.075C777.828 549.808 775.425 542.37 777.828 536.032C781.643 525.963 795.144 523.512 801.65 514.938C808.155 506.364 806.122 494.609 808.634 484.301C809.787 479.656 811.864 475.29 814.74 471.465C817.617 467.639 821.234 464.432 825.376 462.034C837.681 454.991 853.862 456.354 866.203 462.572C881.044 470.07 891.914 487.769 888.422 504.63C887.298 510.059 887.501 514.196 887.896 519.626C888.243 524.409 888.326 529.396 886.269 533.88C884.069 538.663 879.955 542.609 878.891 547.763C877.958 552.284 879.561 556.983 881.94 560.918C884.32 564.852 887.429 568.332 889.953 572.194C895.553 580.833 898.007 591.137 896.901 601.373C896.506 604.96 895.549 608.799 892.966 611.382C890.144 614.204 885.935 615.077 881.952 615.412C870.658 616.364 859.321 614.17 849.198 609.074C843.9 606.395 838.949 602.915 833.257 601.217C823.809 598.407 813.704 600.835 803.97 602.413C796.795 603.609 789.476 604.231 782.349 602.939C775.221 601.648 768.261 598.156 763.92 592.392C759.579 586.628 758.348 578.245 761.947 571.955C764.159 568.141 767.807 565.366 770.88 562.209Z" fill="#231F20"/>
<path d="M847.272 549.27C874.777 548.074 894.808 546.436 917.936 547.273L922.17 587.405L875.04 597.917L861.168 573.247L847.272 549.27Z" fill="#F69E20"/>
<path d="M1250.85 990.533L1227.89 998.64L1353.51 274.671L1394.55 283.018L1250.85 990.533Z" fill="#7D62B8"/>
<path d="M1394.54 283.018L1379.97 354.816V354.828L1357 362.947L1338.83 359.264L1340.97 346.899L1353.5 274.671L1394.54 283.018Z" fill="#01B000"/>
<path d="M1371.58 291.138L1357 362.935L1227.89 998.64L810.954 913.976L954.649 206.473L1299.78 276.548L1371.58 291.138Z" fill="#9F7CE9"/>
<path d="M952.844 275.496L953.513 272.447L979.475 278.067L981.042 270.892L983.721 271.825L981.568 281.762L952.844 275.496Z" fill="white"/>
<path d="M972.36 257.02L970.961 263.466L982.059 265.858L983.649 258.539L986.364 259.567L984.211 269.517L955.51 263.298L957.639 253.433L960.473 254.043L959.002 260.859L968.175 262.844L969.574 256.399L972.36 257.02Z" fill="white"/>
<path d="M958.249 250.527L959.445 245.313C960.784 239.107 964.79 239.155 969.347 240.147L980.695 242.599C985.108 243.555 989.533 245.218 988.122 251.723L987.033 256.745L958.249 250.527ZM984.988 253.11L985.359 251.376C986.113 247.896 984.319 246.665 980.576 245.851L968.258 243.185C964.946 242.467 962.781 242.623 961.98 246.294L961.597 248.052L984.988 253.11Z" fill="white"/>
<path d="M988.815 280.77L987.799 285.421L984.977 284.812L987.643 272.483L990.465 273.092L989.473 277.72L1015.36 283.317L1014.71 286.378L988.815 280.77Z" fill="white"/>
<path d="M1017.76 272.255L987.954 271.06L988.672 267.759L1001.96 268.632C1006.1 268.907 1011.19 269.134 1014.22 269.517V269.457C1011.39 268.596 1006.66 266.647 1002.79 265.212L990.238 260.429L990.944 257.176L1018.58 268.417L1017.76 272.255Z" fill="white"/>
<path d="M1101.21 620.998L1092.4 664.382L1253.05 697.008L1261.86 653.623L1101.21 620.998Z" fill="#231F20"/>
<path d="M1261.35 599.16L1231.33 746.938L1245.1 749.735L1275.12 601.957L1261.35 599.16Z" fill="#F2DEFF"/>
<path d="M1261.47 379.768L967.539 320.075L851.931 889.307L1145.87 949L1261.47 379.768Z" fill="#F2DEFF"/>
<path d="M1237.16 395.881L983.649 344.396L876.25 873.209L1129.77 924.693L1237.16 395.881Z" fill="#BEB6D8"/>
<path d="M1371.58 291.137L1357 362.887C1337.96 359.005 1321.25 347.728 1310.52 331.531C1299.79 315.335 1295.93 295.542 1299.78 276.5L1371.58 291.137Z" fill="#01E900"/>
<path d="M1323.62 326.164L1323.24 326.08C1321.48 325.673 1319.46 325.542 1318.92 327.862C1318.38 330.182 1320.47 331.222 1324.17 332.083L1328.37 333.064C1327.69 332.519 1327.19 331.781 1326.93 330.947C1326.68 330.113 1326.68 329.221 1326.93 328.388C1327.81 324.609 1331.12 324.322 1334.46 325.099L1339.24 326.223C1343.68 327.252 1346.65 329.237 1345.53 334.032C1344.41 338.827 1340.75 339.222 1336.53 338.23L1323.72 335.252C1319.48 334.259 1314.94 332.693 1316.23 327.192C1317.36 322.409 1321.15 322.409 1323.84 323.066L1324.29 323.174L1323.62 326.164ZM1339.1 329.452L1334.06 328.256C1331.79 327.73 1330.04 327.945 1329.57 329.954C1329.02 332.346 1330.86 333.626 1333.29 334.188L1337.77 335.228C1340.39 335.838 1342.45 335.503 1342.95 333.339C1343.37 331.605 1342.55 330.253 1339.1 329.452Z" fill="black"/>
<path d="M1328.39 308.011L1342.98 311.407C1347.77 312.531 1350.02 314.995 1348.96 319.276C1348.02 323.306 1345.02 324.585 1340.2 323.461L1325.58 320.065C1320.51 318.869 1318.85 315.879 1319.7 312.232C1320.55 308.585 1323.55 306.887 1328.39 308.011ZM1326.22 316.896L1341.3 320.4C1344 321.033 1345.83 320.507 1346.3 318.462C1346.76 316.418 1345.71 315.27 1342.55 314.54L1327.57 311.048C1324.47 310.331 1322.98 311.048 1322.53 312.95C1322.09 314.851 1323.02 316.19 1326.22 316.896Z" fill="black"/>
<path d="M1330.3 305.882C1327.35 304.404 1324.25 303.261 1321.05 302.474L1321.68 299.771C1324.89 300.637 1327.97 301.95 1330.81 303.67L1330.3 305.882ZM1331.36 301.302C1328.4 299.854 1325.3 298.712 1322.12 297.894L1322.75 295.191C1325.96 296.039 1329.04 297.352 1331.87 299.09L1331.36 301.302Z" fill="black"/>
<path d="M977.61 198.341L954.649 206.473L1371.58 291.138L1394.55 283.018L977.61 198.341Z" fill="#BEAAE9"/>
<path d="M1394.54 283.018L1371.58 291.126L1299.79 276.548L1322.73 268.429H1322.74L1394.54 283.018Z" fill="#98E997"/>
<path d="M893.218 799.642H777.972V840.144H893.218V799.642Z" fill="#10B356"/>
<path d="M828.736 728.131L966.68 755.42C1010.44 763.205 999.482 827.027 955.726 819.242L835.912 798.386L801.961 781.334L828.736 728.131Z" fill="#58138E"/>
<path d="M1105.89 941.826L1071.23 966.197L1053.79 943.178L1037.77 922.059L1079.34 904.038L1089.52 918.544L1105.89 941.826Z" fill="#EC8155"/>
<path d="M1089.52 918.544L1053.79 943.178L1037.77 922.059L1079.34 904.038L1089.52 918.544Z" fill="#C65B36"/>
<path d="M1092.01 915.877L1074.79 928.553C1074.79 928.553 1081.82 940.762 1074.89 945.522C1070.63 948.442 1066.21 951.124 1061.66 953.558L1083.78 994.025L1164.98 944.744L1157.47 932.355C1154.88 928.106 1150.72 925.055 1145.89 923.874C1141.05 922.692 1135.95 923.476 1131.7 926.054L1110.65 938.825L1092.01 915.877Z" fill="#BEB6D8"/>
<path d="M1079.67 986.515L1160.54 937.426" stroke="white" stroke-width="1.32" stroke-linecap="round" stroke-linejoin="round"/>
<path d="M986.459 765.728L1088.25 908.989L1041.36 939.399L939.617 808.91L959.098 774.577L986.459 765.728Z" fill="#221242"/>
<path d="M781.643 762.404C782.424 774.088 787.32 785.118 795.462 793.535C803.604 801.953 814.465 807.213 826.117 808.383L964.982 817.567C1016.2 823.774 1031.17 762.894 975.063 753.542L802.953 712.358L780.902 752.012L781.643 762.404Z" fill="#221242"/>
<path d="M999.399 906.059L1003.02 952.087L960.784 955.435L955.881 900.582L999.399 906.059Z" fill="#EC8155"/>
<path d="M1004.28 922.681L982.991 924.834C982.991 924.834 982.836 938.933 974.453 939.495C969.278 939.842 964.088 939.906 958.907 939.686L957.364 985.773L1052.35 984.661L1052.18 970.18C1052.12 965.21 1050.09 960.466 1046.54 956.991C1042.99 953.516 1038.2 951.593 1033.23 951.644L1008.61 951.931L1004.28 922.681Z" fill="#BEB6D8"/>
<path d="M957.711 977.211L1052.3 976.111" stroke="white" stroke-width="1.32" stroke-linecap="round" stroke-linejoin="round"/>
<path d="M999.853 911.859L1000.52 920.301L958.225 926.783L957.842 922.537L973.867 901.658L999.853 911.859Z" fill="#C65B36"/>
<path d="M955.881 756.831L970.459 756.293C975.868 756.09 981.262 757.006 986.301 758.982C991.341 760.959 995.919 763.954 999.749 767.78C1003.58 771.606 1006.58 776.181 1008.56 781.219C1010.54 786.257 1011.46 791.649 1011.26 797.059L1005.01 918.304H950.799C950.799 918.304 949.017 799.773 955.881 756.831Z" fill="#221242"/>
<path d="M762.856 800.335H1293.7" stroke="#10B356" stroke-width="3.81" stroke-linecap="round" stroke-linejoin="round"/>
<path d="M762.856 842.237H1285.77" stroke="#10B356" stroke-width="3.81" stroke-linecap="round" stroke-linejoin="round"/>
<path d="M762.856 884.151H1277.86" stroke="#10B356" stroke-width="3.81" stroke-linecap="round" stroke-linejoin="round"/>
<path d="M762.856 926.053H1269.93" stroke="#10B356" stroke-width="3.81" stroke-linecap="round" stroke-linejoin="round"/>
<path d="M762.856 967.955H1262.01" stroke="#10B356" stroke-width="3.81" stroke-linecap="round" stroke-linejoin="round"/>
<path d="M1144.66 1005.78V762.368" stroke="#10B356" stroke-width="3.81" stroke-linecap="round" stroke-linejoin="round"/>
<path d="M1102.75 1005.78V762.368" stroke="#10B356" stroke-width="3.81" stroke-linecap="round" stroke-linejoin="round"/>
<path d="M1060.84 1005.78V762.368" stroke="#10B356" stroke-width="3.81" stroke-linecap="round" stroke-linejoin="round"/>
<path d="M1018.94 1005.78V762.368" stroke="#10B356" stroke-width="3.81" stroke-linecap="round" stroke-linejoin="round"/>
<path d="M977.036 1005.78V762.368" stroke="#10B356" stroke-width="3.81" stroke-linecap="round" stroke-linejoin="round"/>
<path d="M935.121 1005.78V762.368" stroke="#10B356" stroke-width="3.81" stroke-linecap="round" stroke-linejoin="round"/>
<path d="M893.218 1005.78V762.368" stroke="#10B356" stroke-width="3.81" stroke-linecap="round" stroke-linejoin="round"/>
<path d="M851.314 1005.78V762.368" stroke="#10B356" stroke-width="3.81" stroke-linecap="round" stroke-linejoin="round"/>
<path d="M809.411 1005.78V762.368" stroke="#10B356" stroke-width="3.81" stroke-linecap="round" stroke-linejoin="round"/>
<path d="M1186.56 1005.78V762.368" stroke="#10B356" stroke-width="3.81" stroke-linecap="round" stroke-linejoin="round"/>
<path d="M1228.47 1005.78V762.368" stroke="#10B356" stroke-width="3.81" stroke-linecap="round" stroke-linejoin="round"/>
<path d="M1270.37 884.151V762.368" stroke="#10B356" stroke-width="3.81" stroke-linecap="round" stroke-linejoin="round"/>
<path d="M894.641 748.735L898.85 751.892C901.215 753.668 902.801 756.291 903.275 759.211L905.774 774.757L893.218 771.241L876.87 756.281L894.641 748.735Z" fill="#EC8155"/>
<path d="M753.708 758.625V1009.68H1261.81L1279.09 918.305L1309.27 758.625H753.708ZM1241.69 985.367H777.972V782.9H1279.97L1241.69 985.367Z" fill="#14DD6A"/>
<path d="M1254.37 918.304L1241.69 985.367H777.972V918.304H753.708V1009.68H1261.81L1279.09 918.304H1254.37Z" fill="#10B356"/>
<path d="M878.7 763.336L871.297 737.423L878.305 727.067" stroke="white" stroke-width="1.32" stroke-linecap="round" stroke-linejoin="round"/>
<path d="M815.462 553.671C809.538 553.513 803.693 555.063 798.625 558.135C793.558 561.207 789.481 565.673 786.881 570.998C782.098 580.9 777.745 595.967 777.099 618.616C775.544 673.84 774.013 749.417 774.013 749.417C774.013 749.417 841.855 755.336 885.803 730.833C885.803 730.833 884.165 690.964 882.467 647.125C881.02 609.576 880.565 591.59 869.814 567.004C868.144 563.153 865.339 559.903 861.772 557.689C858.205 555.475 854.048 554.403 849.855 554.615L815.462 553.671Z" fill="#F69E20"/>
<path d="M885.827 730.833C841.879 755.336 774.037 749.417 774.037 749.417C774.037 749.417 775.341 684.973 776.776 631.627L828.114 609.109L825.926 648.285C825.537 655.238 827.088 662.163 830.405 668.287C833.722 674.41 838.676 679.492 844.713 682.964L884.823 706.008C885.432 721.087 885.827 730.833 885.827 730.833Z" fill="#F69220"/>
<path d="M853.73 511.637L859.709 524.122L851.195 570.341C851.09 571.175 850.756 571.963 850.232 572.62C849.707 573.277 849.012 573.776 848.222 574.063C847.432 574.349 846.578 574.413 845.754 574.246C844.93 574.078 844.169 573.687 843.553 573.115L822.936 553.874L835.039 506.125L841.425 506.005L853.73 511.637Z" fill="#EC8155"/>
<path d="M856.911 518.322C855.859 525.497 854.172 532.672 851.458 536.606C845.479 545.216 833.018 549.031 823.953 549.761L835.027 506.065L841.413 505.945L853.778 511.578L856.911 518.322Z" fill="#B24620"/>
<path d="M835.828 469.508C835.828 469.508 822.673 468.635 818.512 479.075C814.35 489.514 807.833 508.468 807.749 516.146C807.534 527.937 817.316 535.279 826.404 536.475C835.493 537.671 848.6 537.372 856.54 528.845C864.481 520.319 869.252 491.368 869.252 491.368C869.252 491.368 853.467 464.569 835.828 469.508Z" fill="#EC8155"/>
<path d="M818.045 485.748C818.598 485.001 819.323 484.399 820.159 483.994C820.994 483.588 821.916 483.391 822.844 483.419C823.773 483.448 824.68 483.7 825.49 484.156C826.299 484.611 826.987 485.256 827.493 486.035C827.748 486.467 827.949 486.928 828.091 487.41C828.125 487.521 828.113 487.641 828.06 487.744C828.006 487.846 827.914 487.924 827.804 487.96C827.734 487.985 827.658 487.992 827.585 487.979C827.512 487.967 827.443 487.935 827.385 487.888C826.196 486.905 824.761 486.264 823.235 486.035C821.659 486.002 820.083 486.138 818.536 486.441C818.446 486.464 818.352 486.459 818.266 486.428C818.179 486.396 818.105 486.339 818.051 486.263C817.998 486.188 817.969 486.099 817.968 486.006C817.967 485.914 817.994 485.824 818.045 485.748Z" fill="#231F20"/>
<path d="M842.082 489.407C842.635 488.66 843.36 488.058 844.195 487.653C845.031 487.247 845.953 487.05 846.881 487.078C847.809 487.107 848.717 487.359 849.527 487.815C850.336 488.27 851.024 488.915 851.53 489.694C851.785 490.126 851.986 490.588 852.128 491.069C852.161 491.18 852.15 491.3 852.097 491.403C852.043 491.506 851.951 491.583 851.841 491.619C851.771 491.644 851.695 491.651 851.622 491.638C851.548 491.626 851.48 491.594 851.422 491.547C850.233 490.564 848.798 489.923 847.272 489.694C845.696 489.667 844.121 489.803 842.573 490.1C842.483 490.123 842.389 490.118 842.303 490.087C842.216 490.055 842.142 489.998 842.088 489.922C842.035 489.847 842.006 489.758 842.005 489.665C842.004 489.573 842.031 489.483 842.082 489.407Z" fill="#231F20"/>
<path d="M816.562 484.181C816.562 484.181 836.892 484.743 848.791 477.078C847.344 487.147 854.424 492.791 859.829 492.803C851.458 503.41 861.168 508.863 861.168 508.863L868.619 507.021L879.25 482.507L847.631 460.24L817.842 470.572L816.562 484.181Z" fill="#231F20"/>
<path d="M817.531 493.281C818.764 492.492 820.22 492.122 821.681 492.229C823.141 492.345 824.523 492.938 825.615 493.915" stroke="#231F20" stroke-width="1.15" stroke-linecap="round" stroke-linejoin="round"/>
<path d="M840.408 497.467C841.679 496.739 843.154 496.449 844.606 496.642C846.058 496.834 847.406 497.498 848.444 498.531" stroke="#231F20" stroke-width="1.15" stroke-linecap="round" stroke-linejoin="round"/>
<path d="M819.708 512.821C822.612 513.811 825.692 514.175 828.747 513.888C831.802 513.602 834.761 512.671 837.43 511.159C839.188 522.759 833.843 527.111 827.17 526.836C820.497 526.561 816.778 521.718 819.708 512.821Z" fill="#231F20"/>
<path d="M837.765 515.679C834.895 517.784 830.722 519.04 824.957 518.071C820.832 517.365 820.569 514.974 820.975 513.288C826.527 514.732 832.421 513.991 837.442 511.219C837.668 512.695 837.776 514.186 837.765 515.679Z" fill="url(#paint1_linear_452_4)"/>
<path d="M836.103 522.507C834.213 525.688 830.901 526.98 827.17 526.836C825.893 526.862 824.626 526.609 823.457 526.095C822.288 525.581 821.245 524.818 820.401 523.859C821.157 523.307 822.008 522.902 822.912 522.663C824.81 522.153 826.828 522.348 828.593 523.213C830.245 522.049 832.263 521.522 834.273 521.73C834.596 521.762 834.913 521.834 835.218 521.945C835.533 522.099 835.83 522.287 836.103 522.507Z" fill="#AA1325"/>
<path d="M831.846 494.764C831.499 495.857 830.965 496.88 830.267 497.789C828.593 499.571 826.297 499.093 824.993 501.09C823.69 503.087 826.093 506.806 827.827 506.746" stroke="#231F20" stroke-width="1.15" stroke-linecap="round" stroke-linejoin="round"/>
<path d="M858.43 509.604C859.028 507.734 860.229 506.115 861.845 505.001C863.462 503.886 865.402 503.339 867.363 503.446C868.375 503.499 869.361 503.788 870.242 504.291C871.122 504.793 871.873 505.495 872.433 506.34C876.511 512.319 872.433 521.957 865.067 523.763C863.165 524.363 861.11 524.247 859.288 523.436C857.466 522.626 856.004 521.177 855.177 519.362L858.43 509.604Z" fill="#EC8155"/>
<path d="M867.925 509.772L862.376 518.705" stroke="#231F20" stroke-width="0.86" stroke-linecap="round" stroke-linejoin="round"/>
<path d="M821.944 622.097L802.702 675.419C809.411 715.539 753.337 719.007 758.371 681.183L777.745 604.099L799.091 596.231L821.944 622.097Z" fill="#EC8155"/>
<path d="M863.488 768.717L867.076 784.179C867.686 786.822 869.186 789.175 871.324 790.845C873.461 792.514 876.107 793.399 878.819 793.351L889.582 793.16C891.336 793.128 893.059 792.687 894.613 791.873C896.167 791.058 897.51 789.892 898.534 788.467C899.558 787.043 900.235 785.399 900.512 783.666C900.789 781.934 900.658 780.16 900.13 778.487L889.857 745.781L853.096 750.768L863.488 768.717Z" fill="#EC8155"/>
<path d="M802.702 675.419L894.641 748.735L868.236 768.478L765.547 701.787L781.858 678.743L802.702 675.419Z" fill="#EC8155"/>
<path d="M836.486 580.446L815.522 644.243L761.612 630.073L788.077 568.739L836.486 580.446Z" fill="#F69E20"/>
<path d="M815.522 644.243L831.2 596.518" stroke="white" stroke-width="1.32" stroke-linecap="round" stroke-linejoin="round"/>
<path d="M819.062 633.457L766.24 618.497" stroke="white" stroke-width="1.32" stroke-linecap="round" stroke-linejoin="round"/>
<defs>
<linearGradient id="paint0_linear_452_4" x1="757.116" y1="182.293" x2="768.99" y2="1331.3" gradientUnits="userSpaceOnUse">
<stop stop-color="#F7F3FF"/>
<stop offset="0.58" stop-color="#F9F6FF"/>
<stop offset="1" stop-color="white"/>
</linearGradient>
<linearGradient id="paint1_linear_452_4" x1="836.493" y1="508.659" x2="835.879" y2="516.295" gradientUnits="userSpaceOnUse">
<stop stop-color="#F7F3FF"/>
<stop offset="0.58" stop-color="#F9F6FF"/>
<stop offset="1" stop-color="white"/>
</linearGradient>
</defs>
</svg>
