<svg width="729" height="520" viewBox="0 0 729 520" fill="none" xmlns="http://www.w3.org/2000/svg">
<path d="M321.98 138.33C345.665 159.546 387.346 194.539 428.281 217.465" stroke="#DCCFF7" stroke-width="2.0367" stroke-linecap="round" stroke-linejoin="round" stroke-dasharray="4.07 8.15"/>
<path d="M302.22 120.099C302.22 120.099 309.675 127.398 321.959 138.408" stroke="#2E353A" stroke-width="2.0367" stroke-linecap="round" stroke-linejoin="round" stroke-dasharray="4.07 8.15"/>
<path d="M292.555 116.743L324.729 75.195L191.164 2.261L292.555 116.743Z" fill="#DCCFF7" stroke="#2E353A" stroke-width="2.57215" stroke-linecap="round" stroke-linejoin="round"/>
<path d="M313.123 78.172L292.555 116.743L191.164 2.261L313.123 78.172Z" fill="#8D63E5" stroke="#2E353A" stroke-width="2.57215" stroke-linecap="round" stroke-linejoin="round"/>
<path d="M313.123 78.172L285.587 91.404L191.164 2.261L313.123 78.172Z" fill="#DCCFF7" stroke="#2E353A" stroke-width="2.57215" stroke-linecap="round" stroke-linejoin="round"/>
<path d="M324.729 75.195L346.846 72.407L191.164 2.261L324.729 75.195Z" fill="#DCCFF7" stroke="#2E353A" stroke-width="2.57215" stroke-linecap="round" stroke-linejoin="round"/>
<path d="M266.747 102.064L270.616 106.131" stroke="#2E353A" stroke-width="2.0367" stroke-linecap="round" stroke-linejoin="round"/>
<path d="M245.641 79.87L258.6 93.485" stroke="#2E353A" stroke-width="2.0367" stroke-linecap="round" stroke-linejoin="round"/>
<path d="M198.299 187.565L211.829 136.811L350.805 198.857L198.299 187.565Z" fill="#DCCFF7" stroke="#2E353A" stroke-width="2.57215" stroke-linecap="round" stroke-linejoin="round"/>
<path d="M216.499 147.836L198.299 187.565L350.805 198.857L216.499 147.836Z" fill="#8D63E5" stroke="#2E353A" stroke-width="2.57215" stroke-linecap="round" stroke-linejoin="round"/>
<path d="M216.499 147.836L222.669 177.747L350.805 198.857L216.499 147.836Z" fill="#DCCFF7" stroke="#2E353A" stroke-width="2.57215" stroke-linecap="round" stroke-linejoin="round"/>
<path d="M211.829 136.811L200.657 117.518L350.805 198.857L211.829 136.811Z" fill="#DCCFF7" stroke="#2E353A" stroke-width="2.57215" stroke-linecap="round" stroke-linejoin="round"/>
<path d="M250.545 200.481L263.822 201.28" stroke="#2E353A" stroke-width="2.0367" stroke-linecap="round" stroke-linejoin="round"/>
<path d="M203.908 197.681L237.288 199.687" stroke="#2E353A" stroke-width="2.0367" stroke-linecap="round" stroke-linejoin="round"/>
<path d="M181.638 179.772C181.638 179.772 62.249 169.024 13.322 265.589C-35.6059 362.153 76.963 398.484 109.758 354.531C142.553 310.577 61.208 267.815 28.938 309.8C-3.333 351.786 34.198 448.211 113.836 473.656C180.014 494.796 388.859 466.64 511.049 478.029C511.049 478.029 604.03 477.142 736.452 518.07" stroke="#F1ECFC" stroke-width="2.0367" stroke-linecap="round" stroke-linejoin="round" stroke-dasharray="4.07 8.15"/>
</svg>
