<svg width="1440" height="800" viewBox="0 0 1440 800" fill="none" xmlns="http://www.w3.org/2000/svg">
<g clip-path="url(#clip0_410_30)">
<rect width="1440" height="800" fill="#502B9E"/>
<g opacity="0.5">
<g clip-path="url(#clip1_410_30)">
<rect x="-2" width="68.75" height="68.75" stroke="#D9D1E7" stroke-opacity="0.04" stroke-width="1.375"/>
<rect x="66.7501" width="68.75" height="68.75" stroke="#D9D1E7" stroke-opacity="0.04" stroke-width="1.375"/>
<rect x="135.5" width="68.75" height="68.75" stroke="#D9D1E7" stroke-opacity="0.04" stroke-width="1.375"/>
<rect x="204.25" width="68.75" height="68.75" stroke="#D9D1E7" stroke-opacity="0.04" stroke-width="1.375"/>
<rect x="273" width="68.75" height="68.75" stroke="#D9D1E7" stroke-opacity="0.04" stroke-width="1.375"/>
<rect x="341.75" width="68.75" height="68.75" stroke="#D9D1E7" stroke-opacity="0.04" stroke-width="1.375"/>
<rect x="410.5" width="68.75" height="68.75" stroke="#D9D1E7" stroke-opacity="0.04" stroke-width="1.375"/>
<rect x="479.25" width="68.75" height="68.75" stroke="#D9D1E7" stroke-opacity="0.04" stroke-width="1.375"/>
<rect x="548" width="68.75" height="68.75" stroke="#D9D1E7" stroke-opacity="0.04" stroke-width="1.375"/>
<rect x="616.75" width="68.75" height="68.75" stroke="#D9D1E7" stroke-opacity="0.04" stroke-width="1.375"/>
<rect x="685.5" width="68.75" height="68.75" stroke="#D9D1E7" stroke-opacity="0.04" stroke-width="1.375"/>
<rect x="754.25" width="68.75" height="68.75" stroke="#D9D1E7" stroke-opacity="0.04" stroke-width="1.375"/>
<rect x="823" width="68.75" height="68.75" stroke="#D9D1E7" stroke-opacity="0.04" stroke-width="1.375"/>
<rect x="891.75" width="68.75" height="68.75" stroke="#D9D1E7" stroke-opacity="0.04" stroke-width="1.375"/>
<rect x="960.5" width="68.75" height="68.75" stroke="#D9D1E7" stroke-opacity="0.04" stroke-width="1.375"/>
<rect x="1029.25" width="68.75" height="68.75" stroke="#D9D1E7" stroke-opacity="0.04" stroke-width="1.375"/>
<rect x="1098" width="68.75" height="68.75" stroke="#D9D1E7" stroke-opacity="0.04" stroke-width="1.375"/>
<rect x="1166.75" width="68.75" height="68.75" stroke="#D9D1E7" stroke-opacity="0.04" stroke-width="1.375"/>
<rect x="1235.5" width="68.75" height="68.75" stroke="#D9D1E7" stroke-opacity="0.04" stroke-width="1.375"/>
<rect x="1304.25" width="68.75" height="68.75" stroke="#D9D1E7" stroke-opacity="0.04" stroke-width="1.375"/>
<rect x="1373" width="68.75" height="68.75" stroke="#D9D1E7" stroke-opacity="0.04" stroke-width="1.375"/>
<rect x="-2.00006" y="68.7501" width="68.75" height="68.75" stroke="#D9D1E7" stroke-opacity="0.04" stroke-width="1.375"/>
<rect x="66.75" y="68.7502" width="68.75" height="68.75" stroke="#D9D1E7" stroke-opacity="0.04" stroke-width="1.375"/>
<rect x="135.5" y="68.7502" width="68.75" height="68.75" fill="#D9D1E7" fill-opacity="0.06" stroke="#D9D1E7" stroke-opacity="0.04" stroke-width="1.375"/>
<rect x="204.25" y="68.7502" width="68.75" height="68.75" stroke="#D9D1E7" stroke-opacity="0.04" stroke-width="1.375"/>
<rect x="273" y="68.7502" width="68.75" height="68.75" stroke="#D9D1E7" stroke-opacity="0.04" stroke-width="1.375"/>
<rect x="341.75" y="68.7502" width="68.75" height="68.75" stroke="#D9D1E7" stroke-opacity="0.04" stroke-width="1.375"/>
<rect x="410.5" y="68.7502" width="68.75" height="68.75" stroke="#D9D1E7" stroke-opacity="0.04" stroke-width="1.375"/>
<rect x="479.25" y="68.7502" width="68.75" height="68.75" stroke="#D9D1E7" stroke-opacity="0.04" stroke-width="1.375"/>
<rect x="548" y="68.7502" width="68.75" height="68.75" stroke="#D9D1E7" stroke-opacity="0.04" stroke-width="1.375"/>
<rect x="616.75" y="68.7502" width="68.75" height="68.75" fill="#D9D1E7" fill-opacity="0.06" stroke="#D9D1E7" stroke-opacity="0.04" stroke-width="1.375"/>
<rect x="685.5" y="68.7502" width="68.75" height="68.75" stroke="#D9D1E7" stroke-opacity="0.04" stroke-width="1.375"/>
<rect x="754.25" y="68.7502" width="68.75" height="68.75" stroke="#D9D1E7" stroke-opacity="0.04" stroke-width="1.375"/>
<rect x="823" y="68.7502" width="68.75" height="68.75" stroke="#D9D1E7" stroke-opacity="0.04" stroke-width="1.375"/>
<rect x="891.75" y="68.7502" width="68.75" height="68.75" stroke="#D9D1E7" stroke-opacity="0.04" stroke-width="1.375"/>
<rect x="960.5" y="68.7502" width="68.75" height="68.75" stroke="#D9D1E7" stroke-opacity="0.04" stroke-width="1.375"/>
<rect x="1029.25" y="68.7502" width="68.75" height="68.75" stroke="#D9D1E7" stroke-opacity="0.04" stroke-width="1.375"/>
<rect x="1098" y="68.7502" width="68.75" height="68.75" stroke="#D9D1E7" stroke-opacity="0.04" stroke-width="1.375"/>
<rect x="1166.75" y="68.7502" width="68.75" height="68.75" stroke="#D9D1E7" stroke-opacity="0.04" stroke-width="1.375"/>
<rect x="1235.5" y="68.7502" width="68.75" height="68.75" stroke="#D9D1E7" stroke-opacity="0.04" stroke-width="1.375"/>
<rect x="1304.25" y="68.7502" width="68.75" height="68.75" stroke="#D9D1E7" stroke-opacity="0.04" stroke-width="1.375"/>
<rect x="1373" y="68.7502" width="68.75" height="68.75" stroke="#D9D1E7" stroke-opacity="0.04" stroke-width="1.375"/>
<rect x="-2.00006" y="137.5" width="68.75" height="68.75" stroke="#D9D1E7" stroke-opacity="0.04" stroke-width="1.375"/>
<rect x="66.7498" y="137.5" width="68.75" height="68.75" stroke="#D9D1E7" stroke-opacity="0.04" stroke-width="1.375"/>
<rect x="135.5" y="137.5" width="68.75" height="68.75" stroke="#D9D1E7" stroke-opacity="0.04" stroke-width="1.375"/>
<rect x="204.25" y="137.5" width="68.75" height="68.75" stroke="#D9D1E7" stroke-opacity="0.04" stroke-width="1.375"/>
<rect x="273" y="137.5" width="68.75" height="68.75" stroke="#D9D1E7" stroke-opacity="0.04" stroke-width="1.375"/>
<rect x="341.75" y="137.5" width="68.75" height="68.75" stroke="#D9D1E7" stroke-opacity="0.04" stroke-width="1.375"/>
<rect x="410.5" y="137.5" width="68.75" height="68.75" stroke="#D9D1E7" stroke-opacity="0.04" stroke-width="1.375"/>
<rect x="479.25" y="137.5" width="68.75" height="68.75" stroke="#D9D1E7" stroke-opacity="0.04" stroke-width="1.375"/>
<rect x="548" y="137.5" width="68.75" height="68.75" stroke="#D9D1E7" stroke-opacity="0.04" stroke-width="1.375"/>
<rect x="616.75" y="137.5" width="68.75" height="68.75" stroke="#D9D1E7" stroke-opacity="0.04" stroke-width="1.375"/>
<rect x="685.5" y="137.5" width="68.75" height="68.75" stroke="#D9D1E7" stroke-opacity="0.04" stroke-width="1.375"/>
<rect x="754.25" y="137.5" width="68.75" height="68.75" stroke="#D9D1E7" stroke-opacity="0.04" stroke-width="1.375"/>
<rect x="823" y="137.5" width="68.75" height="68.75" stroke="#D9D1E7" stroke-opacity="0.04" stroke-width="1.375"/>
<rect x="891.75" y="137.5" width="68.75" height="68.75" stroke="#D9D1E7" stroke-opacity="0.04" stroke-width="1.375"/>
<rect x="960.5" y="137.5" width="68.75" height="68.75" stroke="#D9D1E7" stroke-opacity="0.04" stroke-width="1.375"/>
<rect x="1029.25" y="137.5" width="68.75" height="68.75" stroke="#D9D1E7" stroke-opacity="0.04" stroke-width="1.375"/>
<rect x="1098" y="137.5" width="68.75" height="68.75" fill="#D9D1E7" fill-opacity="0.06" stroke="#D9D1E7" stroke-opacity="0.04" stroke-width="1.375"/>
<rect x="1166.75" y="137.5" width="68.75" height="68.75" stroke="#D9D1E7" stroke-opacity="0.04" stroke-width="1.375"/>
<rect x="1235.5" y="137.5" width="68.75" height="68.75" stroke="#D9D1E7" stroke-opacity="0.04" stroke-width="1.375"/>
<rect x="1304.25" y="137.5" width="68.75" height="68.75" stroke="#D9D1E7" stroke-opacity="0.04" stroke-width="1.375"/>
<rect x="1373" y="137.5" width="68.75" height="68.75" stroke="#D9D1E7" stroke-opacity="0.04" stroke-width="1.375"/>
<rect x="-2.00006" y="206.25" width="68.75" height="68.75" stroke="#D9D1E7" stroke-opacity="0.04" stroke-width="1.375"/>
<rect x="66.75" y="206.25" width="68.75" height="68.75" stroke="#D9D1E7" stroke-opacity="0.04" stroke-width="1.375"/>
<rect x="135.5" y="206.25" width="68.75" height="68.75" stroke="#D9D1E7" stroke-opacity="0.04" stroke-width="1.375"/>
<rect x="204.25" y="206.25" width="68.75" height="68.75" stroke="#D9D1E7" stroke-opacity="0.04" stroke-width="1.375"/>
<rect x="273" y="206.25" width="68.75" height="68.75" stroke="#D9D1E7" stroke-opacity="0.04" stroke-width="1.375"/>
<rect x="341.75" y="206.25" width="68.75" height="68.75" stroke="#D9D1E7" stroke-opacity="0.04" stroke-width="1.375"/>
<rect x="410.5" y="206.25" width="68.75" height="68.75" stroke="#D9D1E7" stroke-opacity="0.04" stroke-width="1.375"/>
<rect x="479.25" y="206.25" width="68.75" height="68.75" stroke="#D9D1E7" stroke-opacity="0.04" stroke-width="1.375"/>
<rect x="548" y="206.25" width="68.75" height="68.75" stroke="#D9D1E7" stroke-opacity="0.04" stroke-width="1.375"/>
<rect x="616.75" y="206.25" width="68.75" height="68.75" stroke="#D9D1E7" stroke-opacity="0.04" stroke-width="1.375"/>
<rect x="685.5" y="206.25" width="68.75" height="68.75" stroke="#D9D1E7" stroke-opacity="0.04" stroke-width="1.375"/>
<rect x="754.25" y="206.25" width="68.75" height="68.75" stroke="#D9D1E7" stroke-opacity="0.04" stroke-width="1.375"/>
<rect x="823" y="206.25" width="68.75" height="68.75" stroke="#D9D1E7" stroke-opacity="0.04" stroke-width="1.375"/>
<rect x="891.75" y="206.25" width="68.75" height="68.75" stroke="#D9D1E7" stroke-opacity="0.04" stroke-width="1.375"/>
<rect x="960.5" y="206.25" width="68.75" height="68.75" stroke="#D9D1E7" stroke-opacity="0.04" stroke-width="1.375"/>
<rect x="1029.25" y="206.25" width="68.75" height="68.75" stroke="#D9D1E7" stroke-opacity="0.04" stroke-width="1.375"/>
<rect x="1098" y="206.25" width="68.75" height="68.75" stroke="#D9D1E7" stroke-opacity="0.04" stroke-width="1.375"/>
<rect x="1166.75" y="206.25" width="68.75" height="68.75" stroke="#D9D1E7" stroke-opacity="0.04" stroke-width="1.375"/>
<rect x="1235.5" y="206.25" width="68.75" height="68.75" stroke="#D9D1E7" stroke-opacity="0.04" stroke-width="1.375"/>
<rect x="1304.25" y="206.25" width="68.75" height="68.75" stroke="#D9D1E7" stroke-opacity="0.04" stroke-width="1.375"/>
<rect x="1373" y="206.25" width="68.75" height="68.75" stroke="#D9D1E7" stroke-opacity="0.04" stroke-width="1.375"/>
<rect x="-2.00006" y="275" width="68.75" height="68.75" stroke="#D9D1E7" stroke-opacity="0.04" stroke-width="1.375"/>
<rect x="66.75" y="275" width="68.75" height="68.75" stroke="#D9D1E7" stroke-opacity="0.04" stroke-width="1.375"/>
<rect x="135.5" y="275" width="68.75" height="68.75" stroke="#D9D1E7" stroke-opacity="0.04" stroke-width="1.375"/>
<rect x="204.25" y="275" width="68.75" height="68.75" fill="#D9D1E7" fill-opacity="0.06" stroke="#D9D1E7" stroke-opacity="0.04" stroke-width="1.375"/>
<rect x="273" y="275" width="68.75" height="68.75" stroke="#D9D1E7" stroke-opacity="0.04" stroke-width="1.375"/>
<rect x="341.75" y="275" width="68.75" height="68.75" stroke="#D9D1E7" stroke-opacity="0.04" stroke-width="1.375"/>
<rect x="410.5" y="275" width="68.75" height="68.75" stroke="#D9D1E7" stroke-opacity="0.04" stroke-width="1.375"/>
<rect x="479.25" y="275" width="68.75" height="68.75" stroke="#D9D1E7" stroke-opacity="0.04" stroke-width="1.375"/>
<rect x="548" y="275" width="68.75" height="68.75" stroke="#D9D1E7" stroke-opacity="0.04" stroke-width="1.375"/>
<rect x="616.75" y="275" width="68.75" height="68.75" stroke="#D9D1E7" stroke-opacity="0.04" stroke-width="1.375"/>
<rect x="685.5" y="275" width="68.75" height="68.75" stroke="#D9D1E7" stroke-opacity="0.04" stroke-width="1.375"/>
<rect x="754.25" y="275" width="68.75" height="68.75" stroke="#D9D1E7" stroke-opacity="0.04" stroke-width="1.375"/>
<rect x="823" y="275" width="68.75" height="68.75" fill="#D9D1E7" fill-opacity="0.06" stroke="#D9D1E7" stroke-opacity="0.04" stroke-width="1.375"/>
<rect x="891.75" y="275" width="68.75" height="68.75" stroke="#D9D1E7" stroke-opacity="0.04" stroke-width="1.375"/>
<rect x="960.5" y="275" width="68.75" height="68.75" stroke="#D9D1E7" stroke-opacity="0.04" stroke-width="1.375"/>
<rect x="1029.25" y="275" width="68.75" height="68.75" stroke="#D9D1E7" stroke-opacity="0.04" stroke-width="1.375"/>
<rect x="1098" y="275" width="68.75" height="68.75" stroke="#D9D1E7" stroke-opacity="0.04" stroke-width="1.375"/>
<rect x="1166.75" y="275" width="68.75" height="68.75" stroke="#D9D1E7" stroke-opacity="0.04" stroke-width="1.375"/>
<rect x="1235.5" y="275" width="68.75" height="68.75" stroke="#D9D1E7" stroke-opacity="0.04" stroke-width="1.375"/>
<rect x="1304.25" y="275" width="68.75" height="68.75" stroke="#D9D1E7" stroke-opacity="0.04" stroke-width="1.375"/>
<rect x="1373" y="275" width="68.75" height="68.75" stroke="#D9D1E7" stroke-opacity="0.04" stroke-width="1.375"/>
<rect x="-2.00006" y="343.751" width="68.75" height="68.75" stroke="#D9D1E7" stroke-opacity="0.04" stroke-width="1.375"/>
<rect x="66.75" y="343.751" width="68.75" height="68.75" stroke="#D9D1E7" stroke-opacity="0.04" stroke-width="1.375"/>
<rect x="135.5" y="343.751" width="68.75" height="68.75" stroke="#D9D1E7" stroke-opacity="0.04" stroke-width="1.375"/>
<rect x="204.25" y="343.751" width="68.75" height="68.75" stroke="#D9D1E7" stroke-opacity="0.04" stroke-width="1.375"/>
<rect x="273" y="343.751" width="68.75" height="68.75" stroke="#D9D1E7" stroke-opacity="0.04" stroke-width="1.375"/>
<rect x="341.75" y="343.751" width="68.75" height="68.75" stroke="#D9D1E7" stroke-opacity="0.04" stroke-width="1.375"/>
<rect x="410.5" y="343.751" width="68.75" height="68.75" stroke="#D9D1E7" stroke-opacity="0.04" stroke-width="1.375"/>
<rect x="479.25" y="343.751" width="68.75" height="68.75" stroke="#D9D1E7" stroke-opacity="0.04" stroke-width="1.375"/>
<rect x="548" y="343.751" width="68.75" height="68.75" stroke="#D9D1E7" stroke-opacity="0.04" stroke-width="1.375"/>
<rect x="616.75" y="343.751" width="68.75" height="68.75" stroke="#D9D1E7" stroke-opacity="0.04" stroke-width="1.375"/>
<rect x="685.5" y="343.751" width="68.75" height="68.75" stroke="#D9D1E7" stroke-opacity="0.04" stroke-width="1.375"/>
<rect x="754.25" y="343.751" width="68.75" height="68.75" stroke="#D9D1E7" stroke-opacity="0.04" stroke-width="1.375"/>
<rect x="823" y="343.751" width="68.75" height="68.75" stroke="#D9D1E7" stroke-opacity="0.04" stroke-width="1.375"/>
<rect x="891.75" y="343.751" width="68.75" height="68.75" stroke="#D9D1E7" stroke-opacity="0.04" stroke-width="1.375"/>
<rect x="960.5" y="343.751" width="68.75" height="68.75" stroke="#D9D1E7" stroke-opacity="0.04" stroke-width="1.375"/>
<rect x="1029.25" y="343.751" width="68.75" height="68.75" stroke="#D9D1E7" stroke-opacity="0.04" stroke-width="1.375"/>
<rect x="1098" y="343.751" width="68.75" height="68.75" stroke="#D9D1E7" stroke-opacity="0.04" stroke-width="1.375"/>
<rect x="1166.75" y="343.751" width="68.75" height="68.75" stroke="#D9D1E7" stroke-opacity="0.04" stroke-width="1.375"/>
<rect x="1235.5" y="343.751" width="68.75" height="68.75" fill="#D9D1E7" fill-opacity="0.06" stroke="#D9D1E7" stroke-opacity="0.04" stroke-width="1.375"/>
<rect x="1304.25" y="343.751" width="68.75" height="68.75" stroke="#D9D1E7" stroke-opacity="0.04" stroke-width="1.375"/>
<rect x="1373" y="343.751" width="68.75" height="68.75" stroke="#D9D1E7" stroke-opacity="0.04" stroke-width="1.375"/>
<rect x="-2.00006" y="412.501" width="68.75" height="68.75" stroke="#D9D1E7" stroke-opacity="0.04" stroke-width="1.375"/>
<rect x="66.75" y="412.501" width="68.75" height="68.75" stroke="#D9D1E7" stroke-opacity="0.04" stroke-width="1.375"/>
<rect x="135.5" y="412.501" width="68.75" height="68.75" stroke="#D9D1E7" stroke-opacity="0.04" stroke-width="1.375"/>
<rect x="204.25" y="412.501" width="68.75" height="68.75" stroke="#D9D1E7" stroke-opacity="0.04" stroke-width="1.375"/>
<rect x="273" y="412.501" width="68.75" height="68.75" stroke="#D9D1E7" stroke-opacity="0.04" stroke-width="1.375"/>
<rect x="341.75" y="412.501" width="68.75" height="68.75" stroke="#D9D1E7" stroke-opacity="0.04" stroke-width="1.375"/>
<rect x="410.5" y="412.501" width="68.75" height="68.75" stroke="#D9D1E7" stroke-opacity="0.04" stroke-width="1.375"/>
<rect x="479.25" y="412.501" width="68.75" height="68.75" stroke="#D9D1E7" stroke-opacity="0.04" stroke-width="1.375"/>
<rect x="548" y="412.501" width="68.75" height="68.75" stroke="#D9D1E7" stroke-opacity="0.04" stroke-width="1.375"/>
<rect x="616.75" y="412.501" width="68.75" height="68.75" stroke="#D9D1E7" stroke-opacity="0.04" stroke-width="1.375"/>
<rect x="685.5" y="412.501" width="68.75" height="68.75" stroke="#D9D1E7" stroke-opacity="0.04" stroke-width="1.375"/>
<rect x="754.25" y="412.501" width="68.75" height="68.75" stroke="#D9D1E7" stroke-opacity="0.04" stroke-width="1.375"/>
<rect x="823" y="412.501" width="68.75" height="68.75" stroke="#D9D1E7" stroke-opacity="0.04" stroke-width="1.375"/>
<rect x="891.75" y="412.501" width="68.75" height="68.75" stroke="#D9D1E7" stroke-opacity="0.04" stroke-width="1.375"/>
<rect x="960.5" y="412.501" width="68.75" height="68.75" stroke="#D9D1E7" stroke-opacity="0.04" stroke-width="1.375"/>
<rect x="1029.25" y="412.501" width="68.75" height="68.75" stroke="#D9D1E7" stroke-opacity="0.04" stroke-width="1.375"/>
<rect x="1098" y="412.501" width="68.75" height="68.75" stroke="#D9D1E7" stroke-opacity="0.04" stroke-width="1.375"/>
<rect x="1166.75" y="412.501" width="68.75" height="68.75" stroke="#D9D1E7" stroke-opacity="0.04" stroke-width="1.375"/>
<rect x="1235.5" y="412.501" width="68.75" height="68.75" stroke="#D9D1E7" stroke-opacity="0.04" stroke-width="1.375"/>
<rect x="1304.25" y="412.501" width="68.75" height="68.75" stroke="#D9D1E7" stroke-opacity="0.04" stroke-width="1.375"/>
<rect x="1373" y="412.501" width="68.75" height="68.75" stroke="#D9D1E7" stroke-opacity="0.04" stroke-width="1.375"/>
<rect x="-2.00006" y="481.251" width="68.75" height="68.75" stroke="#D9D1E7" stroke-opacity="0.04" stroke-width="1.375"/>
<rect x="66.75" y="481.251" width="68.75" height="68.75" stroke="#D9D1E7" stroke-opacity="0.04" stroke-width="1.375"/>
<rect x="135.5" y="481.251" width="68.75" height="68.75" stroke="#D9D1E7" stroke-opacity="0.04" stroke-width="1.375"/>
<rect x="204.25" y="481.251" width="68.75" height="68.75" stroke="#D9D1E7" stroke-opacity="0.04" stroke-width="1.375"/>
<rect x="273" y="481.251" width="68.75" height="68.75" stroke="#D9D1E7" stroke-opacity="0.04" stroke-width="1.375"/>
<rect x="341.75" y="481.251" width="68.75" height="68.75" stroke="#D9D1E7" stroke-opacity="0.04" stroke-width="1.375"/>
<rect x="410.5" y="481.251" width="68.75" height="68.75" stroke="#D9D1E7" stroke-opacity="0.04" stroke-width="1.375"/>
<rect x="479.25" y="481.251" width="68.75" height="68.75" stroke="#D9D1E7" stroke-opacity="0.04" stroke-width="1.375"/>
<rect x="548" y="481.251" width="68.75" height="68.75" fill="#D9D1E7" fill-opacity="0.06" stroke="#D9D1E7" stroke-opacity="0.04" stroke-width="1.375"/>
<rect x="616.75" y="481.251" width="68.75" height="68.75" stroke="#D9D1E7" stroke-opacity="0.04" stroke-width="1.375"/>
<rect x="685.5" y="481.251" width="68.75" height="68.75" stroke="#D9D1E7" stroke-opacity="0.04" stroke-width="1.375"/>
<rect x="754.25" y="481.251" width="68.75" height="68.75" stroke="#D9D1E7" stroke-opacity="0.04" stroke-width="1.375"/>
<rect x="823" y="481.251" width="68.75" height="68.75" stroke="#D9D1E7" stroke-opacity="0.04" stroke-width="1.375"/>
<rect x="891.75" y="481.251" width="68.75" height="68.75" stroke="#D9D1E7" stroke-opacity="0.04" stroke-width="1.375"/>
<rect x="960.5" y="481.251" width="68.75" height="68.75" stroke="#D9D1E7" stroke-opacity="0.04" stroke-width="1.375"/>
<rect x="1029.25" y="481.251" width="68.75" height="68.75" stroke="#D9D1E7" stroke-opacity="0.04" stroke-width="1.375"/>
<rect x="1098" y="481.251" width="68.75" height="68.75" stroke="#D9D1E7" stroke-opacity="0.04" stroke-width="1.375"/>
<rect x="1166.75" y="481.251" width="68.75" height="68.75" stroke="#D9D1E7" stroke-opacity="0.04" stroke-width="1.375"/>
<rect x="1235.5" y="481.251" width="68.75" height="68.75" stroke="#D9D1E7" stroke-opacity="0.04" stroke-width="1.375"/>
<rect x="1304.25" y="481.251" width="68.75" height="68.75" stroke="#D9D1E7" stroke-opacity="0.04" stroke-width="1.375"/>
<rect x="1373" y="481.251" width="68.75" height="68.75" stroke="#D9D1E7" stroke-opacity="0.04" stroke-width="1.375"/>
<rect x="-2.00006" y="550.001" width="68.75" height="68.75" stroke="#D9D1E7" stroke-opacity="0.04" stroke-width="1.375"/>
<rect x="66.75" y="550.001" width="68.75" height="68.75" stroke="#D9D1E7" stroke-opacity="0.04" stroke-width="1.375"/>
<rect x="135.5" y="550.001" width="68.75" height="68.75" stroke="#D9D1E7" stroke-opacity="0.04" stroke-width="1.375"/>
<rect x="204.25" y="550.001" width="68.75" height="68.75" stroke="#D9D1E7" stroke-opacity="0.04" stroke-width="1.375"/>
<rect x="273" y="550.001" width="68.75" height="68.75" fill="#D9D1E7" fill-opacity="0.06" stroke="#D9D1E7" stroke-opacity="0.04" stroke-width="1.375"/>
<rect x="341.75" y="550.001" width="68.75" height="68.75" stroke="#D9D1E7" stroke-opacity="0.04" stroke-width="1.375"/>
<rect x="410.5" y="550.001" width="68.75" height="68.75" stroke="#D9D1E7" stroke-opacity="0.04" stroke-width="1.375"/>
<rect x="479.25" y="550.001" width="68.75" height="68.75" stroke="#D9D1E7" stroke-opacity="0.04" stroke-width="1.375"/>
<rect x="548" y="550.001" width="68.75" height="68.75" stroke="#D9D1E7" stroke-opacity="0.04" stroke-width="1.375"/>
<rect x="616.75" y="550.001" width="68.75" height="68.75" stroke="#D9D1E7" stroke-opacity="0.04" stroke-width="1.375"/>
<rect x="685.5" y="550.001" width="68.75" height="68.75" stroke="#D9D1E7" stroke-opacity="0.04" stroke-width="1.375"/>
<rect x="754.25" y="550.001" width="68.75" height="68.75" stroke="#D9D1E7" stroke-opacity="0.04" stroke-width="1.375"/>
<rect x="823" y="550.001" width="68.75" height="68.75" stroke="#D9D1E7" stroke-opacity="0.04" stroke-width="1.375"/>
<rect x="891.75" y="550.001" width="68.75" height="68.75" stroke="#D9D1E7" stroke-opacity="0.04" stroke-width="1.375"/>
<rect x="960.5" y="550.001" width="68.75" height="68.75" stroke="#D9D1E7" stroke-opacity="0.04" stroke-width="1.375"/>
<rect x="1029.25" y="550.001" width="68.75" height="68.75" stroke="#D9D1E7" stroke-opacity="0.04" stroke-width="1.375"/>
<rect x="1098" y="550.001" width="68.75" height="68.75" stroke="#D9D1E7" stroke-opacity="0.04" stroke-width="1.375"/>
<rect x="1166.75" y="550.001" width="68.75" height="68.75" stroke="#D9D1E7" stroke-opacity="0.04" stroke-width="1.375"/>
<rect x="1235.5" y="550.001" width="68.75" height="68.75" stroke="#D9D1E7" stroke-opacity="0.04" stroke-width="1.375"/>
<rect x="1304.25" y="550.001" width="68.75" height="68.75" stroke="#D9D1E7" stroke-opacity="0.04" stroke-width="1.375"/>
<rect x="1373" y="550.001" width="68.75" height="68.75" stroke="#D9D1E7" stroke-opacity="0.04" stroke-width="1.375"/>
<rect x="-2.00006" y="618.751" width="68.75" height="68.75" stroke="#D9D1E7" stroke-opacity="0.04" stroke-width="1.375"/>
<rect x="66.75" y="618.751" width="68.75" height="68.75" stroke="#D9D1E7" stroke-opacity="0.04" stroke-width="1.375"/>
<rect x="135.5" y="618.751" width="68.75" height="68.75" stroke="#D9D1E7" stroke-opacity="0.04" stroke-width="1.375"/>
<rect x="204.25" y="618.751" width="68.75" height="68.75" stroke="#D9D1E7" stroke-opacity="0.04" stroke-width="1.375"/>
<rect x="273" y="618.751" width="68.75" height="68.75" stroke="#D9D1E7" stroke-opacity="0.04" stroke-width="1.375"/>
<rect x="341.75" y="618.751" width="68.75" height="68.75" stroke="#D9D1E7" stroke-opacity="0.04" stroke-width="1.375"/>
<rect x="410.5" y="618.751" width="68.75" height="68.75" stroke="#D9D1E7" stroke-opacity="0.04" stroke-width="1.375"/>
<rect x="479.25" y="618.751" width="68.75" height="68.75" stroke="#D9D1E7" stroke-opacity="0.04" stroke-width="1.375"/>
<rect x="548" y="618.751" width="68.75" height="68.75" stroke="#D9D1E7" stroke-opacity="0.04" stroke-width="1.375"/>
<rect x="616.75" y="618.751" width="68.75" height="68.75" stroke="#D9D1E7" stroke-opacity="0.04" stroke-width="1.375"/>
<rect x="685.5" y="618.751" width="68.75" height="68.75" stroke="#D9D1E7" stroke-opacity="0.04" stroke-width="1.375"/>
<rect x="754.25" y="618.751" width="68.75" height="68.75" stroke="#D9D1E7" stroke-opacity="0.04" stroke-width="1.375"/>
<rect x="823" y="618.751" width="68.75" height="68.75" stroke="#D9D1E7" stroke-opacity="0.04" stroke-width="1.375"/>
<rect x="891.75" y="618.751" width="68.75" height="68.75" stroke="#D9D1E7" stroke-opacity="0.04" stroke-width="1.375"/>
<rect x="960.5" y="618.751" width="68.75" height="68.75" stroke="#D9D1E7" stroke-opacity="0.04" stroke-width="1.375"/>
<rect x="1029.25" y="618.751" width="68.75" height="68.75" stroke="#D9D1E7" stroke-opacity="0.04" stroke-width="1.375"/>
<rect x="1098" y="618.751" width="68.75" height="68.75" stroke="#D9D1E7" stroke-opacity="0.04" stroke-width="1.375"/>
<rect x="1166.75" y="618.751" width="68.75" height="68.75" stroke="#D9D1E7" stroke-opacity="0.04" stroke-width="1.375"/>
<rect x="1235.5" y="618.751" width="68.75" height="68.75" stroke="#D9D1E7" stroke-opacity="0.04" stroke-width="1.375"/>
<rect x="1304.25" y="618.751" width="68.75" height="68.75" stroke="#D9D1E7" stroke-opacity="0.04" stroke-width="1.375"/>
<rect x="1373" y="618.751" width="68.75" height="68.75" stroke="#D9D1E7" stroke-opacity="0.04" stroke-width="1.375"/>
<rect x="-2.00006" y="687.501" width="68.75" height="68.75" stroke="#D9D1E7" stroke-opacity="0.04" stroke-width="1.375"/>
<rect x="66.75" y="687.501" width="68.75" height="68.75" stroke="#D9D1E7" stroke-opacity="0.04" stroke-width="1.375"/>
<rect x="135.5" y="687.501" width="68.75" height="68.75" stroke="#D9D1E7" stroke-opacity="0.04" stroke-width="1.375"/>
<rect x="204.25" y="687.501" width="68.75" height="68.75" stroke="#D9D1E7" stroke-opacity="0.04" stroke-width="1.375"/>
<rect x="273" y="687.501" width="68.75" height="68.75" stroke="#D9D1E7" stroke-opacity="0.04" stroke-width="1.375"/>
<rect x="341.75" y="687.501" width="68.75" height="68.75" stroke="#D9D1E7" stroke-opacity="0.04" stroke-width="1.375"/>
<rect x="410.5" y="687.501" width="68.75" height="68.75" stroke="#D9D1E7" stroke-opacity="0.04" stroke-width="1.375"/>
<rect x="479.25" y="687.501" width="68.75" height="68.75" stroke="#D9D1E7" stroke-opacity="0.04" stroke-width="1.375"/>
<rect x="548" y="687.501" width="68.75" height="68.75" stroke="#D9D1E7" stroke-opacity="0.04" stroke-width="1.375"/>
<rect x="616.75" y="687.501" width="68.75" height="68.75" stroke="#D9D1E7" stroke-opacity="0.04" stroke-width="1.375"/>
<rect x="685.5" y="687.501" width="68.75" height="68.75" stroke="#D9D1E7" stroke-opacity="0.04" stroke-width="1.375"/>
<rect x="754.25" y="687.501" width="68.75" height="68.75" stroke="#D9D1E7" stroke-opacity="0.04" stroke-width="1.375"/>
<rect x="823" y="687.501" width="68.75" height="68.75" stroke="#D9D1E7" stroke-opacity="0.04" stroke-width="1.375"/>
<rect x="891.75" y="687.501" width="68.75" height="68.75" stroke="#D9D1E7" stroke-opacity="0.04" stroke-width="1.375"/>
<rect x="960.5" y="687.501" width="68.75" height="68.75" stroke="#D9D1E7" stroke-opacity="0.04" stroke-width="1.375"/>
<rect x="1029.25" y="687.501" width="68.75" height="68.75" stroke="#D9D1E7" stroke-opacity="0.04" stroke-width="1.375"/>
<rect x="1098" y="687.501" width="68.75" height="68.75" stroke="#D9D1E7" stroke-opacity="0.04" stroke-width="1.375"/>
<rect x="1166.75" y="687.501" width="68.75" height="68.75" stroke="#D9D1E7" stroke-opacity="0.04" stroke-width="1.375"/>
<rect x="1235.5" y="687.501" width="68.75" height="68.75" stroke="#D9D1E7" stroke-opacity="0.04" stroke-width="1.375"/>
<rect x="1304.25" y="687.501" width="68.75" height="68.75" stroke="#D9D1E7" stroke-opacity="0.04" stroke-width="1.375"/>
<rect x="1373" y="687.501" width="68.75" height="68.75" stroke="#D9D1E7" stroke-opacity="0.04" stroke-width="1.375"/>
<rect x="-2.00006" y="756.249" width="68.75" height="68.75" stroke="#D9D1E7" stroke-opacity="0.04" stroke-width="1.375"/>
<rect x="66.75" y="756.249" width="68.75" height="68.75" stroke="#D9D1E7" stroke-opacity="0.04" stroke-width="1.375"/>
<rect x="135.5" y="756.249" width="68.75" height="68.75" stroke="#D9D1E7" stroke-opacity="0.04" stroke-width="1.375"/>
<rect x="204.25" y="756.249" width="68.75" height="68.75" stroke="#D9D1E7" stroke-opacity="0.04" stroke-width="1.375"/>
<rect x="273" y="756.249" width="68.75" height="68.75" stroke="#D9D1E7" stroke-opacity="0.04" stroke-width="1.375"/>
<rect x="341.75" y="756.249" width="68.75" height="68.75" stroke="#D9D1E7" stroke-opacity="0.04" stroke-width="1.375"/>
<rect x="410.5" y="756.249" width="68.75" height="68.75" stroke="#D9D1E7" stroke-opacity="0.04" stroke-width="1.375"/>
<rect x="479.25" y="756.249" width="68.75" height="68.75" stroke="#D9D1E7" stroke-opacity="0.04" stroke-width="1.375"/>
<rect x="548" y="756.249" width="68.75" height="68.75" stroke="#D9D1E7" stroke-opacity="0.04" stroke-width="1.375"/>
<rect x="616.75" y="756.249" width="68.75" height="68.75" stroke="#D9D1E7" stroke-opacity="0.04" stroke-width="1.375"/>
<rect x="685.5" y="756.249" width="68.75" height="68.75" stroke="#D9D1E7" stroke-opacity="0.04" stroke-width="1.375"/>
<rect x="754.25" y="756.249" width="68.75" height="68.75" stroke="#D9D1E7" stroke-opacity="0.04" stroke-width="1.375"/>
<rect x="823" y="756.249" width="68.75" height="68.75" stroke="#D9D1E7" stroke-opacity="0.04" stroke-width="1.375"/>
<rect x="891.75" y="756.249" width="68.75" height="68.75" stroke="#D9D1E7" stroke-opacity="0.04" stroke-width="1.375"/>
<rect x="960.5" y="756.249" width="68.75" height="68.75" stroke="#D9D1E7" stroke-opacity="0.04" stroke-width="1.375"/>
<rect x="1029.25" y="756.249" width="68.75" height="68.75" stroke="#D9D1E7" stroke-opacity="0.04" stroke-width="1.375"/>
<rect x="1098" y="756.249" width="68.75" height="68.75" stroke="#D9D1E7" stroke-opacity="0.04" stroke-width="1.375"/>
<rect x="1166.75" y="756.249" width="68.75" height="68.75" stroke="#D9D1E7" stroke-opacity="0.04" stroke-width="1.375"/>
<rect x="1235.5" y="756.249" width="68.75" height="68.75" stroke="#D9D1E7" stroke-opacity="0.04" stroke-width="1.375"/>
<rect x="1304.25" y="756.249" width="68.75" height="68.75" stroke="#D9D1E7" stroke-opacity="0.04" stroke-width="1.375"/>
<rect x="1373" y="756.249" width="68.75" height="68.75" stroke="#D9D1E7" stroke-opacity="0.04" stroke-width="1.375"/>
</g>
</g>
<path d="M228.193 215.042L237.764 205.173L276.126 223.075L353.491 277.422L364.68 297.563L354.768 307.475C354.769 307.688 354.77 307.9 354.77 308.113H301.986C301.986 301.056 300.316 294.1 297.113 287.812C293.91 281.525 289.264 276.084 283.556 271.936C277.848 267.787 271.239 265.049 264.269 263.943C257.3 262.838 250.168 263.398 243.456 265.577L227.158 215.372C227.503 215.26 227.848 215.15 228.193 215.042Z" fill="#8D63E5"/>
<path d="M222.434 212.424L232.004 202.555L270.367 220.457L347.732 274.804L358.921 294.945L349.009 304.857C349.01 305.07 349.011 305.282 349.011 305.495H296.227C296.227 298.438 294.557 291.482 291.354 285.194C288.15 278.907 283.505 273.466 277.797 269.318C272.088 265.169 265.479 262.431 258.51 261.325C251.541 260.22 244.409 260.78 237.697 262.959L221.399 212.754C221.743 212.642 222.088 212.532 222.434 212.424Z" stroke="#101928" stroke-width="1.80829"/>
<path d="M365 297.883C365 282.497 361.359 267.331 354.376 253.622C347.392 239.913 337.263 228.051 324.817 219.007C312.372 209.962 297.962 203.99 282.767 201.581C267.572 199.171 252.022 200.391 237.388 205.142L253.686 255.347C260.398 253.168 267.53 252.608 274.499 253.713C281.469 254.819 288.078 257.557 293.786 261.706C299.494 265.854 304.14 271.295 307.343 277.582C310.546 283.87 312.216 290.826 312.216 297.883H365Z" fill="#D3C3F5"/>
<mask id="path-256-inside-1_410_30" fill="white">
<path d="M359.241 295.265C359.241 279.879 355.6 264.713 348.616 251.004C341.632 237.295 331.504 225.433 319.058 216.389C306.612 207.344 292.203 201.372 277.007 198.963C261.812 196.553 246.262 197.773 231.629 202.524L247.927 252.729C254.638 250.55 261.77 249.99 268.74 251.095C275.709 252.201 282.318 254.939 288.026 259.088C293.735 263.236 298.38 268.677 301.583 274.964C304.787 281.252 306.456 288.208 306.456 295.265H359.241Z"/>
</mask>
<path d="M359.241 295.265C359.241 279.879 355.6 264.713 348.616 251.004C341.632 237.295 331.504 225.433 319.058 216.389C306.612 207.344 292.203 201.372 277.007 198.963C261.812 196.553 246.262 197.773 231.629 202.524L247.927 252.729C254.638 250.55 261.77 249.99 268.74 251.095C275.709 252.201 282.318 254.939 288.026 259.088C293.735 263.236 298.38 268.677 301.583 274.964C304.787 281.252 306.456 288.208 306.456 295.265H359.241Z" stroke="#101928" stroke-width="3.61658" mask="url(#path-256-inside-1_410_30)"/>
<path fill-rule="evenodd" clip-rule="evenodd" d="M158.233 277.078C163.861 258.603 174.85 242.216 189.804 229.995L223.206 270.867C216.347 276.472 211.307 283.988 208.726 292.461C206.837 298.659 206.326 305.166 207.193 311.531L218.577 308.052L208.582 318.048C208.622 318.186 208.663 318.324 208.705 318.461L158.188 333.766C152.589 315.282 152.604 295.552 158.233 277.078Z" fill="#B5AB74"/>
<path d="M189.804 229.995L190.154 229.709L189.868 229.359L189.518 229.645L189.804 229.995ZM158.233 277.078L157.8 276.946L158.233 277.078ZM223.206 270.867L223.492 271.217L223.842 270.931L223.556 270.58L223.206 270.867ZM208.726 292.461L209.158 292.593L208.726 292.461ZM207.193 311.531L206.745 311.592L206.817 312.118L207.325 311.963L207.193 311.531ZM218.577 308.052L218.897 308.372L218.445 307.62L218.577 308.052ZM208.582 318.048L208.262 317.728L208.073 317.917L208.148 318.174L208.582 318.048ZM208.705 318.461L208.836 318.894L209.269 318.763L209.138 318.33L208.705 318.461ZM158.188 333.766L157.756 333.897L157.887 334.33L158.32 334.199L158.188 333.766ZM189.518 229.645C174.494 241.923 163.455 258.386 157.8 276.946L158.665 277.21C164.268 258.821 175.205 242.51 190.09 230.345L189.518 229.645ZM223.556 270.58L190.154 229.709L189.454 230.281L222.856 271.153L223.556 270.58ZM209.158 292.593C211.713 284.205 216.702 276.765 223.492 271.217L222.92 270.516C215.991 276.178 210.901 283.77 208.293 292.33L209.158 292.593ZM207.641 311.47C206.783 305.169 207.289 298.728 209.158 292.593L208.293 292.33C206.386 298.59 205.87 305.162 206.745 311.592L207.641 311.47ZM207.325 311.963L218.709 308.485L218.445 307.62L207.061 311.098L207.325 311.963ZM218.257 307.733L208.262 317.728L208.902 318.367L218.897 308.372L218.257 307.733ZM209.138 318.33C209.097 318.194 209.056 318.057 209.016 317.921L208.148 318.174C208.189 318.314 208.23 318.453 208.273 318.593L209.138 318.33ZM158.32 334.199L208.836 318.894L208.574 318.029L158.057 333.333L158.32 334.199ZM157.8 276.946C152.146 295.506 152.13 315.328 157.756 333.897L158.621 333.635C153.047 315.237 153.063 295.599 158.665 277.21L157.8 276.946Z" fill="#101928"/>
<mask id="path-259-inside-2_410_30" fill="white">
<path d="M200.034 219.765C185.079 231.986 174.091 248.373 168.463 266.848C162.834 285.322 162.819 305.052 168.418 323.536L218.935 308.231C216.367 299.754 216.374 290.704 218.955 282.231C221.537 273.758 226.577 266.242 233.436 260.636L200.034 219.765Z"/>
</mask>
<path d="M200.034 219.765C185.079 231.986 174.091 248.373 168.463 266.848C162.834 285.322 162.819 305.052 168.418 323.536L218.935 308.231C216.367 299.754 216.374 290.704 218.955 282.231C221.537 273.758 226.577 266.242 233.436 260.636L200.034 219.765Z" fill="#E8DB94" stroke="#101928" stroke-width="3.61658" mask="url(#path-259-inside-2_410_30)"/>
<path fill-rule="evenodd" clip-rule="evenodd" d="M293.249 322.574L303.295 312.528L307.451 325.635L304.709 327.263L341.749 342.418C335.288 358.209 324.797 372.029 311.323 382.496C297.848 392.963 281.864 399.711 264.965 402.066C248.066 404.422 230.845 402.301 215.023 395.918C199.2 389.534 185.33 379.11 174.797 365.687L175.899 364.822L185.329 355.686L186.722 356.329L216.323 333.102C221.154 339.258 227.515 344.039 234.773 346.967C242.03 349.895 249.928 350.868 257.679 349.788C265.429 348.707 272.761 345.612 278.941 340.812C285.121 336.011 289.933 329.672 292.896 322.43L293.249 322.574Z" fill="#5A8383"/>
<path d="M303.295 312.528L303.726 312.391L303.501 311.682L302.976 312.208L303.295 312.528ZM293.249 322.574L293.078 322.992L293.356 323.106L293.569 322.894L293.249 322.574ZM307.451 325.635L307.682 326.024L307.991 325.84L307.882 325.498L307.451 325.635ZM304.709 327.263L304.479 326.874L303.698 327.338L304.538 327.681L304.709 327.263ZM341.749 342.418L342.168 342.589L342.339 342.171L341.92 342L341.749 342.418ZM311.323 382.496L311.6 382.853L311.323 382.496ZM264.965 402.066L264.903 401.619L264.965 402.066ZM215.023 395.918L214.854 396.337L215.023 395.918ZM174.797 365.687L174.518 365.331L174.162 365.61L174.441 365.966L174.797 365.687ZM175.899 364.822L176.178 365.178L176.196 365.163L176.213 365.147L175.899 364.822ZM185.329 355.686L185.519 355.276L185.237 355.146L185.015 355.361L185.329 355.686ZM186.722 356.329L186.533 356.739L186.784 356.855L187.001 356.685L186.722 356.329ZM216.323 333.102L216.678 332.823L216.399 332.467L216.044 332.746L216.323 333.102ZM234.773 346.967L234.603 347.387V347.387L234.773 346.967ZM257.679 349.788L257.616 349.34L257.679 349.788ZM278.941 340.812L279.218 341.169L278.941 340.812ZM292.896 322.43L293.067 322.011L292.649 321.84L292.478 322.258L292.896 322.43ZM302.976 312.208L292.929 322.254L293.569 322.894L303.615 312.847L302.976 312.208ZM307.882 325.498L303.726 312.391L302.864 312.664L307.02 325.772L307.882 325.498ZM304.94 327.652L307.682 326.024L307.22 325.246L304.479 326.874L304.94 327.652ZM304.538 327.681L341.578 342.836L341.92 342L304.881 326.845L304.538 327.681ZM341.331 342.247C334.9 357.965 324.457 371.72 311.045 382.139L311.6 382.853C325.136 372.337 335.677 358.454 342.168 342.589L341.331 342.247ZM311.045 382.139C297.634 392.557 281.723 399.274 264.903 401.619L265.027 402.514C282.004 400.148 298.063 393.369 311.6 382.853L311.045 382.139ZM264.903 401.619C248.082 403.963 230.941 401.853 215.192 395.498L214.854 396.337C230.75 402.75 248.05 404.88 265.027 402.514L264.903 401.619ZM215.192 395.498C199.443 389.144 185.636 378.768 175.153 365.408L174.441 365.966C185.023 379.451 198.958 389.923 214.854 396.337L215.192 395.498ZM175.076 366.042L176.178 365.178L175.62 364.466L174.518 365.331L175.076 366.042ZM176.213 365.147L185.644 356.011L185.015 355.361L175.584 364.497L176.213 365.147ZM185.14 356.097L186.533 356.739L186.912 355.919L185.519 355.276L185.14 356.097ZM187.001 356.685L216.602 333.458L216.044 332.746L186.443 355.973L187.001 356.685ZM215.967 333.381C220.847 339.6 227.273 344.429 234.603 347.387L234.942 346.548C227.758 343.65 221.46 338.917 216.678 332.823L215.967 333.381ZM234.603 347.387C241.934 350.344 249.912 351.327 257.741 350.235L257.616 349.34C249.944 350.409 242.125 349.447 234.942 346.548L234.603 347.387ZM257.741 350.235C265.57 349.144 272.976 346.018 279.218 341.169L278.663 340.455C272.546 345.207 265.289 348.271 257.616 349.34L257.741 350.235ZM279.218 341.169C285.461 336.319 290.321 329.917 293.315 322.601L292.478 322.258C289.544 329.428 284.781 335.702 278.663 340.455L279.218 341.169ZM292.725 322.848L293.078 322.992L293.42 322.156L293.067 322.011L292.725 322.848Z" fill="#101928"/>
<mask id="path-262-inside-3_410_30" fill="white">
<path d="M185.027 355.457C195.559 368.88 209.43 379.304 225.253 385.688C241.075 392.071 258.296 394.192 275.195 391.837C292.093 389.481 308.078 382.733 321.552 372.266C335.026 361.799 345.518 347.979 351.979 332.188L303.126 312.2C300.163 319.442 295.351 325.781 289.171 330.582C282.991 335.382 275.659 338.477 267.909 339.558C260.158 340.638 252.259 339.665 245.002 336.737C237.745 333.809 231.383 329.028 226.553 322.872L185.027 355.457Z"/>
</mask>
<path d="M185.027 355.457C195.559 368.88 209.43 379.304 225.253 385.688C241.075 392.071 258.296 394.192 275.195 391.837C292.093 389.481 308.078 382.733 321.552 372.266C335.026 361.799 345.518 347.979 351.979 332.188L303.126 312.2C300.163 319.442 295.351 325.781 289.171 330.582C282.991 335.382 275.659 338.477 267.909 339.558C260.158 340.638 252.259 339.665 245.002 336.737C237.745 333.809 231.383 329.028 226.553 322.872L185.027 355.457Z" fill="#94D9D9" stroke="#101928" stroke-width="3.61658" mask="url(#path-262-inside-3_410_30)"/>
<path d="M350 614C358.8 649.2 340.333 679 330 689.5H378.5C401.3 669.9 404.333 631 403 614H350Z" fill="#0F973D"/>
<path d="M358 606C366.8 641.2 348.333 671 338 681.5H386.5C409.3 661.9 412.333 623 411 606H358Z" fill="#0F973D" stroke="#101928" stroke-width="2"/>
<path d="M348.5 707.5C371.7 689.5 382.167 655.333 384.5 640.5L432.5 657.5C424.5 691.1 397.167 712.5 384.5 719L348.5 707.5Z" fill="#0F973D"/>
<path d="M356.5 699.5C379.7 681.5 390.167 647.333 392.5 632.5L440.5 649.5C432.5 683.1 405.167 704.5 392.5 711L356.5 699.5Z" fill="#0F973D" stroke="#101928" stroke-width="2"/>
<path d="M362.5 725C378.9 721.8 392.333 693.333 397 679.5L426 697C420.4 726.6 401.333 740 392.5 743L362.5 725Z" fill="#0F973D"/>
<path d="M370.5 717C386.9 713.8 400.333 685.333 405 671.5L434 689C428.4 718.6 409.333 732 400.5 735L370.5 717Z" fill="#0F973D" stroke="#101928" stroke-width="2"/>
<g clip-path="url(#clip2_410_30)">
<path d="M1306.98 464.33C1330.66 485.546 1372.35 520.539 1413.28 543.465" stroke="#DCCFF7" stroke-width="2.0367" stroke-linecap="round" stroke-linejoin="round" stroke-dasharray="4.07 8.15"/>
<path d="M1287.22 446.099C1287.22 446.099 1294.68 453.398 1306.96 464.408" stroke="#2E353A" stroke-width="2.0367" stroke-linecap="round" stroke-linejoin="round" stroke-dasharray="4.07 8.15"/>
<path d="M1277.55 442.743L1309.73 401.195L1176.16 328.261L1277.55 442.743Z" fill="#DCCFF7" stroke="#2E353A" stroke-width="2.57215" stroke-linecap="round" stroke-linejoin="round"/>
<path d="M1298.12 404.172L1277.55 442.743L1176.16 328.261L1298.12 404.172Z" fill="#8D63E5" stroke="#2E353A" stroke-width="2.57215" stroke-linecap="round" stroke-linejoin="round"/>
<path d="M1298.12 404.172L1270.59 417.404L1176.16 328.261L1298.12 404.172Z" fill="#DCCFF7" stroke="#2E353A" stroke-width="2.57215" stroke-linecap="round" stroke-linejoin="round"/>
<path d="M1309.73 401.195L1331.85 398.407L1176.16 328.261L1309.73 401.195Z" fill="#DCCFF7" stroke="#2E353A" stroke-width="2.57215" stroke-linecap="round" stroke-linejoin="round"/>
<path d="M1251.75 428.064L1255.62 432.131" stroke="#2E353A" stroke-width="2.0367" stroke-linecap="round" stroke-linejoin="round"/>
<path d="M1230.64 405.87L1243.6 419.485" stroke="#2E353A" stroke-width="2.0367" stroke-linecap="round" stroke-linejoin="round"/>
<path d="M1183.3 513.565L1196.83 462.811L1335.8 524.857L1183.3 513.565Z" fill="#DCCFF7" stroke="#2E353A" stroke-width="2.57215" stroke-linecap="round" stroke-linejoin="round"/>
<path d="M1201.5 473.836L1183.3 513.565L1335.8 524.857L1201.5 473.836Z" fill="#8D63E5" stroke="#2E353A" stroke-width="2.57215" stroke-linecap="round" stroke-linejoin="round"/>
<path d="M1201.5 473.836L1207.67 503.747L1335.8 524.857L1201.5 473.836Z" fill="#DCCFF7" stroke="#2E353A" stroke-width="2.57215" stroke-linecap="round" stroke-linejoin="round"/>
<path d="M1196.83 462.811L1185.66 443.518L1335.8 524.857L1196.83 462.811Z" fill="#DCCFF7" stroke="#2E353A" stroke-width="2.57215" stroke-linecap="round" stroke-linejoin="round"/>
<path d="M1235.54 526.481L1248.82 527.28" stroke="#2E353A" stroke-width="2.0367" stroke-linecap="round" stroke-linejoin="round"/>
<path d="M1188.91 523.681L1222.29 525.687" stroke="#2E353A" stroke-width="2.0367" stroke-linecap="round" stroke-linejoin="round"/>
<path d="M1166.64 505.772C1166.64 505.772 1047.25 495.024 998.321 591.589C949.394 688.153 1061.96 724.484 1094.76 680.531C1127.55 636.577 1046.21 593.815 1013.94 635.8C981.667 677.786 1019.2 774.211 1098.84 799.656C1165.01 820.796 1373.86 792.64 1496.05 804.029C1496.05 804.029 1589.03 803.142 1721.45 844.07" stroke="#F1ECFC" stroke-width="2.0367" stroke-linecap="round" stroke-linejoin="round" stroke-dasharray="4.07 8.15"/>
</g>
</g>
<defs>
<clipPath id="clip0_410_30">
<rect width="1440" height="800" fill="white"/>
</clipPath>
<clipPath id="clip1_410_30">
<rect width="1443.75" height="924" fill="white" transform="translate(-2)"/>
</clipPath>
<clipPath id="clip2_410_30">
<rect width="699.588" height="699.588" fill="white" transform="translate(1037.2 170) rotate(14.9264)"/>
</clipPath>
</defs>
</svg>
