<svg width="1440" height="800" viewBox="0 0 1440 800" fill="none" xmlns="http://www.w3.org/2000/svg">
<g clip-path="url(#clip0_385_28)">
<rect width="1440" height="800" fill="#502B9E"/>
<g opacity="0.5">
<g clip-path="url(#clip1_385_28)">
<rect x="-2" width="68.75" height="68.75" stroke="#D9D1E7" stroke-opacity="0.04" stroke-width="1.375"/>
<rect x="66.7501" width="68.75" height="68.75" stroke="#D9D1E7" stroke-opacity="0.04" stroke-width="1.375"/>
<rect x="135.5" width="68.75" height="68.75" stroke="#D9D1E7" stroke-opacity="0.04" stroke-width="1.375"/>
<rect x="204.25" width="68.75" height="68.75" stroke="#D9D1E7" stroke-opacity="0.04" stroke-width="1.375"/>
<rect x="273" width="68.75" height="68.75" stroke="#D9D1E7" stroke-opacity="0.04" stroke-width="1.375"/>
<rect x="341.75" width="68.75" height="68.75" stroke="#D9D1E7" stroke-opacity="0.04" stroke-width="1.375"/>
<rect x="410.5" width="68.75" height="68.75" stroke="#D9D1E7" stroke-opacity="0.04" stroke-width="1.375"/>
<rect x="479.25" width="68.75" height="68.75" stroke="#D9D1E7" stroke-opacity="0.04" stroke-width="1.375"/>
<rect x="548" width="68.75" height="68.75" stroke="#D9D1E7" stroke-opacity="0.04" stroke-width="1.375"/>
<rect x="616.75" width="68.75" height="68.75" stroke="#D9D1E7" stroke-opacity="0.04" stroke-width="1.375"/>
<rect x="685.5" width="68.75" height="68.75" stroke="#D9D1E7" stroke-opacity="0.04" stroke-width="1.375"/>
<rect x="754.25" width="68.75" height="68.75" stroke="#D9D1E7" stroke-opacity="0.04" stroke-width="1.375"/>
<rect x="823" width="68.75" height="68.75" stroke="#D9D1E7" stroke-opacity="0.04" stroke-width="1.375"/>
<rect x="891.75" width="68.75" height="68.75" stroke="#D9D1E7" stroke-opacity="0.04" stroke-width="1.375"/>
<rect x="960.5" width="68.75" height="68.75" stroke="#D9D1E7" stroke-opacity="0.04" stroke-width="1.375"/>
<rect x="1029.25" width="68.75" height="68.75" stroke="#D9D1E7" stroke-opacity="0.04" stroke-width="1.375"/>
<rect x="1098" width="68.75" height="68.75" stroke="#D9D1E7" stroke-opacity="0.04" stroke-width="1.375"/>
<rect x="1166.75" width="68.75" height="68.75" stroke="#D9D1E7" stroke-opacity="0.04" stroke-width="1.375"/>
<rect x="1235.5" width="68.75" height="68.75" stroke="#D9D1E7" stroke-opacity="0.04" stroke-width="1.375"/>
<rect x="1304.25" width="68.75" height="68.75" stroke="#D9D1E7" stroke-opacity="0.04" stroke-width="1.375"/>
<rect x="1373" width="68.75" height="68.75" stroke="#D9D1E7" stroke-opacity="0.04" stroke-width="1.375"/>
<rect x="-2.00006" y="68.7501" width="68.75" height="68.75" stroke="#D9D1E7" stroke-opacity="0.04" stroke-width="1.375"/>
<rect x="66.75" y="68.7502" width="68.75" height="68.75" stroke="#D9D1E7" stroke-opacity="0.04" stroke-width="1.375"/>
<rect x="135.5" y="68.7502" width="68.75" height="68.75" fill="#D9D1E7" fill-opacity="0.06" stroke="#D9D1E7" stroke-opacity="0.04" stroke-width="1.375"/>
<rect x="204.25" y="68.7502" width="68.75" height="68.75" stroke="#D9D1E7" stroke-opacity="0.04" stroke-width="1.375"/>
<rect x="273" y="68.7502" width="68.75" height="68.75" stroke="#D9D1E7" stroke-opacity="0.04" stroke-width="1.375"/>
<rect x="341.75" y="68.7502" width="68.75" height="68.75" stroke="#D9D1E7" stroke-opacity="0.04" stroke-width="1.375"/>
<rect x="410.5" y="68.7502" width="68.75" height="68.75" stroke="#D9D1E7" stroke-opacity="0.04" stroke-width="1.375"/>
<rect x="479.25" y="68.7502" width="68.75" height="68.75" stroke="#D9D1E7" stroke-opacity="0.04" stroke-width="1.375"/>
<rect x="548" y="68.7502" width="68.75" height="68.75" stroke="#D9D1E7" stroke-opacity="0.04" stroke-width="1.375"/>
<rect x="616.75" y="68.7502" width="68.75" height="68.75" fill="#D9D1E7" fill-opacity="0.06" stroke="#D9D1E7" stroke-opacity="0.04" stroke-width="1.375"/>
<rect x="685.5" y="68.7502" width="68.75" height="68.75" stroke="#D9D1E7" stroke-opacity="0.04" stroke-width="1.375"/>
<rect x="754.25" y="68.7502" width="68.75" height="68.75" stroke="#D9D1E7" stroke-opacity="0.04" stroke-width="1.375"/>
<rect x="823" y="68.7502" width="68.75" height="68.75" stroke="#D9D1E7" stroke-opacity="0.04" stroke-width="1.375"/>
<rect x="891.75" y="68.7502" width="68.75" height="68.75" stroke="#D9D1E7" stroke-opacity="0.04" stroke-width="1.375"/>
<rect x="960.5" y="68.7502" width="68.75" height="68.75" stroke="#D9D1E7" stroke-opacity="0.04" stroke-width="1.375"/>
<rect x="1029.25" y="68.7502" width="68.75" height="68.75" stroke="#D9D1E7" stroke-opacity="0.04" stroke-width="1.375"/>
<rect x="1098" y="68.7502" width="68.75" height="68.75" stroke="#D9D1E7" stroke-opacity="0.04" stroke-width="1.375"/>
<rect x="1166.75" y="68.7502" width="68.75" height="68.75" stroke="#D9D1E7" stroke-opacity="0.04" stroke-width="1.375"/>
<rect x="1235.5" y="68.7502" width="68.75" height="68.75" stroke="#D9D1E7" stroke-opacity="0.04" stroke-width="1.375"/>
<rect x="1304.25" y="68.7502" width="68.75" height="68.75" stroke="#D9D1E7" stroke-opacity="0.04" stroke-width="1.375"/>
<rect x="1373" y="68.7502" width="68.75" height="68.75" stroke="#D9D1E7" stroke-opacity="0.04" stroke-width="1.375"/>
<rect x="-2.00006" y="137.5" width="68.75" height="68.75" stroke="#D9D1E7" stroke-opacity="0.04" stroke-width="1.375"/>
<rect x="66.7498" y="137.5" width="68.75" height="68.75" stroke="#D9D1E7" stroke-opacity="0.04" stroke-width="1.375"/>
<rect x="135.5" y="137.5" width="68.75" height="68.75" stroke="#D9D1E7" stroke-opacity="0.04" stroke-width="1.375"/>
<rect x="204.25" y="137.5" width="68.75" height="68.75" stroke="#D9D1E7" stroke-opacity="0.04" stroke-width="1.375"/>
<rect x="273" y="137.5" width="68.75" height="68.75" stroke="#D9D1E7" stroke-opacity="0.04" stroke-width="1.375"/>
<rect x="341.75" y="137.5" width="68.75" height="68.75" stroke="#D9D1E7" stroke-opacity="0.04" stroke-width="1.375"/>
<rect x="410.5" y="137.5" width="68.75" height="68.75" stroke="#D9D1E7" stroke-opacity="0.04" stroke-width="1.375"/>
<rect x="479.25" y="137.5" width="68.75" height="68.75" stroke="#D9D1E7" stroke-opacity="0.04" stroke-width="1.375"/>
<rect x="548" y="137.5" width="68.75" height="68.75" stroke="#D9D1E7" stroke-opacity="0.04" stroke-width="1.375"/>
<rect x="616.75" y="137.5" width="68.75" height="68.75" stroke="#D9D1E7" stroke-opacity="0.04" stroke-width="1.375"/>
<rect x="685.5" y="137.5" width="68.75" height="68.75" stroke="#D9D1E7" stroke-opacity="0.04" stroke-width="1.375"/>
<rect x="754.25" y="137.5" width="68.75" height="68.75" stroke="#D9D1E7" stroke-opacity="0.04" stroke-width="1.375"/>
<rect x="823" y="137.5" width="68.75" height="68.75" stroke="#D9D1E7" stroke-opacity="0.04" stroke-width="1.375"/>
<rect x="891.75" y="137.5" width="68.75" height="68.75" stroke="#D9D1E7" stroke-opacity="0.04" stroke-width="1.375"/>
<rect x="960.5" y="137.5" width="68.75" height="68.75" stroke="#D9D1E7" stroke-opacity="0.04" stroke-width="1.375"/>
<rect x="1029.25" y="137.5" width="68.75" height="68.75" stroke="#D9D1E7" stroke-opacity="0.04" stroke-width="1.375"/>
<rect x="1098" y="137.5" width="68.75" height="68.75" fill="#D9D1E7" fill-opacity="0.06" stroke="#D9D1E7" stroke-opacity="0.04" stroke-width="1.375"/>
<rect x="1166.75" y="137.5" width="68.75" height="68.75" stroke="#D9D1E7" stroke-opacity="0.04" stroke-width="1.375"/>
<rect x="1235.5" y="137.5" width="68.75" height="68.75" stroke="#D9D1E7" stroke-opacity="0.04" stroke-width="1.375"/>
<rect x="1304.25" y="137.5" width="68.75" height="68.75" stroke="#D9D1E7" stroke-opacity="0.04" stroke-width="1.375"/>
<rect x="1373" y="137.5" width="68.75" height="68.75" stroke="#D9D1E7" stroke-opacity="0.04" stroke-width="1.375"/>
<rect x="-2.00006" y="206.25" width="68.75" height="68.75" stroke="#D9D1E7" stroke-opacity="0.04" stroke-width="1.375"/>
<rect x="66.75" y="206.25" width="68.75" height="68.75" stroke="#D9D1E7" stroke-opacity="0.04" stroke-width="1.375"/>
<rect x="135.5" y="206.25" width="68.75" height="68.75" stroke="#D9D1E7" stroke-opacity="0.04" stroke-width="1.375"/>
<rect x="204.25" y="206.25" width="68.75" height="68.75" stroke="#D9D1E7" stroke-opacity="0.04" stroke-width="1.375"/>
<rect x="273" y="206.25" width="68.75" height="68.75" stroke="#D9D1E7" stroke-opacity="0.04" stroke-width="1.375"/>
<rect x="341.75" y="206.25" width="68.75" height="68.75" stroke="#D9D1E7" stroke-opacity="0.04" stroke-width="1.375"/>
<rect x="410.5" y="206.25" width="68.75" height="68.75" stroke="#D9D1E7" stroke-opacity="0.04" stroke-width="1.375"/>
<rect x="479.25" y="206.25" width="68.75" height="68.75" stroke="#D9D1E7" stroke-opacity="0.04" stroke-width="1.375"/>
<rect x="548" y="206.25" width="68.75" height="68.75" stroke="#D9D1E7" stroke-opacity="0.04" stroke-width="1.375"/>
<rect x="616.75" y="206.25" width="68.75" height="68.75" stroke="#D9D1E7" stroke-opacity="0.04" stroke-width="1.375"/>
<rect x="685.5" y="206.25" width="68.75" height="68.75" stroke="#D9D1E7" stroke-opacity="0.04" stroke-width="1.375"/>
<rect x="754.25" y="206.25" width="68.75" height="68.75" stroke="#D9D1E7" stroke-opacity="0.04" stroke-width="1.375"/>
<rect x="823" y="206.25" width="68.75" height="68.75" stroke="#D9D1E7" stroke-opacity="0.04" stroke-width="1.375"/>
<rect x="891.75" y="206.25" width="68.75" height="68.75" stroke="#D9D1E7" stroke-opacity="0.04" stroke-width="1.375"/>
<rect x="960.5" y="206.25" width="68.75" height="68.75" stroke="#D9D1E7" stroke-opacity="0.04" stroke-width="1.375"/>
<rect x="1029.25" y="206.25" width="68.75" height="68.75" stroke="#D9D1E7" stroke-opacity="0.04" stroke-width="1.375"/>
<rect x="1098" y="206.25" width="68.75" height="68.75" stroke="#D9D1E7" stroke-opacity="0.04" stroke-width="1.375"/>
<rect x="1166.75" y="206.25" width="68.75" height="68.75" stroke="#D9D1E7" stroke-opacity="0.04" stroke-width="1.375"/>
<rect x="1235.5" y="206.25" width="68.75" height="68.75" stroke="#D9D1E7" stroke-opacity="0.04" stroke-width="1.375"/>
<rect x="1304.25" y="206.25" width="68.75" height="68.75" stroke="#D9D1E7" stroke-opacity="0.04" stroke-width="1.375"/>
<rect x="1373" y="206.25" width="68.75" height="68.75" stroke="#D9D1E7" stroke-opacity="0.04" stroke-width="1.375"/>
<rect x="-2.00006" y="275" width="68.75" height="68.75" stroke="#D9D1E7" stroke-opacity="0.04" stroke-width="1.375"/>
<rect x="66.75" y="275" width="68.75" height="68.75" stroke="#D9D1E7" stroke-opacity="0.04" stroke-width="1.375"/>
<rect x="135.5" y="275" width="68.75" height="68.75" stroke="#D9D1E7" stroke-opacity="0.04" stroke-width="1.375"/>
<rect x="204.25" y="275" width="68.75" height="68.75" fill="#D9D1E7" fill-opacity="0.06" stroke="#D9D1E7" stroke-opacity="0.04" stroke-width="1.375"/>
<rect x="273" y="275" width="68.75" height="68.75" stroke="#D9D1E7" stroke-opacity="0.04" stroke-width="1.375"/>
<rect x="341.75" y="275" width="68.75" height="68.75" stroke="#D9D1E7" stroke-opacity="0.04" stroke-width="1.375"/>
<rect x="410.5" y="275" width="68.75" height="68.75" stroke="#D9D1E7" stroke-opacity="0.04" stroke-width="1.375"/>
<rect x="479.25" y="275" width="68.75" height="68.75" stroke="#D9D1E7" stroke-opacity="0.04" stroke-width="1.375"/>
<rect x="548" y="275" width="68.75" height="68.75" stroke="#D9D1E7" stroke-opacity="0.04" stroke-width="1.375"/>
<rect x="616.75" y="275" width="68.75" height="68.75" stroke="#D9D1E7" stroke-opacity="0.04" stroke-width="1.375"/>
<rect x="685.5" y="275" width="68.75" height="68.75" stroke="#D9D1E7" stroke-opacity="0.04" stroke-width="1.375"/>
<rect x="754.25" y="275" width="68.75" height="68.75" stroke="#D9D1E7" stroke-opacity="0.04" stroke-width="1.375"/>
<rect x="823" y="275" width="68.75" height="68.75" fill="#D9D1E7" fill-opacity="0.06" stroke="#D9D1E7" stroke-opacity="0.04" stroke-width="1.375"/>
<rect x="891.75" y="275" width="68.75" height="68.75" stroke="#D9D1E7" stroke-opacity="0.04" stroke-width="1.375"/>
<rect x="960.5" y="275" width="68.75" height="68.75" stroke="#D9D1E7" stroke-opacity="0.04" stroke-width="1.375"/>
<rect x="1029.25" y="275" width="68.75" height="68.75" stroke="#D9D1E7" stroke-opacity="0.04" stroke-width="1.375"/>
<rect x="1098" y="275" width="68.75" height="68.75" stroke="#D9D1E7" stroke-opacity="0.04" stroke-width="1.375"/>
<rect x="1166.75" y="275" width="68.75" height="68.75" stroke="#D9D1E7" stroke-opacity="0.04" stroke-width="1.375"/>
<rect x="1235.5" y="275" width="68.75" height="68.75" stroke="#D9D1E7" stroke-opacity="0.04" stroke-width="1.375"/>
<rect x="1304.25" y="275" width="68.75" height="68.75" stroke="#D9D1E7" stroke-opacity="0.04" stroke-width="1.375"/>
<rect x="1373" y="275" width="68.75" height="68.75" stroke="#D9D1E7" stroke-opacity="0.04" stroke-width="1.375"/>
<rect x="-2.00006" y="343.751" width="68.75" height="68.75" stroke="#D9D1E7" stroke-opacity="0.04" stroke-width="1.375"/>
<rect x="66.75" y="343.751" width="68.75" height="68.75" stroke="#D9D1E7" stroke-opacity="0.04" stroke-width="1.375"/>
<rect x="135.5" y="343.751" width="68.75" height="68.75" stroke="#D9D1E7" stroke-opacity="0.04" stroke-width="1.375"/>
<rect x="204.25" y="343.751" width="68.75" height="68.75" stroke="#D9D1E7" stroke-opacity="0.04" stroke-width="1.375"/>
<rect x="273" y="343.751" width="68.75" height="68.75" stroke="#D9D1E7" stroke-opacity="0.04" stroke-width="1.375"/>
<rect x="341.75" y="343.751" width="68.75" height="68.75" stroke="#D9D1E7" stroke-opacity="0.04" stroke-width="1.375"/>
<rect x="410.5" y="343.751" width="68.75" height="68.75" stroke="#D9D1E7" stroke-opacity="0.04" stroke-width="1.375"/>
<rect x="479.25" y="343.751" width="68.75" height="68.75" stroke="#D9D1E7" stroke-opacity="0.04" stroke-width="1.375"/>
<rect x="548" y="343.751" width="68.75" height="68.75" stroke="#D9D1E7" stroke-opacity="0.04" stroke-width="1.375"/>
<rect x="616.75" y="343.751" width="68.75" height="68.75" stroke="#D9D1E7" stroke-opacity="0.04" stroke-width="1.375"/>
<rect x="685.5" y="343.751" width="68.75" height="68.75" stroke="#D9D1E7" stroke-opacity="0.04" stroke-width="1.375"/>
<rect x="754.25" y="343.751" width="68.75" height="68.75" stroke="#D9D1E7" stroke-opacity="0.04" stroke-width="1.375"/>
<rect x="823" y="343.751" width="68.75" height="68.75" stroke="#D9D1E7" stroke-opacity="0.04" stroke-width="1.375"/>
<rect x="891.75" y="343.751" width="68.75" height="68.75" stroke="#D9D1E7" stroke-opacity="0.04" stroke-width="1.375"/>
<rect x="960.5" y="343.751" width="68.75" height="68.75" stroke="#D9D1E7" stroke-opacity="0.04" stroke-width="1.375"/>
<rect x="1029.25" y="343.751" width="68.75" height="68.75" stroke="#D9D1E7" stroke-opacity="0.04" stroke-width="1.375"/>
<rect x="1098" y="343.751" width="68.75" height="68.75" stroke="#D9D1E7" stroke-opacity="0.04" stroke-width="1.375"/>
<rect x="1166.75" y="343.751" width="68.75" height="68.75" stroke="#D9D1E7" stroke-opacity="0.04" stroke-width="1.375"/>
<rect x="1235.5" y="343.751" width="68.75" height="68.75" fill="#D9D1E7" fill-opacity="0.06" stroke="#D9D1E7" stroke-opacity="0.04" stroke-width="1.375"/>
<rect x="1304.25" y="343.751" width="68.75" height="68.75" stroke="#D9D1E7" stroke-opacity="0.04" stroke-width="1.375"/>
<rect x="1373" y="343.751" width="68.75" height="68.75" stroke="#D9D1E7" stroke-opacity="0.04" stroke-width="1.375"/>
<rect x="-2.00006" y="412.501" width="68.75" height="68.75" stroke="#D9D1E7" stroke-opacity="0.04" stroke-width="1.375"/>
<rect x="66.75" y="412.501" width="68.75" height="68.75" stroke="#D9D1E7" stroke-opacity="0.04" stroke-width="1.375"/>
<rect x="135.5" y="412.501" width="68.75" height="68.75" stroke="#D9D1E7" stroke-opacity="0.04" stroke-width="1.375"/>
<rect x="204.25" y="412.501" width="68.75" height="68.75" stroke="#D9D1E7" stroke-opacity="0.04" stroke-width="1.375"/>
<rect x="273" y="412.501" width="68.75" height="68.75" stroke="#D9D1E7" stroke-opacity="0.04" stroke-width="1.375"/>
<rect x="341.75" y="412.501" width="68.75" height="68.75" stroke="#D9D1E7" stroke-opacity="0.04" stroke-width="1.375"/>
<rect x="410.5" y="412.501" width="68.75" height="68.75" stroke="#D9D1E7" stroke-opacity="0.04" stroke-width="1.375"/>
<rect x="479.25" y="412.501" width="68.75" height="68.75" stroke="#D9D1E7" stroke-opacity="0.04" stroke-width="1.375"/>
<rect x="548" y="412.501" width="68.75" height="68.75" stroke="#D9D1E7" stroke-opacity="0.04" stroke-width="1.375"/>
<rect x="616.75" y="412.501" width="68.75" height="68.75" stroke="#D9D1E7" stroke-opacity="0.04" stroke-width="1.375"/>
<rect x="685.5" y="412.501" width="68.75" height="68.75" stroke="#D9D1E7" stroke-opacity="0.04" stroke-width="1.375"/>
<rect x="754.25" y="412.501" width="68.75" height="68.75" stroke="#D9D1E7" stroke-opacity="0.04" stroke-width="1.375"/>
<rect x="823" y="412.501" width="68.75" height="68.75" stroke="#D9D1E7" stroke-opacity="0.04" stroke-width="1.375"/>
<rect x="891.75" y="412.501" width="68.75" height="68.75" stroke="#D9D1E7" stroke-opacity="0.04" stroke-width="1.375"/>
<rect x="960.5" y="412.501" width="68.75" height="68.75" stroke="#D9D1E7" stroke-opacity="0.04" stroke-width="1.375"/>
<rect x="1029.25" y="412.501" width="68.75" height="68.75" stroke="#D9D1E7" stroke-opacity="0.04" stroke-width="1.375"/>
<rect x="1098" y="412.501" width="68.75" height="68.75" stroke="#D9D1E7" stroke-opacity="0.04" stroke-width="1.375"/>
<rect x="1166.75" y="412.501" width="68.75" height="68.75" stroke="#D9D1E7" stroke-opacity="0.04" stroke-width="1.375"/>
<rect x="1235.5" y="412.501" width="68.75" height="68.75" stroke="#D9D1E7" stroke-opacity="0.04" stroke-width="1.375"/>
<rect x="1304.25" y="412.501" width="68.75" height="68.75" stroke="#D9D1E7" stroke-opacity="0.04" stroke-width="1.375"/>
<rect x="1373" y="412.501" width="68.75" height="68.75" stroke="#D9D1E7" stroke-opacity="0.04" stroke-width="1.375"/>
<rect x="-2.00006" y="481.251" width="68.75" height="68.75" stroke="#D9D1E7" stroke-opacity="0.04" stroke-width="1.375"/>
<rect x="66.75" y="481.251" width="68.75" height="68.75" stroke="#D9D1E7" stroke-opacity="0.04" stroke-width="1.375"/>
<rect x="135.5" y="481.251" width="68.75" height="68.75" stroke="#D9D1E7" stroke-opacity="0.04" stroke-width="1.375"/>
<rect x="204.25" y="481.251" width="68.75" height="68.75" stroke="#D9D1E7" stroke-opacity="0.04" stroke-width="1.375"/>
<rect x="273" y="481.251" width="68.75" height="68.75" stroke="#D9D1E7" stroke-opacity="0.04" stroke-width="1.375"/>
<rect x="341.75" y="481.251" width="68.75" height="68.75" stroke="#D9D1E7" stroke-opacity="0.04" stroke-width="1.375"/>
<rect x="410.5" y="481.251" width="68.75" height="68.75" stroke="#D9D1E7" stroke-opacity="0.04" stroke-width="1.375"/>
<rect x="479.25" y="481.251" width="68.75" height="68.75" stroke="#D9D1E7" stroke-opacity="0.04" stroke-width="1.375"/>
<rect x="548" y="481.251" width="68.75" height="68.75" fill="#D9D1E7" fill-opacity="0.06" stroke="#D9D1E7" stroke-opacity="0.04" stroke-width="1.375"/>
<rect x="616.75" y="481.251" width="68.75" height="68.75" stroke="#D9D1E7" stroke-opacity="0.04" stroke-width="1.375"/>
<rect x="685.5" y="481.251" width="68.75" height="68.75" stroke="#D9D1E7" stroke-opacity="0.04" stroke-width="1.375"/>
<rect x="754.25" y="481.251" width="68.75" height="68.75" stroke="#D9D1E7" stroke-opacity="0.04" stroke-width="1.375"/>
<rect x="823" y="481.251" width="68.75" height="68.75" stroke="#D9D1E7" stroke-opacity="0.04" stroke-width="1.375"/>
<rect x="891.75" y="481.251" width="68.75" height="68.75" stroke="#D9D1E7" stroke-opacity="0.04" stroke-width="1.375"/>
<rect x="960.5" y="481.251" width="68.75" height="68.75" stroke="#D9D1E7" stroke-opacity="0.04" stroke-width="1.375"/>
<rect x="1029.25" y="481.251" width="68.75" height="68.75" stroke="#D9D1E7" stroke-opacity="0.04" stroke-width="1.375"/>
<rect x="1098" y="481.251" width="68.75" height="68.75" stroke="#D9D1E7" stroke-opacity="0.04" stroke-width="1.375"/>
<rect x="1166.75" y="481.251" width="68.75" height="68.75" stroke="#D9D1E7" stroke-opacity="0.04" stroke-width="1.375"/>
<rect x="1235.5" y="481.251" width="68.75" height="68.75" stroke="#D9D1E7" stroke-opacity="0.04" stroke-width="1.375"/>
<rect x="1304.25" y="481.251" width="68.75" height="68.75" stroke="#D9D1E7" stroke-opacity="0.04" stroke-width="1.375"/>
<rect x="1373" y="481.251" width="68.75" height="68.75" stroke="#D9D1E7" stroke-opacity="0.04" stroke-width="1.375"/>
<rect x="-2.00006" y="550.001" width="68.75" height="68.75" stroke="#D9D1E7" stroke-opacity="0.04" stroke-width="1.375"/>
<rect x="66.75" y="550.001" width="68.75" height="68.75" stroke="#D9D1E7" stroke-opacity="0.04" stroke-width="1.375"/>
<rect x="135.5" y="550.001" width="68.75" height="68.75" stroke="#D9D1E7" stroke-opacity="0.04" stroke-width="1.375"/>
<rect x="204.25" y="550.001" width="68.75" height="68.75" stroke="#D9D1E7" stroke-opacity="0.04" stroke-width="1.375"/>
<rect x="273" y="550.001" width="68.75" height="68.75" fill="#D9D1E7" fill-opacity="0.06" stroke="#D9D1E7" stroke-opacity="0.04" stroke-width="1.375"/>
<rect x="341.75" y="550.001" width="68.75" height="68.75" stroke="#D9D1E7" stroke-opacity="0.04" stroke-width="1.375"/>
<rect x="410.5" y="550.001" width="68.75" height="68.75" stroke="#D9D1E7" stroke-opacity="0.04" stroke-width="1.375"/>
<rect x="479.25" y="550.001" width="68.75" height="68.75" stroke="#D9D1E7" stroke-opacity="0.04" stroke-width="1.375"/>
<rect x="548" y="550.001" width="68.75" height="68.75" stroke="#D9D1E7" stroke-opacity="0.04" stroke-width="1.375"/>
<rect x="616.75" y="550.001" width="68.75" height="68.75" stroke="#D9D1E7" stroke-opacity="0.04" stroke-width="1.375"/>
<rect x="685.5" y="550.001" width="68.75" height="68.75" stroke="#D9D1E7" stroke-opacity="0.04" stroke-width="1.375"/>
<rect x="754.25" y="550.001" width="68.75" height="68.75" stroke="#D9D1E7" stroke-opacity="0.04" stroke-width="1.375"/>
<rect x="823" y="550.001" width="68.75" height="68.75" stroke="#D9D1E7" stroke-opacity="0.04" stroke-width="1.375"/>
<rect x="891.75" y="550.001" width="68.75" height="68.75" stroke="#D9D1E7" stroke-opacity="0.04" stroke-width="1.375"/>
<rect x="960.5" y="550.001" width="68.75" height="68.75" stroke="#D9D1E7" stroke-opacity="0.04" stroke-width="1.375"/>
<rect x="1029.25" y="550.001" width="68.75" height="68.75" stroke="#D9D1E7" stroke-opacity="0.04" stroke-width="1.375"/>
<rect x="1098" y="550.001" width="68.75" height="68.75" stroke="#D9D1E7" stroke-opacity="0.04" stroke-width="1.375"/>
<rect x="1166.75" y="550.001" width="68.75" height="68.75" stroke="#D9D1E7" stroke-opacity="0.04" stroke-width="1.375"/>
<rect x="1235.5" y="550.001" width="68.75" height="68.75" stroke="#D9D1E7" stroke-opacity="0.04" stroke-width="1.375"/>
<rect x="1304.25" y="550.001" width="68.75" height="68.75" stroke="#D9D1E7" stroke-opacity="0.04" stroke-width="1.375"/>
<rect x="1373" y="550.001" width="68.75" height="68.75" stroke="#D9D1E7" stroke-opacity="0.04" stroke-width="1.375"/>
<rect x="-2.00006" y="618.751" width="68.75" height="68.75" stroke="#D9D1E7" stroke-opacity="0.04" stroke-width="1.375"/>
<rect x="66.75" y="618.751" width="68.75" height="68.75" stroke="#D9D1E7" stroke-opacity="0.04" stroke-width="1.375"/>
<rect x="135.5" y="618.751" width="68.75" height="68.75" stroke="#D9D1E7" stroke-opacity="0.04" stroke-width="1.375"/>
<rect x="204.25" y="618.751" width="68.75" height="68.75" stroke="#D9D1E7" stroke-opacity="0.04" stroke-width="1.375"/>
<rect x="273" y="618.751" width="68.75" height="68.75" stroke="#D9D1E7" stroke-opacity="0.04" stroke-width="1.375"/>
<rect x="341.75" y="618.751" width="68.75" height="68.75" stroke="#D9D1E7" stroke-opacity="0.04" stroke-width="1.375"/>
<rect x="410.5" y="618.751" width="68.75" height="68.75" stroke="#D9D1E7" stroke-opacity="0.04" stroke-width="1.375"/>
<rect x="479.25" y="618.751" width="68.75" height="68.75" stroke="#D9D1E7" stroke-opacity="0.04" stroke-width="1.375"/>
<rect x="548" y="618.751" width="68.75" height="68.75" stroke="#D9D1E7" stroke-opacity="0.04" stroke-width="1.375"/>
<rect x="616.75" y="618.751" width="68.75" height="68.75" stroke="#D9D1E7" stroke-opacity="0.04" stroke-width="1.375"/>
<rect x="685.5" y="618.751" width="68.75" height="68.75" stroke="#D9D1E7" stroke-opacity="0.04" stroke-width="1.375"/>
<rect x="754.25" y="618.751" width="68.75" height="68.75" stroke="#D9D1E7" stroke-opacity="0.04" stroke-width="1.375"/>
<rect x="823" y="618.751" width="68.75" height="68.75" stroke="#D9D1E7" stroke-opacity="0.04" stroke-width="1.375"/>
<rect x="891.75" y="618.751" width="68.75" height="68.75" stroke="#D9D1E7" stroke-opacity="0.04" stroke-width="1.375"/>
<rect x="960.5" y="618.751" width="68.75" height="68.75" stroke="#D9D1E7" stroke-opacity="0.04" stroke-width="1.375"/>
<rect x="1029.25" y="618.751" width="68.75" height="68.75" stroke="#D9D1E7" stroke-opacity="0.04" stroke-width="1.375"/>
<rect x="1098" y="618.751" width="68.75" height="68.75" stroke="#D9D1E7" stroke-opacity="0.04" stroke-width="1.375"/>
<rect x="1166.75" y="618.751" width="68.75" height="68.75" stroke="#D9D1E7" stroke-opacity="0.04" stroke-width="1.375"/>
<rect x="1235.5" y="618.751" width="68.75" height="68.75" stroke="#D9D1E7" stroke-opacity="0.04" stroke-width="1.375"/>
<rect x="1304.25" y="618.751" width="68.75" height="68.75" stroke="#D9D1E7" stroke-opacity="0.04" stroke-width="1.375"/>
<rect x="1373" y="618.751" width="68.75" height="68.75" stroke="#D9D1E7" stroke-opacity="0.04" stroke-width="1.375"/>
<rect x="-2.00006" y="687.501" width="68.75" height="68.75" stroke="#D9D1E7" stroke-opacity="0.04" stroke-width="1.375"/>
<rect x="66.75" y="687.501" width="68.75" height="68.75" stroke="#D9D1E7" stroke-opacity="0.04" stroke-width="1.375"/>
<rect x="135.5" y="687.501" width="68.75" height="68.75" stroke="#D9D1E7" stroke-opacity="0.04" stroke-width="1.375"/>
<rect x="204.25" y="687.501" width="68.75" height="68.75" stroke="#D9D1E7" stroke-opacity="0.04" stroke-width="1.375"/>
<rect x="273" y="687.501" width="68.75" height="68.75" stroke="#D9D1E7" stroke-opacity="0.04" stroke-width="1.375"/>
<rect x="341.75" y="687.501" width="68.75" height="68.75" stroke="#D9D1E7" stroke-opacity="0.04" stroke-width="1.375"/>
<rect x="410.5" y="687.501" width="68.75" height="68.75" stroke="#D9D1E7" stroke-opacity="0.04" stroke-width="1.375"/>
<rect x="479.25" y="687.501" width="68.75" height="68.75" stroke="#D9D1E7" stroke-opacity="0.04" stroke-width="1.375"/>
<rect x="548" y="687.501" width="68.75" height="68.75" stroke="#D9D1E7" stroke-opacity="0.04" stroke-width="1.375"/>
<rect x="616.75" y="687.501" width="68.75" height="68.75" stroke="#D9D1E7" stroke-opacity="0.04" stroke-width="1.375"/>
<rect x="685.5" y="687.501" width="68.75" height="68.75" stroke="#D9D1E7" stroke-opacity="0.04" stroke-width="1.375"/>
<rect x="754.25" y="687.501" width="68.75" height="68.75" stroke="#D9D1E7" stroke-opacity="0.04" stroke-width="1.375"/>
<rect x="823" y="687.501" width="68.75" height="68.75" stroke="#D9D1E7" stroke-opacity="0.04" stroke-width="1.375"/>
<rect x="891.75" y="687.501" width="68.75" height="68.75" stroke="#D9D1E7" stroke-opacity="0.04" stroke-width="1.375"/>
<rect x="960.5" y="687.501" width="68.75" height="68.75" stroke="#D9D1E7" stroke-opacity="0.04" stroke-width="1.375"/>
<rect x="1029.25" y="687.501" width="68.75" height="68.75" stroke="#D9D1E7" stroke-opacity="0.04" stroke-width="1.375"/>
<rect x="1098" y="687.501" width="68.75" height="68.75" stroke="#D9D1E7" stroke-opacity="0.04" stroke-width="1.375"/>
<rect x="1166.75" y="687.501" width="68.75" height="68.75" stroke="#D9D1E7" stroke-opacity="0.04" stroke-width="1.375"/>
<rect x="1235.5" y="687.501" width="68.75" height="68.75" stroke="#D9D1E7" stroke-opacity="0.04" stroke-width="1.375"/>
<rect x="1304.25" y="687.501" width="68.75" height="68.75" stroke="#D9D1E7" stroke-opacity="0.04" stroke-width="1.375"/>
<rect x="1373" y="687.501" width="68.75" height="68.75" stroke="#D9D1E7" stroke-opacity="0.04" stroke-width="1.375"/>
<rect x="-2.00006" y="756.249" width="68.75" height="68.75" stroke="#D9D1E7" stroke-opacity="0.04" stroke-width="1.375"/>
<rect x="66.75" y="756.249" width="68.75" height="68.75" stroke="#D9D1E7" stroke-opacity="0.04" stroke-width="1.375"/>
<rect x="135.5" y="756.249" width="68.75" height="68.75" stroke="#D9D1E7" stroke-opacity="0.04" stroke-width="1.375"/>
<rect x="204.25" y="756.249" width="68.75" height="68.75" stroke="#D9D1E7" stroke-opacity="0.04" stroke-width="1.375"/>
<rect x="273" y="756.249" width="68.75" height="68.75" stroke="#D9D1E7" stroke-opacity="0.04" stroke-width="1.375"/>
<rect x="341.75" y="756.249" width="68.75" height="68.75" stroke="#D9D1E7" stroke-opacity="0.04" stroke-width="1.375"/>
<rect x="410.5" y="756.249" width="68.75" height="68.75" stroke="#D9D1E7" stroke-opacity="0.04" stroke-width="1.375"/>
<rect x="479.25" y="756.249" width="68.75" height="68.75" stroke="#D9D1E7" stroke-opacity="0.04" stroke-width="1.375"/>
<rect x="548" y="756.249" width="68.75" height="68.75" stroke="#D9D1E7" stroke-opacity="0.04" stroke-width="1.375"/>
<rect x="616.75" y="756.249" width="68.75" height="68.75" stroke="#D9D1E7" stroke-opacity="0.04" stroke-width="1.375"/>
<rect x="685.5" y="756.249" width="68.75" height="68.75" stroke="#D9D1E7" stroke-opacity="0.04" stroke-width="1.375"/>
<rect x="754.25" y="756.249" width="68.75" height="68.75" stroke="#D9D1E7" stroke-opacity="0.04" stroke-width="1.375"/>
<rect x="823" y="756.249" width="68.75" height="68.75" stroke="#D9D1E7" stroke-opacity="0.04" stroke-width="1.375"/>
<rect x="891.75" y="756.249" width="68.75" height="68.75" stroke="#D9D1E7" stroke-opacity="0.04" stroke-width="1.375"/>
<rect x="960.5" y="756.249" width="68.75" height="68.75" stroke="#D9D1E7" stroke-opacity="0.04" stroke-width="1.375"/>
<rect x="1029.25" y="756.249" width="68.75" height="68.75" stroke="#D9D1E7" stroke-opacity="0.04" stroke-width="1.375"/>
<rect x="1098" y="756.249" width="68.75" height="68.75" stroke="#D9D1E7" stroke-opacity="0.04" stroke-width="1.375"/>
<rect x="1166.75" y="756.249" width="68.75" height="68.75" stroke="#D9D1E7" stroke-opacity="0.04" stroke-width="1.375"/>
<rect x="1235.5" y="756.249" width="68.75" height="68.75" stroke="#D9D1E7" stroke-opacity="0.04" stroke-width="1.375"/>
<rect x="1304.25" y="756.249" width="68.75" height="68.75" stroke="#D9D1E7" stroke-opacity="0.04" stroke-width="1.375"/>
<rect x="1373" y="756.249" width="68.75" height="68.75" stroke="#D9D1E7" stroke-opacity="0.04" stroke-width="1.375"/>
</g>
</g>
</g>
<defs>
<clipPath id="clip0_385_28">
<rect width="1440" height="800" fill="white"/>
</clipPath>
<clipPath id="clip1_385_28">
<rect width="1443.75" height="924" fill="white" transform="translate(-2)"/>
</clipPath>
</defs>
</svg>
