<?xml version="1.0" encoding="UTF-8"?>
<svg xmlns="http://www.w3.org/2000/svg" viewBox="0 0 1024 831.02">
  <defs>
    <style>
      .cls-1 {
        stroke: #e1d7f6;
        stroke-miterlimit: 10;
      }

      .cls-1, .cls-2, .cls-3, .cls-4, .cls-5, .cls-6, .cls-7, .cls-8, .cls-9 {
        stroke-width: 1.3px;
      }

      .cls-1, .cls-9 {
        fill: none;
      }

      .cls-10 {
        fill: #f9d480;
      }

      .cls-11, .cls-5 {
        fill: #fff;
      }

      .cls-12 {
        fill: #7b2be6;
        opacity: .3;
      }

      .cls-12, .cls-13 {
        mix-blend-mode: multiply;
      }

      .cls-13 {
        fill: #eaba45;
        opacity: .5;
      }

      .cls-2 {
        fill: #a889ea;
      }

      .cls-2, .cls-3, .cls-4, .cls-5, .cls-6, .cls-7, .cls-8, .cls-9 {
        stroke: #000;
        stroke-linecap: round;
        stroke-linejoin: round;
      }

      .cls-3 {
        fill: #e1d7f6;
      }

      .cls-4 {
        fill: #ffde00;
      }

      .cls-6 {
        fill: #ffca43;
      }

      .cls-14 {
        mix-blend-mode: screen;
      }

      .cls-7 {
        fill: #c5b0f1;
      }

      .cls-15 {
        isolation: isolate;
      }
    </style>
  </defs>
  <g class="cls-15">
    <g id="Layer_1" data-name="Layer 1">
      <g>
        <g>
          <g>
            <line class="cls-1" x1="123.53" y1="637.2" x2="37.45" y2="749.8"/>
            <line class="cls-1" x1="209.86" y1="637.2" x2="142.91" y2="749.8"/>
            <line class="cls-1" x1="296.18" y1="637.2" x2="248.36" y2="749.8"/>
            <line class="cls-1" x1="382.51" y1="637.2" x2="353.82" y2="749.8"/>
            <line class="cls-1" x1="468.84" y1="637.2" x2="459.27" y2="749.8"/>
            <line class="cls-1" x1="555.16" y1="637.2" x2="564.73" y2="749.8"/>
            <line class="cls-1" x1="641.49" y1="637.2" x2="670.18" y2="749.8"/>
            <line class="cls-1" x1="727.82" y1="637.2" x2="775.64" y2="749.8"/>
            <line class="cls-1" x1="814.14" y1="637.2" x2="881.09" y2="749.8"/>
            <line class="cls-1" x1="900.47" y1="637.2" x2="986.55" y2="749.8"/>
          </g>
          <g>
            <line class="cls-1" x1="900.47" y1="637.19" x2="123.53" y2="637.19"/>
            <line class="cls-1" x1="916.32" y1="657.93" x2="107.68" y2="657.93"/>
            <line class="cls-1" x1="933.52" y1="680.44" x2="90.48" y2="680.44"/>
            <line class="cls-1" x1="952.26" y1="704.94" x2="71.74" y2="704.94"/>
            <line class="cls-1" x1="972.73" y1="731.72" x2="51.27" y2="731.72"/>
          </g>
        </g>
        <g>
          <g>
            <rect class="cls-4" x="546.39" y="562.99" width="27.93" height="120.47" transform="translate(1183.58 62.88) rotate(90)"/>
            <g>
              <line class="cls-4" x1="507.21" y1="612.54" x2="507.21" y2="633.92"/>
              <line class="cls-4" x1="516.07" y1="612.54" x2="516.07" y2="633.92"/>
              <line class="cls-4" x1="524.93" y1="612.54" x2="524.93" y2="633.92"/>
              <line class="cls-4" x1="533.78" y1="612.54" x2="533.78" y2="633.92"/>
              <line class="cls-4" x1="542.64" y1="612.54" x2="542.64" y2="633.92"/>
              <line class="cls-4" x1="551.5" y1="612.54" x2="551.5" y2="633.92"/>
              <line class="cls-4" x1="560.35" y1="612.54" x2="560.35" y2="633.92"/>
              <line class="cls-4" x1="569.21" y1="612.54" x2="569.21" y2="633.92"/>
              <line class="cls-4" x1="578.07" y1="612.54" x2="578.07" y2="633.92"/>
              <line class="cls-4" x1="586.92" y1="612.54" x2="586.92" y2="633.92"/>
              <line class="cls-4" x1="595.78" y1="612.54" x2="595.78" y2="633.92"/>
              <line class="cls-4" x1="604.63" y1="612.54" x2="604.63" y2="633.92"/>
              <line class="cls-4" x1="613.49" y1="612.54" x2="613.49" y2="633.92"/>
            </g>
            <polygon class="cls-13" points="575.59 609.26 563.02 637.19 620.59 637.19 620.59 609.26 575.59 609.26"/>
          </g>
          <g>
            <rect class="cls-4" x="542.67" y="535.06" width="27.93" height="120.47" transform="translate(1151.93 38.65) rotate(90)"/>
            <g>
              <line class="cls-4" x1="503.5" y1="584.6" x2="503.5" y2="605.99"/>
              <line class="cls-4" x1="512.36" y1="584.6" x2="512.36" y2="605.99"/>
              <line class="cls-4" x1="521.21" y1="584.6" x2="521.21" y2="605.99"/>
              <line class="cls-4" x1="530.07" y1="584.6" x2="530.07" y2="605.99"/>
              <line class="cls-4" x1="538.93" y1="584.6" x2="538.93" y2="605.99"/>
              <line class="cls-4" x1="547.78" y1="584.6" x2="547.78" y2="605.99"/>
              <line class="cls-4" x1="556.64" y1="584.6" x2="556.64" y2="605.99"/>
              <line class="cls-4" x1="565.5" y1="584.6" x2="565.5" y2="605.99"/>
              <line class="cls-4" x1="574.35" y1="584.6" x2="574.35" y2="605.99"/>
              <line class="cls-4" x1="583.21" y1="584.6" x2="583.21" y2="605.99"/>
              <line class="cls-4" x1="592.06" y1="584.6" x2="592.06" y2="605.99"/>
              <line class="cls-4" x1="600.92" y1="584.6" x2="600.92" y2="605.99"/>
              <line class="cls-4" x1="609.78" y1="584.6" x2="609.78" y2="605.99"/>
            </g>
            <polygon class="cls-13" points="571.87 581.33 559.3 609.26 616.87 609.26 616.87 581.33 571.87 581.33"/>
          </g>
          <g>
            <rect class="cls-4" x="542.67" y="479.5" width="27.93" height="120.47" transform="translate(1096.37 -16.91) rotate(90)"/>
            <g>
              <line class="cls-4" x1="503.5" y1="529.04" x2="503.5" y2="550.42"/>
              <line class="cls-4" x1="512.36" y1="529.04" x2="512.36" y2="550.42"/>
              <line class="cls-4" x1="521.21" y1="529.04" x2="521.21" y2="550.42"/>
              <line class="cls-4" x1="530.07" y1="529.04" x2="530.07" y2="550.42"/>
              <line class="cls-4" x1="538.93" y1="529.04" x2="538.93" y2="550.42"/>
              <line class="cls-4" x1="547.78" y1="529.04" x2="547.78" y2="550.42"/>
              <line class="cls-4" x1="556.64" y1="529.04" x2="556.64" y2="550.42"/>
              <line class="cls-4" x1="565.5" y1="529.04" x2="565.5" y2="550.42"/>
              <line class="cls-4" x1="574.35" y1="529.04" x2="574.35" y2="550.42"/>
              <line class="cls-4" x1="583.21" y1="529.04" x2="583.21" y2="550.42"/>
              <line class="cls-4" x1="592.06" y1="529.04" x2="592.06" y2="550.42"/>
              <line class="cls-4" x1="600.92" y1="529.04" x2="600.92" y2="550.42"/>
              <line class="cls-4" x1="609.78" y1="529.04" x2="609.78" y2="550.42"/>
            </g>
            <polygon class="cls-13" points="571.87 525.76 559.3 553.7 616.87 553.7 616.87 525.76 571.87 525.76"/>
          </g>
          <g>
            <rect class="cls-4" x="546.39" y="507.13" width="27.93" height="120.47" transform="translate(1127.71 7.01) rotate(90)"/>
            <g>
              <line class="cls-4" x1="507.21" y1="556.67" x2="507.21" y2="578.05"/>
              <line class="cls-4" x1="516.07" y1="556.67" x2="516.07" y2="578.05"/>
              <line class="cls-4" x1="524.93" y1="556.67" x2="524.93" y2="578.05"/>
              <line class="cls-4" x1="533.78" y1="556.67" x2="533.78" y2="578.05"/>
              <line class="cls-4" x1="542.64" y1="556.67" x2="542.64" y2="578.05"/>
              <line class="cls-4" x1="551.5" y1="556.67" x2="551.5" y2="578.05"/>
              <line class="cls-4" x1="560.35" y1="556.67" x2="560.35" y2="578.05"/>
              <line class="cls-4" x1="569.21" y1="556.67" x2="569.21" y2="578.05"/>
              <line class="cls-4" x1="578.07" y1="556.67" x2="578.07" y2="578.05"/>
              <line class="cls-4" x1="586.92" y1="556.67" x2="586.92" y2="578.05"/>
              <line class="cls-4" x1="595.78" y1="556.67" x2="595.78" y2="578.05"/>
              <line class="cls-4" x1="604.63" y1="556.67" x2="604.63" y2="578.05"/>
              <line class="cls-4" x1="613.49" y1="556.67" x2="613.49" y2="578.05"/>
            </g>
            <polygon class="cls-13" points="575.59 553.39 563.02 581.33 620.59 581.33 620.59 553.39 575.59 553.39"/>
          </g>
          <g>
            <rect class="cls-4" x="546.39" y="451.56" width="27.93" height="120.47" transform="translate(1072.15 -48.56) rotate(90)"/>
            <g>
              <line class="cls-4" x1="507.21" y1="501.1" x2="507.21" y2="522.49"/>
              <line class="cls-4" x1="516.07" y1="501.1" x2="516.07" y2="522.49"/>
              <line class="cls-4" x1="524.93" y1="501.1" x2="524.93" y2="522.49"/>
              <line class="cls-4" x1="533.78" y1="501.1" x2="533.78" y2="522.49"/>
              <line class="cls-4" x1="542.64" y1="501.1" x2="542.64" y2="522.49"/>
              <line class="cls-4" x1="551.5" y1="501.1" x2="551.5" y2="522.49"/>
              <line class="cls-4" x1="560.35" y1="501.1" x2="560.35" y2="522.49"/>
              <line class="cls-4" x1="569.21" y1="501.1" x2="569.21" y2="522.49"/>
              <line class="cls-4" x1="578.07" y1="501.1" x2="578.07" y2="522.49"/>
              <line class="cls-4" x1="586.92" y1="501.1" x2="586.92" y2="522.49"/>
              <line class="cls-4" x1="595.78" y1="501.1" x2="595.78" y2="522.49"/>
              <line class="cls-4" x1="604.63" y1="501.1" x2="604.63" y2="522.49"/>
              <line class="cls-4" x1="613.49" y1="501.1" x2="613.49" y2="522.49"/>
            </g>
            <polygon class="cls-13" points="575.59 497.83 563.02 525.76 620.59 525.76 620.59 497.83 575.59 497.83"/>
          </g>
          <g>
            <rect class="cls-4" x="681.23" y="562.99" width="27.93" height="120.47" transform="translate(1318.42 -71.97) rotate(90)"/>
            <g>
              <line class="cls-4" x1="642.06" y1="612.54" x2="642.06" y2="633.92"/>
              <line class="cls-4" x1="650.91" y1="612.54" x2="650.91" y2="633.92"/>
              <line class="cls-4" x1="659.77" y1="612.54" x2="659.77" y2="633.92"/>
              <line class="cls-4" x1="668.63" y1="612.54" x2="668.63" y2="633.92"/>
              <line class="cls-4" x1="677.48" y1="612.54" x2="677.48" y2="633.92"/>
              <line class="cls-4" x1="686.34" y1="612.54" x2="686.34" y2="633.92"/>
              <line class="cls-4" x1="695.2" y1="612.54" x2="695.2" y2="633.92"/>
              <line class="cls-4" x1="704.05" y1="612.54" x2="704.05" y2="633.92"/>
              <line class="cls-4" x1="712.91" y1="612.54" x2="712.91" y2="633.92"/>
              <line class="cls-4" x1="721.76" y1="612.54" x2="721.76" y2="633.92"/>
              <line class="cls-4" x1="730.62" y1="612.54" x2="730.62" y2="633.92"/>
              <line class="cls-4" x1="739.48" y1="612.54" x2="739.48" y2="633.92"/>
              <line class="cls-4" x1="748.33" y1="612.54" x2="748.33" y2="633.92"/>
            </g>
            <polygon class="cls-13" points="710.43 609.26 697.86 637.19 755.43 637.19 755.43 609.26 710.43 609.26"/>
          </g>
          <g>
            <rect class="cls-4" x="683.09" y="534.92" width="27.93" height="120.47" transform="translate(1292.21 -101.9) rotate(90)"/>
            <g>
              <line class="cls-4" x1="643.91" y1="584.46" x2="643.91" y2="605.85"/>
              <line class="cls-4" x1="652.77" y1="584.46" x2="652.77" y2="605.85"/>
              <line class="cls-4" x1="661.63" y1="584.46" x2="661.63" y2="605.85"/>
              <line class="cls-4" x1="670.48" y1="584.46" x2="670.48" y2="605.85"/>
              <line class="cls-4" x1="679.34" y1="584.46" x2="679.34" y2="605.85"/>
              <line class="cls-4" x1="688.2" y1="584.46" x2="688.2" y2="605.85"/>
              <line class="cls-4" x1="697.05" y1="584.46" x2="697.05" y2="605.85"/>
              <line class="cls-4" x1="705.91" y1="584.46" x2="705.91" y2="605.85"/>
              <line class="cls-4" x1="714.77" y1="584.46" x2="714.77" y2="605.85"/>
              <line class="cls-4" x1="723.62" y1="584.46" x2="723.62" y2="605.85"/>
              <line class="cls-4" x1="732.48" y1="584.46" x2="732.48" y2="605.85"/>
              <line class="cls-4" x1="741.33" y1="584.46" x2="741.33" y2="605.85"/>
              <line class="cls-4" x1="750.19" y1="584.46" x2="750.19" y2="605.85"/>
            </g>
            <polygon class="cls-13" points="712.29 581.19 699.72 609.12 757.29 609.12 757.29 581.19 712.29 581.19"/>
          </g>
          <g>
            <rect class="cls-4" x="681.23" y="506.85" width="27.93" height="120.47" transform="translate(1262.28 -128.11) rotate(90)"/>
            <g>
              <line class="cls-4" x1="642.06" y1="556.39" x2="642.06" y2="577.78"/>
              <line class="cls-4" x1="650.91" y1="556.39" x2="650.91" y2="577.78"/>
              <line class="cls-4" x1="659.77" y1="556.39" x2="659.77" y2="577.78"/>
              <line class="cls-4" x1="668.63" y1="556.39" x2="668.63" y2="577.78"/>
              <line class="cls-4" x1="677.48" y1="556.39" x2="677.48" y2="577.78"/>
              <line class="cls-4" x1="686.34" y1="556.39" x2="686.34" y2="577.78"/>
              <line class="cls-4" x1="695.2" y1="556.39" x2="695.2" y2="577.78"/>
              <line class="cls-4" x1="704.05" y1="556.39" x2="704.05" y2="577.78"/>
              <line class="cls-4" x1="712.91" y1="556.39" x2="712.91" y2="577.78"/>
              <line class="cls-4" x1="721.76" y1="556.39" x2="721.76" y2="577.78"/>
              <line class="cls-4" x1="730.62" y1="556.39" x2="730.62" y2="577.78"/>
              <line class="cls-4" x1="739.48" y1="556.39" x2="739.48" y2="577.78"/>
              <line class="cls-4" x1="748.33" y1="556.39" x2="748.33" y2="577.78"/>
            </g>
            <polygon class="cls-13" points="710.43 553.12 697.86 581.05 755.43 581.05 755.43 553.12 710.43 553.12"/>
          </g>
          <g>
            <rect class="cls-4" x="683.09" y="478.78" width="27.93" height="120.47" transform="translate(1236.06 -158.04) rotate(90)"/>
            <g>
              <line class="cls-4" x1="643.91" y1="528.32" x2="643.91" y2="549.7"/>
              <line class="cls-4" x1="652.77" y1="528.32" x2="652.77" y2="549.7"/>
              <line class="cls-4" x1="661.63" y1="528.32" x2="661.63" y2="549.7"/>
              <line class="cls-4" x1="670.48" y1="528.32" x2="670.48" y2="549.7"/>
              <line class="cls-4" x1="679.34" y1="528.32" x2="679.34" y2="549.7"/>
              <line class="cls-4" x1="688.2" y1="528.32" x2="688.2" y2="549.7"/>
              <line class="cls-4" x1="697.05" y1="528.32" x2="697.05" y2="549.7"/>
              <line class="cls-4" x1="705.91" y1="528.32" x2="705.91" y2="549.7"/>
              <line class="cls-4" x1="714.77" y1="528.32" x2="714.77" y2="549.7"/>
              <line class="cls-4" x1="723.62" y1="528.32" x2="723.62" y2="549.7"/>
              <line class="cls-4" x1="732.48" y1="528.32" x2="732.48" y2="549.7"/>
              <line class="cls-4" x1="741.33" y1="528.32" x2="741.33" y2="549.7"/>
              <line class="cls-4" x1="750.19" y1="528.32" x2="750.19" y2="549.7"/>
            </g>
            <polygon class="cls-13" points="712.29 525.04 699.72 552.98 757.29 552.98 757.29 525.04 712.29 525.04"/>
          </g>
          <g>
            <rect class="cls-4" x="681.23" y="450.71" width="27.93" height="120.47" transform="translate(1206.13 -184.26) rotate(90)"/>
            <g>
              <line class="cls-4" x1="642.06" y1="500.25" x2="642.06" y2="521.63"/>
              <line class="cls-4" x1="650.91" y1="500.25" x2="650.91" y2="521.63"/>
              <line class="cls-4" x1="659.77" y1="500.25" x2="659.77" y2="521.63"/>
              <line class="cls-4" x1="668.63" y1="500.25" x2="668.63" y2="521.63"/>
              <line class="cls-4" x1="677.48" y1="500.25" x2="677.48" y2="521.63"/>
              <line class="cls-4" x1="686.34" y1="500.25" x2="686.34" y2="521.63"/>
              <line class="cls-4" x1="695.2" y1="500.25" x2="695.2" y2="521.63"/>
              <line class="cls-4" x1="704.05" y1="500.25" x2="704.05" y2="521.63"/>
              <line class="cls-4" x1="712.91" y1="500.25" x2="712.91" y2="521.63"/>
              <line class="cls-4" x1="721.76" y1="500.25" x2="721.76" y2="521.63"/>
              <line class="cls-4" x1="730.62" y1="500.25" x2="730.62" y2="521.63"/>
              <line class="cls-4" x1="739.48" y1="500.25" x2="739.48" y2="521.63"/>
              <line class="cls-4" x1="748.33" y1="500.25" x2="748.33" y2="521.63"/>
            </g>
            <polygon class="cls-13" points="710.43 496.97 697.86 524.91 755.43 524.91 755.43 496.97 710.43 496.97"/>
          </g>
          <g>
            <rect class="cls-4" x="677.52" y="422.63" width="27.93" height="120.47" transform="translate(1174.35 -208.62) rotate(90)"/>
            <g>
              <line class="cls-4" x1="638.34" y1="472.17" x2="638.34" y2="493.56"/>
              <line class="cls-4" x1="647.2" y1="472.17" x2="647.2" y2="493.56"/>
              <line class="cls-4" x1="656.06" y1="472.17" x2="656.06" y2="493.56"/>
              <line class="cls-4" x1="664.91" y1="472.17" x2="664.91" y2="493.56"/>
              <line class="cls-4" x1="673.77" y1="472.17" x2="673.77" y2="493.56"/>
              <line class="cls-4" x1="682.63" y1="472.17" x2="682.63" y2="493.56"/>
              <line class="cls-4" x1="691.48" y1="472.17" x2="691.48" y2="493.56"/>
              <line class="cls-4" x1="700.34" y1="472.17" x2="700.34" y2="493.56"/>
              <line class="cls-4" x1="709.19" y1="472.17" x2="709.19" y2="493.56"/>
              <line class="cls-4" x1="718.05" y1="472.17" x2="718.05" y2="493.56"/>
              <line class="cls-4" x1="726.91" y1="472.17" x2="726.91" y2="493.56"/>
              <line class="cls-4" x1="735.76" y1="472.17" x2="735.76" y2="493.56"/>
              <line class="cls-4" x1="744.62" y1="472.17" x2="744.62" y2="493.56"/>
            </g>
            <polygon class="cls-13" points="706.72 468.9 694.15 496.83 751.72 496.83 751.72 468.9 706.72 468.9"/>
          </g>
          <g>
            <rect class="cls-4" x="681.23" y="394.56" width="27.93" height="120.47" transform="translate(1149.99 -240.4) rotate(90)"/>
            <g>
              <line class="cls-4" x1="642.06" y1="444.1" x2="642.06" y2="465.49"/>
              <line class="cls-4" x1="650.91" y1="444.1" x2="650.91" y2="465.49"/>
              <line class="cls-4" x1="659.77" y1="444.1" x2="659.77" y2="465.49"/>
              <line class="cls-4" x1="668.63" y1="444.1" x2="668.63" y2="465.49"/>
              <line class="cls-4" x1="677.48" y1="444.1" x2="677.48" y2="465.49"/>
              <line class="cls-4" x1="686.34" y1="444.1" x2="686.34" y2="465.49"/>
              <line class="cls-4" x1="695.2" y1="444.1" x2="695.2" y2="465.49"/>
              <line class="cls-4" x1="704.05" y1="444.1" x2="704.05" y2="465.49"/>
              <line class="cls-4" x1="712.91" y1="444.1" x2="712.91" y2="465.49"/>
              <line class="cls-4" x1="721.76" y1="444.1" x2="721.76" y2="465.49"/>
              <line class="cls-4" x1="730.62" y1="444.1" x2="730.62" y2="465.49"/>
              <line class="cls-4" x1="739.48" y1="444.1" x2="739.48" y2="465.49"/>
              <line class="cls-4" x1="748.33" y1="444.1" x2="748.33" y2="465.49"/>
            </g>
            <polygon class="cls-13" points="710.43 440.83 697.86 468.76 755.43 468.76 755.43 440.83 710.43 440.83"/>
          </g>
          <g>
            <rect class="cls-4" x="677.52" y="366.49" width="27.93" height="120.47" transform="translate(1118.2 -264.76) rotate(90)"/>
            <g>
              <line class="cls-4" x1="638.34" y1="416.03" x2="638.34" y2="437.41"/>
              <line class="cls-4" x1="647.2" y1="416.03" x2="647.2" y2="437.41"/>
              <line class="cls-4" x1="656.06" y1="416.03" x2="656.06" y2="437.41"/>
              <line class="cls-4" x1="664.91" y1="416.03" x2="664.91" y2="437.41"/>
              <line class="cls-4" x1="673.77" y1="416.03" x2="673.77" y2="437.41"/>
              <line class="cls-4" x1="682.63" y1="416.03" x2="682.63" y2="437.41"/>
              <line class="cls-4" x1="691.48" y1="416.03" x2="691.48" y2="437.41"/>
              <line class="cls-4" x1="700.34" y1="416.03" x2="700.34" y2="437.41"/>
              <line class="cls-4" x1="709.19" y1="416.03" x2="709.19" y2="437.41"/>
              <line class="cls-4" x1="718.05" y1="416.03" x2="718.05" y2="437.41"/>
              <line class="cls-4" x1="726.91" y1="416.03" x2="726.91" y2="437.41"/>
              <line class="cls-4" x1="735.76" y1="416.03" x2="735.76" y2="437.41"/>
              <line class="cls-4" x1="744.62" y1="416.03" x2="744.62" y2="437.41"/>
            </g>
            <polygon class="cls-13" points="706.72 412.76 694.15 440.69 751.72 440.69 751.72 412.76 706.72 412.76"/>
          </g>
          <g>
            <rect class="cls-4" x="681.23" y="338.42" width="27.93" height="120.47" transform="translate(1093.85 -296.55) rotate(90)"/>
            <g>
              <line class="cls-4" x1="642.06" y1="387.96" x2="642.06" y2="409.34"/>
              <line class="cls-4" x1="650.91" y1="387.96" x2="650.91" y2="409.34"/>
              <line class="cls-4" x1="659.77" y1="387.96" x2="659.77" y2="409.34"/>
              <line class="cls-4" x1="668.63" y1="387.96" x2="668.63" y2="409.34"/>
              <line class="cls-4" x1="677.48" y1="387.96" x2="677.48" y2="409.34"/>
              <line class="cls-4" x1="686.34" y1="387.96" x2="686.34" y2="409.34"/>
              <line class="cls-4" x1="695.2" y1="387.96" x2="695.2" y2="409.34"/>
              <line class="cls-4" x1="704.05" y1="387.96" x2="704.05" y2="409.34"/>
              <line class="cls-4" x1="712.91" y1="387.96" x2="712.91" y2="409.34"/>
              <line class="cls-4" x1="721.76" y1="387.96" x2="721.76" y2="409.34"/>
              <line class="cls-4" x1="730.62" y1="387.96" x2="730.62" y2="409.34"/>
              <line class="cls-4" x1="739.48" y1="387.96" x2="739.48" y2="409.34"/>
              <line class="cls-4" x1="748.33" y1="387.96" x2="748.33" y2="409.34"/>
            </g>
            <polygon class="cls-13" points="710.43 384.68 697.86 412.62 755.43 412.62 755.43 384.68 710.43 384.68"/>
          </g>
          <g>
            <rect class="cls-4" x="814.87" y="562.99" width="27.93" height="120.47" transform="translate(1452.06 -205.6) rotate(90)"/>
            <g>
              <line class="cls-4" x1="775.69" y1="612.54" x2="775.69" y2="633.92"/>
              <line class="cls-4" x1="784.55" y1="612.54" x2="784.55" y2="633.92"/>
              <line class="cls-4" x1="793.41" y1="612.54" x2="793.41" y2="633.92"/>
              <line class="cls-4" x1="802.26" y1="612.54" x2="802.26" y2="633.92"/>
              <line class="cls-4" x1="811.12" y1="612.54" x2="811.12" y2="633.92"/>
              <line class="cls-4" x1="819.98" y1="612.54" x2="819.98" y2="633.92"/>
              <line class="cls-4" x1="828.83" y1="612.54" x2="828.83" y2="633.92"/>
              <line class="cls-4" x1="837.69" y1="612.54" x2="837.69" y2="633.92"/>
              <line class="cls-4" x1="846.55" y1="612.54" x2="846.55" y2="633.92"/>
              <line class="cls-4" x1="855.4" y1="612.54" x2="855.4" y2="633.92"/>
              <line class="cls-4" x1="864.26" y1="612.54" x2="864.26" y2="633.92"/>
              <line class="cls-4" x1="873.11" y1="612.54" x2="873.11" y2="633.92"/>
              <line class="cls-4" x1="881.97" y1="612.54" x2="881.97" y2="633.92"/>
            </g>
            <polygon class="cls-13" points="844.07 609.26 831.5 637.19 889.07 637.19 889.07 609.26 844.07 609.26"/>
          </g>
          <g>
            <rect class="cls-4" x="816.72" y="534.92" width="27.93" height="120.47" transform="translate(1425.85 -235.53) rotate(90)"/>
            <g>
              <line class="cls-4" x1="777.55" y1="584.46" x2="777.55" y2="605.85"/>
              <line class="cls-4" x1="786.41" y1="584.46" x2="786.41" y2="605.85"/>
              <line class="cls-4" x1="795.26" y1="584.46" x2="795.26" y2="605.85"/>
              <line class="cls-4" x1="804.12" y1="584.46" x2="804.12" y2="605.85"/>
              <line class="cls-4" x1="812.98" y1="584.46" x2="812.98" y2="605.85"/>
              <line class="cls-4" x1="821.83" y1="584.46" x2="821.83" y2="605.85"/>
              <line class="cls-4" x1="830.69" y1="584.46" x2="830.69" y2="605.85"/>
              <line class="cls-4" x1="839.55" y1="584.46" x2="839.55" y2="605.85"/>
              <line class="cls-4" x1="848.4" y1="584.46" x2="848.4" y2="605.85"/>
              <line class="cls-4" x1="857.26" y1="584.46" x2="857.26" y2="605.85"/>
              <line class="cls-4" x1="866.12" y1="584.46" x2="866.12" y2="605.85"/>
              <line class="cls-4" x1="874.97" y1="584.46" x2="874.97" y2="605.85"/>
              <line class="cls-4" x1="883.83" y1="584.46" x2="883.83" y2="605.85"/>
            </g>
            <polygon class="cls-13" points="845.92 581.19 833.35 609.12 890.92 609.12 890.92 581.19 845.92 581.19"/>
          </g>
          <g>
            <rect class="cls-4" x="814.87" y="506.85" width="27.93" height="120.47" transform="translate(1395.92 -261.75) rotate(90)"/>
            <g>
              <line class="cls-4" x1="775.69" y1="556.39" x2="775.69" y2="577.78"/>
              <line class="cls-4" x1="784.55" y1="556.39" x2="784.55" y2="577.78"/>
              <line class="cls-4" x1="793.41" y1="556.39" x2="793.41" y2="577.78"/>
              <line class="cls-4" x1="802.26" y1="556.39" x2="802.26" y2="577.78"/>
              <line class="cls-4" x1="811.12" y1="556.39" x2="811.12" y2="577.78"/>
              <line class="cls-4" x1="819.98" y1="556.39" x2="819.98" y2="577.78"/>
              <line class="cls-4" x1="828.83" y1="556.39" x2="828.83" y2="577.78"/>
              <line class="cls-4" x1="837.69" y1="556.39" x2="837.69" y2="577.78"/>
              <line class="cls-4" x1="846.55" y1="556.39" x2="846.55" y2="577.78"/>
              <line class="cls-4" x1="855.4" y1="556.39" x2="855.4" y2="577.78"/>
              <line class="cls-4" x1="864.26" y1="556.39" x2="864.26" y2="577.78"/>
              <line class="cls-4" x1="873.11" y1="556.39" x2="873.11" y2="577.78"/>
              <line class="cls-4" x1="881.97" y1="556.39" x2="881.97" y2="577.78"/>
            </g>
            <polygon class="cls-13" points="844.07 553.12 831.5 581.05 889.07 581.05 889.07 553.12 844.07 553.12"/>
          </g>
          <g>
            <rect class="cls-4" x="816.72" y="478.78" width="27.93" height="120.47" transform="translate(1369.7 -291.68) rotate(90)"/>
            <g>
              <line class="cls-4" x1="777.55" y1="528.32" x2="777.55" y2="549.7"/>
              <line class="cls-4" x1="786.41" y1="528.32" x2="786.41" y2="549.7"/>
              <line class="cls-4" x1="795.26" y1="528.32" x2="795.26" y2="549.7"/>
              <line class="cls-4" x1="804.12" y1="528.32" x2="804.12" y2="549.7"/>
              <line class="cls-4" x1="812.98" y1="528.32" x2="812.98" y2="549.7"/>
              <line class="cls-4" x1="821.83" y1="528.32" x2="821.83" y2="549.7"/>
              <line class="cls-4" x1="830.69" y1="528.32" x2="830.69" y2="549.7"/>
              <line class="cls-4" x1="839.55" y1="528.32" x2="839.55" y2="549.7"/>
              <line class="cls-4" x1="848.4" y1="528.32" x2="848.4" y2="549.7"/>
              <line class="cls-4" x1="857.26" y1="528.32" x2="857.26" y2="549.7"/>
              <line class="cls-4" x1="866.12" y1="528.32" x2="866.12" y2="549.7"/>
              <line class="cls-4" x1="874.97" y1="528.32" x2="874.97" y2="549.7"/>
              <line class="cls-4" x1="883.83" y1="528.32" x2="883.83" y2="549.7"/>
            </g>
            <polygon class="cls-13" points="845.92 525.04 833.35 552.98 890.92 552.98 890.92 525.04 845.92 525.04"/>
          </g>
          <g>
            <rect class="cls-4" x="814.87" y="450.71" width="27.93" height="120.47" transform="translate(1339.77 -317.89) rotate(90)"/>
            <g>
              <line class="cls-4" x1="775.69" y1="500.25" x2="775.69" y2="521.63"/>
              <line class="cls-4" x1="784.55" y1="500.25" x2="784.55" y2="521.63"/>
              <line class="cls-4" x1="793.41" y1="500.25" x2="793.41" y2="521.63"/>
              <line class="cls-4" x1="802.26" y1="500.25" x2="802.26" y2="521.63"/>
              <line class="cls-4" x1="811.12" y1="500.25" x2="811.12" y2="521.63"/>
              <line class="cls-4" x1="819.98" y1="500.25" x2="819.98" y2="521.63"/>
              <line class="cls-4" x1="828.83" y1="500.25" x2="828.83" y2="521.63"/>
              <line class="cls-4" x1="837.69" y1="500.25" x2="837.69" y2="521.63"/>
              <line class="cls-4" x1="846.55" y1="500.25" x2="846.55" y2="521.63"/>
              <line class="cls-4" x1="855.4" y1="500.25" x2="855.4" y2="521.63"/>
              <line class="cls-4" x1="864.26" y1="500.25" x2="864.26" y2="521.63"/>
              <line class="cls-4" x1="873.11" y1="500.25" x2="873.11" y2="521.63"/>
              <line class="cls-4" x1="881.97" y1="500.25" x2="881.97" y2="521.63"/>
            </g>
            <polygon class="cls-13" points="844.07 496.97 831.5 524.91 889.07 524.91 889.07 496.97 844.07 496.97"/>
          </g>
          <g>
            <rect class="cls-4" x="816.72" y="422.63" width="27.93" height="120.47" transform="translate(1313.56 -347.82) rotate(90)"/>
            <g>
              <line class="cls-4" x1="777.55" y1="472.17" x2="777.55" y2="493.56"/>
              <line class="cls-4" x1="786.41" y1="472.17" x2="786.41" y2="493.56"/>
              <line class="cls-4" x1="795.26" y1="472.17" x2="795.26" y2="493.56"/>
              <line class="cls-4" x1="804.12" y1="472.17" x2="804.12" y2="493.56"/>
              <line class="cls-4" x1="812.98" y1="472.17" x2="812.98" y2="493.56"/>
              <line class="cls-4" x1="821.83" y1="472.17" x2="821.83" y2="493.56"/>
              <line class="cls-4" x1="830.69" y1="472.17" x2="830.69" y2="493.56"/>
              <line class="cls-4" x1="839.55" y1="472.17" x2="839.55" y2="493.56"/>
              <line class="cls-4" x1="848.4" y1="472.17" x2="848.4" y2="493.56"/>
              <line class="cls-4" x1="857.26" y1="472.17" x2="857.26" y2="493.56"/>
              <line class="cls-4" x1="866.12" y1="472.17" x2="866.12" y2="493.56"/>
              <line class="cls-4" x1="874.97" y1="472.17" x2="874.97" y2="493.56"/>
              <line class="cls-4" x1="883.83" y1="472.17" x2="883.83" y2="493.56"/>
            </g>
            <polygon class="cls-13" points="845.92 468.9 833.35 496.83 890.92 496.83 890.92 468.9 845.92 468.9"/>
          </g>
          <g>
            <rect class="cls-4" x="820.44" y="394.56" width="27.93" height="120.47" transform="translate(1289.2 -379.61) rotate(90)"/>
            <g>
              <line class="cls-4" x1="781.26" y1="444.1" x2="781.26" y2="465.49"/>
              <line class="cls-4" x1="790.12" y1="444.1" x2="790.12" y2="465.49"/>
              <line class="cls-4" x1="798.98" y1="444.1" x2="798.98" y2="465.49"/>
              <line class="cls-4" x1="807.83" y1="444.1" x2="807.83" y2="465.49"/>
              <line class="cls-4" x1="816.69" y1="444.1" x2="816.69" y2="465.49"/>
              <line class="cls-4" x1="825.55" y1="444.1" x2="825.55" y2="465.49"/>
              <line class="cls-4" x1="834.4" y1="444.1" x2="834.4" y2="465.49"/>
              <line class="cls-4" x1="843.26" y1="444.1" x2="843.26" y2="465.49"/>
              <line class="cls-4" x1="852.12" y1="444.1" x2="852.12" y2="465.49"/>
              <line class="cls-4" x1="860.97" y1="444.1" x2="860.97" y2="465.49"/>
              <line class="cls-4" x1="869.83" y1="444.1" x2="869.83" y2="465.49"/>
              <line class="cls-4" x1="878.68" y1="444.1" x2="878.68" y2="465.49"/>
              <line class="cls-4" x1="887.54" y1="444.1" x2="887.54" y2="465.49"/>
            </g>
            <polygon class="cls-13" points="849.64 440.83 837.07 468.76 894.64 468.76 894.64 440.83 849.64 440.83"/>
          </g>
          <g>
            <rect class="cls-4" x="816.72" y="366.49" width="27.93" height="120.47" transform="translate(1257.41 -403.97) rotate(90)"/>
            <g>
              <line class="cls-4" x1="777.55" y1="416.03" x2="777.55" y2="437.41"/>
              <line class="cls-4" x1="786.41" y1="416.03" x2="786.41" y2="437.41"/>
              <line class="cls-4" x1="795.26" y1="416.03" x2="795.26" y2="437.41"/>
              <line class="cls-4" x1="804.12" y1="416.03" x2="804.12" y2="437.41"/>
              <line class="cls-4" x1="812.98" y1="416.03" x2="812.98" y2="437.41"/>
              <line class="cls-4" x1="821.83" y1="416.03" x2="821.83" y2="437.41"/>
              <line class="cls-4" x1="830.69" y1="416.03" x2="830.69" y2="437.41"/>
              <line class="cls-4" x1="839.55" y1="416.03" x2="839.55" y2="437.41"/>
              <line class="cls-4" x1="848.4" y1="416.03" x2="848.4" y2="437.41"/>
              <line class="cls-4" x1="857.26" y1="416.03" x2="857.26" y2="437.41"/>
              <line class="cls-4" x1="866.12" y1="416.03" x2="866.12" y2="437.41"/>
              <line class="cls-4" x1="874.97" y1="416.03" x2="874.97" y2="437.41"/>
              <line class="cls-4" x1="883.83" y1="416.03" x2="883.83" y2="437.41"/>
            </g>
            <polygon class="cls-13" points="845.92 412.76 833.35 440.69 890.92 440.69 890.92 412.76 845.92 412.76"/>
          </g>
          <g>
            <rect class="cls-4" x="820.44" y="338.42" width="27.93" height="120.47" transform="translate(1233.05 -435.75) rotate(90)"/>
            <g>
              <line class="cls-4" x1="781.26" y1="387.96" x2="781.26" y2="409.34"/>
              <line class="cls-4" x1="790.12" y1="387.96" x2="790.12" y2="409.34"/>
              <line class="cls-4" x1="798.98" y1="387.96" x2="798.98" y2="409.34"/>
              <line class="cls-4" x1="807.83" y1="387.96" x2="807.83" y2="409.34"/>
              <line class="cls-4" x1="816.69" y1="387.96" x2="816.69" y2="409.34"/>
              <line class="cls-4" x1="825.55" y1="387.96" x2="825.55" y2="409.34"/>
              <line class="cls-4" x1="834.4" y1="387.96" x2="834.4" y2="409.34"/>
              <line class="cls-4" x1="843.26" y1="387.96" x2="843.26" y2="409.34"/>
              <line class="cls-4" x1="852.12" y1="387.96" x2="852.12" y2="409.34"/>
              <line class="cls-4" x1="860.97" y1="387.96" x2="860.97" y2="409.34"/>
              <line class="cls-4" x1="869.83" y1="387.96" x2="869.83" y2="409.34"/>
              <line class="cls-4" x1="878.68" y1="387.96" x2="878.68" y2="409.34"/>
              <line class="cls-4" x1="887.54" y1="387.96" x2="887.54" y2="409.34"/>
            </g>
            <polygon class="cls-13" points="849.64 384.68 837.07 412.62 894.64 412.62 894.64 384.68 849.64 384.68"/>
          </g>
          <g>
            <rect class="cls-4" x="816.72" y="310.34" width="27.93" height="120.47" transform="translate(1201.27 -460.11) rotate(90)"/>
            <g>
              <line class="cls-4" x1="777.55" y1="359.89" x2="777.55" y2="381.27"/>
              <line class="cls-4" x1="786.41" y1="359.89" x2="786.41" y2="381.27"/>
              <line class="cls-4" x1="795.26" y1="359.89" x2="795.26" y2="381.27"/>
              <line class="cls-4" x1="804.12" y1="359.89" x2="804.12" y2="381.27"/>
              <line class="cls-4" x1="812.98" y1="359.89" x2="812.98" y2="381.27"/>
              <line class="cls-4" x1="821.83" y1="359.89" x2="821.83" y2="381.27"/>
              <line class="cls-4" x1="830.69" y1="359.89" x2="830.69" y2="381.27"/>
              <line class="cls-4" x1="839.55" y1="359.89" x2="839.55" y2="381.27"/>
              <line class="cls-4" x1="848.4" y1="359.89" x2="848.4" y2="381.27"/>
              <line class="cls-4" x1="857.26" y1="359.89" x2="857.26" y2="381.27"/>
              <line class="cls-4" x1="866.12" y1="359.89" x2="866.12" y2="381.27"/>
              <line class="cls-4" x1="874.97" y1="359.89" x2="874.97" y2="381.27"/>
              <line class="cls-4" x1="883.83" y1="359.89" x2="883.83" y2="381.27"/>
            </g>
            <polygon class="cls-13" points="845.92 356.61 833.35 384.55 890.92 384.55 890.92 356.61 845.92 356.61"/>
          </g>
          <g>
            <rect class="cls-4" x="820.44" y="282.27" width="27.93" height="120.47" transform="translate(1176.91 -491.9) rotate(90)"/>
            <g>
              <line class="cls-4" x1="781.26" y1="331.81" x2="781.26" y2="353.2"/>
              <line class="cls-4" x1="790.12" y1="331.81" x2="790.12" y2="353.2"/>
              <line class="cls-4" x1="798.98" y1="331.81" x2="798.98" y2="353.2"/>
              <line class="cls-4" x1="807.83" y1="331.81" x2="807.83" y2="353.2"/>
              <line class="cls-4" x1="816.69" y1="331.81" x2="816.69" y2="353.2"/>
              <line class="cls-4" x1="825.55" y1="331.81" x2="825.55" y2="353.2"/>
              <line class="cls-4" x1="834.4" y1="331.81" x2="834.4" y2="353.2"/>
              <line class="cls-4" x1="843.26" y1="331.81" x2="843.26" y2="353.2"/>
              <line class="cls-4" x1="852.12" y1="331.81" x2="852.12" y2="353.2"/>
              <line class="cls-4" x1="860.97" y1="331.81" x2="860.97" y2="353.2"/>
              <line class="cls-4" x1="869.83" y1="331.81" x2="869.83" y2="353.2"/>
              <line class="cls-4" x1="878.68" y1="331.81" x2="878.68" y2="353.2"/>
              <line class="cls-4" x1="887.54" y1="331.81" x2="887.54" y2="353.2"/>
            </g>
            <polygon class="cls-13" points="849.64 328.54 837.07 356.47 894.64 356.47 894.64 328.54 849.64 328.54"/>
          </g>
        </g>
        <g>
          <g>
            <path class="cls-9" d="m134.85,441.99c-12.89,3.93-27.54,3.91-39.17-2.9-11.63-6.81-19.09-21.37-15.18-34.27,1.82-5.99,6.09-11.37,11.89-13.72s13.05-1.26,17.37,3.26c4.32,4.53,4.87,12.42.66,17.05-4.21,4.63-12.77,4.49-16.31-.67"/>
            <path class="cls-8" d="m250.7,606.25s10.24,87.25,53.59,87.25,46.37-96.7,46.37-96.7l-99.96,9.46Z"/>
            <path class="cls-3" d="m496.96,555.65s-3.32,140.47-40.22,145.7c-.04.01-.09.01-.13.02-31.31,4.14-56.6-72.86-56.6-72.86l52.89-39.75,44.06-33.11Z"/>
            <path class="cls-12" d="m436.68,669.06c1.58,9.36,11.25,22.2,20.07,32.29-.04.01-.09.01-.13.02-31.31,4.14-56.6-72.86-56.6-72.86l52.89-39.75,24.57,2.25s-43.82,60.21-40.8,78.05Z"/>
            <path class="cls-3" d="m242.86,628.51s-1.84,5.61-5.14,13.72c-3.92,9.57-9.85,22.64-17.23,34.06-9.49,14.75-21.35,26.79-34.24,25.08-23.23-3.08-33.19-59.7-37.39-101.43-2.49-24.77-2.96-44.29-2.96-44.29l89.55,67.31,7.4,5.56Z"/>
            <path class="cls-12" d="m237.72,642.23c-3.92,9.57-9.85,22.64-17.23,34.06-34.57-19.16-57.5-50.45-71.62-76.36-2.49-24.77-2.96-44.29-2.96-44.29l89.55,67.31,2.25,19.28Z"/>
            <path class="cls-3" d="m529.42,486.52c0,50.13-22.5,95.53-58.95,128.51-36.85,33.37-87.96,54.03-144.44,54.03-112.32,0-203.39-81.72-203.39-182.54,0-32.51,9.47-63.03,26.07-89.48,34.88-55.55,101.22-93.06,177.32-93.06,44.53,0,85.7,12.85,119.2,34.63,15.08-7.27,53.23-23.24,69.13-7.21,16.4,16.55,1.5,65.39-3.22,79.36,11.75,23.08,18.3,48.73,18.3,75.75Z"/>
            <path class="cls-7" d="m472.03,549.3h-25.67c-24.88,0-45.04-21.16-45.04-47.28,0-.25,0-.51.01-.76.02-1.21.08-2.41.18-3.59,2.09-24.08,21.37-42.93,44.85-42.93h25.67c-23.48,0-42.76,18.85-44.85,42.93-.1,1.18-.16,2.38-.18,3.59-.01.25-.01.51-.01.76,0,26.12,20.16,47.28,45.04,47.28Z"/>
            <path class="cls-12" d="m472.03,549.3h-25.67c-24.88,0-45.04-21.16-45.04-47.28,0-.25,0-.51.01-.76h25.67c-.01.25-.01.51-.01.76,0,26.12,20.16,47.28,45.04,47.28Z"/>
            <g>
              <ellipse class="cls-5" cx="472.03" cy="502.03" rx="45.04" ry="47.28"/>
              <g>
                <ellipse cx="459.5" cy="501.27" rx="7.67" ry="14.74"/>
                <ellipse cx="491.25" cy="501.27" rx="7.67" ry="14.74"/>
              </g>
            </g>
            <g>
              <circle cx="384.59" cy="432.49" r="14.13"/>
              <circle cx="491.61" cy="432.49" r="14.13"/>
            </g>
            <path d="m398.68,328.54c-.3,0-.6-.05-.9-.16-75.63-27.5-135.82-.36-136.42-.09-1.32.61-2.89.04-3.51-1.29-.61-1.32-.04-2.89,1.28-3.51.62-.29,62.69-28.36,140.45-.09,1.37.5,2.08,2.01,1.58,3.39-.39,1.07-1.4,1.74-2.48,1.74Z"/>
            <path class="cls-12" d="m470.47,615.03c-36.85,33.37-87.96,54.03-144.44,54.03-112.32,0-203.39-81.72-203.39-182.54,0-32.51,9.47-63.03,26.07-89.48-50.02,152.26,59.42,304.48,321.76,217.99Z"/>
            <path class="cls-3" d="m376.54,608.81s-3.01,96.7-46.37,96.7-53.59-87.25-53.59-87.25"/>
            <path d="m379.54,370.24s-22.84-38.62-50.08-25.82c-27.98,13.14-16.39,66.55-16.39,66.55,0,0,18.47-48.29,66.47-40.73Z"/>
            <path class="cls-12" d="m301.97,421.19s-19.18-53.7,12.82-85.81c0,0-25.99,8.55-32.05,14.95-6.05,6.41-16.02,22.08-16.02,42.37s13.89,32.76,13.89,32.76l21.36-4.27Z"/>
            <path d="m458.34,353.76s30.7-18.67,45.9-9.99c15.19,8.68,3.41,50.86,3.41,50.86,0,0-13.88-26.58-49.31-40.87Z"/>
          </g>
          <g>
            <ellipse class="cls-11" cx="199.92" cy="395.62" rx="17.73" ry="15.2"/>
            <ellipse class="cls-11" cx="178.49" cy="421.02" rx="13.78" ry="11.82"/>
            <ellipse class="cls-11" cx="217.46" cy="421.02" rx="6.61" ry="5.67"/>
          </g>
        </g>
        <g>
          <g>
            <line class="cls-9" x1="366.18" y1="284.25" x2="366.18" y2="240.54"/>
            <line class="cls-9" x1="310.34" y1="300.9" x2="310.34" y2="257.19"/>
            <line class="cls-9" x1="285.87" y1="268.46" x2="285.87" y2="232.24"/>
            <line class="cls-9" x1="285.87" y1="288.15" x2="285.87" y2="279.04"/>
            <line class="cls-9" x1="337.95" y1="288.15" x2="337.95" y2="263.27"/>
          </g>
          <g>
            <circle class="cls-4" cx="326.02" cy="173.57" r="84.55"/>
            <path class="cls-6" d="m389.23,173.57c0,2.48-.14,4.91-.42,7.31-3.64,31.42-30.4,55.89-62.78,55.89-13.28,0-25.62-4.12-35.79-11.15-.95-.65-1.86-1.32-2.77-2.02-3.54-2.72-6.77-5.81-9.64-9.22-2.42-2.86-4.6-5.91-6.48-9.17-4.26-7.32-7.08-15.55-8.1-24.34-.28-2.4-.42-4.83-.42-7.31,0-34.85,28.35-63.2,63.2-63.2,14.14,0,27.21,4.66,37.74,12.54,3.01,2.24,5.8,4.74,8.37,7.47,3.03,3.25,5.75,6.81,8.05,10.64.59.97,1.15,1.96,1.67,2.98,4.71,8.82,7.36,18.89,7.36,29.56Z"/>
            <path class="cls-13" d="m389.23,173.57c0,2.48-.14,4.91-.42,7.31-3.64-31.41-30.4-55.87-62.78-55.87s-59.14,24.47-62.78,55.87c-.28-2.4-.42-4.83-.42-7.31,0-34.85,28.35-63.2,63.2-63.2s63.2,28.35,63.2,63.2Z"/>
            <g class="cls-14">
              <path class="cls-10" d="m372.13,130.38l-94.31,84.01c-2.42-2.86-4.6-5.91-6.48-9.17l92.42-82.31c3.01,2.24,5.8,4.74,8.37,7.47Z"/>
              <path class="cls-10" d="m381.86,144l-91.63,81.62c-.95-.65-1.86-1.32-2.77-2.02l92.72-82.58c.59.97,1.15,1.96,1.67,2.98Z"/>
            </g>
            <path class="cls-9" d="m389.23,173.57c0,2.48-.14,4.91-.42,7.31-3.64,31.42-30.4,55.89-62.78,55.89-13.28,0-25.62-4.12-35.79-11.15-.95-.65-1.86-1.32-2.77-2.02-3.54-2.72-6.77-5.81-9.64-9.22-2.42-2.86-4.6-5.91-6.48-9.17-4.26-7.32-7.08-15.55-8.1-24.34-.28-2.4-.42-4.83-.42-7.31,0-34.85,28.35-63.2,63.2-63.2,14.14,0,27.21,4.66,37.74,12.54,3.01,2.24,5.8,4.74,8.37,7.47,3.03,3.25,5.75,6.81,8.05,10.64.59.97,1.15,1.96,1.67,2.98,4.71,8.82,7.36,18.89,7.36,29.56Z"/>
          </g>
        </g>
        <path class="cls-4" d="m133.65,254.81h24.45c1.83,0,3.31-1.48,3.31-3.31v-35.28c0-1.83,1.48-3.31,3.31-3.31h0c1.83,0,3.31,1.48,3.31,3.31v35.28c0,1.83,1.48,3.31,3.31,3.31h24.45c1.83,0,3.31,1.48,3.31,3.31h0c0,1.83-1.48,3.31-3.31,3.31h-24.45c-1.83,0-3.31,1.48-3.31,3.31v35.28c0,1.83-1.48,3.31-3.31,3.31h0c-1.83,0-3.31-1.48-3.31-3.31v-35.28c0-1.83-1.48-3.31-3.31-3.31h-24.45c-1.83,0-3.31-1.48-3.31-3.31h0c0-1.83,1.48-3.31,3.31-3.31Z"/>
        <path class="cls-4" d="m76.71,311.51h13.63c1.02,0,1.84-.83,1.84-1.84v-19.67c0-1.02.83-1.84,1.84-1.84h0c1.02,0,1.84.83,1.84,1.84v19.67c0,1.02.83,1.84,1.84,1.84h13.63c1.02,0,1.84.83,1.84,1.84h0c0,1.02-.83,1.84-1.84,1.84h-13.63c-1.02,0-1.84.83-1.84,1.84v19.67c0,1.02-.83,1.84-1.84,1.84h0c-1.02,0-1.84-.83-1.84-1.84v-19.67c0-1.02-.83-1.84-1.84-1.84h-13.63c-1.02,0-1.84-.83-1.84-1.84h0c0-1.02.83-1.84,1.84-1.84Z"/>
        <path class="cls-4" d="m467.85,266.62h13.63c1.02,0,1.84-.83,1.84-1.84v-19.67c0-1.02.83-1.84,1.84-1.84h0c1.02,0,1.84.83,1.84,1.84v19.67c0,1.02.83,1.84,1.84,1.84h13.63c1.02,0,1.84.83,1.84,1.84h0c0,1.02-.83,1.84-1.84,1.84h-13.63c-1.02,0-1.84.83-1.84,1.84v19.67c0,1.02-.83,1.84-1.84,1.84h0c-1.02,0-1.84-.83-1.84-1.84v-19.67c0-1.02-.83-1.84-1.84-1.84h-13.63c-1.02,0-1.84-.83-1.84-1.84h0c0-1.02.83-1.84,1.84-1.84Z"/>
        <polygon class="cls-2" points="772.64 237.98 689.76 257 716.33 273.09 549.82 393.16 555.04 400.4 721.55 280.33 728.42 310.62 772.64 237.98"/>
        <path class="cls-4" d="m283.06,93.12h13.63c1.02,0,1.84-.83,1.84-1.84v-19.67c0-1.02.83-1.84,1.84-1.84h0c1.02,0,1.84.83,1.84,1.84v19.67c0,1.02.83,1.84,1.84,1.84h13.63c1.02,0,1.84.83,1.84,1.84h0c0,1.02-.83,1.84-1.84,1.84h-13.63c-1.02,0-1.84.83-1.84,1.84v19.67c0,1.02-.83,1.84-1.84,1.84h0c-1.02,0-1.84-.83-1.84-1.84v-19.67c0-1.02-.83-1.84-1.84-1.84h-13.63c-1.02,0-1.84-.83-1.84-1.84h0c0-1.02.83-1.84,1.84-1.84Z"/>
      </g>
    </g>
  </g>
</svg>