<svg id="Layer_1" data-name="Layer 1" xmlns="http://www.w3.org/2000/svg" xmlns:xlink="http://www.w3.org/1999/xlink" viewBox="0 0 1600 1200"><defs><style>.cls-1,.cls-12,.cls-16,.cls-17,.cls-22,.cls-33,.cls-34,.cls-36,.cls-38,.cls-4,.cls-9{fill:none;}.cls-2{fill:url(#linear-gradient);}.cls-3{fill:#dcd6ed;}.cls-36,.cls-38,.cls-4{stroke:#231f20;}.cls-16,.cls-17,.cls-22,.cls-33,.cls-34,.cls-36,.cls-38,.cls-4,.cls-9{stroke-linecap:round;stroke-linejoin:round;}.cls-12,.cls-4,.cls-9{stroke-width:1.27px;}.cls-5{clip-path:url(#clip-path);}.cls-6{fill:#10b356;}.cls-7{fill:#14dd6a;}.cls-8{fill:#231f20;}.cls-12,.cls-16,.cls-33,.cls-9{stroke:#fff;}.cls-10{fill:#beb6d8;}.cls-11{fill:#fff;}.cls-12{stroke-miterlimit:10;}.cls-13{fill:#c65b36;}.cls-14{fill:#ec8155;}.cls-15{fill:#221242;}.cls-16,.cls-17{stroke-width:1.65px;}.cls-17{stroke:#2f195d;}.cls-18{fill:#adceff;}.cls-19{fill:#85b6ff;}.cls-20{fill:#b24620;}.cls-21{fill:#aa1325;}.cls-22{stroke:#221242;stroke-width:8.88px;}.cls-23{fill:#9601f9;}.cls-24{fill:#f69e20;}.cls-25{fill:#7d62b8;}.cls-26{fill:#01b000;}.cls-27{fill:#9f7ce9;}.cls-28{fill:#f2deff;}.cls-29{fill:#01e900;}.cls-30{fill:#beaae9;}.cls-31{fill:#98e997;}.cls-32{fill:#58138e;}.cls-33{stroke-width:1.32px;}.cls-34{stroke:#10b356;stroke-width:3.81px;}.cls-35{fill:#f69220;}.cls-36{stroke-width:1.15px;}.cls-37{fill:url(#linear-gradient-2);}.cls-38{stroke-width:0.86px;}</style><linearGradient id="linear-gradient" x1="828.11" y1="152.44" x2="838.04" y2="1113.28" gradientUnits="userSpaceOnUse"><stop offset="0" stop-color="#f7f3ff"/><stop offset="0.58" stop-color="#f9f6ff"/><stop offset="1" stop-color="#fff"/></linearGradient><clipPath id="clip-path"><path class="cls-1" d="M1347.23,908.89c-21.45,85.4-82.65,159.29-171.12,192.41-32.91,12.31-67.79,18.28-102.6,16.14-217.6-26-256.64-123.32-488.24-56.79-32.85,9.43-67.63,10.67-100.79,2.42-76.5-19-140.14-80.37-161.72-154.18-11.87-40.57-11-84.91,7.39-128,38.77-93.69,145.77-147.41,178.79-243.28,28.05-81.41-4.56-173,17.06-256.37,59.83-207.26,339-209.55,478.65-78.61C1079.28,263.36,1135,344.06,1183.84,427c57.17,100.38,112,205.16,153.42,313.78A279.43,279.43,0,0,1,1347.23,908.89Z"/></clipPath><linearGradient id="linear-gradient-2" x1="883.77" y1="426.26" x2="883.83" y2="432.64" gradientTransform="matrix(1, 0.09, -0.09, 1, 49.08, -80.44)" xlink:href="#linear-gradient"/></defs><path class="cls-2" d="M1347.23,908.89c-21.45,85.4-82.65,159.29-171.12,192.41-32.91,12.31-67.79,18.28-102.6,16.14-217.6-26-256.64-123.32-488.24-56.79-32.85,9.43-67.63,10.67-100.79,2.42-76.5-19-140.14-80.37-161.72-154.18-11.87-40.57-11-84.91,7.39-128,38.77-93.69,145.77-147.41,178.79-243.28,28.05-81.41-4.56-173,17.06-256.37,59.83-207.26,339-209.55,478.65-78.61C1079.28,263.36,1135,344.06,1183.84,427c57.17,100.38,112,205.16,153.42,313.78A279.43,279.43,0,0,1,1347.23,908.89Z"/><path class="cls-3" d="M1331.9,953.56c-29,65.93-83.19,120.56-155.79,147.74-32.91,12.31-67.79,18.28-102.6,16.14-217.6-26-256.64-123.32-488.24-56.79-32.85,9.43-67.63,10.67-100.79,2.42-60.4-15-112.78-56.43-142.77-109.51Z"/><line class="cls-4" x1="322.76" y1="908.89" x2="1347.23" y2="908.89"/><g class="cls-5"><path class="cls-6" d="M743.22,850c-52.84-60.89,0-132.68,0-132.68S796.06,789.11,743.22,850Z"/><line class="cls-4" x1="743.22" y1="746.11" x2="743.22" y2="835.77"/><path class="cls-7" d="M742,875.81c20-78.1-59.38-118.65-59.38-118.65S667.47,845,742,875.81Z"/><path class="cls-7" d="M744.47,875.81c-20-78.1,59.38-118.65,59.38-118.65S819,845,744.47,875.81Z"/><line class="cls-4" x1="728.52" y1="845.82" x2="697.05" y2="787.14"/><line class="cls-4" x1="757.92" y1="845.82" x2="789.39" y2="787.14"/><polygon class="cls-8" points="782.26 953.56 704.18 953.56 691.77 841.4 794.67 841.4 782.26 953.56"/><line class="cls-9" x1="694.26" y1="860.75" x2="792.11" y2="860.75"/><line class="cls-9" x1="696.09" y1="881.1" x2="790.28" y2="881.1"/><rect class="cls-10" x="260.96" y="326.73" width="449.65" height="626.83"/><rect class="cls-8" x="400.38" y="867.6" width="6.94" height="47.91"/><rect class="cls-8" x="564.26" y="867.6" width="6.94" height="47.91"/><rect class="cls-11" x="385.04" y="765.96" width="201.49" height="131.64"/><rect class="cls-3" x="432.65" y="743.72" width="106.28" height="176.13" transform="translate(1317.57 345.99) rotate(90)"/><rect class="cls-8" x="400.38" y="673.42" width="6.94" height="47.91"/><rect class="cls-8" x="564.26" y="673.42" width="6.94" height="47.91"/><rect class="cls-11" x="385.04" y="571.78" width="201.49" height="131.64"/><rect class="cls-3" x="432.65" y="549.54" width="106.28" height="176.13" transform="translate(1123.39 151.81) rotate(90)"/><rect class="cls-8" x="400.38" y="485.24" width="6.94" height="47.91"/><rect class="cls-8" x="564.26" y="485.24" width="6.94" height="47.91"/><rect class="cls-11" x="385.04" y="383.6" width="201.49" height="131.64"/><rect class="cls-3" x="432.65" y="361.35" width="106.28" height="176.13" transform="translate(935.21 -36.37) rotate(90)"/><rect class="cls-12" x="210.42" y="453.37" width="550.73" height="373.55" transform="translate(1125.93 154.36) rotate(90)"/><line class="cls-12" x1="299.01" y1="721.33" x2="672.56" y2="721.33"/><line class="cls-12" x1="299.01" y1="747.14" x2="672.56" y2="747.14"/><line class="cls-12" x1="299.01" y1="533.15" x2="672.56" y2="533.15"/><line class="cls-12" x1="299.01" y1="558.96" x2="672.56" y2="558.96"/><path class="cls-4" d="M625.22,346.05s3.62-5.47,8.93-2.48"/><rect class="cls-10" x="1098.73" y="326.73" width="449.65" height="626.83" transform="translate(2647.1 1280.29) rotate(-180)"/><rect class="cls-8" x="1383.22" y="867.6" width="6.94" height="47.91" transform="translate(2773.37 1783.11) rotate(-180)"/><rect class="cls-8" x="1219.34" y="867.6" width="6.94" height="47.91" transform="translate(2445.61 1783.11) rotate(-180)"/><rect class="cls-11" x="1204" y="765.96" width="201.49" height="131.64" transform="translate(2609.49 1663.56) rotate(-180)"/><rect class="cls-3" x="1251.61" y="743.72" width="106.28" height="176.13" transform="translate(2136.53 -472.97) rotate(90)"/><rect class="cls-8" x="1383.22" y="673.42" width="6.94" height="47.91" transform="translate(2773.37 1394.75) rotate(-180)"/><rect class="cls-8" x="1219.34" y="673.42" width="6.94" height="47.91" transform="translate(2445.61 1394.75) rotate(-180)"/><rect class="cls-11" x="1204" y="571.78" width="201.49" height="131.64" transform="translate(2609.49 1275.2) rotate(-180)"/><rect class="cls-3" x="1251.61" y="549.54" width="106.28" height="176.13" transform="translate(1942.35 -667.15) rotate(90)"/><rect class="cls-8" x="1383.22" y="485.24" width="6.94" height="47.91" transform="translate(2773.37 1018.39) rotate(-180)"/><rect class="cls-8" x="1219.34" y="485.24" width="6.94" height="47.91" transform="translate(2445.61 1018.39) rotate(-180)"/><rect class="cls-11" x="1204" y="383.6" width="201.49" height="131.64" transform="translate(2609.49 898.84) rotate(-180)"/><rect class="cls-3" x="1251.61" y="361.35" width="106.28" height="176.13" transform="translate(1754.16 -855.33) rotate(90)"/><rect class="cls-12" x="1048.19" y="453.37" width="550.73" height="373.55" transform="translate(1963.7 -683.41) rotate(90)"/><line class="cls-12" x1="1510.33" y1="721.33" x2="1136.78" y2="721.33"/><line class="cls-12" x1="1510.33" y1="747.14" x2="1136.78" y2="747.14"/><line class="cls-12" x1="1510.33" y1="533.15" x2="1136.78" y2="533.15"/><line class="cls-12" x1="1510.33" y1="558.96" x2="1136.78" y2="558.96"/></g><rect class="cls-10" x="439.27" y="982.22" width="830.45" height="40.92" rx="20.46"/><path class="cls-13" d="M628.63,458.93,650.35,514c33,26.85-8.63,68.28-30.79,35.13l-38-73.84,11.31-20.91Z"/><polygon class="cls-13" points="650.35 514.03 768.09 505.09 767.87 532.32 647.24 559.89 637.72 532.12 650.35 514.03"/><polygon class="cls-14" points="652.81 977.27 608.65 980.25 605.54 950.23 602.69 922.68 649.59 929.13 650.82 947.59 652.81 977.27"/><path class="cls-15" d="M654.48,946.57l-22.26,2s-.33,14.72-9.1,15.22a145.82,145.82,0,0,1-16.18,0l-2.18,48.14H704V996.78a19.61,19.61,0,0,0-19.61-19.61H658.69Z"/><line class="cls-16" x1="605.16" y1="1002.97" x2="704.02" y2="1002.97"/><path class="cls-14" d="M600.45,603l39.21,141.61c13.25,44.51-51.48,64.2-64.73,19.69l-36.68-121.6V603Z"/><polygon class="cls-15" points="558.11 715.46 629.57 696.17 600.45 602.96 538.25 602.96 538.25 648.04 558.11 715.46"/><polygon class="cls-14" points="641.61 755.21 650.21 938.51 604.47 939.88 576.35 768.39 612.37 748.29 641.61 755.21"/><polygon class="cls-14" points="337.92 722.89 295.45 699.98 316.46 661.01 367.39 687.79 337.92 722.89"/><path class="cls-15" d="M320.55,717.74l10.18-19.9s-12.28-8.12-8-15.81a147.08,147.08,0,0,1,8.62-13.69l-39.58-27.49-52.88,84,12.81,8.06a19.61,19.61,0,0,0,27-6.15L292.41,705Z"/><line class="cls-16" x1="299.09" y1="645.96" x2="246.43" y2="729.62"/><path class="cls-14" d="M484.81,597.17l-50.62,137c-19.85,50.12,37.72,81.39,62,27.15l90.34-157.19-34.25-32.75Z"/><polygon class="cls-15" points="449.45 686.23 528.48 715.09 586.56 604.11 559.48 600 483.66 598.32 449.45 686.23"/><path class="cls-14" d="M494.73,764.42l-7.37,13.35a41.11,41.11,0,0,1-58.48,14.54L332.56,720,347,677.07S460,735.13,494.73,764.42Z"/><polyline class="cls-17" points="548.54 676.76 563.77 647.65 574.15 645.8"/><path class="cls-18" d="M623.67,430.8c11.1,26.6,19.9,45.6,27.41,68.59L613.24,518l-27.3-42.44,19.19-22.5Z"/><line class="cls-16" x1="647.84" y1="487.54" x2="611.04" y2="507.13"/><path class="cls-18" d="M559.43,405.76s-26,5-40.87,60.38c-15,55.75-34.9,132.18-34.9,132.18s67.49,22.5,118.12,8.28c0,0,8-40.92,17-85.92,7.66-38.61,11.57-57,6.57-84.73a21.43,21.43,0,0,0-17.24-17.25h0Z"/><path class="cls-19" d="M611.91,555.13c-3.65,18.47-6.7,34-8.48,43-8.48-9.49-47.22-53.33-54.91-71.44-8.65-20.37-4.69-34.75-4.69-34.75Z"/><path class="cls-11" d="M605.92,413.86s-3.18,3.91,4.59-8.1l7.25,15.14L611,428.42l-5.95-8.6Z"/><polygon class="cls-14" points="617.76 367.71 617.76 382.05 613.85 398.19 607.85 422.97 572.12 398.98 592.1 358.07 605.18 359.68 617.76 367.71"/><path class="cls-20" d="M617.76,375v7.09l-3.91,16.13c-10.88-7.29-6.07-21.38-6.07-21.38Z"/><path class="cls-14" d="M636.83,320.11c2.39,6.06,3.43,13.52,3.82,21.66,3.41,3.75,11.13,10.38,11.8,12.85.74,2.71-8.33,6.92-8.33,6.92l-.83,15.58a10.69,10.69,0,0,1-11.16,10.13c-7.14-.34-14.87-1.08-18.09-2A27.11,27.11,0,0,1,602.82,379l-8.47-7.91L585,342.14s8.3-26.06,10.18-26.27,34.69-4.13,34.69-4.13Z"/><path class="cls-8" d="M592.24,354s23.65.62,16.38-26.47c16.76,1.38,28.21-2.48,28.21-7.42,0,0,.8-6.93-6.88-13.92-8.34-7.59-31.17-16.16-53.5-1.94-35.3,22.49-9.25,68,6.14,74l8.72-16.6Z"/><path class="cls-14" d="M604.45,346.53a11,11,0,0,0-11.49-7,8,8,0,0,0-6,4c-4.6,7.65,1.22,19.28,10.4,21s11.88-6.19,11.88-6.19Z"/><path class="cls-11" d="M575.47,391.36l-16,14.4s32.75,9.59,51.61,22.66C611,428.42,605.75,402.45,575.47,391.36Z"/><line class="cls-4" x1="592.74" y1="347.45" x2="600.27" y2="358.07"/><path class="cls-8" d="M619.75,339.17c.81-5.53,7.88-8.82,12.54-5.59a9.07,9.07,0,0,1,1.65,1.43.64.64,0,0,1,0,.9.7.7,0,0,1-.61.17c-2.39-.34-4.44-.65-6.59.2a32,32,0,0,0-5.89,3.5.67.67,0,0,1-1.08-.61Z"/><path class="cls-8" d="M638,375.53a22.54,22.54,0,0,1-3.22-.06c-7-.58-9.6-4.11-10.56-7.11a11.58,11.58,0,0,1-.48-4.42l15.05.05a10.17,10.17,0,0,0-1.12,2.74A15.81,15.81,0,0,0,638,375.53Z"/><path class="cls-21" d="M634.93,374.2a6.59,6.59,0,0,1-.12,1.27c-7-.58-9.6-4.11-10.56-7.11a6.94,6.94,0,0,1,10.68,5.84Z"/><path class="cls-11" d="M638.82,364a10.17,10.17,0,0,0-1.12,2.74H623.87a10,10,0,0,1-.1-2.79Z"/><path class="cls-4" d="M625.06,347.14s3.35-7,9.05-4.75"/><path class="cls-22" d="M1180,988.42H838.49V535.13a15.39,15.39,0,0,0-15.39-15.39H764.29"/><circle class="cls-15" cx="838.49" cy="988.42" r="23.49"/><circle class="cls-16" cx="838.49" cy="988.42" r="12.41"/><circle class="cls-15" cx="1185.24" cy="988.42" r="23.49"/><circle class="cls-16" cx="1185.24" cy="988.42" r="12.41"/><path class="cls-14" d="M748.16,502.74l5.27-1.54a11.92,11.92,0,0,1,8.9.88l14.56,7.61L766.1,518l-13.65-1.25Z"/><rect class="cls-23" x="733.27" y="508.82" width="62.04" height="21.84" rx="7.11"/><path class="cls-14" d="M600.82,481.86l28.46,51.94c36.06,22.5,0,68.83-26.14,38.72l-47-68.49,8.61-22.17Z"/><path class="cls-14" d="M743.43,538.93l13.51,9.62a12.37,12.37,0,0,0,15.54-1l19.88-18.27-44.2-26.57-25.28,29.38Z"/><polygon class="cls-14" points="629.28 533.8 748.16 502.74 748.16 537.2 628.1 581.39 619.02 553.33 629.28 533.8"/><polygon class="cls-18" points="578.26 441.66 613.73 502.21 565.35 534.63 535.97 476.4 578.26 441.66"/><line class="cls-16" x1="613.73" y1="502.21" x2="587.19" y2="456.91"/><line class="cls-16" x1="607.73" y1="491.97" x2="559.48" y2="522.99"/><rect class="cls-7" x="589.02" y="93.33" width="152.94" height="142.64" transform="translate(-8.26 291.31) rotate(-24.54)"/><rect class="cls-16" x="605.2" y="157.74" width="36.13" height="36.13" transform="translate(-16.71 274.78) rotate(-24.54)"/><rect class="cls-16" x="644.36" y="139.86" width="36.13" height="36.13" transform="translate(-5.75 289.43) rotate(-24.54)"/><rect class="cls-16" x="683.52" y="121.98" width="36.13" height="36.13" transform="translate(5.22 304.08) rotate(-24.54)"/><rect class="cls-16" x="623.81" y="198.51" width="36.13" height="36.13" transform="translate(-31.97 286.2) rotate(-24.54)"/><rect class="cls-16" x="662.98" y="180.63" width="36.13" height="36.13" transform="translate(-21 300.85) rotate(-24.54)"/><rect class="cls-16" x="702.14" y="162.75" width="36.13" height="36.13" transform="translate(-10.03 315.5) rotate(-24.54)"/><path class="cls-11" d="M596.93,150.86c1.15,2.53,1.94,4.93-1.44,6.47a11.31,11.31,0,0,1-1.51.55l-.94-2.06a7.7,7.7,0,0,0,1.08-.42c1.21-.55,1.48-1.15.59-3.11l-8.3-18.16,2.38-1.08Z"/><path class="cls-11" d="M601.15,145.8l2.19,7.62-2.41,1.1-6.54-24,3.39-1.55,14,20.61-2.49,1.14-4.41-6.61Zm2.46-3.77c-3-4.56-5.33-8.11-6.51-10.13l-.09,0c.7,1.76,2.2,7.16,3.46,11.52Z"/><path class="cls-11" d="M613.71,148.68,603.5,126.33l2.84-1.3c3.1,3.59,11.56,13.89,12.76,15.55l0,0c-1.51-2.95-3-6.08-4.64-9.72l-3.6-7.89,2.24-1,10.21,22.35-2.75,1.25c-3.1-3.65-11.92-14.49-13.16-16.08l0,0c1.37,2.63,3.06,6.17,4.91,10.2l3.64,8Z"/><path class="cls-11" d="M618.72,119.38l7.93,17.38c.84,1.85,2.07,2.81,3.74,2s1.75-2.23.89-4.13l-7.95-17.4,2.4-1.09,7.9,17.31c1.58,3.45.9,6-2.29,7.51s-5.45.39-7.07-3.17l-7.93-17.36Z"/><path class="cls-11" d="M637.88,129l2.2,7.63-2.41,1.1-6.54-24,3.39-1.55,14,20.61-2.49,1.13-4.41-6.61Zm2.47-3.76c-3-4.57-5.33-8.12-6.51-10.13l-.1,0c.71,1.77,2.21,7.16,3.47,11.52Z"/><path class="cls-11" d="M648.06,120.38l4.77,10.44-2.38,1.09-10.21-22.36,3.91-1.78c3.36-1.53,5.67-.84,7.36,2.86l.46,1c1.39,3,.89,4.77-.12,5.74,1.66-.12,2.8.65,4.17,3.64a64.36,64.36,0,0,0,3.37,6.8l-2.32,1.06a57.36,57.36,0,0,1-3.3-6.61c-1.32-2.9-2.11-3.54-4.32-2.53Zm-.92-2,1.46-.66c2.12-1,2.12-2.45,1-4.84l-.46-1c-.93-2-2-3-4.28-2l-1.35.62Z"/><path class="cls-11" d="M664.68,125.41l-3.81-8.34a2.12,2.12,0,0,0-.38-.56L650.26,105l2.62-1.2c3,3.54,6.49,7.75,7.8,9.63h0c-.55-2.36-1.42-7.87-2.16-12.21l2.52-1.15,2,15.46a2.86,2.86,0,0,0,.23.7l3.71,8.13Z"/><rect class="cls-23" x="341.03" y="210.63" width="142.64" height="152.94" transform="translate(94.49 676.24) rotate(-85.6)"/><rect class="cls-16" x="351.93" y="258.37" width="36.13" height="36.13" transform="translate(22.27 -27.54) rotate(4.4)"/><rect class="cls-16" x="394.85" y="261.67" width="36.13" height="36.13" transform="translate(22.65 -30.82) rotate(4.4)"/><rect class="cls-16" x="437.78" y="264.97" width="36.13" height="36.13" transform="translate(23.03 -34.1) rotate(4.4)"/><rect class="cls-16" x="348.49" y="303.06" width="36.13" height="36.13" transform="translate(25.69 -27.15) rotate(4.4)"/><rect class="cls-16" x="391.42" y="306.36" width="36.13" height="36.13" transform="translate(26.07 -30.43) rotate(4.4)"/><rect class="cls-16" x="434.34" y="309.66" width="36.13" height="36.13" transform="translate(26.45 -33.71) rotate(4.4)"/><path class="cls-11" d="M367.69,237.33c.34-4.49.79-9.32,1.06-11.94h0c-.93,4.06-3.63,14.7-5.5,21.89l-2.55-.2c-.51-6.38-1.55-18.05-1.81-22.47h-.07c-.15,2.85-.44,8.41-.77,12.61l-.73,9.6-2.43-.19,1.89-24.5,3.86.3c.79,7.34,1.7,16.45,1.8,19.59h0c.62-3,3.22-12.36,5.09-19.07l3.78.29-1.88,24.5-2.53-.19Z"/><path class="cls-11" d="M375.85,240.38l-1.77,7.73-2.64-.2,5.9-24.2,3.72.29,2.31,24.82-2.73-.21L380,240.7Zm4-2.11c-.44-5.46-.73-9.67-.79-12h-.1c-.24,1.89-1.54,7.33-2.54,11.76Z"/><path class="cls-11" d="M388.93,237.74l-.87,11.44-2.61-.2,1.88-24.5,4.28.33c3.68.28,5.37,2,5.06,6.06l-.08,1.12c-.26,3.33-1.54,4.6-2.9,5,1.52.69,2.15,1.92,1.9,5.2a64.63,64.63,0,0,0-.34,7.58l-2.55-.2a58.22,58.22,0,0,1,.31-7.38c.25-3.18-.13-4.11-2.56-4.3Zm.18-2.21,1.6.12c2.33.18,3-1.12,3.24-3.74l.08-1.09c.18-2.24-.33-3.62-2.79-3.81l-1.47-.11Z"/><path class="cls-11" d="M408.3,243.67l-.06.83c-.24,3.11-1.06,6.48-5.49,6.14-4.24-.32-4.74-3.39-4.46-7l1-12.46c.3-3.92,2.15-6,5.46-5.7,4.12.31,4.63,3.29,4.38,6.5l-.07,1-2.65-.21.09-1.15c.15-1.94,0-3.58-2-3.72s-2.41,1.27-2.58,3.43l-1,12.73c-.18,2.45.23,4.11,2.07,4.25s2.38-1.48,2.56-3.79l.08-1Z"/><path class="cls-11" d="M412.16,226.39l2.61.2L414,236.75l5.1.39.78-10.16,2.6.2-1.88,24.5-2.61-.2.92-11.94-5.1-.4-.92,12-2.6-.2Z"/><rect class="cls-7" x="274.78" y="423.7" width="152.94" height="142.64" transform="translate(-161.66 170.45) rotate(-22.32)"/><rect class="cls-16" x="290.56" y="486.47" width="36.13" height="36.13" transform="translate(-168.46 154.97) rotate(-22.32)"/><rect class="cls-16" x="330.38" y="470.12" width="36.13" height="36.13" transform="translate(-159.27 168.87) rotate(-22.32)"/><rect class="cls-16" x="370.21" y="453.77" width="36.13" height="36.13" transform="translate(-150.08 182.77) rotate(-22.32)"/><rect class="cls-16" x="307.58" y="527.93" width="36.13" height="36.13" transform="translate(-182.93 164.54) rotate(-22.32)"/><rect class="cls-16" x="347.4" y="511.59" width="36.13" height="36.13" transform="translate(-173.74 178.44) rotate(-22.32)"/><rect class="cls-16" x="387.23" y="495.24" width="36.13" height="36.13" transform="translate(-164.55 192.33) rotate(-22.32)"/><path class="cls-11" d="M280.91,476.54l1.89,7.7-2.45,1L274.75,461l3.45-1.41,13.22,21.13-2.54,1L284.74,475Zm2.6-3.67c-2.85-4.68-5-8.31-6.11-10.37l-.09,0c.63,1.79,1.92,7.24,3,11.64Z"/><path class="cls-11" d="M284,457.18l4.16-1.71c3.37-1.39,5.69-.34,7.19,3.34l.57,1.38c1.4,3.42,1.42,6.36-2.72,8.06l-1.57.64,4.12,10-2.42,1Zm6.8,9.67,1.35-.55c2.58-1.06,2.3-2.8,1.33-5.16l-.5-1.22c-.76-1.84-1.82-3.28-4.16-2.32l-1.56.64Z"/><path class="cls-11" d="M303,463.55l4.36,10.62-2.42,1-9.33-22.73,4-1.63c3.42-1.4,5.7-.62,7.24,3.14l.43,1c1.27,3.09.7,4.8-.35,5.73,1.66,0,2.78.76,4,3.8a64.84,64.84,0,0,0,3.1,6.92l-2.36,1a56.87,56.87,0,0,1-3-6.73c-1.21-2.95-2-3.62-4.22-2.69Zm-.84-2.05,1.48-.61c2.16-.89,2.22-2.37,1.22-4.8l-.42-1c-.85-2.07-1.93-3.09-4.2-2.15l-1.37.56Z"/><path class="cls-11" d="M309.88,446.56l9.33,22.74-2.42,1-9.33-22.74Z"/><path class="cls-11" d="M313.25,445.18l2.42-1,8.43,20.55,5.72-2.34.63,2.29-7.87,3.23Z"/><rect class="cls-23" x="703.35" y="276.77" width="142.64" height="152.94" transform="translate(325.44 1076.48) rotate(-82.67)"/><rect class="cls-16" x="714.85" y="322.35" width="36.13" height="36.13" transform="translate(49.45 -90.77) rotate(7.33)"/><rect class="cls-16" x="757.55" y="327.84" width="36.13" height="36.13" transform="translate(50.5 -96.17) rotate(7.33)"/><rect class="cls-16" x="800.25" y="333.34" width="36.13" height="36.13" transform="translate(51.55 -101.58) rotate(7.33)"/><rect class="cls-16" x="709.13" y="366.8" width="36.13" height="36.13" transform="translate(55.08 -89.68) rotate(7.33)"/><rect class="cls-16" x="751.83" y="372.3" width="36.13" height="36.13" transform="translate(56.13 -95.08) rotate(7.33)"/><rect class="cls-16" x="794.53" y="377.79" width="36.13" height="36.13" transform="translate(57.18 -100.49) rotate(7.33)"/><path class="cls-11" d="M722.4,285.42l8.49,1.09-.31,2.4-5.89-.76-1,7.94,5.55.71-.31,2.4-5.55-.71-1.5,11.63-2.59-.33Z"/><path class="cls-11" d="M739.55,300.4l-5.46-.7-1.21,9.42,6.2.8-.66,2.34L730,311.17l3.14-24.38,8.37,1.08-.31,2.4-5.77-.74-1,7.79,5.47.7Z"/><path class="cls-11" d="M744,288.19l4.25.55c3.78.48,4.94,2.66,4.52,6l-.14,1.1c-.44,3.42-1.62,4.33-2.9,4.63,1.27.59,2.56,1.94,2.13,5.25l-.23,1.8c-.55,4.25-2.29,6.17-6.44,5.63l-4.32-.55Zm-.33,22.52,1.57.2c2.62.33,3.43-.84,3.81-3.8l.22-1.69c.34-2.65-.44-3.92-2.79-4.22l-1.56-.2ZM746.77,299c2.18.28,3-.52,3.31-3.36l.14-1.09c.29-2.21-.38-3.4-2.48-3.67l-1.53-.2-1.05,8.11Z"/><path class="cls-11" d="M757.58,303.15l-1.46,11.38-2.6-.33,3.14-24.37,4.26.54c3.66.48,5.26,2.29,4.74,6.32l-.14,1.11c-.43,3.31-1.77,4.52-3.15,4.81,1.48.78,2,2,1.63,5.29a64.15,64.15,0,0,0-.73,7.55l-2.53-.32a58,58,0,0,1,.69-7.36c.4-3.16.08-4.11-2.34-4.42Zm.28-2.2,1.6.21c2.31.29,3.09-1,3.43-3.57l.14-1.09c.28-2.22-.15-3.63-2.59-3.95l-1.47-.19Z"/><path class="cls-11" d="M771.75,291.77l-2.44,18.94c-.26,2,.27,3.48,2.1,3.71s2.67-1,2.93-3l2.44-19,2.62.33L777,311.62c-.49,3.77-2.44,5.61-5.92,5.17s-4.83-2.55-4.33-6.43l2.44-18.93Z"/><path class="cls-11" d="M782.94,310.08l-2.17,7.63-2.63-.34,7.14-23.86,3.7.48,1,24.91-2.72-.35-.25-7.94Zm4.07-1.9c-.16-5.48-.23-9.7-.17-12h-.11c-.33,1.87-1.91,7.24-3.14,11.61Z"/><path class="cls-11" d="M796.14,308.12l-1.46,11.38-2.6-.34,3.14-24.37,4.26.55c3.66.47,5.26,2.28,4.74,6.31l-.14,1.11c-.43,3.31-1.77,4.52-3.15,4.82,1.48.77,2.05,2,1.63,5.29a63.75,63.75,0,0,0-.73,7.55l-2.53-.33a58,58,0,0,1,.69-7.36c.4-3.15.08-4.11-2.34-4.42Zm.28-2.21,1.6.21c2.31.3,3.09-1,3.43-3.57l.14-1.08c.28-2.23-.15-3.64-2.59-4l-1.47-.18Z"/><path class="cls-11" d="M807.59,321.16l1.17-9.1a1.86,1.86,0,0,0,0-.67l-2.6-15.2,2.85.37c.65,4.57,1.43,10,1.55,12.3h0c.78-2.29,2.95-7.43,4.61-11.5l2.75.35-6.44,14.2a3.15,3.15,0,0,0-.16.72l-1.14,8.86Z"/><path class="cls-14" d="M938.39,468.63l25.41-40c1.84-34,48.24-26.59,37.23,3.36l-29.85,59.39-18.86,2.53Z"/><path class="cls-14" d="M931,340.57l.48-13.26a9.88,9.88,0,0,0-7.49-10l-8.74-2.19a9.42,9.42,0,0,0-11.7,9.52l1.18,28.65,30.76,4Z"/><rect class="cls-14" x="897.25" y="331.21" width="7.84" height="25.3" rx="3.92" transform="translate(-32.26 586.88) rotate(-35.48)"/><polygon class="cls-14" points="963.8 428.62 902.13 352.03 927.28 340.72 998.93 413.87 981.42 429.7 963.8 428.62"/><path class="cls-8" d="M839.62,470.14a16.45,16.45,0,0,0,3.64-5.13c2.17-5.24.16-11.46,2.17-16.76,3.19-8.42,14.48-10.47,19.92-17.64s3.74-17,5.84-25.62a29.82,29.82,0,0,1,14-18.62c10.29-5.89,23.82-4.75,34.14.45,12.41,6.27,21.5,21.07,18.58,35.17-.94,4.54-.77,8-.44,12.54.29,4,.36,8.17-1.36,11.92-1.84,4-5.28,7.3-6.17,11.61-.78,3.78.56,7.71,2.55,11s4.59,6.2,6.7,9.43A37.46,37.46,0,0,1,945,502.89c-.33,3-1.13,6.21-3.29,8.37-2.36,2.36-5.88,3.09-9.21,3.37a51.32,51.32,0,0,1-27.39-5.3c-4.43-2.24-8.57-5.15-13.33-6.57-7.9-2.35-16.35-.32-24.49,1-6,1-12.12,1.52-18.08.44s-11.78-4-15.41-8.82-4.66-11.83-1.65-17.09C834,475.1,837.05,472.78,839.62,470.14Z"/><path class="cls-24" d="M903.5,459.32c23-1,39.75-2.37,59.09-1.67l3.54,33.56L926.72,500l-11.6-20.63Z"/><polygon class="cls-25" points="1240.98 828.32 1221.78 835.1 1326.82 229.69 1361.14 236.67 1240.98 828.32"/><polygon class="cls-26" points="1361.13 236.67 1348.95 296.71 1348.95 296.72 1329.74 303.51 1314.55 300.43 1316.34 290.09 1326.81 229.69 1361.13 236.67"/><polygon class="cls-27" points="1341.93 243.46 1329.74 303.5 1221.78 835.1 873.13 764.3 993.29 172.66 1281.89 231.26 1341.93 243.46"/><path class="cls-11" d="M991.78,230.38l.56-2.55,21.71,4.7,1.31-6,2.24.78-1.8,8.31Z"/><path class="cls-11" d="M1008.1,214.93l-1.17,5.39,9.28,2,1.33-6.12,2.27.86-1.8,8.32-24-5.2,1.78-8.25,2.37.51-1.23,5.7,7.67,1.66,1.17-5.39Z"/><path class="cls-11" d="M996.3,209.5l1-4.36c1.12-5.19,4.47-5.15,8.28-4.32l9.49,2.05c3.69.8,7.39,2.19,6.21,7.63l-.91,4.2Zm22.36,2.16.31-1.45c.63-2.91-.87-3.94-4-4.62l-10.3-2.23c-2.77-.6-4.58-.47-5.25,2.6l-.32,1.47Z"/><path class="cls-11" d="M1021.86,234.79l-.85,3.89-2.36-.51,2.23-10.31,2.36.51-.83,3.87,21.65,4.68-.55,2.56Z"/><path class="cls-11" d="M1046.06,227.67l-24.92-1,.6-2.76,11.11.73c3.46.23,7.72.42,10.25.74v-.05c-2.36-.72-6.32-2.35-9.55-3.55l-10.5-4,.59-2.72,23.11,9.4Z"/><rect class="cls-8" x="1160.82" y="482.54" width="37.02" height="137.08" transform="translate(404.56 1597.14) rotate(-78.52)"/><rect class="cls-28" x="1179.91" y="558.13" width="126.1" height="11.75" transform="translate(442.86 1669.84) rotate(-78.52)"/><rect class="cls-28" x="953.22" y="287.76" width="250.81" height="485.73" transform="translate(127.19 -204.06) rotate(11.48)"/><rect class="cls-10" x="970.47" y="305.01" width="216.32" height="451.24" transform="translate(127.19 -204.06) rotate(11.48)"/><path class="cls-29" d="M1341.93,243.46l-12.19,60a61.32,61.32,0,0,1-47.85-72.24Z"/><path d="M1301.83,272.75l-.32-.07c-1.47-.34-3.16-.45-3.61,1.49s1.29,2.81,4.39,3.53l3.51.82a3.63,3.63,0,0,1-1.2-3.91c.73-3.16,3.5-3.4,6.29-2.75l4,.94c3.71.86,6.2,2.52,5.26,6.53s-4,4.34-7.53,3.51l-10.71-2.49c-3.54-.83-7.34-2.14-6.26-6.74.94-4,4.11-4,6.36-3.45l.38.09Zm12.94,2.75-4.21-1c-1.9-.44-3.36-.26-3.76,1.42-.46,2,1.08,3.07,3.11,3.54l3.75.87c2.19.51,3.91.23,4.33-1.58C1318.34,277.3,1317.66,276.17,1314.77,275.5Z"/><path d="M1305.82,257.57l12.2,2.84c4,.94,5.88,3,5,6.58-.79,3.37-3.3,4.44-7.33,3.5l-12.22-2.84c-4.24-1-5.63-3.5-4.92-6.55S1301.77,256.63,1305.82,257.57ZM1304,265l12.61,2.93c2.26.53,3.79.09,4.18-1.62s-.49-2.67-3.13-3.28l-12.53-2.92c-2.59-.6-3.84,0-4.21,1.59S1301.33,264.41,1304,265Z"/><path d="M1307.41,255.79a36.88,36.88,0,0,0-7.73-2.85l.53-2.26a29.68,29.68,0,0,1,7.63,3.26Zm.89-3.83a40.41,40.41,0,0,0-7.73-2.85l.53-2.26a28.49,28.49,0,0,1,7.63,3.26Z"/><polygon class="cls-30" points="1012.49 165.86 993.29 172.66 1341.93 243.46 1361.14 236.67 1012.49 165.86"/><polygon class="cls-31" points="1361.13 236.67 1341.93 243.45 1281.9 231.26 1301.08 224.47 1301.09 224.47 1361.13 236.67"/><rect class="cls-6" x="845.55" y="668.69" width="96.37" height="33.87"/><path class="cls-32" d="M888,608.89l115.35,22.82c36.59,6.51,27.43,59.88-9.16,53.37L894,667.64l-28.39-14.26Z"/><polygon class="cls-14" points="1119.76 787.59 1090.78 807.97 1076.19 788.72 1062.8 771.06 1097.56 755.99 1106.07 768.12 1119.76 787.59"/><polygon class="cls-13" points="1106.07 768.12 1076.19 788.72 1062.8 771.06 1097.56 755.99 1106.07 768.12"/><path class="cls-10" d="M1108.15,765.89l-14.4,10.6s5.88,10.21.09,14.19a117.48,117.48,0,0,1-11.07,6.72l18.5,33.84,67.9-41.21-6.28-10.36a15.7,15.7,0,0,0-21.55-5.27l-17.6,10.68Z"/><line class="cls-33" x1="1097.83" y1="824.96" x2="1165.46" y2="783.91"/><polygon class="cls-15" points="1019.89 640.33 1105.01 760.13 1065.8 785.56 980.72 676.44 997.01 647.73 1019.89 640.33"/><path class="cls-15" d="M848.62,637.55A41.42,41.42,0,0,0,885.81,676l116.12,7.68c42.83,5.19,55.35-45.72,8.43-53.54L866.44,595.7,848,628.86Z"/><polygon class="cls-14" points="1030.71 757.68 1033.74 796.17 998.42 798.97 994.32 753.1 1030.71 757.68"/><path class="cls-10" d="M1034.79,771.58l-17.8,1.8s-.13,11.79-7.14,12.26a118.78,118.78,0,0,1-13,.16l-1.29,38.54,79.43-.93-.14-12.11A15.69,15.69,0,0,0,1059,795.8l-20.59.24Z"/><line class="cls-33" x1="995.85" y1="817.18" x2="1074.95" y2="816.26"/><polygon class="cls-13" points="1031.09 762.53 1031.65 769.59 996.28 775.01 995.96 771.46 1009.36 754 1031.09 762.53"/><path class="cls-15" d="M994.32,632.89l12.19-.45a32.91,32.91,0,0,1,34.12,34.09l-5.23,101.39H990.07S988.58,668.8,994.32,632.89Z"/><line class="cls-34" x1="832.91" y1="669.27" x2="1276.81" y2="669.27"/><line class="cls-34" x1="832.91" y1="704.31" x2="1270.18" y2="704.31"/><line class="cls-34" x1="832.91" y1="739.36" x2="1263.56" y2="739.36"/><line class="cls-34" x1="832.91" y1="774.4" x2="1256.93" y2="774.4"/><line class="cls-34" x1="832.91" y1="809.44" x2="1250.31" y2="809.44"/><line class="cls-34" x1="1152.18" y1="841.07" x2="1152.18" y2="637.52"/><line class="cls-34" x1="1117.13" y1="841.07" x2="1117.13" y2="637.52"/><line class="cls-34" x1="1082.09" y1="841.07" x2="1082.09" y2="637.52"/><line class="cls-34" x1="1047.05" y1="841.07" x2="1047.05" y2="637.52"/><line class="cls-34" x1="1012.01" y1="841.07" x2="1012.01" y2="637.52"/><line class="cls-34" x1="976.96" y1="841.07" x2="976.96" y2="637.52"/><line class="cls-34" x1="941.92" y1="841.07" x2="941.92" y2="637.52"/><line class="cls-34" x1="906.88" y1="841.07" x2="906.88" y2="637.52"/><line class="cls-34" x1="871.84" y1="841.07" x2="871.84" y2="637.52"/><line class="cls-34" x1="1187.22" y1="841.07" x2="1187.22" y2="637.52"/><line class="cls-34" x1="1222.26" y1="841.07" x2="1222.26" y2="637.52"/><line class="cls-34" x1="1257.3" y1="739.36" x2="1257.3" y2="637.52"/><path class="cls-14" d="M943.11,626.12l3.52,2.64a9.57,9.57,0,0,1,3.7,6.12l2.09,13-10.5-2.94-13.67-12.51Z"/><path class="cls-7" d="M825.26,634.39V844.33h424.88l14.45-76.41,25.24-133.53ZM1233.32,824H845.55V654.69h419.78Z"/><path class="cls-6" d="M1243.92,767.92,1233.32,824H845.55V767.92H825.26v76.41h424.88l14.45-76.41Z"/><polyline class="cls-33" points="929.78 638.33 923.59 616.66 929.45 608"/><path class="cls-24" d="M876.9,463A25.83,25.83,0,0,0,853,477.49c-4,8.28-7.64,20.88-8.18,39.82-1.3,46.18-2.58,109.38-2.58,109.38s56.73,4.95,93.48-15.54c0,0-1.37-33.34-2.79-70-1.21-31.4-1.59-46.44-10.58-67a17.24,17.24,0,0,0-16.69-10.36h0Z"/><path class="cls-35" d="M935.74,611.15c-36.75,20.49-93.48,15.54-93.48,15.54s1.09-53.89,2.29-98.5l42.93-18.83-1.83,32.76a31.43,31.43,0,0,0,15.71,29l33.54,19.27C935.41,603,935.74,611.15,935.74,611.15Z"/><path class="cls-14" d="M908.9,427.85l5,10.44-7.12,38.65a3.82,3.82,0,0,1-6.39,2.32l-17.24-16.09,10.12-39.93,5.34-.1Z"/><path class="cls-20" d="M911.56,433.44c-.88,6-2.29,12-4.56,15.29-5,7.2-15.42,10.39-23,11l9.26-36.54,5.34-.1,10.34,4.71Z"/><path class="cls-14" d="M893.93,392.62s-11-.73-14.48,8-8.93,24.58-9,31c-.18,9.86,8,16,15.6,17s18.56.75,25.2-6.38,10.63-31.34,10.63-31.34S908.68,388.49,893.93,392.62Z"/><path class="cls-8" d="M879.06,406.2a4.81,4.81,0,0,1,7.9.24,5.08,5.08,0,0,1,.5,1.15.37.37,0,0,1-.24.46.36.36,0,0,1-.35-.06,7.1,7.1,0,0,0-3.47-1.55,18.44,18.44,0,0,0-3.93.34.38.38,0,0,1-.41-.58Z"/><path class="cls-8" d="M899.16,409.26a4.81,4.81,0,0,1,7.9.24,5.08,5.08,0,0,1,.5,1.15.37.37,0,0,1-.24.46.36.36,0,0,1-.35-.06,7.1,7.1,0,0,0-3.47-1.55,19.11,19.11,0,0,0-3.93.34.38.38,0,0,1-.41-.58Z"/><path class="cls-8" d="M877.82,404.89s17,.47,26.95-5.94c-1.21,8.42,4.71,13.14,9.23,13.15-7,8.87,1.12,13.43,1.12,13.43l6.23-1.54,8.89-20.5L903.8,384.87l-24.91,8.64Z"/><path class="cls-36" d="M878.63,412.5a5.67,5.67,0,0,1,3.47-.88,5.6,5.6,0,0,1,3.29,1.41"/><path class="cls-36" d="M897.76,416a5.59,5.59,0,0,1,6.72.89"/><path class="cls-8" d="M880.45,428.84a18.17,18.17,0,0,0,14.82-1.39c1.47,9.7-3,13.34-8.58,13.11S878,436.28,880.45,428.84Z"/><path class="cls-37" d="M895.55,431.23c-2.4,1.76-5.89,2.81-10.71,2-3.45-.59-3.67-2.59-3.33-4a18.73,18.73,0,0,0,13.77-1.73A23.52,23.52,0,0,1,895.55,431.23Z"/><path class="cls-21" d="M894.16,436.94c-1.58,2.66-4.35,3.74-7.47,3.62a7.34,7.34,0,0,1-5.66-2.49,6.28,6.28,0,0,1,2.1-1,6.79,6.79,0,0,1,4.75.46,7,7,0,0,1,4.75-1.24,3.22,3.22,0,0,1,.79.18A3.9,3.9,0,0,1,894.16,436.94Z"/><path class="cls-36" d="M890.6,413.74a8.25,8.25,0,0,1-1.32,2.53c-1.4,1.49-3.32,1.09-4.41,2.76s.92,4.78,2.37,4.73"/><path class="cls-14" d="M912.83,426.15A7.42,7.42,0,0,1,920.3,421a5.43,5.43,0,0,1,4.24,2.42c3.41,5,0,13.06-6.16,14.57a6.83,6.83,0,0,1-8.27-3.68Z"/><line class="cls-38" x1="920.77" y1="426.29" x2="916.13" y2="433.76"/><path class="cls-14" d="M882.32,520.22l-16.09,44.59c5.61,33.55-41.28,36.45-37.07,4.82l16.2-64.46,17.85-6.58Z"/><path class="cls-14" d="M917.06,642.83l3,12.93a9.9,9.9,0,0,0,9.82,7.67l9-.16A9.43,9.43,0,0,0,947.7,651l-8.59-27.35-30.74,4.17Z"/><polygon class="cls-14" points="866.23 564.81 943.11 626.12 921.03 642.63 835.16 586.86 848.8 567.59 866.23 564.81"/><polygon class="cls-24" points="894.48 485.39 876.95 538.74 831.87 526.89 854 475.6 894.48 485.39"/><line class="cls-33" x1="876.95" y1="538.74" x2="890.06" y2="498.83"/><line class="cls-33" x1="879.91" y1="529.72" x2="835.74" y2="517.21"/></svg>