<svg width="40" height="40" viewBox="0 0 40 40" fill="none" xmlns="http://www.w3.org/2000/svg">
<path d="M16.0013 10.1867C16.5378 8.82644 18.4628 8.82644 18.9993 10.1867L20.5175 14.0358C21.5002 16.5276 23.4725 18.5 25.9643 19.4827L29.8135 21.0008C31.1737 21.5373 31.1737 23.4623 29.8135 23.9988L25.9643 25.517C23.4725 26.4997 21.5002 28.472 20.5175 30.9638L18.9993 34.813C18.4628 36.1732 16.5378 36.1732 16.0013 34.813L14.4832 30.9638C13.5005 28.472 11.5281 26.4997 9.03633 25.517L5.18718 23.9988C3.82693 23.4623 3.82693 21.5373 5.18718 21.0008L9.03633 19.4827C11.5281 18.5 13.5005 16.5276 14.4832 14.0358L16.0013 10.1867Z" stroke="#101928" stroke-width="2.5"/>
<path d="M30.2708 4.54907C30.472 4.03898 31.194 4.03898 31.3952 4.54907L31.9643 5.9925C32.333 6.9269 33.0727 7.66657 34.007 8.03508L35.4505 8.60437C35.9605 8.80555 35.9605 9.52745 35.4505 9.72863L34.007 10.2979C33.0727 10.6664 32.333 11.4061 31.9643 12.3405L31.3952 13.7839C31.194 14.294 30.472 14.294 30.2708 13.7839L29.7017 12.3405C29.333 11.4061 28.5933 10.6664 27.659 10.2979L26.2155 9.72863C25.7055 9.52745 25.7055 8.80555 26.2155 8.60437L27.659 8.03508C28.5933 7.66657 29.333 6.9269 29.7017 5.9925L30.2708 4.54907Z" stroke="#101928" stroke-width="2.5"/>
</svg>
