<svg width="1080" height="1080" viewBox="0 0 1080 1080" fill="none" xmlns="http://www.w3.org/2000/svg">
<g clip-path="url(#clip0_395_6)">
<path d="M956.65 459.417L705.36 208.298L539.96 374.069L705.426 539.52L539.96 705.291L705.754 871.062L956.65 620.326C978.041 598.712 989.992 569.876 989.992 539.872C989.992 509.868 978.041 481.031 956.65 459.417Z" fill="#14DD6A"/>
<path d="M621.247 956.602L706.215 871.382L208.371 373.877L123.336 458.97C101.945 480.583 89.9941 509.42 89.9941 539.424C89.9941 569.428 101.945 598.265 123.336 619.878L460.187 956.666C470.622 967.199 483.133 975.575 496.972 981.294C510.811 987.014 525.694 989.958 540.731 989.953C555.767 989.947 570.648 986.99 584.482 981.26C598.317 975.529 610.821 967.143 621.247 956.602Z" fill="#703CDE"/>
<path d="M705.815 539.774L374.16 208.232L208.497 373.875L540.283 705.545L705.815 539.774Z" fill="#A98AEB"/>
<path d="M459.792 123.14L374.297 208.297L540.355 374.324L705.755 208.489L620.26 123.332C609.852 112.872 597.391 104.551 583.616 98.8623C569.841 93.1738 555.032 90.2334 540.068 90.2155C525.103 90.1976 510.287 93.1025 496.498 98.7581C482.709 104.414 470.227 112.705 459.792 123.14Z" fill="#E2D8F8"/>
</g>
<defs>
<clipPath id="clip0_395_6">
<rect width="900" height="900" fill="white" transform="matrix(1 0 0 -1 90 990)"/>
</clipPath>
</defs>
</svg>
