<svg width="40" height="40" viewBox="0 0 40 40" fill="none" xmlns="http://www.w3.org/2000/svg">
<path d="M20 13.875V4.625" stroke="#101928" stroke-width="2.3125" stroke-linecap="round" stroke-linejoin="round"/>
<path d="M32.5682 35.331C35.4383 34.4237 36.2792 28.9135 34.4463 23.0239C32.6134 17.134 28.801 13.095 25.9311 14.0023C24.1578 14.5629 24.0755 16.7452 22.6155 17.5411C22.2705 17.7292 21.7872 17.7292 20.8204 17.7292H19.1789C18.2121 17.7292 17.7288 17.7292 17.3838 17.5411C15.9239 16.7452 15.8414 14.5629 14.0683 14.0023C11.1983 13.095 7.38591 17.134 5.55305 23.0239C3.72022 28.9135 4.56101 34.4237 7.43102 35.331C9.52606 35.9933 12.1233 34.0199 14.0861 30.6149C15.3952 28.3437 15.988 27.75 18.6182 27.75H21.3811C24.0112 27.75 24.6041 28.3437 25.9132 30.6149C27.876 34.0199 30.4733 35.9933 32.5682 35.331Z" stroke="#101928" stroke-width="2.3125"/>
<path d="M18.333 21.667H21.6663" stroke="#101928" stroke-width="2.3125" stroke-linecap="round" stroke-linejoin="round"/>
</svg>
