<svg width="40" height="40" viewBox="0 0 40 40" fill="none" xmlns="http://www.w3.org/2000/svg">
<path d="M8.33301 26.6668L16.6663 21.6668M23.333 18.3335L31.6663 13.3335M19.9997 8.3335V16.6668M19.9997 23.3335V31.6668M8.33301 13.3335L16.6663 18.3335M23.333 21.6668L31.6663 26.6668" stroke="#101928" stroke-width="1.5" stroke-linejoin="round"/>
<path d="M34.1663 15.0002V24.1668M22.4997 34.1668L31.6663 29.1668M7.49967 29.1668L17.4997 34.1668M5.83301 25.0002V15.0002M7.49967 10.8335L17.4997 5.8335M32.4997 10.8335L22.4997 5.8335" stroke="#101928" stroke-width="1.5" stroke-linejoin="round"/>
<path d="M20 8.3335C21.3807 8.3335 22.5 7.21421 22.5 5.8335C22.5 4.45278 21.3807 3.3335 20 3.3335C18.6193 3.3335 17.5 4.45278 17.5 5.8335C17.5 7.21421 18.6193 8.3335 20 8.3335Z" stroke="#101928" stroke-width="1.5" stroke-linejoin="round"/>
<path d="M20 36.6665C21.3807 36.6665 22.5 35.5472 22.5 34.1665C22.5 32.7858 21.3807 31.6665 20 31.6665C18.6193 31.6665 17.5 32.7858 17.5 34.1665C17.5 35.5472 18.6193 36.6665 20 36.6665Z" stroke="#101928" stroke-width="1.5" stroke-linejoin="round"/>
<path d="M5.83301 15C7.21372 15 8.33301 13.8807 8.33301 12.5C8.33301 11.1193 7.21372 10 5.83301 10C4.4523 10 3.33301 11.1193 3.33301 12.5C3.33301 13.8807 4.4523 15 5.83301 15Z" stroke="#101928" stroke-width="1.5" stroke-linejoin="round"/>
<path d="M34.167 15C35.5477 15 36.667 13.8807 36.667 12.5C36.667 11.1193 35.5477 10 34.167 10C32.7863 10 31.667 11.1193 31.667 12.5C31.667 13.8807 32.7863 15 34.167 15Z" stroke="#101928" stroke-width="1.5" stroke-linejoin="round"/>
<path d="M34.167 30C35.5477 30 36.667 28.8807 36.667 27.5C36.667 26.1193 35.5477 25 34.167 25C32.7863 25 31.667 26.1193 31.667 27.5C31.667 28.8807 32.7863 30 34.167 30Z" stroke="#101928" stroke-width="1.5" stroke-linejoin="round"/>
<path d="M5.83301 30C7.21372 30 8.33301 28.8807 8.33301 27.5C8.33301 26.1193 7.21372 25 5.83301 25C4.4523 25 3.33301 26.1193 3.33301 27.5C3.33301 28.8807 4.4523 30 5.83301 30Z" stroke="#101928" stroke-width="1.5" stroke-linejoin="round"/>
<path d="M20.0003 16.25L23.3337 18.125V21.875L20.0003 23.75L16.667 21.875V18.125L20.0003 16.25Z" stroke="#101928" stroke-width="1.5" stroke-linejoin="round"/>
</svg>
