<svg width="513" height="513" viewBox="0 0 513 513" fill="none" xmlns="http://www.w3.org/2000/svg">
<g opacity="0.3">
<path d="M473.428 257.036C465.117 293.928 443.846 324.868 417.128 349.421C390.231 373.949 357.883 392.079 323.281 402.725C301.142 409.483 277.962 413.135 253.735 413.135C236.286 413.135 219.393 411.242 203.021 407.655C201.398 407.304 199.77 406.923 198.157 406.538C160.523 397.395 125.27 379.46 95.752 354.226C66.4649 328.951 42.914 296.378 34.0317 257.031C22.9902 208.802 38.285 158.128 78.2078 118.902C117.524 79.7856 181.464 52.1166 253.735 52.4172C326.001 52.1166 389.94 79.7856 429.257 118.902C469.175 158.128 484.475 208.802 473.433 257.031L473.428 257.036Z" fill="#E1D7F6"/>
</g>
<path d="M220.195 490.17C296.163 490.17 357.748 476.726 357.748 460.142C357.748 443.558 296.163 430.113 220.195 430.113C144.226 430.113 82.6416 443.558 82.6416 460.142C82.6416 476.726 144.226 490.17 220.195 490.17Z" fill="#F7F7F7"/>
<path d="M181.209 190.652C172.086 204.749 167.151 221.006 166.891 237.854H47.6885C47.964 196.453 60.2981 156.62 83.3981 122.469L119.343 147.523L181.209 190.652Z" fill="white" stroke="black" stroke-width="1.37" stroke-linecap="round" stroke-linejoin="round"/>
<path d="M223.551 155.919C212.254 160.388 201.763 167.281 193.126 175.913C190.136 178.904 187.35 182.115 184.825 185.477L122.97 142.353L87.0146 117.289C111.392 83.4678 144.752 58.0081 183.653 43.5349L198.367 84.9807L223.546 155.924L223.551 155.919Z" fill="#E1D7F6" stroke="black" stroke-width="1.37" stroke-linecap="round" stroke-linejoin="round"/>
<path d="M323.391 41.4207L308.682 82.8615L283.503 153.805C274.791 151.059 265.709 149.662 256.501 149.662C247.293 149.662 238.205 151.059 229.508 153.805L204.324 82.8615L189.615 41.4207C211.097 34.1565 233.591 30.4744 256.501 30.4744C279.41 30.4744 301.909 34.1565 323.391 41.4207Z" fill="#C5B0F1" stroke="black" stroke-width="1.37" stroke-linecap="round" stroke-linejoin="round"/>
<path d="M425.985 117.284L390.035 142.343L328.175 185.467C325.65 182.1 322.854 178.894 319.874 175.908C311.121 167.156 300.892 160.433 289.449 155.914L314.633 84.9707L329.342 43.5249C368.243 57.9981 401.603 83.4628 425.98 117.279L425.985 117.284Z" fill="#A889EA" stroke="black" stroke-width="1.37" stroke-linecap="round" stroke-linejoin="round"/>
<path d="M465.312 237.854H346.11C345.844 220.996 340.91 204.734 331.792 190.652L393.663 147.523L429.603 122.469C452.703 156.62 465.037 196.453 465.312 237.854Z" fill="#00E159" stroke="black" stroke-width="1.37" stroke-linecap="round" stroke-linejoin="round"/>
<g opacity="0.5">
<g style="mix-blend-mode:multiply" opacity="0.3">
<path d="M119.343 147.523L181.209 190.652C172.086 204.749 167.151 221.006 166.891 237.854H91.2783C91.639 204.424 101.934 173.378 119.343 147.523Z" fill="#7B2BE6"/>
</g>
<g style="mix-blend-mode:multiply" opacity="0.3">
<path d="M198.372 84.9758L223.551 155.919C212.254 160.388 201.763 167.281 193.126 175.913C190.136 178.904 187.35 182.115 184.825 185.477L122.97 142.353C141.811 116.542 167.962 96.4031 198.367 84.9758H198.372Z" fill="#7B2BE6"/>
</g>
<g style="mix-blend-mode:multiply" opacity="0.3">
<path d="M308.682 82.8616L283.503 153.805C274.791 151.06 265.708 149.662 256.5 149.662C247.292 149.662 238.204 151.06 229.507 153.805L204.323 82.8616C220.725 77.406 238.269 74.4502 256.505 74.4502C274.741 74.4502 292.28 77.4009 308.682 82.8616Z" fill="#7B2BE6"/>
</g>
<g style="mix-blend-mode:multiply" opacity="0.3">
<path d="M390.035 142.348L328.175 185.472C325.65 182.105 322.854 178.899 319.874 175.913C311.121 167.161 300.892 160.438 289.449 155.919L314.633 84.9758C345.043 96.3981 371.189 116.537 390.03 142.343L390.035 142.348Z" fill="#7B2BE6"/>
</g>
<g style="mix-blend-mode:multiply" opacity="0.3">
<path d="M421.727 237.854H346.11C345.844 220.996 340.91 204.734 331.792 190.652L393.663 147.523C411.072 173.383 421.367 204.429 421.727 237.854Z" fill="#7B2BE6"/>
</g>
</g>
<path d="M363.133 132.318C365.522 134.467 367.862 136.676 370.136 138.956" stroke="white" stroke-width="1.37" stroke-linecap="round" stroke-linejoin="round"/>
<path d="M332.298 110.054C341.987 115.59 351.125 122.008 359.611 129.242" stroke="white" stroke-width="1.37" stroke-linecap="round" stroke-linejoin="round"/>
<path d="M325.234 95.6013C339.703 102.274 353.209 110.841 365.443 121.106" stroke="white" stroke-width="1.37" stroke-linecap="round" stroke-linejoin="round"/>
<path d="M69.4609 212.544L70.3376 204.854C70.4228 204.123 70.6232 203.547 70.9388 203.131C71.2544 202.715 71.6202 202.404 72.0259 202.194C72.4317 201.984 72.8576 201.858 73.2934 201.823C73.7293 201.783 74.105 201.783 74.4256 201.823C74.7462 201.858 75.117 201.949 75.5378 202.094C75.9586 202.239 76.3444 202.46 76.695 202.76C77.0457 203.061 77.3263 203.456 77.5417 203.937C77.7571 204.418 77.8222 205.02 77.7421 205.741L77.1459 210.996L81.7198 211.517L81.4493 213.912L69.466 212.549L69.4609 212.544ZM74.1501 204.218C73.6591 204.163 73.2032 204.233 72.7874 204.438C72.3716 204.639 72.1362 205.015 72.071 205.561L71.525 210.355L75.3224 210.786L75.8634 206.011C75.8935 205.761 75.8634 205.525 75.7732 205.315C75.6831 205.105 75.5528 204.919 75.3925 204.764C75.2272 204.609 75.0368 204.488 74.8164 204.393C74.5959 204.303 74.3755 204.243 74.1501 204.218Z" fill="black"/>
<path d="M77.9923 200.696C77.7268 200.646 77.4262 200.571 77.0805 200.476C76.7398 200.376 76.3892 200.23 76.0385 200.035C75.6878 199.84 75.3521 199.594 75.0315 199.294C74.7109 198.993 74.4504 198.617 74.24 198.161C74.0346 197.705 73.8943 197.169 73.8242 196.548C73.754 195.927 73.7991 195.206 73.9544 194.374C74.1097 193.557 74.3251 192.871 74.6057 192.31C74.8862 191.749 75.2069 191.293 75.5575 190.932C75.9082 190.577 76.289 190.311 76.6998 190.136C77.1106 189.96 77.5113 189.835 77.9021 189.77C78.2929 189.705 78.6786 189.68 79.0493 189.71C79.4201 189.74 79.7407 189.78 80.0212 189.83C80.2867 189.88 80.5873 189.955 80.933 190.051C81.2737 190.151 81.6193 190.296 81.965 190.491C82.3107 190.687 82.6363 190.937 82.9519 191.238C83.2626 191.543 83.5231 191.919 83.7285 192.375C83.9389 192.831 84.0741 193.372 84.1393 194.008C84.2044 194.64 84.1593 195.371 84.004 196.203C83.8487 197.034 83.6233 197.731 83.3377 198.297C83.0471 198.863 82.7215 199.319 82.3658 199.669C82.0051 200.02 81.6294 200.275 81.2286 200.446C80.8278 200.616 80.432 200.731 80.0413 200.786C79.6505 200.842 79.2748 200.857 78.9191 200.822C78.5634 200.791 78.2528 200.746 77.9923 200.696ZM75.6427 194.695C75.5325 195.276 75.5275 195.777 75.6277 196.203C75.7229 196.628 75.9032 196.999 76.1587 197.305C76.4142 197.61 76.7348 197.856 77.1256 198.036C77.5163 198.216 77.9472 198.352 78.4181 198.442C78.879 198.527 79.3199 198.552 79.7457 198.517C80.1665 198.482 80.5523 198.367 80.8929 198.181C81.2336 197.991 81.5342 197.71 81.7897 197.335C82.0452 196.959 82.2255 196.478 82.3357 195.882C82.446 195.291 82.456 194.775 82.3608 194.344C82.2656 193.908 82.0903 193.542 81.8298 193.242C81.5743 192.941 81.2536 192.696 80.8729 192.51C80.4921 192.325 80.0713 192.185 79.6104 192.1C79.1345 192.009 78.6836 191.979 78.2578 192.009C77.832 192.039 77.4412 192.15 77.0905 192.345C76.7398 192.54 76.4392 192.826 76.1938 193.212C75.9483 193.597 75.7629 194.088 75.6477 194.695H75.6427Z" fill="black"/>
<path d="M80.427 188.047C80.1665 187.981 79.8709 187.886 79.5353 187.761C79.1996 187.641 78.8639 187.47 78.5283 187.25C78.1926 187.03 77.872 186.759 77.5764 186.438C77.2809 186.118 77.0404 185.722 76.865 185.256C76.6897 184.79 76.5895 184.244 76.5645 183.618C76.5394 182.997 76.6346 182.275 76.845 181.459C77.0554 180.657 77.3209 179.981 77.6416 179.445C77.9622 178.904 78.3129 178.468 78.6886 178.137C79.0643 177.807 79.4651 177.566 79.8809 177.421C80.3017 177.276 80.7075 177.18 81.1083 177.14C81.5091 177.1 81.8898 177.105 82.2556 177.16C82.6213 177.215 82.9419 177.276 83.2124 177.346C83.4729 177.416 83.7685 177.511 84.1042 177.631C84.4398 177.752 84.7705 177.922 85.1011 178.142C85.4317 178.363 85.7424 178.633 86.0329 178.959C86.3235 179.284 86.5539 179.68 86.7293 180.146C86.9046 180.617 87.0048 181.168 87.0249 181.804C87.0449 182.441 86.9497 183.167 86.7393 183.984C86.5239 184.8 86.2534 185.482 85.9277 186.028C85.5971 186.574 85.2414 187.005 84.8606 187.33C84.4799 187.651 84.0841 187.886 83.6733 188.027C83.2625 188.167 82.8567 188.252 82.466 188.282C82.0702 188.312 81.6945 188.297 81.3438 188.237C80.9931 188.182 80.6875 188.117 80.427 188.052V188.047ZM78.5032 181.895C78.353 182.466 78.3129 182.967 78.378 183.403C78.4431 183.833 78.5934 184.214 78.8289 184.54C79.0643 184.865 79.3699 185.131 79.7407 185.341C80.1164 185.552 80.5372 185.717 81.0031 185.837C81.459 185.958 81.8949 186.013 82.3207 186.003C82.7465 185.998 83.1323 185.912 83.488 185.747C83.8437 185.582 84.1593 185.321 84.4398 184.966C84.7204 184.61 84.9358 184.139 85.0861 183.558C85.2364 182.977 85.2815 182.461 85.2163 182.025C85.1512 181.584 85.0009 181.208 84.7655 180.888C84.53 180.572 84.2294 180.306 83.8637 180.091C83.498 179.876 83.0872 179.71 82.6313 179.595C82.1654 179.475 81.7145 179.41 81.2887 179.41C80.8578 179.41 80.4621 179.495 80.1014 179.66C79.7407 179.831 79.42 180.096 79.1445 180.462C78.869 180.827 78.6535 181.308 78.4982 181.905L78.5032 181.895Z" fill="black"/>
<path d="M79.1895 173.333L81.2635 167.161C81.4639 166.565 81.7294 166.114 82.055 165.813C82.3807 165.513 82.7263 165.307 83.087 165.197C83.4478 165.087 83.8085 165.047 84.1641 165.082C84.5198 165.117 84.8254 165.177 85.0809 165.262C85.3715 165.362 85.6771 165.523 85.9877 165.748C86.3033 165.973 86.5638 166.254 86.7742 166.595C86.9295 166.845 87.0347 167.116 87.0848 167.411C87.1349 167.702 87.145 168.007 87.1099 168.318C87.2051 168.278 87.3003 168.248 87.3854 168.218C87.4706 168.193 87.5558 168.158 87.6409 168.113L92.1096 166.434L91.2129 169.105L86.3334 171.008L85.642 173.067L89.4545 174.35L88.718 176.539L79.1895 173.338V173.333ZM84.3545 167.431C84.0489 167.331 83.7383 167.321 83.4177 167.411C83.0971 167.501 82.8766 167.732 82.7514 168.098L81.549 171.68L84.0088 172.506L85.2062 168.944C85.2613 168.779 85.2763 168.614 85.2463 168.448C85.2162 168.283 85.1611 168.133 85.0809 167.997C85.0008 167.862 84.8906 167.747 84.7653 167.647C84.6351 167.546 84.4998 167.471 84.3595 167.426L84.3545 167.431Z" fill="black"/>
<path d="M120.831 97.9609L127.89 90.7769L129.192 92.0594L123.822 97.52L126.447 100.1L131.111 95.3558L132.404 96.6233L127.74 101.367L131.121 104.694L129.428 106.412L120.826 97.9559L120.831 97.9609Z" fill="black"/>
<path d="M141.396 92.0042L137.86 95.1654L138.546 97.3797L136.657 99.068L133.496 88.4122L135.174 86.9143L145.394 91.2628L143.506 92.9511L141.396 92.0042ZM137.273 93.3969L139.703 91.2277L136.913 89.9753L135.931 89.4793L136.327 90.4963L137.273 93.3969Z" fill="black"/>
<path d="M140.579 82.3205L142.378 80.8677L148.7 88.6829L146.901 90.1357L140.579 82.3205Z" fill="black"/>
<path d="M145.299 78.508L150.559 74.6705C151.07 74.2998 151.541 74.0844 151.982 74.0293C152.423 73.9742 152.824 74.0042 153.184 74.1244C153.545 74.2447 153.861 74.42 154.131 74.6555C154.402 74.8909 154.617 75.1164 154.772 75.3318C154.953 75.5823 155.108 75.8879 155.233 76.2536C155.359 76.6193 155.409 77.0001 155.384 77.4008C155.369 77.6964 155.293 77.977 155.163 78.2425C155.033 78.508 154.868 78.7635 154.657 78.9989C154.757 79.024 154.853 79.049 154.938 79.0791C155.023 79.1092 155.113 79.1292 155.208 79.1442L159.822 80.3566L157.548 82.0148L152.468 80.7474L150.715 82.0248L153.084 85.2712L151.215 86.6338L145.294 78.513L145.299 78.508ZM152.924 76.6794C152.733 76.4189 152.483 76.2336 152.167 76.1233C151.852 76.0131 151.541 76.0732 151.226 76.2987L148.175 78.528L149.703 80.6221L152.738 78.4078C152.879 78.3076 152.984 78.1773 153.059 78.0271C153.129 77.8768 153.169 77.7215 153.179 77.5662C153.189 77.4109 153.169 77.2555 153.124 77.0952C153.079 76.9399 153.009 76.7997 152.924 76.6844V76.6794Z" fill="black"/>
<path d="M238.871 42.6482C238.666 41.8617 238.26 41.2956 237.659 40.9399C237.058 40.5842 236.216 40.474 235.124 40.6142C234.418 40.7044 233.837 40.8898 233.381 41.1803C232.925 41.4659 232.564 41.8266 232.299 42.2474C232.033 42.6732 231.868 43.1542 231.803 43.7003C231.738 44.2413 231.743 44.8124 231.818 45.4086C231.893 45.9947 232.033 46.5358 232.249 47.0368C232.459 47.5377 232.749 47.9636 233.12 48.3142C233.491 48.6649 233.937 48.9204 234.463 49.0757C234.989 49.231 235.61 49.2661 236.331 49.1709C236.797 49.1108 237.238 49.0156 237.654 48.8803C238.07 48.7451 238.431 48.5597 238.736 48.3193C239.042 48.0788 239.272 47.7782 239.423 47.4225C239.573 47.0668 239.618 46.636 239.553 46.13L235.605 46.631L235.38 44.8375L241.642 44.0409L241.882 45.9546C241.957 46.5658 241.917 47.147 241.747 47.693C241.582 48.2391 241.276 48.7351 240.84 49.1759C240.404 49.6168 239.828 49.9925 239.117 50.3081C238.406 50.6187 237.554 50.8392 236.557 50.9694C235.6 51.1047 234.763 51.1097 234.047 50.9844C233.331 50.8592 232.714 50.6588 232.198 50.3783C231.682 50.0977 231.257 49.7571 230.921 49.3563C230.585 48.9555 230.315 48.5347 230.104 48.1038C229.894 47.673 229.739 47.2472 229.638 46.8364C229.538 46.4256 229.468 46.0599 229.428 45.7392C229.388 45.4186 229.363 45.0479 229.358 44.622C229.353 44.1962 229.388 43.7503 229.473 43.2794C229.553 42.8085 229.709 42.3376 229.934 41.8617C230.159 41.3857 230.475 40.9449 230.891 40.5341C231.307 40.1233 231.838 39.7676 232.489 39.472C233.14 39.1714 233.942 38.956 234.899 38.8207C235.936 38.6905 236.827 38.7055 237.569 38.8658C238.31 39.0261 238.937 39.2816 239.448 39.6223C239.959 39.963 240.354 40.3637 240.645 40.8196C240.93 41.2755 241.141 41.7314 241.266 42.1923L238.871 42.6582V42.6482Z" fill="black"/>
<path d="M243.615 45.0176C243.6 44.7521 243.6 44.4365 243.615 44.0808C243.63 43.7251 243.69 43.3544 243.795 42.9636C243.9 42.5729 244.061 42.1921 244.276 41.8114C244.492 41.4306 244.792 41.085 245.188 40.7744C245.579 40.4638 246.07 40.2033 246.656 39.9928C247.242 39.7824 247.958 39.6522 248.8 39.6071C249.632 39.562 250.348 39.6071 250.964 39.7524C251.575 39.8926 252.096 40.093 252.527 40.3535C252.958 40.6141 253.304 40.9196 253.574 41.2753C253.84 41.631 254.055 41.9917 254.215 42.3575C254.376 42.7232 254.486 43.0939 254.546 43.4596C254.606 43.8253 254.641 44.1509 254.656 44.4315C254.671 44.697 254.671 45.0126 254.656 45.3683C254.641 45.724 254.581 46.0947 254.476 46.4755C254.371 46.8562 254.205 47.237 253.985 47.6077C253.765 47.9834 253.454 48.3241 253.063 48.6347C252.672 48.9453 252.176 49.2058 251.575 49.4162C250.974 49.6316 250.253 49.7569 249.411 49.802C248.569 49.8471 247.838 49.797 247.217 49.6467C246.596 49.4964 246.075 49.291 245.654 49.0254C245.228 48.7599 244.887 48.4543 244.627 48.1036C244.366 47.753 244.161 47.3973 244.016 47.0266C243.87 46.6608 243.77 46.3001 243.715 45.9444C243.665 45.5938 243.63 45.2832 243.615 45.0126V45.0176ZM248.895 41.3154C248.304 41.3455 247.818 41.4607 247.422 41.6561C247.026 41.8515 246.716 42.112 246.475 42.4326C246.24 42.7532 246.075 43.1239 245.989 43.5448C245.904 43.9656 245.874 44.4165 245.899 44.8974C245.924 45.3683 246.004 45.7992 246.14 46.205C246.275 46.6057 246.475 46.9514 246.741 47.242C247.006 47.5275 247.347 47.753 247.773 47.9133C248.199 48.0736 248.71 48.1337 249.311 48.1036C249.912 48.0736 250.413 47.9584 250.814 47.763C251.215 47.5676 251.525 47.3071 251.761 46.9865C251.991 46.6658 252.151 46.3001 252.247 45.8843C252.337 45.4685 252.372 45.0277 252.347 44.5617C252.322 44.0808 252.242 43.6349 252.116 43.2241C251.986 42.8133 251.786 42.4627 251.515 42.1671C251.245 41.8715 250.894 41.6511 250.463 41.5008C250.032 41.3505 249.511 41.2904 248.895 41.3204V41.3154Z" fill="black"/>
<path d="M256.45 44.4366C256.45 44.171 256.47 43.8554 256.505 43.5047C256.54 43.149 256.626 42.7833 256.756 42.4026C256.886 42.0219 257.071 41.6461 257.307 41.2804C257.542 40.9147 257.868 40.5891 258.279 40.3035C258.69 40.0179 259.196 39.7875 259.792 39.6122C260.388 39.4368 261.109 39.3516 261.956 39.3567C262.788 39.3617 263.504 39.4569 264.105 39.6322C264.706 39.8075 265.212 40.043 265.628 40.3235C266.039 40.6091 266.37 40.9347 266.615 41.3055C266.86 41.6762 267.051 42.0469 267.191 42.4226C267.331 42.7984 267.417 43.1691 267.457 43.5398C267.492 43.9105 267.512 44.2362 267.512 44.5167C267.512 44.7872 267.492 45.0978 267.457 45.4535C267.422 45.8092 267.336 46.1749 267.206 46.5457C267.076 46.9214 266.891 47.2871 266.645 47.6478C266.4 48.0085 266.074 48.3291 265.663 48.6147C265.252 48.9003 264.741 49.1307 264.13 49.306C263.519 49.4814 262.793 49.5666 261.946 49.5615C261.099 49.5565 260.373 49.4614 259.767 49.276C259.155 49.0906 258.649 48.8552 258.244 48.5596C257.838 48.269 257.512 47.9434 257.277 47.5777C257.041 47.212 256.856 46.8463 256.731 46.4705C256.606 46.0948 256.53 45.7291 256.495 45.3734C256.465 45.0177 256.45 44.7071 256.45 44.4366ZM261.941 41.055C261.35 41.055 260.854 41.1351 260.453 41.3055C260.052 41.4758 259.722 41.7163 259.461 42.0218C259.206 42.3274 259.02 42.6881 258.91 43.104C258.8 43.5198 258.745 43.9656 258.74 44.4516C258.74 44.9225 258.79 45.3584 258.9 45.7692C259.01 46.18 259.191 46.5356 259.436 46.8362C259.681 47.1368 260.012 47.3823 260.428 47.5677C260.844 47.753 261.35 47.8432 261.956 47.8482C262.557 47.8482 263.063 47.7681 263.474 47.5977C263.885 47.4274 264.215 47.1869 264.466 46.8813C264.716 46.5757 264.897 46.22 265.017 45.8092C265.132 45.4034 265.192 44.9626 265.197 44.4917C265.197 44.0107 265.152 43.5599 265.047 43.144C264.942 42.7282 264.761 42.3625 264.511 42.0569C264.26 41.7463 263.92 41.5058 263.499 41.3255C263.078 41.1502 262.557 41.06 261.941 41.055Z" fill="black"/>
<path d="M270.462 39.6823L275.452 40.0981C276.269 40.1682 276.96 40.3085 277.526 40.5239C278.092 40.7393 278.563 41.0048 278.944 41.3154C279.32 41.6311 279.615 41.9717 279.826 42.3374C280.036 42.7031 280.191 43.0789 280.287 43.4646C280.382 43.8504 280.437 44.2211 280.447 44.5768C280.457 44.9325 280.457 45.2531 280.447 45.5337C280.422 45.7992 280.382 46.1048 280.322 46.4505C280.256 46.7961 280.146 47.1468 279.991 47.5125C279.831 47.8782 279.62 48.2289 279.35 48.5696C279.079 48.9102 278.728 49.2058 278.298 49.4613C277.867 49.7168 277.341 49.9022 276.73 50.0274C276.113 50.1527 275.387 50.1777 274.545 50.1076L269.636 49.6968L270.472 39.6772L270.462 39.6823ZM278.142 45.3433C278.167 44.8624 278.142 44.4165 278.062 44.0057C277.982 43.5949 277.832 43.2392 277.606 42.9286C277.381 42.618 277.07 42.3675 276.669 42.1671C276.269 41.9667 275.763 41.8415 275.146 41.7864L272.622 41.5759L272.071 48.1888L274.676 48.4043C275.262 48.4544 275.768 48.4043 276.189 48.269C276.609 48.1287 276.96 47.9183 277.241 47.6428C277.521 47.3622 277.732 47.0266 277.872 46.6358C278.012 46.245 278.102 45.8142 278.142 45.3483V45.3433Z" fill="black"/>
<path d="M359.456 73.7436L359.191 75.0261L360.238 74.2396L367.347 69.2749L369.636 70.7328L358.705 78.0771L356.636 76.7595L358.64 63.7441L360.929 65.197L359.456 73.7386V73.7436Z" fill="black"/>
<path d="M370.537 73.8889L377.701 79.1492L376.679 80.5419L371.379 76.6493L369.941 78.6081L374.545 81.9897L373.533 83.3674L368.934 79.9858L367.471 81.9797L372.837 85.9174L371.825 87.295L364.596 81.9897L370.547 73.8889H370.537Z" fill="black"/>
<path d="M379.841 80.8427L384.83 85.0308C385.311 85.4366 385.632 85.8474 385.792 86.2582C385.953 86.674 386.018 87.0698 385.988 87.4455C385.958 87.8263 385.862 88.1719 385.702 88.4926C385.542 88.8132 385.371 89.0737 385.201 89.2791C385.001 89.5146 384.74 89.74 384.42 89.9454C384.094 90.1558 383.738 90.2961 383.342 90.3662C383.052 90.4213 382.761 90.4163 382.471 90.3562C382.18 90.2961 381.895 90.1909 381.614 90.0456C381.614 90.1508 381.614 90.246 381.604 90.3412C381.599 90.4313 381.599 90.5265 381.604 90.6167L381.534 95.391L379.38 93.5825L379.395 88.3423L377.732 86.9446L375.147 90.0256L373.373 88.5377L379.836 80.8376L379.841 80.8427ZM383.448 87.8062C383.653 87.5608 383.773 87.2702 383.808 86.9395C383.838 86.6089 383.708 86.3183 383.413 86.0678L380.517 83.6381L378.849 85.627L381.729 88.0417C381.865 88.1519 382.01 88.227 382.175 88.2621C382.341 88.2972 382.501 88.2972 382.656 88.2721C382.811 88.2471 382.957 88.187 383.097 88.1068C383.237 88.0216 383.353 87.9265 383.448 87.8112V87.8062Z" fill="black"/>
<path d="M389.565 95.7666L394.966 94.3438L396.909 96.2074L389.069 97.9057L386.72 100.356L385.066 98.7674L387.361 96.3728L388.774 88.3972L390.717 90.2608L389.565 95.7566V95.7666Z" fill="black"/>
<path d="M350.438 89.6646C350.669 89.0835 350.679 88.5324 350.468 88.0064C350.253 87.4804 349.767 86.9844 349.001 86.5135C348.5 86.2029 348.029 86.0175 347.598 85.9574C347.162 85.8973 346.756 85.9223 346.376 86.0426C345.995 86.1628 345.649 86.3682 345.333 86.6638C345.018 86.9594 344.737 87.3101 344.482 87.7209C344.236 88.1216 344.056 88.5274 343.946 88.9382C343.836 89.349 343.81 89.7598 343.876 90.1706C343.941 90.5814 344.106 90.9672 344.372 91.3379C344.642 91.7086 345.033 92.0493 345.544 92.3649C345.864 92.5603 346.19 92.7256 346.526 92.8609C346.861 92.9961 347.182 93.0713 347.493 93.0913C347.803 93.1114 348.094 93.0613 348.364 92.941C348.635 92.8208 348.865 92.6054 349.061 92.2847L346.15 90.4963L347.047 89.0384L351.861 91.9942L351 93.3969C350.729 93.8428 350.383 94.2035 349.973 94.474C349.562 94.7496 349.086 94.9149 348.55 94.97C348.014 95.0251 347.418 94.965 346.766 94.7846C346.115 94.6043 345.409 94.2836 344.657 93.8177C343.926 93.3669 343.345 92.911 342.919 92.4451C342.488 91.9792 342.172 91.5132 341.972 91.0473C341.766 90.5864 341.656 90.1306 341.641 89.6847C341.621 89.2388 341.656 88.823 341.736 88.4322C341.817 88.0415 341.937 87.6858 342.087 87.3602C342.237 87.0345 342.383 86.759 342.523 86.5335C342.733 86.1929 343.034 85.8021 343.42 85.3613C343.805 84.9204 344.301 84.5697 344.908 84.3042C345.509 84.0387 346.225 83.9335 347.047 83.9886C347.868 84.0437 348.82 84.3994 349.902 85.0456C350.679 85.5216 351.28 86.0175 351.706 86.5285C352.132 87.0395 352.427 87.5505 352.598 88.0565C352.768 88.5625 352.833 89.0434 352.793 89.5093C352.753 89.9702 352.658 90.3911 352.502 90.7718L350.453 89.6546L350.438 89.6646Z" fill="black"/>
<path d="M353.269 93.2267C353.424 93.0113 353.625 92.7658 353.86 92.5003C354.095 92.2348 354.376 91.9793 354.707 91.7488C355.032 91.5134 355.403 91.318 355.809 91.1577C356.215 90.9974 356.67 90.9222 357.166 90.9272C357.667 90.9373 358.208 91.0425 358.8 91.2429C359.391 91.4483 360.027 91.7989 360.708 92.2949C361.38 92.7808 361.911 93.2768 362.296 93.7728C362.682 94.2687 362.963 94.7497 363.133 95.2256C363.303 95.6965 363.379 96.1574 363.364 96.5983C363.348 97.0392 363.288 97.455 363.178 97.8457C363.068 98.2365 362.928 98.5872 362.742 98.9078C362.557 99.2284 362.382 99.504 362.216 99.7344C362.061 99.9498 361.861 100.195 361.625 100.461C361.39 100.726 361.109 100.977 360.783 101.207C360.458 101.438 360.097 101.628 359.686 101.778C359.276 101.929 358.825 101.999 358.324 101.994C357.823 101.989 357.272 101.879 356.675 101.663C356.074 101.453 355.433 101.097 354.752 100.601C354.07 100.105 353.534 99.6041 353.149 99.0982C352.763 98.5922 352.487 98.1062 352.327 97.6303C352.167 97.1544 352.092 96.7035 352.112 96.2676C352.132 95.8318 352.197 95.426 352.312 95.0503C352.427 94.6745 352.578 94.3289 352.763 94.0233C352.948 93.7177 353.114 93.4522 353.274 93.2367L353.269 93.2267ZM359.701 93.6776C359.225 93.3319 358.77 93.1115 358.344 93.0163C357.918 92.9211 357.507 92.9211 357.121 93.0213C356.736 93.1215 356.375 93.3069 356.044 93.5824C355.714 93.8529 355.408 94.1886 355.122 94.5794C354.847 94.9601 354.637 95.3458 354.486 95.7466C354.336 96.1424 354.276 96.5382 354.301 96.9289C354.326 97.3197 354.451 97.7105 354.682 98.1012C354.912 98.492 355.273 98.8627 355.759 99.2184C356.245 99.5741 356.706 99.7995 357.141 99.8997C357.572 99.9999 357.983 99.9949 358.364 99.8947C358.745 99.7895 359.1 99.6092 359.436 99.3436C359.772 99.0781 360.072 98.7575 360.348 98.3768C360.633 97.986 360.854 97.5902 361.009 97.1945C361.164 96.7937 361.234 96.3979 361.209 95.9971C361.184 95.5963 361.054 95.2056 360.814 94.8148C360.573 94.4241 360.207 94.0483 359.706 93.6876L359.701 93.6776Z" fill="black"/>
<path d="M363.649 100.862C363.824 100.656 364.04 100.431 364.295 100.185C364.551 99.9347 364.851 99.7093 365.197 99.4989C365.543 99.2885 365.924 99.1232 366.339 98.9929C366.755 98.8627 367.216 98.8226 367.712 98.8677C368.208 98.9128 368.744 99.063 369.315 99.3135C369.886 99.564 370.492 99.9598 371.134 100.511C371.765 101.052 372.256 101.583 372.602 102.104C372.947 102.63 373.188 103.131 373.318 103.617C373.453 104.103 373.493 104.564 373.443 105.005C373.393 105.445 373.298 105.856 373.163 106.232C373.027 106.608 372.852 106.948 372.647 107.259C372.436 107.565 372.241 107.825 372.06 108.041C371.885 108.246 371.67 108.471 371.414 108.717C371.159 108.967 370.858 109.193 370.517 109.393C370.177 109.594 369.796 109.759 369.38 109.874C368.959 109.994 368.504 110.029 368.008 109.984C367.512 109.939 366.971 109.784 366.389 109.528C365.808 109.268 365.197 108.867 364.556 108.321C363.915 107.775 363.419 107.234 363.073 106.698C362.727 106.162 362.492 105.656 362.367 105.17C362.241 104.684 362.206 104.228 362.256 103.797C362.306 103.366 362.407 102.966 362.552 102.595C362.697 102.224 362.873 101.899 363.078 101.603C363.283 101.312 363.474 101.062 363.649 100.862ZM370.026 101.808C369.581 101.428 369.145 101.172 368.724 101.042C368.303 100.912 367.897 100.882 367.507 100.952C367.111 101.022 366.74 101.177 366.389 101.423C366.039 101.668 365.708 101.974 365.392 102.344C365.087 102.7 364.846 103.071 364.666 103.457C364.486 103.842 364.396 104.228 364.385 104.619C364.375 105.01 364.476 105.41 364.671 105.816C364.871 106.222 365.197 106.623 365.658 107.014C366.119 107.404 366.56 107.665 366.981 107.8C367.401 107.93 367.812 107.96 368.198 107.89C368.589 107.815 368.954 107.66 369.31 107.424C369.661 107.189 369.991 106.888 370.292 106.533C370.608 106.167 370.858 105.791 371.043 105.405C371.234 105.02 371.329 104.629 371.334 104.228C371.339 103.827 371.239 103.427 371.033 103.021C370.823 102.615 370.487 102.209 370.017 101.808H370.026Z" fill="black"/>
<path d="M377.461 106.202L381.008 109.734C381.589 110.31 382.025 110.866 382.32 111.392C382.616 111.923 382.806 112.429 382.891 112.91C382.977 113.391 382.982 113.842 382.907 114.263C382.831 114.678 382.706 115.064 382.531 115.42C382.355 115.776 382.16 116.091 381.935 116.372C381.714 116.652 381.509 116.898 381.318 117.103C381.128 117.294 380.898 117.499 380.632 117.724C380.362 117.95 380.051 118.145 379.695 118.321C379.34 118.496 378.949 118.626 378.523 118.716C378.097 118.801 377.636 118.801 377.145 118.716C376.654 118.631 376.128 118.441 375.582 118.135C375.031 117.835 374.46 117.384 373.859 116.788L370.372 113.311L377.466 106.192L377.461 106.202ZM379.68 115.48C380.011 115.129 380.276 114.769 380.482 114.403C380.682 114.037 380.797 113.666 380.827 113.286C380.858 112.905 380.782 112.509 380.607 112.098C380.432 111.688 380.126 111.262 379.69 110.826L377.897 109.037L373.213 113.737L375.066 115.58C375.482 115.996 375.898 116.287 376.314 116.452C376.724 116.617 377.13 116.682 377.521 116.647C377.912 116.612 378.293 116.492 378.653 116.282C379.014 116.071 379.36 115.801 379.69 115.47L379.68 115.48Z" fill="black"/>
<path d="M427.022 131.516L431.897 140.329L430.294 141.215L426.587 134.512L423.721 136.1L426.942 141.922L425.359 142.798L422.138 136.977L419.217 138.59L422.974 145.378L421.391 146.255L416.467 137.353L427.022 131.516Z" fill="black"/>
<path d="M430.394 149.256L434.387 150.253L435.579 152.803L429.532 151.21L426.642 157.417L425.449 154.867L427.443 150.629L422.924 149.456L421.742 146.926L428.34 148.66L430.99 142.984L432.183 145.534L430.394 149.256Z" fill="black"/>
<path d="M434.021 166.955C433.635 167.035 433.215 167.05 432.759 167.005C432.303 166.96 431.842 166.81 431.376 166.56C430.91 166.309 430.464 165.928 430.028 165.422C429.592 164.916 429.217 164.25 428.896 163.423C428.575 162.627 428.385 161.915 428.325 161.284C428.265 160.653 428.295 160.092 428.415 159.601C428.535 159.11 428.716 158.684 428.966 158.318C429.212 157.958 429.487 157.647 429.788 157.387C430.088 157.126 430.399 156.911 430.715 156.745C431.03 156.58 431.316 156.45 431.566 156.35C431.942 156.204 432.413 156.074 432.989 155.959C433.56 155.844 434.171 155.864 434.813 156.019C435.454 156.174 436.085 156.52 436.706 157.061C437.328 157.602 437.869 158.459 438.339 159.631C438.675 160.493 438.85 161.259 438.876 161.926C438.896 162.592 438.82 163.178 438.64 163.679C438.46 164.18 438.214 164.606 437.894 164.951C437.573 165.297 437.242 165.573 436.892 165.783L435.925 163.679C436.491 163.358 436.852 162.922 437.012 162.361C437.172 161.805 437.082 161.099 436.751 160.252C436.536 159.701 436.275 159.27 435.97 158.96C435.659 158.649 435.319 158.424 434.943 158.288C434.567 158.153 434.166 158.108 433.736 158.153C433.305 158.198 432.869 158.308 432.418 158.479C431.982 158.649 431.596 158.865 431.261 159.135C430.925 159.406 430.665 159.711 430.479 160.062C430.294 160.413 430.194 160.818 430.184 161.274C430.174 161.73 430.279 162.241 430.494 162.802C430.785 163.554 431.181 164.075 431.677 164.37C432.172 164.666 432.709 164.781 433.29 164.716L434.026 166.95L434.021 166.955Z" fill="black"/>
<path d="M441.11 167.271L443.785 175.742L442.137 176.264L440.158 169.996L437.839 170.728L439.557 176.173L437.929 176.689L436.21 171.244L433.851 171.99L435.855 178.338L434.227 178.854L431.526 170.302L441.11 167.271Z" fill="black"/>
<path d="M444.481 178.343L445.042 180.587L436.952 182.616L438.545 188.973L436.887 189.389L434.732 180.787L444.481 178.343Z" fill="black"/>
<path d="M447.112 189.304L447.538 191.578L439.337 193.121L440.549 199.564L438.871 199.88L437.232 191.168L447.112 189.309V189.304Z" fill="black"/>
<path d="M449.086 200.406L450.198 209.223L448.484 209.438L447.658 202.916L445.243 203.221L445.96 208.887L444.266 209.103L443.55 203.437L441.095 203.747L441.932 210.35L440.238 210.566L439.116 201.668L449.091 200.411L449.086 200.406Z" fill="black"/>
<path d="M446.621 214.899L447.177 214.463L440.554 214.854L440.419 212.544L450.454 211.953L450.604 214.543L444.878 219.533L444.186 220.119L450.909 219.723L451.045 222.033L441.01 222.624L440.855 220.014L446.616 214.904L446.621 214.899Z" fill="black"/>
<path d="M451.07 224.593L451.08 234.662H449.372V230.785H441.03V228.5H449.372V224.593H451.08H451.07Z" fill="black"/>
<path d="M256.505 280.041C279.013 280.041 297.26 261.794 297.26 239.286C297.26 216.778 279.013 198.532 256.505 198.532C233.997 198.532 215.751 216.778 215.751 239.286C215.751 261.794 233.997 280.041 256.505 280.041Z" fill="#A889EA" stroke="black" stroke-width="1.37" stroke-linecap="round" stroke-linejoin="round"/>
<path d="M256.505 264.305C270.323 264.305 281.524 253.104 281.524 239.286C281.524 225.469 270.323 214.268 256.505 214.268C242.688 214.268 231.486 225.469 231.486 239.286C231.486 253.104 242.688 264.305 256.505 264.305Z" fill="#E1D7F6" stroke="black" stroke-width="1.37" stroke-linecap="round" stroke-linejoin="round"/>
<path d="M279.811 217.499L263.774 243.064C261.766 245.869 257.863 246.51 255.062 244.501C252.157 242.427 251.586 238.299 253.82 235.519L268.889 216.687C272.366 218.245 277.401 214.618 279.806 217.504L279.811 217.499Z" fill="black" stroke="black" stroke-width="1.37" stroke-linecap="round" stroke-linejoin="round"/>
<path d="M359.27 106.718L275.532 223.461L261.475 243.059C259.466 245.864 255.563 246.505 252.763 244.497C249.857 242.423 249.286 238.294 251.52 235.514L266.59 216.682L356.355 104.519C356.986 103.732 358.133 103.607 358.93 104.233C359.686 104.849 359.831 105.946 359.27 106.728V106.718Z" fill="white" stroke="black" stroke-width="1.37" stroke-linecap="round" stroke-linejoin="round"/>
<path d="M448.194 293.202C448.033 293.387 447.878 293.567 447.713 293.748C447.537 293.938 447.357 294.128 447.172 294.314C447.111 294.379 447.051 294.444 446.986 294.509C446.911 294.584 446.836 294.649 446.761 294.725C446.575 294.905 446.395 295.085 446.205 295.256C445.894 295.541 445.578 295.822 445.248 296.097C445.248 296.097 445.248 296.092 445.243 296.097C444.792 296.473 444.326 296.834 443.845 297.169C441.881 298.567 439.707 299.679 437.377 300.451C434.953 301.257 432.358 301.688 429.662 301.688H395.02L389.364 307.349C387.776 308.937 385.206 308.937 383.618 307.349L377.962 301.693L340.624 301.688C339.567 301.688 338.525 301.618 337.503 301.493C337.297 301.468 337.097 301.443 336.892 301.408C335.469 301.192 334.096 300.847 332.764 300.406C332.573 300.341 332.383 300.275 332.197 300.205C331.822 300.07 331.451 299.92 331.085 299.764C327.789 298.372 324.858 296.278 322.484 293.662C322.223 293.372 321.962 293.076 321.712 292.771C321.341 292.32 320.981 291.854 320.64 291.368C320.409 291.047 320.189 290.722 319.979 290.391C319.663 289.895 319.362 289.389 319.077 288.863C318.886 288.522 318.711 288.167 318.536 287.806C318.36 287.45 318.2 287.085 318.045 286.724C316.807 283.793 316.121 280.572 316.121 277.19C316.121 276.98 316.121 276.77 316.126 276.559C316.151 275.738 316.211 274.921 316.316 274.114C317.829 262.041 328.129 252.693 340.619 252.693H429.657C436.421 252.693 442.548 255.433 446.981 259.867C450.728 263.614 453.253 268.564 453.95 274.089C453.95 274.084 453.95 274.079 453.95 274.069C453.98 274.325 454.005 274.585 454.035 274.841C454.06 275.096 454.075 275.362 454.09 275.617C454.13 276.138 454.145 276.659 454.145 277.19C454.145 280.357 453.544 283.392 452.447 286.173C452.271 286.619 452.081 287.055 451.881 287.485C451.816 287.631 451.74 287.771 451.67 287.916C451.53 288.202 451.385 288.487 451.234 288.768C451.149 288.928 451.059 289.084 450.974 289.244C450.824 289.509 450.668 289.775 450.508 290.03C450.418 290.181 450.328 290.331 450.233 290.476C450.042 290.767 449.847 291.057 449.641 291.338C449.566 291.443 449.501 291.548 449.426 291.649C449.16 292.009 448.885 292.365 448.599 292.711C448.464 292.876 448.319 293.036 448.184 293.197L448.194 293.202Z" fill="white" stroke="black" stroke-width="1.67" stroke-linecap="round" stroke-linejoin="round"/>
<g style="mix-blend-mode:multiply" opacity="0.3">
<path d="M454.161 277.19C454.161 280.361 453.56 283.392 452.468 286.173C451.225 289.329 449.347 292.159 446.992 294.509C446.441 295.06 445.86 295.586 445.259 296.097C445.259 296.097 445.259 296.092 445.254 296.097C444.803 296.468 444.337 296.829 443.856 297.169C441.892 298.567 439.718 299.679 437.388 300.451C434.964 301.257 432.369 301.688 429.673 301.688H395.031L389.375 307.349C387.787 308.937 385.217 308.937 383.629 307.349L377.972 301.693L340.635 301.688C339.578 301.688 338.536 301.618 337.514 301.493C337.308 301.468 337.108 301.443 336.902 301.408C335.48 301.192 334.107 300.856 332.774 300.406C332.584 300.34 332.394 300.275 332.208 300.205C331.833 300.07 331.462 299.92 331.096 299.764C327.8 298.372 324.869 296.278 322.494 293.662C322.234 293.372 321.973 293.076 321.723 292.771C321.347 292.32 320.986 291.854 320.651 291.368C320.42 291.047 320.2 290.722 319.989 290.391C319.669 289.895 319.368 289.389 319.088 288.863C318.897 288.522 318.722 288.167 318.547 287.806C318.371 287.45 318.211 287.085 318.056 286.724C316.813 283.793 316.127 280.572 316.127 277.19C316.127 276.98 316.127 276.769 316.137 276.559C316.152 275.722 316.217 274.886 316.317 274.069C316.317 274.084 316.322 274.099 316.322 274.114C317.89 286.138 328.175 295.426 340.625 295.426H429.658C436.421 295.426 442.553 292.686 446.982 288.247C450.719 284.51 453.254 279.58 453.961 274.064C453.991 274.32 454.016 274.58 454.046 274.836C454.071 275.091 454.086 275.357 454.101 275.612C454.136 276.133 454.151 276.654 454.151 277.185L454.161 277.19Z" fill="#7B2BE6"/>
</g>
<path d="M389.25 287.15C388.769 287.631 388.193 288.036 387.531 288.362C386.865 288.688 386.149 288.943 385.377 289.124C384.606 289.304 383.814 289.429 383.007 289.504C382.201 289.574 381.434 289.615 380.708 289.615C379.982 289.615 379.18 289.579 378.373 289.504C377.567 289.429 376.78 289.304 376.019 289.124C375.257 288.943 374.541 288.688 373.865 288.362C373.188 288.036 372.622 287.631 372.161 287.15C371.535 286.524 371.099 285.842 370.859 285.106C370.618 284.369 370.498 283.618 370.498 282.841C370.498 282.24 370.588 281.679 370.769 281.158C370.949 280.637 371.199 280.176 371.51 279.765C371.826 279.355 372.176 278.999 372.562 278.698C372.948 278.398 373.359 278.137 373.794 277.922C373.213 277.461 372.682 276.855 372.201 276.093C371.72 275.332 371.475 274.395 371.475 273.288C371.475 272.516 371.65 271.795 372.001 271.134C372.352 270.472 372.838 269.886 373.469 269.38C374.24 268.779 375.187 268.318 376.309 268.002C377.432 267.687 378.899 267.531 380.708 267.531C382.516 267.531 383.984 267.687 385.107 268.002C386.229 268.318 387.176 268.774 387.947 269.38C388.573 269.886 389.064 270.472 389.415 271.134C389.766 271.8 389.941 272.516 389.941 273.288C389.941 274.4 389.706 275.332 389.235 276.093C388.764 276.855 388.228 277.466 387.621 277.922C388.488 278.333 389.255 278.949 389.921 279.77C390.587 280.592 390.918 281.619 390.918 282.846C390.918 283.618 390.798 284.374 390.557 285.111C390.317 285.847 389.881 286.529 389.255 287.155L389.25 287.15ZM380.703 286.353C381.525 286.353 382.286 286.303 382.982 286.208C383.684 286.113 384.29 285.942 384.811 285.702C385.332 285.461 385.743 285.136 386.043 284.725C386.344 284.314 386.494 283.798 386.494 283.167C386.494 282.491 386.324 281.94 385.988 281.519C385.653 281.098 385.212 280.762 384.666 280.522C384.125 280.281 383.508 280.116 382.817 280.031C382.131 279.946 381.424 279.906 380.698 279.906C379.972 279.906 379.26 279.946 378.564 280.031C377.862 280.116 377.241 280.281 376.7 280.522C376.154 280.762 375.723 281.093 375.398 281.519C375.072 281.945 374.907 282.491 374.907 283.167C374.907 283.793 375.057 284.314 375.358 284.725C375.658 285.136 376.069 285.461 376.59 285.702C377.111 285.942 377.717 286.113 378.418 286.208C379.12 286.303 379.881 286.353 380.698 286.353H380.703ZM375.848 273.353C375.848 273.979 376.014 274.495 376.339 274.891C376.665 275.292 377.071 275.597 377.552 275.813C378.033 276.028 378.559 276.173 379.13 276.248C379.696 276.324 380.222 276.359 380.703 276.359C381.184 276.359 381.71 276.324 382.276 276.248C382.842 276.173 383.368 276.033 383.854 275.813C384.335 275.597 384.741 275.287 385.066 274.891C385.392 274.495 385.557 273.979 385.557 273.353C385.557 272.797 385.392 272.351 385.066 272.015C384.741 271.68 384.335 271.419 383.854 271.239C383.373 271.058 382.847 270.938 382.276 270.878C381.71 270.818 381.184 270.788 380.703 270.788C380.222 270.788 379.696 270.823 379.13 270.898C378.564 270.973 378.038 271.098 377.552 271.279C377.071 271.459 376.665 271.715 376.339 272.04C376.014 272.366 375.848 272.807 375.848 273.363V273.353Z" fill="black"/>
<path d="M397.871 282.475C397.896 283.563 398.247 284.444 398.923 285.121C399.745 285.942 400.927 286.353 402.47 286.353C403.051 286.353 403.597 286.273 404.118 286.118C404.639 285.962 405.1 285.707 405.511 285.356C405.922 285.005 406.247 284.57 406.488 284.054C406.728 283.538 406.849 282.911 406.849 282.19C406.849 280.812 406.453 279.78 405.651 279.094C404.855 278.408 403.717 278.062 402.245 278.062C401.398 278.062 400.621 278.152 399.91 278.332C399.199 278.513 398.648 278.773 398.262 279.109L394.349 277.661L395.907 267.702H409.634V270.963H399.64L399.058 274.51L398.878 275.487C399.214 275.291 399.715 275.131 400.381 274.996C401.047 274.866 401.689 274.796 402.32 274.796C403.552 274.796 404.709 274.921 405.797 275.176C406.884 275.432 407.831 275.848 408.637 276.424C409.444 277.005 410.08 277.761 410.536 278.703C410.997 279.645 411.222 280.802 411.222 282.18C411.222 283.482 410.972 284.6 410.481 285.531C409.985 286.463 409.338 287.23 408.542 287.831C407.745 288.437 406.844 288.883 405.847 289.169C404.845 289.459 403.848 289.604 402.861 289.604C402.21 289.604 401.533 289.569 400.832 289.494C400.131 289.419 399.444 289.284 398.768 289.078C398.092 288.873 397.44 288.602 396.814 288.262C396.188 287.921 395.617 287.475 395.111 286.924C394.675 286.463 394.309 285.862 394.004 285.116C393.698 284.369 393.528 283.558 393.478 282.691L397.861 282.475H397.871Z" fill="black"/>
<path d="M419.924 279.76C418.812 279.76 417.87 279.495 417.099 278.964C416.327 278.433 415.741 277.701 415.34 276.775C414.94 275.848 414.744 274.776 414.744 273.568C414.744 272.361 414.945 271.294 415.34 270.362C415.736 269.435 416.322 268.704 417.099 268.173C417.87 267.642 418.812 267.376 419.924 267.376C421.036 267.376 421.933 267.642 422.695 268.173C423.456 268.704 424.042 269.435 424.453 270.362C424.864 271.294 425.069 272.361 425.069 273.568C425.069 274.776 424.869 275.883 424.473 276.81C424.072 277.741 423.496 278.463 422.735 278.984C421.973 279.505 421.036 279.76 419.929 279.76H419.924ZM436.146 267.376L421.046 289.504L417.68 289.429L432.744 267.376H436.151H436.146ZM417.75 273.568C417.75 274.751 417.935 275.672 418.311 276.339C418.687 277.005 419.223 277.336 419.924 277.336C420.626 277.336 421.157 277.005 421.517 276.339C421.878 275.672 422.058 274.751 422.058 273.568C422.058 272.386 421.878 271.409 421.517 270.778C421.157 270.152 420.626 269.836 419.924 269.836C419.223 269.836 418.687 270.142 418.311 270.758C417.935 271.374 417.75 272.311 417.75 273.563V273.568ZM433.501 290.01C432.389 290.01 431.457 289.75 430.695 289.234C429.934 288.713 429.363 287.991 428.977 287.06C428.591 286.133 428.396 285.051 428.396 283.818C428.396 282.586 428.591 281.514 428.977 280.597C429.363 279.68 429.939 278.964 430.695 278.443C431.457 277.927 432.389 277.666 433.501 277.666C434.613 277.666 435.545 277.927 436.306 278.443C437.068 278.964 437.654 279.68 438.06 280.597C438.465 281.514 438.676 282.591 438.676 283.818C438.676 285.046 438.475 286.098 438.08 287.04C437.684 287.981 437.098 288.713 436.321 289.229C435.545 289.745 434.608 290.005 433.496 290.005L433.501 290.01ZM431.326 283.853C431.326 285.011 431.512 285.932 431.888 286.604C432.263 287.28 432.799 287.616 433.501 287.616C434.202 287.616 434.738 287.28 435.114 286.604C435.49 285.927 435.675 285.011 435.675 283.853C435.675 282.596 435.49 281.659 435.114 281.028C434.738 280.402 434.202 280.086 433.501 280.086C432.799 280.086 432.263 280.387 431.888 280.993C431.512 281.594 431.326 282.551 431.326 283.853Z" fill="black"/>
<path d="M343.129 296.443C353.762 296.443 362.382 287.823 362.382 277.19C362.382 266.557 353.762 257.938 343.129 257.938C332.497 257.938 323.877 266.557 323.877 277.19C323.877 287.823 332.497 296.443 343.129 296.443Z" fill="#E1D7F6" stroke="black" stroke-width="1.67" stroke-linecap="round" stroke-linejoin="round"/>
<path d="M354.376 277.19C354.767 277.19 355.093 277.516 355.073 277.907C354.887 281.003 353.53 283.783 351.425 285.802C349.276 287.876 346.356 289.148 343.124 289.148C339.893 289.148 336.982 287.876 334.828 285.802C332.729 283.778 331.366 280.998 331.181 277.907C331.156 277.516 331.487 277.19 331.877 277.19H354.371H354.376Z" fill="white" stroke="black" stroke-width="1.67" stroke-linecap="round" stroke-linejoin="round"/>
<path d="M337.839 273.132C339.228 273.132 340.354 272.006 340.354 270.617C340.354 269.229 339.228 268.103 337.839 268.103C336.45 268.103 335.324 269.229 335.324 270.617C335.324 272.006 336.45 273.132 337.839 273.132Z" fill="black"/>
<path d="M348.414 273.132C349.803 273.132 350.929 272.006 350.929 270.617C350.929 269.229 349.803 268.103 348.414 268.103C347.025 268.103 345.899 269.229 345.899 270.617C345.899 272.006 347.025 273.132 348.414 273.132Z" fill="black"/>
<path d="M351.425 285.802C349.276 287.876 346.356 289.148 343.124 289.148C339.893 289.148 336.982 287.876 334.828 285.802C336.151 282.516 339.367 280.206 343.124 280.206C346.882 280.206 350.098 282.516 351.425 285.802Z" fill="#C5B0F1" stroke="black" stroke-width="1.67" stroke-linecap="round" stroke-linejoin="round"/>
<path d="M226.582 271.103V399.945C204.229 409.248 191.334 400.896 191.334 400.896L187.065 271.439C187.236 262.256 189.139 255.087 190.442 251.215H222.039C223.872 255.212 226.592 262.592 226.592 271.103H226.582Z" fill="white" stroke="black" stroke-width="1.5" stroke-linecap="round" stroke-linejoin="round"/>
<path d="M254.326 392.996C238.6 402.154 221.537 412.494 208.301 420.61C207.755 420.274 207.194 419.929 206.628 419.583C201.989 416.742 196.924 413.656 191.644 410.47C182.346 404.844 172.386 398.893 162.883 393.347C170.042 395.486 181.434 398.747 191.323 400.901C197.3 402.199 202.725 403.096 206.338 403.096C210.771 403.096 218.401 401.743 226.577 399.95C236.677 397.73 247.593 394.845 254.321 392.996H254.326Z" fill="#7B2BE6" stroke="black" stroke-width="1.64" stroke-linecap="round" stroke-linejoin="round"/>
<path d="M314.989 420.38C311.207 423.796 286.789 434.021 261.46 444.081C260.979 444.271 260.498 444.466 260.017 444.657C257.156 445.789 254.286 446.916 251.435 448.043C242.312 451.62 233.41 455.062 225.665 458.028C224.533 458.469 223.435 458.89 222.358 459.295C219.828 460.262 217.444 461.174 215.255 462.006C212.579 463.023 210.185 463.929 208.146 464.701C203.657 466.399 200.877 467.436 200.511 467.572C202.064 466.57 201.803 462.241 200.125 456.695C199.434 454.406 198.497 451.901 197.335 449.341C197.249 449.136 197.154 448.925 197.059 448.72C192.911 439.747 187.611 433.605 185.286 434.838C186.128 434.307 195.396 428.51 208.306 420.6C221.537 412.484 238.6 402.149 254.331 392.986C267.035 385.597 278.864 378.964 287.105 374.901C292.44 372.266 296.262 370.713 297.846 370.723C299.98 370.733 302.309 371.274 304.664 372.256C310.28 374.595 316.096 379.425 320.009 385.542C326.376 395.501 327.714 408.862 314.994 420.369L314.989 420.38Z" fill="#7B2BE6" stroke="black" stroke-width="1.64" stroke-linecap="round" stroke-linejoin="round"/>
<path d="M208.217 415.791L208.066 404.083" stroke="black" stroke-width="1.5" stroke-linecap="round" stroke-linejoin="round"/>
<path d="M200.511 467.576C200.511 467.576 200.491 467.581 200.486 467.586C200.481 467.586 200.481 467.591 200.476 467.591C198.793 468.608 195.501 465.512 192.21 460.202C195.461 458.759 198.297 457.507 200.125 456.7C201.804 462.246 202.064 466.569 200.511 467.576Z" fill="black" stroke="black" stroke-width="1.64" stroke-linecap="round" stroke-linejoin="round"/>
<path d="M200.126 456.7C198.297 457.507 195.467 458.759 192.21 460.202C183.433 464.08 171.61 469.315 168.219 470.818C165.223 469.405 163.184 466.855 162.102 463.894C160.894 460.603 160.854 456.805 161.981 453.519C163.489 448.073 168.7 444.737 173.359 442.117C173.484 442.052 173.609 441.976 173.729 441.911L185.222 434.883C185.222 434.883 185.242 434.873 185.252 434.863C185.262 434.853 185.272 434.853 185.282 434.843C187.601 433.61 192.902 439.752 197.055 448.725C197.15 448.93 197.245 449.14 197.33 449.346C198.493 451.906 199.429 454.411 200.121 456.7H200.126Z" fill="#D38A66" stroke="black" stroke-width="1.5" stroke-linecap="round" stroke-linejoin="round"/>
<path d="M158.564 443.62C157.758 444.04 156.846 444.516 155.839 445.057H155.834C146.055 450.278 127.714 460.748 117.444 471.023C117.259 471.203 117.078 471.384 116.903 471.569C116.788 471.689 116.668 471.81 116.552 471.93C116.492 471.99 116.432 472.05 116.372 472.115C116.091 472.421 115.821 472.741 115.57 473.072C115.32 473.408 115.089 473.758 114.884 474.119C114.463 474.84 114.123 475.607 113.852 476.399C113.712 476.794 113.602 477.2 113.496 477.606C113.496 477.606 113.491 477.611 113.491 477.616C113.436 477.846 113.381 478.072 113.341 478.307C113.291 478.543 113.251 478.778 113.221 479.009C113.166 479.364 113.126 479.725 113.101 480.086C113.101 480.116 113.096 480.146 113.096 480.181C113.091 480.296 113.086 480.416 113.076 480.532C113.025 481.253 113.045 481.974 113.101 482.686C113.106 482.751 113.111 482.816 113.126 482.876C113.146 483.127 113.176 483.377 113.216 483.623C113.266 483.993 113.331 484.364 113.416 484.72C113.496 485.08 113.587 485.431 113.692 485.767C113.722 485.882 113.757 485.997 113.802 486.102C113.842 486.243 113.892 486.373 113.947 486.513C114.087 486.894 114.248 487.265 114.423 487.615C114.604 487.976 114.804 488.327 115.019 488.647C115.114 488.788 115.21 488.923 115.31 489.058C115.435 489.219 115.57 489.384 115.701 489.534C115.816 489.659 115.931 489.78 116.041 489.89C116.167 490.015 116.302 490.13 116.432 490.241C116.547 490.336 116.673 490.431 116.793 490.516C116.818 490.536 116.848 490.551 116.873 490.566C117.003 490.661 117.143 490.741 117.284 490.817C112.054 490.065 108.887 486.438 107.855 482.024C106.663 476.96 108.266 470.873 112.735 466.915C120.625 459.926 144.827 445.378 148.62 444.281C149.341 444.071 158.579 443.62 158.579 443.62H158.564Z" fill="white" stroke="black" stroke-width="1.5" stroke-linecap="round" stroke-linejoin="round"/>
<path d="M113.492 477.621C113.071 479.354 112.961 481.163 113.126 482.881C113.116 482.821 113.106 482.756 113.101 482.691C112.961 481.023 113.081 479.284 113.492 477.621Z" fill="white" stroke="black" stroke-width="1.5" stroke-linecap="round" stroke-linejoin="round"/>
<path d="M168.218 470.818C168.218 470.818 146.756 481.103 144.672 482.04C134.728 486.508 124.508 490.666 120.345 490.922C119.258 490.987 118.226 490.947 117.279 490.812C117.139 490.731 117.003 490.651 116.868 490.561C116.843 490.551 116.813 490.531 116.788 490.511C116.663 490.421 116.548 490.331 116.427 490.235C116.297 490.125 116.162 490.015 116.037 489.885C115.921 489.775 115.806 489.654 115.696 489.529C115.566 489.379 115.43 489.219 115.305 489.053C115.21 488.923 115.115 488.783 115.015 488.642C114.799 488.317 114.599 487.971 114.418 487.61C114.243 487.26 114.083 486.889 113.943 486.508C113.887 486.368 113.842 486.238 113.797 486.097C113.757 485.987 113.717 485.877 113.687 485.762C113.577 485.426 113.487 485.075 113.411 484.715C113.331 484.354 113.266 483.993 113.211 483.618C113.176 483.372 113.146 483.127 113.121 482.871C113.071 482.365 113.051 481.854 113.051 481.338C113.051 481.148 113.056 480.952 113.061 480.762C113.061 480.682 113.066 480.607 113.071 480.527C113.076 480.411 113.081 480.291 113.091 480.176C113.091 480.141 113.096 480.111 113.096 480.081C113.106 479.91 113.126 479.75 113.146 479.59C113.166 479.399 113.186 479.199 113.216 479.009C113.246 478.823 113.276 478.643 113.311 478.458C113.316 478.407 113.331 478.362 113.336 478.307C113.346 478.252 113.361 478.207 113.371 478.152C113.406 477.972 113.442 477.791 113.487 477.616C113.487 477.611 113.492 477.606 113.492 477.606C113.592 477.195 113.707 476.794 113.847 476.399C114.118 475.607 114.459 474.84 114.879 474.119C115.09 473.758 115.32 473.408 115.566 473.072C115.816 472.741 116.082 472.421 116.372 472.115C116.427 472.055 116.487 471.99 116.548 471.93C116.663 471.81 116.783 471.689 116.898 471.569C117.074 471.384 117.254 471.203 117.439 471.023C127.714 460.748 146.05 450.278 155.829 445.057H155.834C156.836 444.516 157.753 444.04 158.559 443.62H158.565C163.359 443.008 169.852 442.417 173.353 442.117C168.694 444.737 163.484 448.078 161.976 453.519C160.849 456.805 160.889 460.603 162.096 463.894C163.178 466.855 165.217 469.405 168.213 470.818H168.218Z" fill="#00E159" stroke="black" stroke-width="1.64" stroke-linecap="round" stroke-linejoin="round"/>
<path d="M150.734 460.748C150.734 460.748 155.469 465.512 156.766 474.34" stroke="black" stroke-width="1.5" stroke-linecap="round" stroke-linejoin="round"/>
<path d="M144.622 464.095C144.622 464.095 149.406 468.909 150.674 477.826" stroke="black" stroke-width="1.5" stroke-linecap="round" stroke-linejoin="round"/>
<path d="M138.516 467.436C138.516 467.436 143.295 472.25 144.562 481.158" stroke="black" stroke-width="1.5" stroke-linecap="round" stroke-linejoin="round"/>
<path d="M208.307 420.61C200.271 425.534 193.643 429.637 189.585 432.162C187.125 433.695 185.607 434.647 185.292 434.843C185.282 434.848 185.272 434.853 185.262 434.863C185.252 434.873 185.242 434.873 185.232 434.883L173.739 441.911C173.619 441.976 173.494 442.052 173.369 442.117C169.867 442.417 163.374 443.008 158.58 443.62H158.575L153.124 443.915C128.526 434.266 105.812 424.693 101.629 420.379C88.3178 406.643 91.4389 391.683 99.4194 381.819C103.588 376.664 109.078 372.902 114.243 371.419C115.796 370.973 117.324 370.733 118.772 370.728C119.889 370.723 122.129 371.499 125.23 372.882C133.396 376.529 147.533 384.394 162.873 393.337H162.878C162.878 393.337 162.883 393.342 162.888 393.342C172.392 398.887 182.351 404.839 191.649 410.465C196.93 413.651 201.994 416.737 206.633 419.578C207.2 419.928 207.756 420.269 208.307 420.605V420.61Z" fill="#7B2BE6" stroke="black" stroke-width="1.64" stroke-linecap="round" stroke-linejoin="round"/>
<path d="M248.389 470.818C244.998 469.315 233.165 464.08 224.392 460.202C223.691 459.891 223.01 459.591 222.354 459.3C223.431 458.889 224.533 458.469 225.66 458.033C233.405 455.067 242.307 451.625 251.43 448.048C252.893 449.606 254.035 451.405 254.626 453.524C256.751 459.761 254.722 467.832 248.389 470.823V470.818Z" fill="#D38A66" stroke="black" stroke-width="1.5" stroke-linecap="round" stroke-linejoin="round"/>
<path d="M299.334 490.817C299.996 490.451 300.592 489.935 301.108 489.299C301.178 489.218 301.238 489.138 301.298 489.058C301.363 488.973 301.423 488.888 301.484 488.798C301.544 488.713 301.604 488.627 301.659 488.537C301.839 488.267 302 487.986 302.145 487.685C302.185 487.605 302.23 487.535 302.26 487.455C302.47 487.029 302.651 486.573 302.806 486.102C302.846 485.992 302.886 485.882 302.916 485.767C302.986 485.536 303.057 485.306 303.107 485.07C303.227 484.599 303.322 484.119 303.387 483.628C303.442 483.322 303.477 483.006 303.502 482.691C303.538 482.24 303.558 481.784 303.543 481.323C303.543 481.203 303.543 481.083 303.538 480.967C303.543 480.847 303.538 480.732 303.533 480.612C303.528 480.562 303.528 480.512 303.528 480.461C303.523 480.336 303.507 480.211 303.497 480.081C303.487 479.875 303.467 479.67 303.442 479.469C303.172 477.18 302.395 474.921 301.033 473.077C300.787 472.741 300.517 472.421 300.226 472.115C289.951 461.234 269.917 449.902 260.013 444.657C260.494 444.466 260.975 444.271 261.456 444.081C261.456 444.081 267.362 442.798 268.264 443.064C272.061 444.161 295.983 459.921 303.878 466.91C312.25 474.314 310.561 489.198 299.329 490.812L299.334 490.817Z" fill="white" stroke="black" stroke-width="1.5" stroke-linecap="round" stroke-linejoin="round"/>
<path d="M303.552 481.323C303.552 482.105 303.502 482.876 303.396 483.628C303.326 484.119 303.226 484.6 303.116 485.071C303.061 485.306 302.996 485.542 302.926 485.767C302.896 485.882 302.86 485.997 302.815 486.103C302.66 486.574 302.48 487.029 302.269 487.455C302.239 487.535 302.199 487.606 302.154 487.686C302.009 487.986 301.848 488.267 301.668 488.537C301.613 488.628 301.553 488.713 301.493 488.798C301.433 488.888 301.373 488.973 301.307 489.058C301.247 489.139 301.182 489.219 301.117 489.299C300.601 489.93 300.005 490.446 299.344 490.817C298.392 490.947 297.365 490.992 296.278 490.927C295.246 490.862 293.828 490.556 292.14 490.06C287.04 488.582 279.415 485.401 271.95 482.045C269.861 481.108 248.404 470.823 248.404 470.823C254.737 467.832 256.766 459.761 254.641 453.524C254.05 451.405 252.908 449.606 251.445 448.048L251.681 447.958C254.451 446.861 257.247 445.764 260.027 444.662C269.931 449.907 289.965 461.239 300.24 472.12C300.531 472.426 300.791 472.747 301.047 473.082C302.415 474.931 303.186 477.185 303.457 479.475C303.482 479.68 303.497 479.886 303.512 480.086C303.532 480.261 303.542 480.442 303.547 480.617C303.552 480.737 303.557 480.852 303.552 480.973C303.557 481.088 303.557 481.208 303.557 481.328L303.552 481.323Z" fill="#00E159" stroke="black" stroke-width="1.64" stroke-linecap="round" stroke-linejoin="round"/>
<path d="M265.869 460.748C265.869 460.748 261.134 465.512 259.837 474.34" stroke="black" stroke-width="1.5" stroke-linecap="round" stroke-linejoin="round"/>
<path d="M271.981 464.095C271.981 464.095 267.196 468.909 265.929 477.826" stroke="black" stroke-width="1.5" stroke-linecap="round" stroke-linejoin="round"/>
<path d="M278.093 467.436C278.093 467.436 273.313 472.25 272.046 481.158" stroke="black" stroke-width="1.5" stroke-linecap="round" stroke-linejoin="round"/>
<path d="M188.258 307.605L189.365 333.906C188.984 333.886 185.522 333.941 185.287 333.911C183.153 333.665 179.596 339.437 177.993 341.971C176.395 344.511 168.459 351.355 168.459 351.355L147.082 347.628L148.5 324.232L134.783 345.483C134.783 345.483 135.034 334.407 122.825 331.636C118.862 330.735 115.18 330.669 111.829 331.15C106.583 331.902 102.15 334.001 98.7031 336.391C108.187 318.586 126.943 287.48 134.508 272.686C137.439 266.955 142.308 262.857 147.974 261.359L170.248 255.463L186.299 251.215H190.432C189.134 255.087 187.226 262.256 187.055 271.439L188.253 307.605H188.258Z" fill="#7B2BE6" stroke="black" stroke-width="1.64" stroke-linecap="round" stroke-linejoin="round"/>
<path d="M308.777 338.014C305.616 336.215 301.914 334.738 298.016 334.051C293.387 333.22 288.458 333.52 283.804 335.739C272.502 341.125 273.549 346.776 273.549 346.776L261.38 325.815L262.818 349.471L245.183 353.905C238.986 354.686 235.695 352.642 234.407 351.535C233.626 350.869 229.829 345.458 226.582 341.17V271.098C226.582 262.587 223.862 255.208 222.028 251.21H223.486L238.12 255.082L242.193 256.159L261.811 261.349C267.477 262.847 272.346 266.945 275.277 272.677C283.077 287.936 299.745 320.54 308.777 338.014Z" fill="#7B2BE6" stroke="black" stroke-width="1.64" stroke-linecap="round" stroke-linejoin="round"/>
<path d="M222.679 312.063L222.133 335.609L221.587 358.945C221.532 361.364 219.799 363.288 217.68 363.288H195.932C193.813 363.288 192.085 361.369 192.02 358.95L191.393 333.976L190.847 312.209C190.802 310.24 191.749 308.511 193.182 307.6C193.863 307.159 194.65 306.913 195.491 306.913H218.045C220.61 306.913 222.684 309.223 222.684 312.053L222.679 312.063Z" fill="#D3C4F4" stroke="black" stroke-width="1.5" stroke-linecap="round" stroke-linejoin="round"/>
<path d="M208.607 314.398V325.259C208.607 326.542 207.575 327.574 206.297 327.574H196.914C195.632 327.574 194.6 326.542 194.6 325.259V314.398C194.6 313.12 195.632 312.088 196.914 312.088H206.297C207.575 312.088 208.607 313.12 208.607 314.398Z" fill="black" stroke="black" stroke-width="1.5" stroke-linecap="round" stroke-linejoin="round"/>
<path d="M198.637 318.636C199.716 318.636 200.591 317.739 200.591 316.632C200.591 315.525 199.716 314.628 198.637 314.628C197.558 314.628 196.684 315.525 196.684 316.632C196.684 317.739 197.558 318.636 198.637 318.636Z" fill="white" stroke="black" stroke-width="1.5" stroke-linecap="round" stroke-linejoin="round"/>
<path d="M198.637 325.154C199.716 325.154 200.591 324.257 200.591 323.15C200.591 322.043 199.716 321.146 198.637 321.146C197.558 321.146 196.684 322.043 196.684 323.15C196.684 324.257 197.558 325.154 198.637 325.154Z" fill="white" stroke="black" stroke-width="1.5" stroke-linecap="round" stroke-linejoin="round"/>
<path d="M204.258 321.832C205.338 321.832 206.212 320.935 206.212 319.828C206.212 318.722 205.338 317.824 204.258 317.824C203.179 317.824 202.305 318.722 202.305 319.828C202.305 320.935 203.179 321.832 204.258 321.832Z" fill="white" stroke="black" stroke-width="1.5" stroke-linecap="round" stroke-linejoin="round"/>
<path d="M315.08 364.15C311.473 357.011 306.133 352.627 300.477 349.977C287.812 344.031 273.549 346.776 273.549 346.776C273.549 346.776 272.502 341.12 283.804 335.739C288.458 333.52 293.383 333.22 298.017 334.051C301.914 334.737 305.611 336.215 308.778 338.014C314.534 341.285 318.522 345.594 318.757 348.053C319.469 355.443 318.917 364.15 315.08 364.15Z" fill="#7B2BE6" stroke="black" stroke-width="1.64" stroke-linecap="round" stroke-linejoin="round"/>
<path d="M315.08 364.15C315.08 364.15 313.497 369.215 304.665 372.266C304.665 372.266 297.11 373.944 287.1 374.911C268.454 376.188 239.452 376.569 239.452 376.569C239.452 376.569 231.322 380.837 226.582 375.903C226.167 375.477 225.781 374.976 225.435 374.405C225.435 374.405 217.85 374.765 217.41 375.126C216.964 375.487 214.945 376.995 214.058 376.859C213.357 376.744 212.009 375.988 211.623 374.044C211.583 373.854 211.553 373.643 211.533 373.423C209.158 374.299 207.736 371.454 207.275 370.788C206.999 370.387 206.934 368.468 207.22 366.494C207.275 366.134 207.34 365.768 207.42 365.407C207.691 364.185 208.111 363.043 208.733 362.371C208.823 362.271 208.943 362.166 209.088 362.061C210.997 360.658 217.294 358.794 220.696 357.857C222.044 357.487 222.94 357.256 222.94 357.256C222.94 357.256 222.019 357.346 220.701 357.477C217.705 357.772 212.645 358.293 211.513 358.534C210.937 358.654 208.933 359.4 206.538 360.312C202.18 361.98 196.514 364.21 195.807 364.295C193.408 364.576 191.639 360.417 194.79 357.847C194.941 357.727 195.101 357.602 195.291 357.477C197.01 356.269 200.231 354.751 203.412 353.409H203.417C207.124 351.841 210.777 350.523 211.984 350.228C212.445 350.112 212.951 350.012 213.492 349.907C215 349.611 216.758 349.346 218.406 349.04C218.341 347.582 218.176 344.932 217.865 343.384C217.42 341.185 206.749 339.346 205.446 338.249C204.079 337.087 203.773 333.179 207.25 332.884C210.411 332.618 218.562 334.732 221.292 335.609C221.558 335.694 221.773 335.764 221.923 335.824C222.605 336.085 224.478 338.394 226.582 341.17C229.829 345.458 233.626 350.864 234.408 351.535C235.695 352.642 238.992 354.686 245.184 353.905L262.818 349.471L273.549 346.776C273.549 346.776 287.812 344.025 300.476 349.977C306.132 352.622 311.473 357.006 315.08 364.15Z" fill="#D38A66" stroke="black" stroke-width="1.5" stroke-linecap="round" stroke-linejoin="round"/>
<path d="M211.532 373.423C211.502 373.087 211.502 372.711 211.532 372.316C211.783 369.074 216.397 367.486 216.397 367.486L226.316 365.257" stroke="black" stroke-width="1.5" stroke-linecap="round" stroke-linejoin="round"/>
<path d="M220.941 348.499C220.165 348.7 219.298 348.87 218.401 349.04L220.941 348.499Z" fill="white"/>
<path d="M220.941 348.499C220.165 348.7 219.298 348.87 218.401 349.04" stroke="black" stroke-width="1.5" stroke-linecap="round" stroke-linejoin="round"/>
<path d="M209.684 337.538L209.944 334.126C209.944 334.126 206.878 333.565 206.182 334.903C205.486 336.24 206.247 337.142 206.247 337.142" stroke="black" stroke-width="1.5" stroke-linecap="round" stroke-linejoin="round"/>
<path d="M259.521 295.135L261.38 325.815V325.82" fill="white"/>
<path d="M259.521 295.135L261.38 325.815V325.82" stroke="black" stroke-width="1.5" stroke-linecap="round" stroke-linejoin="round"/>
<path d="M98.708 336.386C98.192 337.353 97.706 338.284 97.2451 339.171L98.708 336.386Z" fill="white"/>
<path d="M98.708 336.386C98.192 337.353 97.706 338.284 97.2451 339.171" stroke="black" stroke-width="1.5" stroke-linecap="round" stroke-linejoin="round"/>
<path d="M134.783 345.478C134.783 345.478 108.993 347.658 101.639 358.143C99.9404 360.553 99.229 363.403 100.015 366.77C93.3675 368.248 86.8899 352.828 90.7524 344.637C91.5891 342.863 94.3595 339.397 98.7079 336.386C102.155 333.996 106.588 331.897 111.834 331.146C115.185 330.665 118.862 330.73 122.83 331.631C135.039 334.397 134.788 345.478 134.788 345.478H134.783Z" fill="#7B2BE6" stroke="black" stroke-width="1.64" stroke-linecap="round" stroke-linejoin="round"/>
<path d="M150.208 296.167L148.5 324.232" stroke="black" stroke-width="1.5" stroke-linecap="round" stroke-linejoin="round"/>
<path d="M186.794 355.087C186.664 355.122 186.544 355.167 186.424 355.202C186.554 355.232 186.694 355.268 186.839 355.303C187.711 355.523 188.758 355.789 189.86 356.064C191.719 356.54 193.723 357.056 195.291 357.472C195.106 357.597 194.94 357.722 194.79 357.843C191.639 360.413 193.407 364.571 195.807 364.29C196.508 364.205 202.174 361.976 206.538 360.307C207.66 360.768 208.587 361.349 209.088 362.051C208.942 362.161 208.822 362.261 208.732 362.361C208.111 363.033 207.69 364.18 207.42 365.397C206.738 365.573 205.932 365.658 205.07 365.678C204.849 365.853 204.524 366.099 204.128 366.399H204.123C202.51 367.602 199.719 369.605 197.645 370.668C196.919 371.038 196.273 371.299 195.807 371.364C194.449 371.554 192.32 371.609 190.381 371.715C188.768 371.8 187.285 371.925 186.489 372.191C184.725 372.782 178.673 376.739 175.673 376.679C172.672 376.619 167.031 374.435 167.031 374.435C167.031 374.435 144.542 374.821 125.229 372.872C108.917 371.128 102.735 368.799 100.015 366.76C99.2286 363.398 99.945 360.548 101.638 358.133C108.993 347.643 134.783 345.468 134.783 345.468L147.082 347.618L168.459 351.345C168.459 351.345 176.394 344.502 177.992 341.962C179.6 339.432 183.152 333.655 185.286 333.901C185.522 333.931 185.837 333.951 186.218 333.966C189.299 334.106 196.513 333.936 197.385 333.896C198.367 333.841 203.868 334.828 203.767 337.954C203.657 341.08 199.469 340.905 196.573 341.02C193.673 341.14 188.808 341.496 188.347 342.087C188.047 342.468 187.275 344.817 186.764 346.445L189.535 346.39C193.998 346.32 202.269 346.305 204.799 346.45C207.9 346.631 212.92 347.558 213.231 348.57C213.331 348.9 213.436 349.376 213.481 349.892C212.94 349.992 212.434 350.097 211.973 350.213C210.771 350.508 207.114 351.826 203.407 353.394H203.402C198.968 353.73 188.618 354.556 186.824 355.062C186.824 355.062 186.799 355.067 186.789 355.072L186.794 355.087Z" fill="#D38A66" stroke="black" stroke-width="1.5" stroke-linecap="round" stroke-linejoin="round"/>
<path d="M181.203 344.637C181.203 344.637 184.179 346.295 186.769 346.46L181.203 344.637Z" fill="white"/>
<path d="M181.203 344.637C181.203 344.637 184.179 346.295 186.769 346.46" stroke="black" stroke-width="1.5" stroke-linecap="round" stroke-linejoin="round"/>
<path d="M205.07 365.688C203.282 365.743 201.228 365.568 199.424 365.472C196.839 365.342 193.358 365.042 190.151 364.871C189.29 364.831 188.453 364.791 187.661 364.776C186.319 364.741 185.101 364.746 184.104 364.826" fill="white"/>
<path d="M205.07 365.688C203.282 365.743 201.228 365.568 199.424 365.472C196.839 365.342 193.358 365.042 190.151 364.871C189.29 364.831 188.453 364.791 187.661 364.776C186.319 364.741 185.101 364.746 184.104 364.826" stroke="black" stroke-width="1.5" stroke-linecap="round" stroke-linejoin="round"/>
<path d="M184.465 354.701C184.465 354.701 185.241 354.902 186.424 355.202L184.465 354.701Z" fill="white"/>
<path d="M184.465 354.701C184.465 354.701 185.241 354.902 186.424 355.202" stroke="black" stroke-width="1.5" stroke-linecap="round" stroke-linejoin="round"/>
<path d="M264.972 386.874C261.535 388.823 257.963 390.882 254.326 392.996C247.598 394.845 236.682 397.73 226.582 399.95V375.903C231.321 380.842 239.452 376.569 239.452 376.569C239.452 376.569 251.085 376.414 264.346 375.973L264.972 386.869V386.874Z" fill="#7B2BE6" stroke="black" stroke-width="1.64" stroke-linecap="round" stroke-linejoin="round"/>
<path d="M191.333 400.896C181.439 398.742 170.047 395.481 162.893 393.342C162.888 393.342 162.888 393.337 162.883 393.337H162.878C156.546 389.649 150.424 386.143 144.843 383.042L145.404 374.184C157.447 374.61 167.036 374.45 167.036 374.45C167.036 374.45 172.677 376.634 175.678 376.694C178.679 376.754 184.731 372.797 186.494 372.205C187.286 371.94 188.773 371.815 190.387 371.729L191.343 400.901L191.333 400.896Z" fill="#7B2BE6" stroke="black" stroke-width="1.64" stroke-linecap="round" stroke-linejoin="round"/>
<path d="M239.392 205.621C239.392 209.824 235.219 215.385 231.848 215.385C231.572 215.385 231.306 215.355 231.056 215.305C229.758 222.409 225.645 229.698 220.4 234.768C216.202 238.841 211.272 241.486 206.503 241.486C201.403 241.486 196.078 238.4 191.659 233.766C191.484 233.575 191.303 233.39 191.128 233.195C186.604 228.25 183.118 221.712 181.95 215.305C181.705 215.355 181.444 215.385 181.169 215.385C177.792 215.385 173.624 209.819 173.624 205.621C173.624 202.339 175.292 199.544 177.632 198.477C178.283 198.176 178.994 198.011 179.731 198.011H179.751C180.718 198.011 181.524 198.767 181.695 199.724L182.882 206.513H184.565L183.383 176.379C183.508 174.485 229.804 175.041 229.929 176.94L228.461 206.518H230.134L231.327 199.729C231.497 198.777 232.298 198.016 233.27 198.016H233.29C233.947 198.016 234.588 198.146 235.184 198.392C237.629 199.384 239.397 202.244 239.397 205.626L239.392 205.621Z" fill="#D38A66" stroke="black" stroke-width="1.5" stroke-linecap="round" stroke-linejoin="round"/>
<path d="M224.909 257.888C218.441 261.675 203.843 267.627 187.32 257.362C188.493 253.955 189.93 250.819 191.654 248.023V233.766C196.077 238.4 201.403 241.486 206.498 241.486C211.272 241.486 216.202 238.841 220.395 234.768V248.018C222.208 250.959 223.701 254.276 224.904 257.883L224.909 257.888Z" fill="#D38A66" stroke="black" stroke-width="1.5" stroke-linecap="round" stroke-linejoin="round"/>
<path d="M220.4 234.768C220.4 234.768 215.997 245.108 206.503 245.108C194.895 245.108 191.659 233.766 191.659 233.766C196.083 238.4 201.408 241.486 206.503 241.486C211.277 241.486 216.207 238.841 220.4 234.768Z" fill="black" stroke="black" stroke-width="1.5" stroke-linecap="round" stroke-linejoin="round"/>
<path d="M235.73 168.619C236.03 167.862 236.196 167.036 236.196 166.169C236.196 162.467 233.195 159.471 229.498 159.471C229.488 159.471 229.483 159.471 229.473 159.471C229.237 156.43 226.702 154.035 223.601 154.035C222.529 154.035 221.527 154.326 220.66 154.827C219.553 152.833 217.424 151.48 214.979 151.48C213.101 151.48 211.412 152.282 210.225 153.559C209.003 152.071 207.144 151.12 205.065 151.12C202.986 151.12 201.082 152.097 199.86 153.625C198.913 153.109 197.826 152.818 196.674 152.818C194.334 152.818 192.28 154.025 191.088 155.844C190.216 155.428 189.244 155.188 188.217 155.188C184.605 155.188 181.669 158.058 181.549 161.645C178.739 162.432 176.67 165.007 176.67 168.068C176.67 168.499 176.715 168.919 176.79 169.325C174.876 177.21 176.56 191.358 177.622 198.477C178.273 198.176 178.984 198.011 179.721 198.011H179.741C180.708 198.011 181.514 198.768 181.685 199.724L182.872 206.513H184.555L185.106 198.307C185.231 196.413 186.178 194.665 187.696 193.512L188.668 192.781C190.246 191.584 191.143 185.351 191.203 183.362C191.203 183.362 195.506 184.455 205.421 184.71C214.974 184.956 222.008 181.484 222.008 181.484C222.073 183.473 222.745 191.584 224.333 192.781L225.305 193.512C226.823 194.66 227.769 196.408 227.895 198.307L228.446 206.513H230.119L231.311 199.724C231.482 198.773 232.283 198.011 233.255 198.011H233.275C233.931 198.011 234.573 198.141 235.169 198.387C239.056 179.46 237.704 171.74 235.72 168.614L235.73 168.619Z" fill="black" stroke="black" stroke-width="1.84" stroke-linecap="round" stroke-linejoin="round"/>
<path d="M206.503 205.436C206.739 208.151 206.143 210.941 204.82 213.341C204.575 213.772 204.023 214.428 204.089 214.964C204.089 216.367 205.702 216.572 206.789 216.823C207.44 216.968 208.101 217.068 208.768 217.168C208.096 217.234 207.415 217.234 206.734 217.188C205.246 217.088 203.512 216.843 203.377 214.994C203.277 214.288 203.828 213.541 204.169 212.97C205.466 210.666 206.138 208.066 206.508 205.436H206.503Z" fill="black"/>
<path d="M197.45 222.499H216.001C216.001 222.499 213.617 230.695 206.508 230.695C199.399 230.695 197.45 222.499 197.45 222.499Z" fill="white" stroke="black" stroke-width="1.5" stroke-linecap="round" stroke-linejoin="round"/>
<path d="M209.288 200.11H225.325C225.67 200.11 225.951 200.391 225.951 200.736V203.537C225.951 208.361 222.033 212.279 217.209 212.279H213.151C210.481 212.279 208.312 210.109 208.312 207.439V201.077C208.312 200.541 208.747 200.105 209.283 200.105L209.288 200.11Z" stroke="black" stroke-width="1.5" stroke-linecap="round" stroke-linejoin="round"/>
<path d="M225.324 200.11L232.638 197.72" stroke="black" stroke-width="1.5" stroke-linecap="round" stroke-linejoin="round"/>
<path d="M210.521 200.11H202.024" stroke="black" stroke-width="1.5" stroke-linecap="round" stroke-linejoin="round"/>
<path d="M199.178 212.279H195.12C190.296 212.279 186.378 208.361 186.378 203.537V200.736C186.378 200.39 186.659 200.11 187.005 200.11H203.041C203.577 200.11 204.013 200.546 204.013 201.082V207.444C204.013 210.114 201.843 212.284 199.173 212.284L199.178 212.279Z" stroke="black" stroke-width="1.5" stroke-linecap="round" stroke-linejoin="round"/>
<path d="M187.005 200.11L179.69 197.72" stroke="black" stroke-width="1.5" stroke-linecap="round" stroke-linejoin="round"/>
<path d="M216.758 208.902C217.74 208.902 218.536 207.832 218.536 206.512C218.536 205.193 217.74 204.123 216.758 204.123C215.776 204.123 214.979 205.193 214.979 206.512C214.979 207.832 215.776 208.902 216.758 208.902Z" fill="black"/>
<path d="M213.281 196.077C215.315 194.128 218.657 194.168 221.036 195.446C221.377 195.636 221.703 195.852 222.013 196.077C221.628 195.997 221.267 195.882 220.901 195.787C218.391 195.12 215.721 195.05 213.281 196.077Z" fill="black"/>
<path d="M200.151 196.077C197.711 195.05 195.041 195.12 192.531 195.787C192.165 195.877 191.805 195.997 191.419 196.077C191.73 195.852 192.055 195.636 192.396 195.446C194.775 194.173 198.117 194.133 200.151 196.077Z" fill="black"/>
<path d="M196.674 208.902C197.656 208.902 198.452 207.832 198.452 206.512C198.452 205.193 197.656 204.123 196.674 204.123C195.692 204.123 194.896 205.193 194.896 206.512C194.896 207.832 195.692 208.902 196.674 208.902Z" fill="black"/>
<path d="M191.654 238.239V248.018C191.654 248.018 191.133 249.151 190.432 251.21C189.134 255.082 187.225 262.251 187.055 271.434C176.56 265.698 165.107 281.203 165.107 281.203C164.456 270.056 166.756 261.69 170.242 255.453C170.688 254.661 171.149 253.9 171.625 253.178C179.52 241.195 191.649 238.234 191.649 238.234L191.654 238.239Z" fill="#D3C4F4" stroke="black" stroke-width="1.5" stroke-linecap="round" stroke-linejoin="round"/>
<path d="M246.947 281.208C246.947 281.208 237.078 265.362 226.582 271.103C226.582 262.592 223.862 255.212 222.029 251.215C221.102 249.181 220.4 248.023 220.4 248.023V238.244C220.4 238.244 232.524 241.21 240.424 253.184C240.6 253.459 240.775 253.73 240.94 254.005C241.381 254.696 241.792 255.418 242.193 256.164C243.681 258.96 244.923 262.166 245.78 265.833C246.822 270.247 247.298 275.342 246.952 281.208H246.947Z" fill="#D3C4F4" stroke="black" stroke-width="1.5" stroke-linecap="round" stroke-linejoin="round"/>
<path d="M235.905 202.77C235.905 202.77 233.57 204.479 232.684 211.302" stroke="black" stroke-width="0.9" stroke-linecap="round" stroke-linejoin="round"/>
<path d="M235.905 207.64C235.905 207.64 235.755 205.786 234.187 205.385" stroke="black" stroke-width="0.9" stroke-linecap="round" stroke-linejoin="round"/>
<path d="M176.72 202.77C176.72 202.77 179.054 204.479 179.941 211.302" stroke="black" stroke-width="0.9" stroke-linecap="round" stroke-linejoin="round"/>
<path d="M176.72 207.64C176.72 207.64 176.87 205.786 178.438 205.385" stroke="black" stroke-width="0.9" stroke-linecap="round" stroke-linejoin="round"/>
<path d="M203.847 164.18C203.732 162.457 202.299 161.089 200.546 161.089C198.792 161.089 197.234 162.572 197.234 164.4C197.234 164.856 197.33 165.292 197.495 165.688" stroke="#868686" stroke-width="1.15" stroke-linecap="round" stroke-linejoin="round"/>
<path d="M214.308 169.004C214.308 167.176 212.826 165.693 210.997 165.693C209.168 165.693 207.686 167.176 207.686 169.004C207.686 169.029 207.686 169.054 207.686 169.079" stroke="#868686" stroke-width="1.15" stroke-linecap="round" stroke-linejoin="round"/>
<path d="M199.985 169.004C199.985 167.176 198.502 165.693 196.674 165.693C194.845 165.693 193.362 167.176 193.362 169.004C193.362 169.029 193.362 169.054 193.362 169.079" stroke="#868686" stroke-width="1.15" stroke-linecap="round" stroke-linejoin="round"/>
<g style="mix-blend-mode:multiply" opacity="0.3">
<path d="M315.08 364.15C315.08 364.15 313.497 369.215 304.664 372.266C304.664 372.266 297.11 373.944 287.1 374.911C268.454 376.188 239.452 376.569 239.452 376.569C239.452 376.569 231.321 380.837 226.582 375.903C226.166 375.477 225.781 374.976 225.435 374.405C225.435 374.405 217.85 374.765 217.409 375.126C216.963 375.487 214.945 376.995 214.058 376.86C213.356 376.744 212.009 375.988 211.623 374.044C218.191 369.135 229.748 365.683 239.392 366.875C250.273 368.218 296.709 365.497 307.951 357.522C309.434 356.47 310.085 352.512 309.995 349.346C309.935 347.337 308.868 345.498 307.134 344.471C304.589 342.969 300.361 339.752 298.016 334.046C291.358 317.824 275.953 291.724 269.015 278.748C266.44 273.924 262.006 270.377 256.746 268.904L245.775 265.833C244.923 262.166 243.676 258.96 242.188 256.164L261.806 261.354C267.472 262.852 272.341 266.95 275.272 272.682C283.072 287.941 299.74 320.545 308.772 338.019C314.529 341.29 318.516 345.599 318.752 348.058C319.463 355.448 318.912 364.155 315.075 364.155L315.08 364.15Z" fill="#7B2BE6"/>
</g>
<g style="mix-blend-mode:multiply" opacity="0.3">
<path d="M197.641 370.682C196.915 371.053 196.268 371.314 195.802 371.379C194.445 371.569 192.316 371.624 190.377 371.73C188.764 371.815 187.281 371.94 186.484 372.205C184.721 372.797 178.669 376.754 175.668 376.694C172.667 376.634 167.026 374.45 167.026 374.45C167.026 374.45 144.537 374.836 125.225 372.887C108.913 371.143 102.731 368.814 100.011 366.775C93.3627 368.253 86.885 352.833 90.7476 344.642C91.5842 342.868 94.3546 339.402 98.7031 336.391C108.187 318.586 126.943 287.48 134.508 272.686C137.439 266.955 142.308 262.857 147.974 261.359L170.248 255.463C168.76 258.258 167.162 262.026 166.31 265.693L151.862 268.909C146.601 270.382 142.168 273.929 139.593 278.753C133.055 290.977 119.003 314.859 111.829 331.145C111.388 332.142 110.977 333.114 110.591 334.051C108.252 339.752 104.023 342.968 101.478 344.476C99.7451 345.498 98.678 347.337 98.6179 349.346C98.5277 352.507 99.179 356.465 100.662 357.522C100.962 357.732 101.288 357.943 101.634 358.148C114.349 365.643 158.62 368.183 169.211 366.875C178.308 365.748 181.75 370.182 197.636 370.682H197.641Z" fill="#7B2BE6"/>
</g>
<g style="mix-blend-mode:multiply" opacity="0.3">
<path d="M314.989 420.379C311.207 423.796 286.789 434.021 261.46 444.081C260.979 444.271 260.498 444.466 260.017 444.657C257.157 445.789 254.286 446.916 251.435 448.043C242.313 451.62 233.41 455.062 225.665 458.028C224.533 458.469 223.436 458.889 222.359 459.295C219.829 460.262 217.444 461.174 215.255 462.006C212.58 463.023 210.185 463.929 208.146 464.701C203.657 466.399 200.877 467.436 200.511 467.571C202.064 466.569 201.804 462.241 200.125 456.695C198.297 457.502 195.466 458.754 192.21 460.197C183.433 464.075 171.61 469.31 168.218 470.813C168.218 470.813 146.756 481.098 144.672 482.035C134.728 486.503 124.508 490.661 120.345 490.917C119.258 490.982 118.226 490.942 117.279 490.807C112.049 490.055 108.883 486.428 107.851 482.015C109.589 481.534 111.337 481.033 113.081 480.527C129.458 475.787 145.94 470.111 162.106 463.884C174.075 459.275 185.878 454.376 197.34 449.336C251.992 425.319 298.963 398.216 320.014 385.542C326.382 395.501 327.719 408.862 314.999 420.369L314.989 420.379Z" fill="#7B2BE6"/>
</g>
<g style="mix-blend-mode:multiply" opacity="0.3">
<path d="M189.58 432.162C187.121 433.695 185.603 434.647 185.287 434.843C185.277 434.848 185.267 434.853 185.257 434.863C185.247 434.873 185.237 434.873 185.227 434.883L173.734 441.911C173.614 441.977 173.489 442.052 173.364 442.117C169.862 442.417 163.369 443.009 158.575 443.62H158.57L153.119 443.915C128.521 434.267 105.807 424.693 101.624 420.379C88.3129 406.643 91.434 391.684 99.4146 381.819C102.586 388.903 109.765 400.586 124.278 406.798C132.213 410.195 158.725 420.204 189.585 432.162H189.58Z" fill="#7B2BE6"/>
</g>
<g style="mix-blend-mode:multiply" opacity="0.3">
<path d="M299.334 490.817C298.382 490.947 297.355 490.992 296.268 490.927C295.236 490.862 293.818 490.556 292.13 490.06C293.933 487.23 295.256 483.227 294.555 477.831C293.322 468.403 266.57 454.827 251.671 447.958C254.441 446.861 257.237 445.764 260.017 444.662C260.498 444.471 260.979 444.276 261.46 444.086C261.46 444.086 267.366 442.803 268.268 443.069C272.066 444.166 295.987 459.927 303.883 466.915C312.254 474.32 310.566 489.204 299.334 490.817Z" fill="#7B2BE6"/>
</g>
</svg>
