<svg width="16" height="16" viewBox="0 0 16 16" fill="none" xmlns="http://www.w3.org/2000/svg">
<path d="M11.333 7.86967C11.333 7.6392 11.333 7.524 11.3677 7.42133C11.4685 7.12293 11.7342 7.0072 12.0004 6.88593C12.2997 6.7496 12.4493 6.68147 12.5975 6.66947C12.7659 6.65585 12.9345 6.69213 13.0783 6.77287C13.2691 6.87987 13.4021 7.08327 13.5383 7.24867C14.1672 8.01253 14.4816 8.39453 14.5967 8.81573C14.6895 9.1556 14.6895 9.51107 14.5967 9.85093C14.4289 10.4653 13.8987 10.9803 13.5062 11.4569C13.3055 11.7007 13.2051 11.8227 13.0783 11.8938C12.9345 11.9745 12.7659 12.0108 12.5975 11.9972C12.4493 11.9852 12.2997 11.9171 12.0004 11.7807C11.7342 11.6595 11.4685 11.5437 11.3677 11.2453C11.333 11.1427 11.333 11.0275 11.333 10.797V7.86967Z" stroke="#BFA8F0"/>
<path d="M4.66634 7.86971C4.66634 7.57958 4.65819 7.31878 4.42361 7.11478C4.33829 7.04058 4.22517 6.98905 3.99895 6.88598C3.69968 6.74972 3.55005 6.68158 3.40178 6.66958C2.95695 6.63358 2.71762 6.93718 2.46109 7.24878C1.83217 8.01265 1.51771 8.39458 1.40265 8.81578C1.30979 9.15571 1.30979 9.51118 1.40265 9.85105C1.57047 10.4654 2.10069 10.9803 2.49315 11.457C2.74053 11.7575 2.97685 12.0316 3.40178 11.9973C3.55005 11.9853 3.69968 11.9171 3.99895 11.7808C4.22517 11.6778 4.33829 11.6262 4.42361 11.552C4.65819 11.348 4.66634 11.0873 4.66634 10.7971V7.86971Z" stroke="#BFA8F0"/>
<path d="M13.3337 7V6C13.3337 3.42267 10.9459 1.33333 8.00033 1.33333C5.05481 1.33333 2.66699 3.42267 2.66699 6V7" stroke="#BFA8F0" stroke-linecap="round" stroke-linejoin="round"/>
<path d="M13.3333 11.6667C13.3333 14.6667 10.6667 14.6667 8 14.6667" stroke="#BFA8F0" stroke-linecap="round" stroke-linejoin="round"/>
</svg>
