<svg width="194" height="52" viewBox="0 0 194 52" fill="none" xmlns="http://www.w3.org/2000/svg">
<path d="M48.7279 30.6621L34.5991 45.1755L25.2995 35.5948L34.6028 26.0326L25.2995 16.4519L34.6213 6.8712L48.7279 21.3624C49.9307 22.6116 50.6026 24.2782 50.6026 26.0122C50.6026 27.7463 49.9307 29.4129 48.7279 30.6621Z" fill="#14DD6A"/>
<path d="M29.8698 1.92746L34.6472 6.85277L6.65577 35.6059L1.87468 30.688C0.671931 29.4389 0 27.7723 0 26.0382C0 24.3041 0.671931 22.6375 1.87468 21.3883L20.8142 1.92377C21.4008 1.31506 22.1043 0.830945 22.8824 0.500397C23.6605 0.169848 24.4973 -0.000344685 25.3427 5.241e-07C26.1882 0.000345734 27.0248 0.171222 27.8027 0.502406C28.5805 0.833589 29.2836 1.31828 29.8698 1.92746Z" fill="#703CDE"/>
<path d="M34.6249 26.0178L15.9775 45.1792L6.66307 35.6059L25.3178 16.4371L34.6249 26.0178Z" fill="#A98AEB"/>
<path d="M20.7919 50.0971L15.9849 45.1755L25.3215 35.5801L34.6212 45.1644L29.8142 50.0861C29.229 50.6906 28.5284 51.1715 27.7539 51.5003C26.9794 51.829 26.1468 51.999 25.3054 52C24.464 52.001 23.631 51.8331 22.8557 51.5063C22.0804 51.1794 21.3786 50.7002 20.7919 50.0971Z" fill="#E2D8F8"/>
<path d="M61.9099 33.875V9.62109H66.725V21.1417L76.4622 9.62109H82.0977L71.8255 21.4984L82.5614 33.875H76.4622L66.725 22.6398V33.875H61.9099Z" fill="white"/>
<path d="M88.7924 21.0347H84.1912C84.7976 16.7903 87.9007 14.2222 92.7158 14.2222C98.0303 14.2222 100.741 17.361 100.741 21.7837V29.2026C100.741 31.5567 100.955 32.8764 101.312 33.875H96.5679C96.3182 33.233 96.2112 32.3057 96.1755 31.2713C94.6062 33.4827 92.2521 34.4101 89.9694 34.4101C86.2243 34.4101 83.5492 32.5553 83.5492 28.8816C83.5492 26.2778 85.0116 24.3161 87.9363 23.3531C90.4687 22.4971 92.9298 22.2831 96.1399 22.2474V21.7837C96.1399 19.3227 94.9629 18.003 92.4305 18.003C90.2547 18.003 89.0777 19.2157 88.7924 21.0347ZM88.1503 28.6319C88.1503 30.0943 89.2917 31.0216 91.1464 31.0216C93.9642 31.0216 96.1399 28.7389 96.1399 25.8855V25.0652C89.6484 25.1722 88.1503 26.7059 88.1503 28.6319Z" fill="white"/>
<path d="M105.094 33.875V14.7572H109.66V17.3253C110.908 15.2566 112.906 14.2222 115.331 14.2222C119.147 14.2222 121.751 16.5049 121.751 21.1417V33.875H117.186V22.0691C117.186 19.4653 116.08 18.003 113.762 18.003C111.229 18.003 109.66 20.2144 109.66 22.7824V33.875H105.094Z" fill="white"/>
<path d="M133.128 34.4101C128.134 34.4101 125.067 30.5936 125.067 24.3518C125.067 17.8603 128.206 14.2222 133.128 14.2222C135.232 14.2222 136.98 15.1139 138.157 16.8259V8.19439H142.722V33.875H138.157V31.6993C136.944 33.447 135.232 34.4101 133.128 34.4101ZM133.948 30.6293C136.694 30.6293 138.157 28.4179 138.157 24.3518C138.157 20.2857 136.623 18.003 133.948 18.003C131.237 18.003 129.775 20.25 129.775 24.3518C129.775 28.3822 131.273 30.6293 133.948 30.6293Z" fill="white"/>
<path d="M164.334 27.6332C163.299 32.056 159.875 34.4101 155.31 34.4101C149.532 34.4101 146.001 30.5936 146.001 24.3518C146.001 17.8603 149.567 14.2222 155.132 14.2222C160.731 14.2222 164.191 18.003 164.191 24.1735V25.2435H150.709C150.923 28.7389 152.528 30.665 155.31 30.665C157.45 30.665 158.912 29.6663 159.519 27.6332H164.334ZM155.132 17.9673C152.706 17.9673 151.244 19.501 150.816 22.3901H159.412C158.984 19.5367 157.521 17.9673 155.132 17.9673Z" fill="white"/>
<path d="M167.617 33.875V8.19439H172.183V33.875H167.617Z" fill="white"/>
<path d="M180.783 21.0347H176.182C176.788 16.7903 179.891 14.2222 184.706 14.2222C190.021 14.2222 192.731 17.361 192.731 21.7837V29.2026C192.731 31.5567 192.945 32.8764 193.302 33.875H188.558C188.308 33.233 188.202 32.3057 188.166 31.2713C186.596 33.4827 184.242 34.4101 181.96 34.4101C178.215 34.4101 175.54 32.5553 175.54 28.8816C175.54 26.2778 177.002 24.3161 179.927 23.3531C182.459 22.4971 184.92 22.2831 188.13 22.2474V21.7837C188.13 19.3227 186.953 18.003 184.421 18.003C182.245 18.003 181.068 19.2157 180.783 21.0347ZM180.141 28.6319C180.141 30.0943 181.282 31.0216 183.137 31.0216C185.954 31.0216 188.13 28.7389 188.13 25.8855V25.0652C181.639 25.1722 180.141 26.7059 180.141 28.6319Z" fill="white"/>
<path d="M61.9666 45.2286V36.5819H67.1512V37.5108H63.0137V40.4324H66.7628V41.3612H63.0137V45.2286H61.9666Z" fill="white"/>
<path d="M68.8094 45.2286V38.7436H69.8058V45.2286H68.8094ZM69.3161 37.6628C69.1219 37.6628 68.9544 37.5966 68.8137 37.4643C68.6757 37.332 68.6068 37.173 68.6068 36.9872C68.6068 36.8015 68.6757 36.6424 68.8137 36.5102C68.9544 36.3779 69.1219 36.3117 69.3161 36.3117C69.5103 36.3117 69.6764 36.3779 69.8143 36.5102C69.955 36.6424 70.0254 36.8015 70.0254 36.9872C70.0254 37.173 69.955 37.332 69.8143 37.4643C69.6764 37.5966 69.5103 37.6628 69.3161 37.6628Z" fill="white"/>
<path d="M72.6272 41.3275V45.2286H71.6308V38.7436H72.5934V39.7569H72.6778C72.8298 39.4276 73.0606 39.163 73.3703 38.9632C73.6799 38.7605 74.0796 38.6592 74.5693 38.6592C75.0084 38.6592 75.3926 38.7492 75.7219 38.9294C76.0512 39.1067 76.3074 39.3769 76.4903 39.74C76.6733 40.1003 76.7648 40.5563 76.7648 41.1079V45.2286H75.7684V41.1755C75.7684 40.666 75.6361 40.2692 75.3715 39.9849C75.1069 39.6978 74.7438 39.5542 74.2822 39.5542C73.9641 39.5542 73.6799 39.6232 73.4294 39.7611C73.1817 39.899 72.9861 40.1003 72.8425 40.3649C72.699 40.6294 72.6272 40.9503 72.6272 41.3275Z" fill="white"/>
<path d="M80.4939 45.3806C80.0829 45.3806 79.71 45.3032 79.375 45.1484C79.0401 44.9908 78.7741 44.7642 78.5771 44.4687C78.38 44.1703 78.2815 43.81 78.2815 43.3878C78.2815 43.0163 78.3547 42.7151 78.5011 42.4843C78.6474 42.2507 78.8431 42.0677 79.0879 41.9354C79.3328 41.8032 79.603 41.7046 79.8985 41.6399C80.1969 41.5724 80.4967 41.5189 80.7978 41.4795C81.1919 41.4288 81.5114 41.3908 81.7562 41.3655C82.0039 41.3373 82.1841 41.2909 82.2967 41.2261C82.4121 41.1614 82.4698 41.0488 82.4698 40.8884V40.8546C82.4698 40.438 82.3558 40.1144 82.1278 39.8835C81.9026 39.6527 81.5606 39.5373 81.1018 39.5373C80.6261 39.5373 80.2532 39.6415 79.983 39.8498C79.7128 40.0581 79.5228 40.2804 79.413 40.5168L78.4673 40.1791C78.6362 39.785 78.8613 39.4782 79.1428 39.2587C79.4271 39.0363 79.7367 38.8815 80.0717 38.7943C80.4094 38.7042 80.7415 38.6592 81.068 38.6592C81.2763 38.6592 81.5156 38.6845 81.7858 38.7352C82.0588 38.783 82.322 38.8829 82.5753 39.0349C82.8314 39.1869 83.0439 39.4163 83.2128 39.7231C83.3817 40.0299 83.4661 40.4409 83.4661 40.9559V45.2286H82.4698V44.3504H82.4191C82.3515 44.4912 82.239 44.6418 82.0813 44.8022C81.9237 44.9626 81.714 45.0991 81.4522 45.2117C81.1905 45.3243 80.871 45.3806 80.4939 45.3806ZM80.6459 44.4855C81.0399 44.4855 81.372 44.4081 81.6422 44.2533C81.9153 44.0985 82.1207 43.8987 82.2587 43.6538C82.3994 43.4089 82.4698 43.1514 82.4698 42.8812V41.9692C82.4275 42.0199 82.3346 42.0663 82.1911 42.1086C82.0504 42.148 81.8871 42.1831 81.7013 42.2141C81.5184 42.2422 81.3397 42.2676 81.1652 42.2901C80.9935 42.3098 80.8541 42.3267 80.7472 42.3408C80.4882 42.3745 80.2462 42.4294 80.021 42.5054C79.7986 42.5786 79.6185 42.6898 79.4806 42.839C79.3455 42.9853 79.2779 43.1852 79.2779 43.4385C79.2779 43.7847 79.406 44.0465 79.6621 44.2238C79.9211 44.3983 80.249 44.4855 80.6459 44.4855Z" fill="white"/>
<path d="M86.2812 41.3275V45.2286H85.2848V38.7436H86.2474V39.7569H86.3318C86.4838 39.4276 86.7146 39.163 87.0243 38.9632C87.3339 38.7605 87.7335 38.6592 88.2233 38.6592C88.6624 38.6592 89.0466 38.7492 89.3759 38.9294C89.7052 39.1067 89.9614 39.3769 90.1443 39.74C90.3273 40.1003 90.4187 40.5563 90.4187 41.1079V45.2286H89.4224V41.1755C89.4224 40.666 89.2901 40.2692 89.0255 39.9849C88.7609 39.6978 88.3978 39.5542 87.9362 39.5542C87.6181 39.5542 87.3339 39.6232 87.0834 39.7611C86.8357 39.899 86.64 40.1003 86.4965 40.3649C86.3529 40.6294 86.2812 40.9503 86.2812 41.3275Z" fill="white"/>
<path d="M94.874 45.3637C94.2661 45.3637 93.7425 45.2202 93.3034 44.9331C92.8644 44.646 92.5266 44.2505 92.2902 43.7467C92.0537 43.2429 91.9355 42.6673 91.9355 42.0199C91.9355 41.3612 92.0565 40.78 92.2986 40.2762C92.5435 39.7696 92.884 39.3741 93.3203 39.0898C93.7594 38.8027 94.2717 38.6592 94.8571 38.6592C95.3131 38.6592 95.7241 38.7436 96.09 38.9125C96.4559 39.0814 96.7556 39.3178 96.9893 39.6218C97.2229 39.9258 97.3678 40.2804 97.4241 40.6857H96.4277C96.3517 40.3902 96.1829 40.1284 95.9211 39.9004C95.6621 39.6696 95.3131 39.5542 94.874 39.5542C94.4856 39.5542 94.145 39.6556 93.8523 39.8582C93.5624 40.0581 93.3358 40.3409 93.1726 40.7068C93.0121 41.0699 92.9319 41.4964 92.9319 41.9861C92.9319 42.4871 93.0107 42.9234 93.1683 43.2949C93.3288 43.6665 93.5539 43.955 93.8439 44.1604C94.1366 44.3659 94.48 44.4687 94.874 44.4687C95.133 44.4687 95.368 44.4236 95.5791 44.3335C95.7902 44.2435 95.9689 44.114 96.1153 43.9451C96.2617 43.7762 96.3658 43.5736 96.4277 43.3372H97.4241C97.3678 43.72 97.2285 44.0648 97.0061 44.3715C96.7866 44.6755 96.4953 44.9176 96.1322 45.0977C95.7719 45.2751 95.3525 45.3637 94.874 45.3637Z" fill="white"/>
<path d="M101.6 45.3637C100.975 45.3637 100.436 45.2258 99.9827 44.95C99.5323 44.6713 99.1847 44.2829 98.9398 43.7847C98.6978 43.2837 98.5767 42.701 98.5767 42.0368C98.5767 41.3725 98.6978 40.7871 98.9398 40.2804C99.1847 39.771 99.5253 39.3741 99.9616 39.0898C100.401 38.8027 100.913 38.6592 101.498 38.6592C101.836 38.6592 102.17 38.7155 102.499 38.828C102.828 38.9406 103.128 39.1236 103.398 39.3769C103.668 39.6274 103.884 39.9595 104.044 40.3733C104.205 40.7871 104.285 41.2965 104.285 41.9017V42.3239H99.286V41.4626H103.272C103.272 41.0967 103.198 40.7702 103.052 40.4831C102.909 40.196 102.703 39.9694 102.436 39.8033C102.171 39.6373 101.859 39.5542 101.498 39.5542C101.102 39.5542 100.758 39.6527 100.468 39.8498C100.181 40.044 99.9602 40.2973 99.8053 40.6097C99.6505 40.9222 99.5731 41.2571 99.5731 41.6146V42.1888C99.5731 42.6785 99.6576 43.0937 99.8265 43.4343C99.9981 43.772 100.236 44.0296 100.54 44.2069C100.844 44.3814 101.197 44.4687 101.6 44.4687C101.861 44.4687 102.098 44.4321 102.309 44.3589C102.523 44.2829 102.707 44.1703 102.862 44.0211C103.017 43.8691 103.136 43.6805 103.221 43.4554L104.184 43.7256C104.082 44.0521 103.912 44.3392 103.673 44.5869C103.433 44.8317 103.138 45.0231 102.786 45.1611C102.434 45.2962 102.039 45.3637 101.6 45.3637Z" fill="white"/>
</svg>
